<svg width="168" height="209" viewBox="0 0 168 209" fill="none" xmlns="http://www.w3.org/2000/svg">
<path opacity="0.18" d="M153.815 168.636L153.715 167.836L148.815 168.536L153.715 167.736C153.215 163.736 152.415 158.036 152.315 154.036C152.115 150.836 153.615 146.536 149.715 145.236C149.815 141.336 150.015 137.536 146.915 134.036C145.515 125.636 144.515 112.836 140.915 104.536C142.515 99.9356 146.815 94.6356 138.915 92.7356C131.415 88.5356 121.515 75.7356 111.315 76.0356L109.815 70.4356C116.815 66.7356 117.215 53.6356 111.015 49.0356C111.515 47.3356 111.715 45.4356 111.515 43.6356C114.615 42.0356 114.815 37.0356 111.815 35.2356C110.915 33.6356 110.115 32.4356 106.115 30.2356C108.915 22.8356 99.6148 15.9356 96.4148 24.9356C96.4148 24.9356 96.3148 25.0356 96.2148 25.0356C94.8148 22.6356 92.2148 19.8356 87.5148 18.2356C88.8148 12.6356 86.3148 10.2356 82.4148 9.43558C79.6148 6.43558 72.3148 6.73559 71.0148 11.1356C62.2148 11.2356 52.5148 13.2356 47.0148 3.53558C40.9148 -3.66442 35.0148 5.43558 38.8148 12.3356C33.1148 12.8356 18.5148 22.7356 30.3148 27.0356C30.4148 27.4356 30.4148 27.9356 30.6148 28.3356C28.4148 30.9356 27.1148 35.2356 27.7148 38.5356C26.6148 38.9356 25.7148 39.7356 25.1148 40.7356C19.7148 43.4356 22.6148 51.3356 27.6148 52.5356C27.0148 53.8356 26.1148 55.2356 25.2148 56.6356C18.6148 56.8356 11.2148 60.2356 14.0148 68.1356C8.71483 73.5356 5.01483 84.9356 7.91483 95.0356C7.11483 96.3356 7.01483 98.0356 7.61483 99.5356C7.41483 100.136 7.41483 100.636 7.41483 101.236C1.51483 104.936 -3.38517 108.836 3.01483 113.336C4.21483 123.236 1.61483 132.136 5.91483 144.936C3.61483 149.036 7.61483 152.336 7.41483 157.436C7.41483 160.036 7.31483 162.736 7.31483 165.636C5.31483 166.636 4.21483 168.836 4.71483 171.036C5.61483 173.836 5.51483 181.436 8.81483 182.836C12.7148 194.436 19.5148 202.036 32.9148 200.536C33.4148 203.036 35.6148 205.236 38.2148 205.236H74.4148C84.0148 203.636 80.3148 185.736 71.6148 185.436C70.7148 184.836 69.5148 183.836 68.9148 182.736C73.2148 181.036 80.0148 179.436 85.1148 178.336C86.0148 183.636 90.8148 188.736 95.8148 191.636C90.2148 193.536 88.3148 195.736 87.2148 200.136C86.7148 202.036 86.7148 204.136 87.7148 205.836C88.6148 207.536 90.4148 208.736 92.3148 208.736H121.415C124.215 208.736 126.315 206.436 126.515 203.736C127.815 204.536 129.415 205.336 131.315 206.036C141.815 209.236 168.915 213.536 167.315 196.136C164.915 187.336 166.415 168.236 153.815 168.636Z" fill="url(#paint0_linear_3_502)"/>
<path d="M153.815 167.336L153.715 166.536L148.815 167.236L153.715 166.436C153.215 162.436 152.415 156.736 152.315 152.836C152.115 149.736 153.615 145.336 149.715 144.036C149.815 140.136 150.015 136.336 146.915 132.936C145.515 124.536 144.515 111.836 140.915 103.436C142.515 98.8355 146.815 93.6356 138.915 91.6356C131.415 87.4356 121.515 74.6356 111.315 75.0356L109.815 69.4355C116.815 65.7355 117.215 52.6356 111.015 48.0356C111.515 46.3356 111.715 44.4356 111.515 42.6356C114.615 41.0356 114.815 36.0355 111.815 34.2355C110.915 32.6355 110.115 31.4356 106.115 29.3356C108.915 21.9356 99.6148 15.0356 96.4148 24.0356C96.4148 24.0356 96.3148 24.1356 96.2148 24.1356C94.8148 21.7356 92.2148 19.0356 87.5148 17.3356C88.8148 11.7356 86.3148 9.33555 82.4148 8.53555C79.6148 5.53555 72.3148 5.83555 71.0148 10.2356C62.2148 10.3356 52.5148 12.2356 47.0148 2.63556C40.9148 -4.56444 35.0148 4.53555 38.8148 11.4355C33.1148 11.9355 18.5148 21.8356 30.3148 26.1356C30.4148 26.5356 30.4148 27.0355 30.6148 27.4355C28.4148 30.0355 27.1148 34.2356 27.7148 37.5356C26.6148 37.9356 25.7148 38.7355 25.1148 39.7355C19.7148 42.4355 22.6148 50.3355 27.6148 51.4355C27.0148 52.7355 26.1148 54.0356 25.2148 55.5356C18.6148 55.7356 11.2148 59.1355 14.0148 66.9355C8.71483 72.3355 5.01483 83.7355 7.91483 93.8355C7.11483 95.1355 7.01483 96.8355 7.61483 98.3355C7.41483 98.9355 7.41483 99.4356 7.41483 100.036C1.51483 103.736 -3.38517 107.636 3.01483 112.136C4.21483 122.036 1.61483 130.936 5.91483 143.636C3.61483 147.736 7.61483 150.936 7.41483 156.136C7.41483 158.636 7.31483 161.436 7.31483 164.336C5.31483 165.336 4.21483 167.536 4.71483 169.736C5.61483 172.536 5.51483 180.136 8.81483 181.436C12.7148 193.036 19.5148 200.536 32.9148 199.036C33.4148 201.536 35.6148 203.736 38.2148 203.736H74.4148C84.0148 202.136 80.3148 184.236 71.6148 183.936C70.7148 183.336 69.5148 182.336 68.9148 181.236C73.2148 179.536 80.0148 177.936 85.1148 176.836C86.0148 182.136 90.8148 187.236 95.8148 190.136C90.2148 192.036 88.3148 194.236 87.2148 198.636C86.7148 200.536 86.7148 202.636 87.7148 204.336C88.6148 206.036 90.4148 207.236 92.3148 207.236H121.415C124.215 207.236 126.315 204.936 126.515 202.236C127.815 203.036 129.415 203.836 131.315 204.536C141.815 207.736 168.915 212.036 167.315 194.636C164.915 185.936 166.415 166.836 153.815 167.336Z" fill="white"/>
<path d="M33.4149 37.8355C32.4149 37.5355 32.2149 35.4355 33.0149 33.2355C33.8149 31.0355 35.2149 29.5355 36.2149 29.8355L38.3149 30.5355L35.6149 38.5355L33.4149 37.8355Z" fill="url(#paint1_linear_3_502)"/>
<path d="M45.0148 35.0355L39.0148 33.0355C39.1148 31.7355 38.8148 30.7355 38.1148 30.5355C37.1148 30.2355 35.7148 31.7355 34.9148 33.9355C34.1148 36.1355 34.3148 38.2355 35.3148 38.5355C36.0148 38.7355 36.8148 38.1355 37.5148 37.1355L43.5148 39.1355C47.9148 36.7355 45.0148 35.0355 45.0148 35.0355Z" fill="url(#paint2_linear_3_502)"/>
<path opacity="0.61" d="M45.0147 35.0356C46.0147 39.6356 43.8147 35.0356 43.8147 35.0356C45.3147 41.6356 42.2147 34.8356 42.2147 34.8356C43.0147 40.8356 40.8147 34.4355 40.8147 34.4355C42.4147 39.5355 39.4147 33.7355 39.4147 33.7355C41.7147 38.2355 38.3147 36.1356 38.3147 36.1356C38.3147 36.1356 36.8147 36.5356 37.3147 34.6356C37.8147 32.7356 38.9147 33.0356 38.9147 33.0356C38.9147 33.0356 37.1147 32.3355 36.1147 35.7355C33.8147 35.4355 33.4147 33.7355 33.4147 32.4355C33.3147 32.7355 33.2147 32.9355 33.1147 33.2355C32.3147 35.4355 32.5147 37.5356 33.5147 37.8356L35.6147 38.5356C36.3147 38.7356 37.1147 38.1356 37.8147 37.1356L43.8147 39.1356C47.9147 36.7356 45.0147 35.0356 45.0147 35.0356Z" fill="url(#paint3_linear_3_502)"/>
<path d="M16.2148 185.136C16.2148 185.136 19.0148 193.036 25.0148 193.836C31.1148 194.636 44.9148 193.936 48.1148 192.736C51.2148 191.436 52.1148 186.636 51.6148 184.036C51.1148 181.536 46.9148 171.436 42.7148 174.536C42.7148 174.536 41.9148 171.036 38.5148 171.936C35.1148 172.836 35.5148 175.636 35.5148 175.636L16.2148 185.136Z" fill="url(#paint4_linear_3_502)"/>
<path opacity="0.54" d="M48.1149 192.636C51.2149 191.336 52.1149 186.536 51.6149 183.936C51.1149 181.436 46.9149 171.336 42.7149 174.436C42.7149 174.436 41.9149 170.936 38.5149 171.836C35.1149 172.736 35.5149 175.536 35.5149 175.536L23.0149 181.736C21.3149 183.836 20.0149 185.436 20.0149 185.436C20.0149 185.436 23.9149 187.636 31.2149 186.736C38.5149 185.836 38.0149 197.736 21.3149 192.336C22.4149 193.136 23.6149 193.636 25.0149 193.836C31.1149 194.636 44.9149 193.936 48.1149 192.636Z" fill="url(#paint5_linear_3_502)"/>
<path opacity="0.54" d="M48.6148 185.436C49.8148 187.736 45.5148 188.936 39.7148 187.936C39.7148 187.936 49.2148 189.836 49.5148 186.636C49.7148 183.536 43.3148 181.736 43.3148 181.736C43.3148 181.736 41.5148 174.336 44.6148 173.936C44.0148 173.936 43.4148 174.036 42.8148 174.536C42.8148 174.536 41.4148 175.436 41.7148 181.336L38.4148 180.236C38.4148 180.236 36.2148 173.536 39.2148 171.836C39.0148 171.836 38.8148 171.936 38.6148 171.936C35.2148 172.836 35.6148 175.636 35.6148 175.636L29.9148 179.636C33.0148 181.236 47.5148 183.336 48.6148 185.436Z" fill="url(#paint6_linear_3_502)"/>
<path d="M125.215 193.936C125.215 193.936 127.715 200.936 144.815 202.136C161.815 203.336 162.915 198.736 162.615 196.136C162.215 193.536 159.315 173.336 156.515 172.636C153.715 171.936 151.615 172.736 151.515 173.636C151.515 173.636 150.915 171.236 147.515 171.436C144.215 171.736 144.715 174.636 144.415 174.636C144.115 174.636 143.315 172.936 141.815 174.236C140.115 175.636 125.215 193.936 125.215 193.936Z" fill="url(#paint7_linear_3_502)"/>
<path opacity="0.54" d="M162.515 196.036C162.115 193.436 159.215 173.236 156.415 172.536C153.615 171.836 151.515 172.636 151.415 173.536C151.415 173.536 150.815 171.136 147.415 171.336C144.115 171.636 144.615 174.536 144.315 174.536C144.015 174.536 143.215 172.836 141.715 174.136C141.315 174.436 140.215 175.736 138.715 177.536C139.915 184.436 141.615 192.736 141.615 192.736C141.615 192.736 151.915 196.936 147.315 200.336C144.615 202.236 138.215 201.136 133.115 199.836C135.915 200.836 139.715 201.736 144.715 202.136C161.815 203.336 162.915 198.736 162.515 196.036Z" fill="url(#paint8_linear_3_502)"/>
<path opacity="0.54" d="M153.415 188.936C148.015 171.536 155.515 172.436 155.515 172.436C155.515 172.436 155.515 172.436 155.515 172.336C153.115 171.936 151.515 172.736 151.315 173.536C149.215 180.636 150.915 185.536 152.315 188.036C149.415 186.136 146.815 186.136 146.815 186.136C146.815 186.136 142.515 192.336 147.715 190.136C152.915 187.936 156.815 193.236 156.815 193.236C155.815 191.336 154.615 189.936 153.415 188.936Z" fill="url(#paint9_linear_3_502)"/>
<path d="M18.4148 97.9355C18.4148 97.9355 18.0148 98.4355 11.9148 102.936C5.81484 107.436 5.21484 107.636 5.21484 107.636C5.21484 107.636 7.81484 107.936 8.41484 113.236C9.01484 118.436 6.31484 131.736 11.8148 145.036L10.2148 146.336C10.2148 146.336 12.5148 151.836 12.5148 156.136C12.5148 160.436 11.9148 170.536 13.3148 174.936C14.7148 179.336 35.5148 175.536 35.5148 175.536C35.5148 175.536 37.1148 160.936 38.6148 156.336C38.6148 156.336 31.9148 141.536 38.6148 129.036C45.3148 116.636 18.4148 97.9355 18.4148 97.9355Z" fill="url(#paint10_linear_3_502)"/>
<path d="M12.3149 176.736L15.5149 185.036C15.5149 185.036 30.7149 187.336 37.7149 180.936L36.1149 176.236L12.3149 176.736Z" fill="#7CB9CE"/>
<path opacity="0.54" d="M36.1149 176.236L12.3149 176.736L13.4149 179.636C23.2149 183.236 25.4149 178.836 27.0149 181.536C28.1149 183.336 25.0149 184.736 22.6149 185.436C27.5149 185.336 33.8149 184.436 37.6149 180.936L36.1149 176.236Z" fill="url(#paint11_linear_3_502)"/>
<path d="M11.2147 177.136C11.2147 177.136 20.6147 183.236 37.0147 178.336L37.7147 172.436C37.7147 172.436 20.5147 176.336 9.61475 168.936L11.2147 177.136Z" fill="#1F2744"/>
<path opacity="0.54" d="M37.0148 178.236L37.7148 172.336C37.7148 172.336 37.0148 172.536 35.9148 172.636C36.4148 168.136 37.6148 159.636 38.6148 156.336C38.6148 156.336 31.9148 141.536 38.6148 129.036C45.3148 116.636 18.4148 97.9355 18.4148 97.9355C18.4148 97.9355 18.0148 98.4355 11.9148 102.936C11.9148 102.936 35.6148 110.336 28.6148 142.036C26.6148 151.136 13.6148 144.036 13.6148 144.036C13.6148 144.036 24.7148 152.336 28.6148 145.836C28.6148 145.836 25.3148 154.336 16.9148 147.636C16.9148 147.636 21.2148 155.536 28.6148 153.936C36.0148 152.436 39.5148 171.936 16.2148 172.636C16.2148 172.636 45.5148 180.036 14.0148 178.236C17.9148 179.836 25.8148 181.636 37.0148 178.236Z" fill="url(#paint12_linear_3_502)"/>
<path d="M59.6149 168.436C59.6149 168.436 52.0149 177.936 53.6149 181.736C55.2149 185.536 60.7149 189.436 60.7149 189.436L72.1149 190.036C72.1149 190.036 62.7149 186.036 63.4149 179.036C63.7149 175.536 89.5149 170.736 89.5149 170.736C89.5149 170.736 88.6149 178.236 94.3149 182.836C99.9149 187.436 108.715 191.936 108.715 191.936L116.615 189.036C116.615 189.036 103.215 180.836 103.515 175.936C103.815 171.036 107.415 169.736 105.815 165.736C104.115 161.736 69.6149 155.536 69.6149 155.536L59.6149 168.436Z" fill="#1F2744"/>
<path opacity="0.54" d="M101.115 169.636C101.115 169.636 96.8148 175.636 101.115 179.536C105.415 183.436 106.215 187.936 97.1148 184.336C96.4148 184.036 95.7148 183.736 95.1148 183.536C100.615 187.736 108.715 192.136 108.715 192.136L116.615 189.236C116.615 189.236 103.215 181.036 103.515 176.136C103.815 171.236 107.415 169.936 105.815 165.936C104.115 161.936 69.6148 155.736 69.6148 155.736L59.5148 168.336C59.5148 168.336 58.2148 170.036 56.7148 172.236C56.9148 172.336 78.0148 160.036 101.115 169.636Z" fill="url(#paint13_linear_3_502)"/>
<path opacity="0.54" d="M60.8148 189.536L72.2148 190.136C72.2148 190.136 62.8148 186.136 63.5148 179.136C63.8148 175.636 89.6148 170.836 89.6148 170.836C89.6148 170.836 86.1148 166.336 69.0148 170.736C70.5148 170.336 76.8148 169.036 81.2148 170.836C81.2148 170.836 57.0148 173.936 62.7148 181.436C68.4148 188.936 57.2148 187.836 53.7148 181.736C55.3148 185.636 60.8148 189.536 60.8148 189.536Z" fill="url(#paint14_linear_3_502)"/>
<path d="M17.7149 94.5355C17.7149 94.5355 12.8149 105.636 19.6149 117.736C26.4149 129.836 57.8149 161.536 57.8149 161.536C57.8149 161.536 53.9149 164.136 59.9149 163.736C59.9149 163.736 56.9149 166.636 59.9149 166.436L57.3149 170.836C57.3149 170.836 72.7149 164.836 76.0149 160.336C76.0149 160.336 102.215 169.136 108.615 168.636L105.915 161.536C105.915 161.536 108.315 163.236 106.515 159.736C106.515 159.736 108.215 159.436 107.415 157.436C107.415 157.436 115.515 148.436 114.815 143.436C114.115 138.436 114.815 99.1355 114.815 99.1355L17.7149 94.5355Z" fill="url(#paint15_linear_3_502)"/>
<path d="M39.2148 118.936V127.136L47.2148 130.336L48.4148 137.536L55.9148 138.136L74.1148 152.436L96.3148 136.736L95.1148 130.236L102.315 127.536L94.3148 116.336L39.2148 118.936Z" fill="#242C51"/>
<path d="M41.0149 121.336C41.0149 121.336 59.3149 140.836 73.0149 147.736C73.0149 147.736 103.515 133.036 91.5149 123.736C79.5149 114.536 41.0149 121.336 41.0149 121.336Z" fill="#7CB9CE"/>
<path d="M64.6148 129.136L64.0148 131.136C63.7148 132.336 64.4148 133.636 65.6148 133.936L68.9148 134.736C69.7148 134.936 70.5148 134.736 71.0148 134.136L71.5148 133.636C72.5148 132.636 72.4149 131.036 71.2149 130.236L68.0148 127.936C66.8148 127.036 65.1148 127.636 64.6148 129.136Z" fill="#1F2744"/>
<path d="M69.5149 134.336L68.5149 145.636L73.0149 147.836L78.5149 144.936L70.8149 133.736L69.5149 134.336Z" fill="#1F2744"/>
<path opacity="0.54" d="M59.9149 163.636C59.9149 163.636 56.9149 166.536 59.9149 166.336L57.3149 170.736C57.3149 170.736 72.7149 164.736 76.0149 160.236C76.0149 160.236 102.215 169.036 108.615 168.536L105.915 161.436C105.915 161.436 108.315 163.136 106.515 159.636C106.515 159.636 108.215 159.336 107.415 157.336C107.415 157.336 115.515 148.336 114.815 143.336C114.515 141.336 114.515 133.836 114.515 125.636C114.215 125.136 113.815 124.636 113.515 124.336C108.415 118.136 94.2149 105.536 94.2149 105.536C94.2149 105.536 90.8149 103.036 86.5149 100.136L20.0149 102.536C18.9149 103.336 18.3149 103.936 18.3149 103.936C18.3149 103.936 37.1149 131.636 69.8149 139.436C102.515 147.336 101.115 155.836 92.4149 154.636C83.7149 153.436 72.4149 155.136 63.3149 159.036C63.3149 159.036 77.1149 153.836 92.2149 156.336C92.2149 156.336 73.3149 154.836 63.5149 161.336C63.5149 161.336 77.7149 154.736 91.0149 157.536C91.0149 157.536 81.3149 156.636 72.9149 159.036C72.9149 159.036 85.1149 156.736 91.6149 158.636C98.0149 160.536 75.6149 159.236 75.6149 159.236C75.6149 159.236 56.4149 168.436 62.5149 162.136C62.5149 162.136 57.2149 162.436 61.8149 159.436C61.8149 159.436 55.6149 156.936 46.8149 150.036C52.9149 156.536 57.6149 161.236 57.6149 161.236C57.6149 161.236 54.0149 164.136 59.9149 163.636Z" fill="url(#paint16_linear_3_502)"/>
<path d="M34.1148 44.4355C34.1148 44.4355 39.7148 40.9355 43.2148 33.4355C46.6148 25.9355 47.6148 19.1355 66.0148 21.8355C84.5148 24.5355 92.9148 26.6355 100.615 55.7355C100.615 55.7355 103.015 48.6355 107.915 52.0355C112.815 55.4355 110.415 68.9355 103.415 64.7355L110.515 90.3355C110.515 90.3355 103.115 150.736 48.6148 125.936C-5.88515 101.036 14.0148 68.3355 23.0148 67.1355C23.0148 67.1355 36.8148 50.6355 34.1148 44.4355Z" fill="url(#paint17_linear_3_502)"/>
<path opacity="0.54" d="M48.5149 125.836C102.915 150.636 110.415 90.2355 110.415 90.2355L103.315 64.6355C110.315 68.8355 112.715 55.4355 107.815 51.9355C102.915 48.5355 100.515 55.6355 100.515 55.6355C92.9149 26.5355 84.4149 24.4355 65.9149 21.7355C48.3149 19.2355 46.6149 25.2355 43.5149 32.2355C57.8149 24.8355 81.4149 33.7355 69.3149 32.0355C57.2149 30.3355 49.6149 31.7355 49.6149 31.7355C62.8149 30.4355 77.7149 34.9355 68.9149 33.6355C60.1149 32.3355 46.0149 32.8355 46.0149 32.8355C46.0149 32.8355 71.3149 33.7355 78.2149 35.7355C85.0149 37.7355 81.3149 47.0355 81.3149 47.0355C81.3149 47.0355 68.0149 47.9355 67.3149 47.9355C66.5149 47.9355 60.4149 47.6355 64.3149 45.6355C68.2149 43.5355 66.8149 37.4355 55.9149 37.4355C45.0149 37.4355 48.1149 43.8355 48.1149 43.8355L47.6149 47.4355L34.2149 44.8355C34.7149 46.4355 34.2149 48.5355 33.3149 50.9355C34.7149 47.8355 43.8149 54.2355 43.8149 54.2355C39.8149 56.0355 34.2149 54.5355 34.2149 54.5355C39.2149 56.7355 45.4149 54.9355 45.4149 54.9355C39.4149 57.4355 35.8149 56.1355 35.8149 56.1355C39.1149 57.6355 44.5149 56.5355 44.5149 56.5355C42.2149 60.2355 51.0149 63.9355 54.7149 64.5355C58.5149 65.1355 62.8149 62.7355 65.5149 60.3355C68.2149 57.9355 64.9149 56.5355 64.9149 56.5355C67.4149 60.1355 62.6149 60.1355 60.3149 60.9355C58.0149 61.7355 47.0149 62.2355 45.4149 58.8355C43.8149 55.5355 51.4149 52.4355 51.4149 52.4355C51.4149 52.4355 56.8149 49.4355 66.5149 54.9355C76.3149 60.4355 81.8149 55.7355 81.8149 55.7355C76.4149 57.7355 73.3149 56.5355 73.3149 56.5355C76.7149 57.1355 81.1149 55.2355 81.1149 55.2355C76.7149 56.5355 72.0149 55.3355 72.0149 55.3355C79.4149 56.0355 85.3149 50.9355 85.3149 50.9355C94.1149 54.2355 85.3149 83.9355 80.5149 76.5355C75.8149 69.2355 70.3149 68.5355 50.9149 66.2355C31.5149 63.9355 23.0149 66.8355 23.0149 66.8355C41.4149 64.2355 73.6149 69.8355 76.4149 73.2355C81.2149 79.1355 95.4149 122.336 51.7149 115.436C26.4149 111.436 16.3149 99.4355 12.3149 89.9355C14.1149 101.236 23.4149 114.336 48.5149 125.836Z" fill="url(#paint18_linear_3_502)"/>
<path d="M138.515 96.6355C138.515 96.6355 135.515 97.1355 126.615 88.4355C117.715 79.7355 106.915 76.3355 100.615 85.0355C94.3149 93.7355 92.6149 113.736 99.2149 126.936C105.815 140.036 107.615 142.536 109.715 151.936C111.815 161.336 121.015 184.036 121.015 184.036L150.915 180.836C150.915 180.836 146.115 155.536 147.415 148.636C147.415 148.636 145.115 147.636 144.515 144.736C143.915 141.836 146.415 139.836 142.015 135.136C142.015 135.136 138.615 109.336 136.415 105.936C134.315 102.436 138.515 96.6355 138.515 96.6355Z" fill="url(#paint19_linear_3_502)"/>
<path d="M121.315 186.536L124.315 194.236C124.315 194.236 143.415 195.636 152.315 187.836L150.615 182.436L121.315 186.536Z" fill="#7CB9CE"/>
<path opacity="0.54" d="M140.015 189.636C149.715 187.336 140.915 192.936 131.215 194.236C137.615 193.936 146.915 192.636 152.315 187.836L150.615 182.436L121.315 186.536L122.315 189.036C126.015 190.236 132.415 191.436 140.015 189.636Z" fill="url(#paint20_linear_3_502)"/>
<path d="M115.515 179.436C115.515 179.436 133.615 183.336 151.715 178.636V185.436C151.715 185.436 131.615 192.736 118.215 187.336L115.515 179.436Z" fill="#1F2744"/>
<path d="M38.2149 198.836H74.4149C74.4149 198.836 76.6149 191.236 72.0149 190.136C72.0149 190.136 64.3149 195.136 59.8149 189.236C59.8149 189.236 40.9149 190.736 38.8149 194.436C36.8149 198.136 38.2149 198.836 38.2149 198.836Z" fill="url(#paint21_linear_3_502)"/>
<path d="M38.2147 198.836H74.4147C74.4147 198.836 76.4147 191.736 72.4147 190.236C74.3147 191.436 75.2147 198.636 70.8147 195.436C66.1147 192.036 63.8147 197.436 53.1147 197.836C44.0147 198.236 39.6147 195.736 38.5147 194.936C36.9147 198.136 38.2147 198.836 38.2147 198.836Z" fill="url(#paint22_linear_3_502)"/>
<path d="M92.3147 202.236H121.415C121.415 202.236 123.115 194.636 119.515 193.536C119.515 193.536 113.315 198.536 109.715 192.636C109.715 192.636 94.5147 194.136 92.8147 197.836C91.2147 201.536 92.3147 202.236 92.3147 202.236Z" fill="url(#paint23_linear_3_502)"/>
<path opacity="0.54" d="M61.5149 49.5355C61.5149 49.5355 66.9149 55.4355 72.1149 55.6355C77.3149 55.7355 87.1149 48.8355 87.1149 48.8355C87.1149 48.8355 63.9149 47.8355 61.5149 49.5355Z" fill="url(#paint24_linear_3_502)"/>
<path opacity="0.54" d="M54.0147 49.0355C54.0147 49.0355 49.7147 54.0355 46.3147 54.3355C42.9147 54.6355 34.1147 47.0355 34.1147 47.0355C34.1147 47.0355 39.0147 47.8355 44.5147 48.1355C50.0147 48.4355 54.0147 49.0355 54.0147 49.0355Z" fill="url(#paint25_linear_3_502)"/>
<path d="M92.3149 202.236H121.415C121.415 202.236 123.015 195.136 119.815 193.636C121.415 194.836 121.315 203.436 119.615 198.936C117.615 193.936 119.615 200.536 104.315 201.236C97.0149 201.536 93.4149 199.136 92.5149 198.336C91.3149 201.636 92.3149 202.236 92.3149 202.236Z" fill="url(#paint26_linear_3_502)"/>
<path d="M76.2149 24.8356C76.2149 24.8356 74.3149 30.0356 80.1149 33.5356C80.1149 33.5356 77.4149 30.3356 78.4149 26.1356C78.4149 26.1356 78.1149 29.4356 81.6149 31.1356C81.6149 31.1356 85.5149 39.1356 108.915 38.3356C108.915 38.3356 102.315 37.5355 98.5149 35.4355C98.5149 35.4355 104.515 34.5356 107.215 36.3356C107.215 36.3356 105.115 33.0356 96.4149 31.6356C96.4149 31.6356 102.415 31.6356 101.215 24.8356C101.215 24.8356 100.815 29.9355 92.9149 29.2355C92.9149 29.2355 91.9149 21.3355 79.4149 20.7355C79.4149 20.7355 84.3149 15.3356 82.5149 13.6356C80.7149 11.9356 78.7149 19.6356 78.7149 19.6356C78.7149 19.6356 79.3149 11.8356 78.4149 11.6356C77.5149 11.3356 78.0149 19.3356 78.0149 19.3356C78.0149 19.3356 76.8149 11.9356 75.9149 11.6356C75.1149 11.3356 77.4149 20.2355 77.4149 20.2355C77.4149 20.2355 74.8149 15.0356 69.8149 15.1356C64.8149 15.2356 50.2149 18.2356 42.7149 5.13556C42.7149 5.13556 42.2149 13.7356 51.2149 16.1356C51.2149 16.1356 39.6149 13.1355 31.0149 21.2355C31.0149 21.2355 36.4149 19.0355 43.7149 19.7355C43.7149 19.7355 32.4149 20.2356 35.9149 27.5356C35.9149 27.5356 34.4149 21.9356 42.5149 21.8356C42.5149 21.8356 36.8149 22.2355 36.7149 28.4355C36.7149 28.4355 39.9149 23.4356 46.7149 24.0356C53.5149 24.5356 64.8149 31.1356 76.2149 24.8356Z" fill="url(#paint27_linear_3_502)"/>
<path d="M62.3147 49.7355C62.3147 49.7355 66.9147 54.9355 72.1147 55.1355C77.3147 55.2355 85.9147 48.5355 85.9147 48.5355C85.9147 48.5355 64.6147 48.0355 62.3147 49.7355Z" fill="url(#paint28_linear_3_502)"/>
<path d="M68.7147 49.4355C68.6147 52.0355 70.2147 54.3355 72.2147 54.3355C74.2147 54.4355 75.9146 52.3355 76.0146 49.6355C76.1146 47.0355 74.5146 44.7355 72.5146 44.7355C70.5146 44.7355 68.8147 46.8355 68.7147 49.4355Z" fill="url(#paint29_linear_3_502)"/>
<path d="M69.1147 49.5356C69.0147 51.9356 70.4147 53.8356 72.2147 53.9356C74.0147 54.0356 75.5147 52.1356 75.6147 49.7356C75.7147 47.3356 74.3147 45.4356 72.5147 45.3356C70.7147 45.2356 69.1147 47.1356 69.1147 49.5356Z" fill="url(#paint30_linear_3_502)"/>
<path d="M70.2147 49.4355C70.1147 51.1355 70.9147 52.6355 72.1147 52.7355C73.3147 52.8355 74.3147 51.5355 74.4147 49.7355C74.5147 48.0355 73.7147 46.5355 72.5147 46.4355C71.4147 46.4355 70.4147 47.7355 70.2147 49.4355Z" fill="url(#paint31_linear_3_502)"/>
<path d="M74.2147 50.4356C75.3147 50.8356 75.1147 48.1356 74.4147 48.4356C73.6147 48.6356 72.5147 49.8356 74.2147 50.4356Z" fill="white"/>
<path opacity="0.36" d="M64.5147 51.7355C64.5147 51.7355 75.1147 47.5355 82.9147 50.6355C90.7147 53.6355 92.5147 52.1355 92.5147 51.2355C92.5147 50.2355 92.1148 45.3355 91.8148 45.2355C91.5148 45.1355 85.7147 42.1355 79.0147 41.9355C72.2147 41.7355 60.3148 46.7355 59.8148 47.2355C59.3148 47.7355 59.8148 52.9355 59.8148 52.9355L64.5147 51.7355Z" fill="#838BC5"/>
<path d="M54.015 48.6356C54.015 48.6356 49.715 53.6355 46.315 53.9355C42.915 54.2355 34.915 47.1356 34.915 47.1356C34.915 47.1356 39.015 47.4355 44.515 47.7355C49.915 48.0355 54.015 48.6356 54.015 48.6356Z" fill="url(#paint32_linear_3_502)"/>
<path d="M43.2149 48.5356C43.1149 51.1356 44.7149 53.4356 46.7149 53.4356C48.7149 53.5356 50.4149 51.4356 50.5149 48.7356C50.6149 46.1356 49.0149 43.8356 47.0149 43.8356C45.1149 43.8356 43.3149 45.8356 43.2149 48.5356Z" fill="url(#paint33_linear_3_502)"/>
<path d="M43.6149 48.5356C43.5149 50.9356 44.9149 52.8356 46.7149 52.9356C48.5149 53.0356 50.0149 51.1356 50.1149 48.7356C50.2149 46.3356 48.8149 44.4356 47.0149 44.3356C45.3149 44.3356 43.7149 46.1356 43.6149 48.5356Z" fill="url(#paint34_linear_3_502)"/>
<path d="M44.8148 48.5356C44.7148 50.2356 45.5148 51.7356 46.7148 51.8356C47.9148 51.9356 48.9148 50.6356 49.0148 48.8356C49.1148 47.1356 48.3148 45.6356 47.1148 45.5356C46.0148 45.4356 44.9148 46.7356 44.8148 48.5356Z" fill="url(#paint35_linear_3_502)"/>
<path d="M48.815 49.9356C49.915 50.3356 49.715 47.6356 49.015 47.9356C48.215 48.1356 47.115 49.2356 48.815 49.9356Z" fill="white"/>
<path opacity="0.36" d="M36.6149 49.9355C36.6149 49.9355 47.8149 47.7356 54.3149 51.1356C60.8149 54.6356 54.9149 44.7356 54.8149 44.6356C54.7149 44.4356 45.8149 39.7356 45.1149 39.8356C44.5149 39.8356 31.8149 43.3356 31.8149 43.3356L34.4149 48.6356L36.6149 49.9355Z" fill="#838BC5"/>
<path d="M55.9149 46.5355C55.9149 46.5355 56.4149 41.9355 60.2149 40.6355C64.0149 39.4355 59.2149 43.0355 59.2149 43.0355C59.2149 43.0355 62.5149 40.8355 64.3149 41.5355C66.2149 42.2355 63.1149 43.6355 63.1149 43.6355C63.1149 43.6355 66.2149 42.9355 67.0149 43.9355C67.9149 44.9355 65.2149 46.0355 65.2149 46.0355C65.2149 46.0355 93.8149 45.5355 89.5149 47.9355C89.5149 47.9355 90.4149 49.2355 84.0149 48.6355C77.6149 48.0355 62.4149 51.3355 57.3149 48.8355C57.3149 48.8355 48.5149 49.5355 41.9149 48.1355C35.3149 46.6355 29.4149 48.1355 27.6149 45.6355C25.9149 43.1355 29.8149 44.3355 29.8149 44.3355C29.8149 44.3355 28.8149 42.1355 29.7149 42.1355C30.6149 42.0355 38.4149 46.6355 46.3149 45.8355C46.3149 45.8355 43.8149 44.6355 46.8149 43.6355C49.7149 42.6355 52.1149 45.1355 52.1149 45.3355C52.1149 45.5355 49.6149 41.4355 50.7149 41.3355C51.7149 41.2355 53.2149 45.3355 53.2149 45.3355C53.2149 45.3355 52.4149 42.4355 53.1149 42.8355C53.8149 43.2355 54.8149 44.5355 55.9149 46.5355Z" fill="url(#paint36_linear_3_502)"/>
<path opacity="0.26" d="M28.6147 60.8355C28.6147 60.8355 36.2147 57.7355 41.0147 65.7355L35.4147 65.6355L28.6147 60.8355Z" fill="url(#paint37_linear_3_502)"/>
<path d="M29.8148 60.2355L22.4148 61.3356C20.8148 61.6356 19.7148 63.2356 20.2148 64.8356L20.4148 67.1356L20.5148 66.6356C21.7148 65.7356 23.7148 66.2355 24.7148 66.0355C24.7148 66.0355 28.2148 65.8356 35.8148 65.6356L36.0148 62.7355C36.1148 60.9355 33.2148 59.5355 31.5148 59.7355L29.8148 60.2355Z" fill="#FFD9A6"/>
<path opacity="0.54" d="M90.0147 73.5356C87.9147 72.9356 87.6147 78.2356 87.6147 78.2356C87.6147 78.2356 89.6148 77.4356 89.7148 78.8356C89.8148 80.3356 87.7147 86.6356 87.0147 86.6356C86.5147 86.6356 83.5147 80.5356 80.6147 76.7356C79.7147 75.5356 79.0147 74.5356 78.7147 74.2356L78.6147 74.1356C74.1147 69.2356 67.8147 68.4356 51.0147 66.4356C31.6147 64.1356 23.1147 67.0356 23.1147 67.0356C41.5147 64.4356 73.7147 70.0356 76.5147 73.4356C76.8147 73.8356 77.2147 74.4356 77.6147 75.1356C77.6147 75.1356 85.1147 86.4356 86.4147 90.5356C87.6147 94.7356 92.0147 74.1356 90.0147 73.5356Z" fill="url(#paint38_linear_3_502)"/>
<path opacity="0.54" d="M102.315 61.2355C102.215 61.3355 102.515 52.3355 107.215 53.2355C107.215 53.2355 104.115 53.3355 103.615 58.1355C103.615 58.1355 109.515 56.6355 107.815 61.6355C107.815 61.6355 108.215 58.8355 106.315 58.6355C104.415 58.6355 103.415 59.4355 102.315 61.2355Z" fill="url(#paint39_linear_3_502)"/>
<path opacity="0.14" d="M18.215 95.7356C17.515 86.0356 39.715 100.636 33.515 106.536C27.315 112.336 19.115 108.336 18.215 95.7356Z" fill="url(#paint40_linear_3_502)"/>
<path opacity="0.14" d="M35.3147 99.5355C34.4147 94.4355 39.8147 94.9355 42.7147 99.6355C45.5147 104.336 37.2147 110.436 35.3147 99.5355Z" fill="url(#paint41_linear_3_502)"/>
<path opacity="0.14" d="M32.7149 112.836C27.1149 111.836 40.2149 106.336 42.4149 108.736C44.6149 111.136 44.3149 114.836 32.7149 112.836Z" fill="url(#paint42_linear_3_502)"/>
<path d="M28.2149 60.2356L20.8149 61.3356C19.2149 61.6356 18.1149 63.2356 18.6149 64.8356L19.7149 68.6356C20.9149 67.7356 22.0149 67.2356 23.0149 67.1356C23.0149 67.1356 26.5149 65.9356 34.1149 65.7356L34.3149 62.7356C34.4149 60.9356 32.9149 59.5356 31.2149 59.8356L28.2149 60.2356Z" fill="#FFF1D2"/>
<path opacity="0.54" d="M44.4147 56.6356C42.1147 60.3356 50.9147 64.0356 54.6147 64.6356C58.4147 65.2356 62.7147 62.8356 65.4147 60.4356C68.1147 58.0356 64.8147 56.6356 64.8147 56.6356C67.3147 60.2356 62.5147 60.2356 60.2147 61.0356C57.9147 61.8356 46.9147 62.3356 45.3147 58.9356C44.2147 56.6356 47.5147 54.4356 49.6147 53.3356C49.7147 53.3356 47.6147 53.7356 44.4147 56.6356Z" fill="url(#paint43_linear_3_502)"/>
<path opacity="0.54" d="M51.3148 52.5355C51.3148 52.5355 43.7148 55.6355 45.3148 58.9355C46.9148 62.2355 57.9148 61.7355 60.2148 61.0355C62.1148 60.4355 65.6148 60.2355 65.5148 58.3355C65.4148 57.8355 65.2148 57.2355 64.8148 56.6355C63.1148 53.9355 61.2148 52.7355 59.8148 52.2355C54.3148 50.9355 51.3148 52.5355 51.3148 52.5355Z" fill="url(#paint44_linear_3_502)"/>
<path opacity="0.24" d="M45.4148 58.9355C47.0148 62.2355 58.0148 61.7355 60.3148 61.0355C62.6148 60.2355 67.5148 60.2355 64.9148 56.6355C64.0148 55.6355 63.3148 55.5355 63.3148 55.5355C63.3148 55.5355 65.4148 59.9355 62.7148 59.0355C60.0148 58.1355 60.7148 60.9355 52.9148 60.5355C45.1148 60.1355 45.8148 56.3355 45.8148 56.3355C45.2148 57.2355 44.9148 58.0355 45.4148 58.9355Z" fill="url(#paint45_linear_3_502)"/>
<path opacity="0.54" d="M43.6149 19.7355C43.6149 19.7355 32.3149 20.2356 35.8149 27.5356C35.8149 27.5356 34.3149 21.9356 42.4149 21.8356C42.4149 21.8356 36.7149 22.2355 36.6149 28.4355C36.6149 28.4355 39.8149 23.4356 46.6149 24.0356C53.4149 24.6356 64.8149 31.3355 76.1149 24.9355C76.1149 24.9355 74.2149 30.1356 80.0149 33.6356C80.0149 33.6356 77.3149 30.4355 78.3149 26.2355C78.3149 26.2355 78.0149 29.5355 81.5149 31.2355C81.5149 31.2355 85.4149 39.2355 108.815 38.4355C108.815 38.4355 102.215 37.6356 98.4149 35.5356C98.4149 35.5356 104.415 34.6355 107.115 36.4355C102.115 32.4355 91.3149 36.2356 88.8149 30.8356C86.3149 25.3356 81.6149 24.0356 81.6149 24.0356C88.1149 23.5356 91.5149 29.5356 91.5149 29.5356C88.2149 19.5356 76.9149 22.8356 76.9149 22.8356C76.9149 22.8356 79.2149 17.6355 70.6149 18.9355C62.0149 20.2355 52.6149 17.1356 52.6149 17.1356C58.6149 20.9356 72.6149 20.6356 72.6149 20.6356C72.6149 20.6356 59.1149 23.3355 50.5149 19.9355C41.8149 16.5355 30.8149 21.4355 30.8149 21.4355C30.8149 21.4355 36.3149 19.0355 43.6149 19.7355Z" fill="url(#paint46_linear_3_502)"/>
<path opacity="0.54" d="M27.6148 45.6356C29.3148 48.1356 35.2148 46.6356 41.9148 48.1356C48.5148 49.6356 57.3148 48.8356 57.3148 48.8356C62.5148 51.4356 77.7148 48.0356 84.0148 48.6356C90.4148 49.2356 89.5148 47.9355 89.5148 47.9355C89.7148 47.8355 89.8148 47.7355 89.8148 47.7355C86.8148 46.7355 71.1148 47.9356 66.3148 48.8356C61.4148 49.7356 55.9148 47.8356 55.9148 47.8356C53.3148 49.0356 41.3148 47.1356 34.4148 46.3356C30.8148 45.9356 28.6148 45.1355 27.3148 44.4355C27.1148 44.6355 27.2148 45.0356 27.6148 45.6356Z" fill="url(#paint47_linear_3_502)"/>
<path opacity="0.54" d="M151.615 178.636C151.315 178.736 150.915 178.836 150.615 178.836C149.515 172.936 146.315 154.236 147.415 148.436C147.415 148.436 145.115 147.436 144.515 144.536C143.915 141.636 146.415 139.636 142.015 134.936C142.015 134.936 138.615 109.136 136.415 105.736C134.215 102.336 138.515 96.5356 138.515 96.5356C138.515 96.5356 135.515 97.0356 126.615 88.3356C117.715 79.6356 106.915 76.2356 100.615 84.9356C97.9148 88.6356 96.1148 94.3356 95.4148 100.736C95.7148 99.7356 100.515 87.4356 114.815 89.7356C129.515 92.1356 129.615 123.436 129.615 123.436C129.615 123.436 131.015 109.736 134.715 120.236C138.515 130.736 132.815 151.236 132.815 151.236C132.815 151.236 139.615 135.836 144.515 149.736C144.515 149.736 137.415 141.036 133.515 154.736C133.515 154.736 139.515 144.236 143.915 154.736C148.415 165.236 137.715 178.836 132.615 177.836C128.315 177.036 117.915 175.136 113.115 162.936C115.315 169.236 117.915 175.936 119.515 180.036C117.315 179.736 115.915 179.436 115.515 179.436C121.815 182.536 130.315 182.336 139.615 182.436C148.715 182.536 143.315 187.536 135.615 189.036C144.315 188.136 151.615 185.436 151.615 185.436V178.636V178.636Z" fill="url(#paint48_linear_3_502)"/>
<path d="M76.0149 160.336V158.736V158.636L75.6149 158.436C75.4149 158.436 75.3149 158.336 75.1149 158.336C75.0149 158.336 75.0149 158.336 74.9149 158.236C75.0149 158.136 75.0149 158.136 75.1149 158.136L76.0149 157.636L75.1149 157.236C74.8149 157.136 74.6149 157.036 74.3149 156.936H74.2149C74.4149 156.936 74.7149 156.836 74.9149 156.836L75.5149 156.736L75.4149 156.236L73.0149 147.636L74.4149 156.036C74.3149 156.036 74.1149 156.036 74.0149 156.036C73.8149 156.036 73.7149 156.136 73.5149 156.136C73.4149 156.136 73.3149 156.236 73.2149 156.336C73.0149 156.436 73.0149 156.936 73.1149 157.036C73.3149 157.336 73.4149 157.436 73.6149 157.536C73.7149 157.636 73.9149 157.736 74.0149 157.736C74.0149 157.736 74.1149 157.736 74.1149 157.836C74.0149 157.936 73.9149 158.036 73.9149 158.336C73.9149 158.636 74.1149 158.836 74.2149 158.936C74.5149 159.136 74.7149 159.136 74.9149 159.236C75.0149 159.236 75.2149 159.336 75.3149 159.336L76.0149 160.336Z" fill="#1F2744"/>
<path d="M108.815 192.136C108.815 192.136 107.015 191.736 107.815 192.636C107.815 192.636 111.815 199.636 120.015 193.536C120.015 193.536 121.015 191.936 119.515 191.336C119.515 191.336 120.215 189.636 116.715 189.336C116.715 189.236 112.715 189.136 108.815 192.136Z" fill="#7CB9CE"/>
<path d="M59.8149 189.136C59.8149 189.136 57.9149 189.336 59.3149 188.536C59.3149 188.536 66.6149 187.236 70.7149 189.136C70.7149 189.136 73.1149 188.636 72.0149 190.036C72.0149 190.036 64.2149 195.436 59.8149 189.136Z" fill="#7CB9CE"/>
<path opacity="0.54" d="M120.015 193.536C120.015 193.536 121.015 191.936 119.515 191.336C119.515 191.336 120.215 189.636 116.715 189.336C116.715 189.336 112.715 189.236 108.815 192.236C108.815 192.236 116.315 189.536 118.115 190.936C119.915 192.336 111.215 193.236 111.215 193.236C111.215 193.236 119.815 192.536 118.715 193.836C117.715 195.036 113.315 197.436 108.515 193.736C110.115 195.336 113.815 198.036 120.015 193.536Z" fill="url(#paint49_linear_3_502)"/>
<path opacity="0.54" d="M72.0148 190.036C73.1148 188.536 70.7148 189.136 70.7148 189.136C67.5148 187.636 62.3148 188.136 60.2148 188.336C63.6148 188.436 68.9148 188.736 70.1148 189.336C71.9148 190.336 63.2148 189.536 63.2148 189.536C63.2148 189.536 69.9148 190.536 67.8148 191.136C65.7148 191.736 62.7148 191.536 59.7148 189.036C64.2148 195.436 72.0148 190.036 72.0148 190.036Z" fill="url(#paint50_linear_3_502)"/>
<path d="M50.2148 189.736L52.9148 193.636L54.5148 193.236L52.4148 189.436L50.2148 189.736Z" fill="#1F2744"/>
<path d="M53.3149 189.236L56.0149 193.136L57.5149 192.736L55.4149 188.936L53.3149 189.236Z" fill="#1F2744"/>
<path d="M101.415 193.736L105.415 196.136L106.715 195.236L103.215 192.636L101.415 193.736Z" fill="#1F2744"/>
<path d="M104.915 192.936L108.915 195.336L110.215 194.336L106.715 191.836L104.915 192.936Z" fill="#1F2744"/>
<path d="M12.7148 100.136C12.6148 100.136 12.6148 100.136 12.6148 100.036C12.5148 99.9356 12.5148 99.8356 12.6148 99.7356C12.7148 99.6356 14.2148 97.6356 16.6148 97.6356C16.8148 97.6356 16.9148 97.7355 16.9148 97.8355C16.9148 97.9355 16.8148 98.0356 16.7148 98.0356C14.6148 98.0356 13.1148 99.9355 13.1148 99.9355C12.8148 100.136 12.7148 100.136 12.7148 100.136Z" fill="#1F2744"/>
<path d="M12.5149 96.7356C12.4149 96.7356 12.3149 96.6356 12.3149 96.6356C12.2149 96.5356 12.3149 96.3356 12.4149 96.3356C12.5149 96.3356 14.5149 95.4356 16.5149 96.1356C16.6149 96.1356 16.7149 96.3356 16.6149 96.4356C16.6149 96.5356 16.4149 96.6356 16.3149 96.5356C14.5149 95.8356 12.6149 96.7356 12.6149 96.7356C12.6149 96.7356 12.6149 96.7356 12.5149 96.7356Z" fill="#1F2744"/>
<path opacity="0.22" d="M91.1147 39.0355C91.1147 39.0355 94.2148 39.5355 92.2148 43.3355C92.2148 43.3355 95.3147 47.0355 94.5147 51.2355C94.5147 51.2355 96.7147 47.2355 94.0147 44.6355C93.9147 44.6355 95.7147 39.4355 91.1147 39.0355Z" fill="url(#paint51_linear_3_502)"/>
<path d="M94.5148 41.9355C94.5148 41.9355 91.2148 42.5355 94.5148 46.2355H102.215V41.9355H94.5148Z" fill="url(#paint52_linear_3_502)"/>
<path d="M102.415 39.9356C101.415 39.9356 100.515 41.8356 100.515 44.1356C100.515 46.4356 101.315 48.3356 102.415 48.3356H104.615V39.8356H102.415V39.9356Z" fill="#838DA9"/>
<path d="M106.515 44.1356C106.515 46.4356 105.715 48.3356 104.615 48.3356C103.615 48.3356 102.715 46.4356 102.715 44.1356C102.715 41.8356 103.515 39.9355 104.615 39.9355C105.715 39.9355 106.515 41.7356 106.515 44.1356Z" fill="url(#paint53_linear_3_502)"/>
<path d="M105.515 40.3356L103.415 47.2356C103.615 47.7356 103.915 48.0356 104.215 48.2356L106.215 41.7356C106.015 41.1356 105.815 40.7356 105.515 40.3356Z" fill="#64718C"/>
<path opacity="0.61" d="M94.5147 46.3356H100.815C101.115 47.5356 101.715 48.4355 102.415 48.4355H104.615C105.615 48.4355 106.515 46.5355 106.515 44.2355C106.515 43.9355 106.515 43.6356 106.515 43.3356C106.115 44.5356 105.215 46.0356 102.915 45.5356C102.915 45.5356 102.215 47.5356 100.615 45.1356C100.615 45.1356 96.7148 46.0356 100.315 42.5356C100.315 42.5356 95.7148 47.0356 98.8148 42.7355C98.8148 42.7355 94.6148 48.1356 97.3148 42.6356C97.3148 42.6356 92.2148 48.1356 95.7148 42.3356C95.7148 42.3356 92.1147 46.0355 94.6147 41.9355C94.5147 41.9355 91.2147 42.6356 94.5147 46.3356Z" fill="url(#paint54_linear_3_502)"/>
<path opacity="0.54" d="M104.615 39.9355H102.415C101.715 39.9355 101.115 40.7356 100.815 42.0356H94.5148C94.5148 42.0356 91.2148 42.6356 94.5148 46.3356H100.815C101.115 47.5356 101.715 48.4355 102.415 48.4355H104.615C105.615 48.4355 106.515 46.5355 106.515 44.2355C106.515 41.7355 105.715 39.9355 104.615 39.9355Z" fill="url(#paint55_linear_3_502)"/>
<path opacity="0.39" d="M103.515 58.2356C103.515 58.2356 109.415 56.7356 107.715 61.7356C110.815 54.7356 107.115 53.3356 107.115 53.3356C107.115 53.3356 104.015 53.4356 103.515 58.2356Z" fill="url(#paint56_linear_3_502)"/>
<defs>
<linearGradient id="paint0_linear_3_502" x1="0.0491266" y1="104.962" x2="167.44" y2="104.962" gradientUnits="userSpaceOnUse">
<stop stop-color="#00004F"/>
<stop offset="1"/>
</linearGradient>
<linearGradient id="paint1_linear_3_502" x1="38.6123" y1="30.9071" x2="32.4764" y2="37.0431" gradientUnits="userSpaceOnUse">
<stop stop-color="#EAE5EF"/>
<stop offset="0.0291884" stop-color="#E4E0EB"/>
<stop offset="0.2174" stop-color="#C1C2D3"/>
<stop offset="0.4084" stop-color="#A6ABC1"/>
<stop offset="0.6013" stop-color="#929AB3"/>
<stop offset="0.797" stop-color="#8790AC"/>
<stop offset="1" stop-color="#838DA9"/>
</linearGradient>
<linearGradient id="paint2_linear_3_502" x1="35.6319" y1="32.1825" x2="43.3441" y2="39.8947" gradientUnits="userSpaceOnUse">
<stop stop-color="#838DA9"/>
<stop offset="0.203" stop-color="#8790AC"/>
<stop offset="0.3987" stop-color="#929AB3"/>
<stop offset="0.5916" stop-color="#A6ABC1"/>
<stop offset="0.7826" stop-color="#C1C2D3"/>
<stop offset="0.9708" stop-color="#E4E0EB"/>
<stop offset="1" stop-color="#EAE5EF"/>
</linearGradient>
<linearGradient id="paint3_linear_3_502" x1="34.2333" y1="31.4694" x2="43.0013" y2="40.2373" gradientUnits="userSpaceOnUse">
<stop stop-color="#838DA9"/>
<stop offset="0.4471" stop-color="#858FAA"/>
<stop offset="0.6081" stop-color="#8C94AF"/>
<stop offset="0.7229" stop-color="#979EB7"/>
<stop offset="0.8157" stop-color="#A8ADC2"/>
<stop offset="0.8952" stop-color="#BEC0D1"/>
<stop offset="0.9643" stop-color="#D9D6E3"/>
<stop offset="1" stop-color="#EAE5EF"/>
</linearGradient>
<linearGradient id="paint4_linear_3_502" x1="16.1975" y1="182.937" x2="51.7328" y2="182.937" gradientUnits="userSpaceOnUse">
<stop stop-color="#BAC4D1"/>
<stop offset="0.2274" stop-color="#B8C0CF"/>
<stop offset="0.4495" stop-color="#B3B4CA"/>
<stop offset="0.6695" stop-color="#ABA1C0"/>
<stop offset="0.8868" stop-color="#9F85B3"/>
<stop offset="1" stop-color="#9774AB"/>
</linearGradient>
<linearGradient id="paint5_linear_3_502" x1="16.1976" y1="182.937" x2="51.7328" y2="182.937" gradientUnits="userSpaceOnUse">
<stop stop-color="#634277"/>
<stop offset="0.2682" stop-color="#7B598F"/>
<stop offset="0.5678" stop-color="#906DA4"/>
<stop offset="0.7677" stop-color="#9774AB"/>
</linearGradient>
<linearGradient id="paint6_linear_3_502" x1="14.5004" y1="180.127" x2="51.8491" y2="180.127" gradientUnits="userSpaceOnUse">
<stop stop-color="#634277"/>
<stop offset="0.2682" stop-color="#7B598F"/>
<stop offset="0.5678" stop-color="#906DA4"/>
<stop offset="0.7677" stop-color="#9774AB"/>
</linearGradient>
<linearGradient id="paint7_linear_3_502" x1="136.65" y1="179.299" x2="159.179" y2="201.828" gradientUnits="userSpaceOnUse">
<stop stop-color="#BAC4D1"/>
<stop offset="0.2274" stop-color="#B8C0CF"/>
<stop offset="0.4495" stop-color="#B3B4CA"/>
<stop offset="0.6695" stop-color="#ABA1C0"/>
<stop offset="0.8868" stop-color="#9F85B3"/>
<stop offset="1" stop-color="#9774AB"/>
</linearGradient>
<linearGradient id="paint8_linear_3_502" x1="161.245" y1="177.232" x2="135.866" y2="202.612" gradientUnits="userSpaceOnUse">
<stop stop-color="#634277"/>
<stop offset="0.2682" stop-color="#7B598F"/>
<stop offset="0.5678" stop-color="#906DA4"/>
<stop offset="0.7677" stop-color="#9774AB"/>
</linearGradient>
<linearGradient id="paint9_linear_3_502" x1="144.484" y1="182.751" x2="181.889" y2="182.751" gradientUnits="userSpaceOnUse">
<stop stop-color="#634277"/>
<stop offset="0.2682" stop-color="#7B598F"/>
<stop offset="0.5678" stop-color="#906DA4"/>
<stop offset="0.7677" stop-color="#9774AB"/>
</linearGradient>
<linearGradient id="paint10_linear_3_502" x1="-3.50706" y1="116.364" x2="45.6015" y2="165.472" gradientUnits="userSpaceOnUse">
<stop stop-color="#297292"/>
<stop offset="0.1016" stop-color="#286283"/>
<stop offset="0.2955" stop-color="#264A6D"/>
<stop offset="0.5013" stop-color="#25395D"/>
<stop offset="0.7251" stop-color="#242F54"/>
<stop offset="1" stop-color="#242C51"/>
</linearGradient>
<linearGradient id="paint11_linear_3_502" x1="12.3489" y1="180.797" x2="37.7017" y2="180.797" gradientUnits="userSpaceOnUse">
<stop stop-color="#634277"/>
<stop offset="0.2682" stop-color="#7B598F"/>
<stop offset="0.5678" stop-color="#906DA4"/>
<stop offset="0.7677" stop-color="#9774AB"/>
</linearGradient>
<linearGradient id="paint12_linear_3_502" x1="11.9371" y1="139.08" x2="39.6943" y2="139.08" gradientUnits="userSpaceOnUse">
<stop stop-color="#634277"/>
<stop offset="0.2682" stop-color="#7B598F"/>
<stop offset="0.5678" stop-color="#906DA4"/>
<stop offset="0.7677" stop-color="#9774AB"/>
</linearGradient>
<linearGradient id="paint13_linear_3_502" x1="56.8864" y1="173.981" x2="116.707" y2="173.981" gradientUnits="userSpaceOnUse">
<stop stop-color="#634277"/>
<stop offset="0.2682" stop-color="#7B598F"/>
<stop offset="0.5678" stop-color="#906DA4"/>
<stop offset="0.7677" stop-color="#9774AB"/>
</linearGradient>
<linearGradient id="paint14_linear_3_502" x1="53.6718" y1="179.49" x2="89.6049" y2="179.49" gradientUnits="userSpaceOnUse">
<stop stop-color="#634277"/>
<stop offset="0.2682" stop-color="#7B598F"/>
<stop offset="0.5678" stop-color="#906DA4"/>
<stop offset="0.7677" stop-color="#9774AB"/>
</linearGradient>
<linearGradient id="paint15_linear_3_502" x1="31.666" y1="80.6204" x2="114.198" y2="163.152" gradientUnits="userSpaceOnUse">
<stop stop-color="#297292"/>
<stop offset="1" stop-color="#242C51"/>
</linearGradient>
<linearGradient id="paint16_linear_3_502" x1="29.3574" y1="91.3869" x2="107.661" y2="169.69" gradientUnits="userSpaceOnUse">
<stop stop-color="#634277"/>
<stop offset="0.2682" stop-color="#7B598F"/>
<stop offset="0.5678" stop-color="#906DA4"/>
<stop offset="0.7677" stop-color="#9774AB"/>
</linearGradient>
<linearGradient id="paint17_linear_3_502" x1="29.4073" y1="43.1722" x2="102.087" y2="115.852" gradientUnits="userSpaceOnUse">
<stop offset="0.1717" stop-color="#BAC4D1"/>
<stop offset="0.4164" stop-color="#A09CB8"/>
<stop offset="0.6613" stop-color="#8B7AA4"/>
<stop offset="0.8647" stop-color="#7E6598"/>
<stop offset="1" stop-color="#795E93"/>
</linearGradient>
<linearGradient id="paint18_linear_3_502" x1="101.967" y1="43.292" x2="29.5282" y2="115.731" gradientUnits="userSpaceOnUse">
<stop stop-color="#634277"/>
<stop offset="0.2682" stop-color="#7B598F"/>
<stop offset="0.5678" stop-color="#906DA4"/>
<stop offset="0.7677" stop-color="#9774AB"/>
</linearGradient>
<linearGradient id="paint19_linear_3_502" x1="87.4769" y1="97.895" x2="160.616" y2="171.034" gradientUnits="userSpaceOnUse">
<stop stop-color="#297292"/>
<stop offset="0.0584878" stop-color="#286686"/>
<stop offset="0.2031" stop-color="#264C6F"/>
<stop offset="0.3536" stop-color="#253A5E"/>
<stop offset="0.5121" stop-color="#242F54"/>
<stop offset="0.6919" stop-color="#242C51"/>
</linearGradient>
<linearGradient id="paint20_linear_3_502" x1="121.346" y1="188.35" x2="152.317" y2="188.35" gradientUnits="userSpaceOnUse">
<stop stop-color="#634277"/>
<stop offset="0.2682" stop-color="#7B598F"/>
<stop offset="0.5678" stop-color="#906DA4"/>
<stop offset="0.7677" stop-color="#9774AB"/>
</linearGradient>
<linearGradient id="paint21_linear_3_502" x1="47.057" y1="186.006" x2="67.1359" y2="206.084" gradientUnits="userSpaceOnUse">
<stop stop-color="#297292"/>
<stop offset="0.1016" stop-color="#286283"/>
<stop offset="0.2955" stop-color="#264A6D"/>
<stop offset="0.5013" stop-color="#25395D"/>
<stop offset="0.7251" stop-color="#242F54"/>
<stop offset="1" stop-color="#242C51"/>
</linearGradient>
<linearGradient id="paint22_linear_3_502" x1="47.0483" y1="186.014" x2="67.1271" y2="206.093" gradientUnits="userSpaceOnUse">
<stop stop-color="#297292"/>
<stop offset="0.1016" stop-color="#286283"/>
<stop offset="0.2955" stop-color="#264A6D"/>
<stop offset="0.5013" stop-color="#25395D"/>
<stop offset="0.7251" stop-color="#242F54"/>
<stop offset="1" stop-color="#242C51"/>
</linearGradient>
<linearGradient id="paint23_linear_3_502" x1="99.3316" y1="191.049" x2="115.986" y2="207.703" gradientUnits="userSpaceOnUse">
<stop stop-color="#297292"/>
<stop offset="0.1016" stop-color="#286283"/>
<stop offset="0.2955" stop-color="#264A6D"/>
<stop offset="0.5013" stop-color="#25395D"/>
<stop offset="0.7251" stop-color="#242F54"/>
<stop offset="1" stop-color="#242C51"/>
</linearGradient>
<linearGradient id="paint24_linear_3_502" x1="74.3192" y1="55.5463" x2="74.3192" y2="48.4848" gradientUnits="userSpaceOnUse">
<stop stop-color="#634277"/>
<stop offset="0.2682" stop-color="#7B598F"/>
<stop offset="0.5678" stop-color="#906DA4"/>
<stop offset="0.7677" stop-color="#9774AB"/>
</linearGradient>
<linearGradient id="paint25_linear_3_502" x1="44.0467" y1="54.4119" x2="44.0467" y2="47.0931" gradientUnits="userSpaceOnUse">
<stop stop-color="#634277"/>
<stop offset="0.2682" stop-color="#7B598F"/>
<stop offset="0.5678" stop-color="#906DA4"/>
<stop offset="0.7677" stop-color="#9774AB"/>
</linearGradient>
<linearGradient id="paint26_linear_3_502" x1="99.4454" y1="191.178" x2="115.978" y2="207.711" gradientUnits="userSpaceOnUse">
<stop stop-color="#297292"/>
<stop offset="0.1016" stop-color="#286283"/>
<stop offset="0.2955" stop-color="#264A6D"/>
<stop offset="0.5013" stop-color="#25395D"/>
<stop offset="0.7251" stop-color="#242F54"/>
<stop offset="1" stop-color="#242C51"/>
</linearGradient>
<linearGradient id="paint27_linear_3_502" x1="45.0736" y1="2.73296" x2="94.8238" y2="52.4832" gradientUnits="userSpaceOnUse">
<stop stop-color="#454F6D"/>
<stop offset="0.1528" stop-color="#3A445E"/>
<stop offset="0.3997" stop-color="#2E364D"/>
<stop offset="0.6691" stop-color="#262F43"/>
<stop offset="1" stop-color="#242C40"/>
</linearGradient>
<linearGradient id="paint28_linear_3_502" x1="74.1193" y1="55.0805" x2="74.1193" y2="48.3921" gradientUnits="userSpaceOnUse">
<stop offset="0.1955" stop-color="#FFFFCC"/>
<stop offset="0.292" stop-color="#FCF8C8"/>
<stop offset="0.4286" stop-color="#F4E6BE"/>
<stop offset="0.5891" stop-color="#E6C7AE"/>
<stop offset="0.7678" stop-color="#D39D97"/>
<stop offset="0.9594" stop-color="#BB677B"/>
<stop offset="1" stop-color="#B55B74"/>
</linearGradient>
<linearGradient id="paint29_linear_3_502" x1="71.9587" y1="54.3915" x2="72.7269" y2="44.8319" gradientUnits="userSpaceOnUse">
<stop stop-color="#004F00"/>
<stop offset="0.0466361" stop-color="#044603"/>
<stop offset="0.1977" stop-color="#10300C"/>
<stop offset="0.3623" stop-color="#182012"/>
<stop offset="0.5488" stop-color="#1D1716"/>
<stop offset="0.8045" stop-color="#1E1417"/>
</linearGradient>
<linearGradient id="paint30_linear_3_502" x1="73.9704" y1="45.8251" x2="69.9917" y2="52.9969" gradientUnits="userSpaceOnUse">
<stop stop-color="#004F00"/>
<stop offset="0.2221" stop-color="#005200"/>
<stop offset="0.3752" stop-color="#005B00"/>
<stop offset="0.5076" stop-color="#006A00"/>
<stop offset="0.6282" stop-color="#008000"/>
<stop offset="0.7408" stop-color="#009C00"/>
<stop offset="0.8475" stop-color="#00BF00"/>
<stop offset="0.9476" stop-color="#00E700"/>
<stop offset="1" stop-color="#00FF00"/>
</linearGradient>
<linearGradient id="paint31_linear_3_502" x1="72.1072" y1="52.7444" x2="72.5788" y2="46.4789" gradientUnits="userSpaceOnUse">
<stop stop-color="#004F00"/>
<stop offset="0.0466361" stop-color="#044603"/>
<stop offset="0.1977" stop-color="#10300C"/>
<stop offset="0.3623" stop-color="#182012"/>
<stop offset="0.5488" stop-color="#1D1716"/>
<stop offset="0.8045" stop-color="#1E1417"/>
</linearGradient>
<linearGradient id="paint32_linear_3_502" x1="44.4534" y1="53.9467" x2="44.4534" y2="47.0932" gradientUnits="userSpaceOnUse">
<stop offset="0.1955" stop-color="#FFFFCC"/>
<stop offset="0.292" stop-color="#FCF8C8"/>
<stop offset="0.4286" stop-color="#F4E6BE"/>
<stop offset="0.5891" stop-color="#E6C7AE"/>
<stop offset="0.7678" stop-color="#D39D97"/>
<stop offset="0.9594" stop-color="#BB677B"/>
<stop offset="1" stop-color="#B55B74"/>
</linearGradient>
<linearGradient id="paint33_linear_3_502" x1="46.5462" y1="53.4462" x2="47.3143" y2="43.8866" gradientUnits="userSpaceOnUse">
<stop stop-color="#004F00"/>
<stop offset="0.0466361" stop-color="#044603"/>
<stop offset="0.1977" stop-color="#10300C"/>
<stop offset="0.3623" stop-color="#182012"/>
<stop offset="0.5488" stop-color="#1D1716"/>
<stop offset="0.8045" stop-color="#1E1417"/>
</linearGradient>
<linearGradient id="paint34_linear_3_502" x1="48.5578" y1="44.88" x2="44.5791" y2="52.0517" gradientUnits="userSpaceOnUse">
<stop stop-color="#004F00"/>
<stop offset="0.2221" stop-color="#005200"/>
<stop offset="0.3752" stop-color="#005B00"/>
<stop offset="0.5076" stop-color="#006A00"/>
<stop offset="0.6282" stop-color="#008000"/>
<stop offset="0.7408" stop-color="#009C00"/>
<stop offset="0.8475" stop-color="#00BF00"/>
<stop offset="0.9476" stop-color="#00E700"/>
<stop offset="1" stop-color="#00FF00"/>
</linearGradient>
<linearGradient id="paint35_linear_3_502" x1="46.6944" y1="51.7993" x2="47.166" y2="45.5337" gradientUnits="userSpaceOnUse">
<stop stop-color="#004F00"/>
<stop offset="0.0466361" stop-color="#044603"/>
<stop offset="0.1977" stop-color="#10300C"/>
<stop offset="0.3623" stop-color="#182012"/>
<stop offset="0.5488" stop-color="#1D1716"/>
<stop offset="0.8045" stop-color="#1E1417"/>
</linearGradient>
<linearGradient id="paint36_linear_3_502" x1="41.8999" y1="29.7082" x2="75.0414" y2="62.8497" gradientUnits="userSpaceOnUse">
<stop stop-color="#454F6D"/>
<stop offset="0.1528" stop-color="#3A445E"/>
<stop offset="0.3997" stop-color="#2E364D"/>
<stop offset="0.6691" stop-color="#262F43"/>
<stop offset="1" stop-color="#242C40"/>
</linearGradient>
<linearGradient id="paint37_linear_3_502" x1="28.6041" y1="62.9687" x2="41.051" y2="62.9687" gradientUnits="userSpaceOnUse">
<stop stop-color="#634277"/>
<stop offset="0.2682" stop-color="#7B598F"/>
<stop offset="0.5678" stop-color="#906DA4"/>
<stop offset="0.7677" stop-color="#9774AB"/>
</linearGradient>
<linearGradient id="paint38_linear_3_502" x1="75.3149" y1="58.7805" x2="45.0128" y2="89.0826" gradientUnits="userSpaceOnUse">
<stop stop-color="#634277"/>
<stop offset="0.2682" stop-color="#7B598F"/>
<stop offset="0.5678" stop-color="#906DA4"/>
<stop offset="0.7677" stop-color="#9774AB"/>
</linearGradient>
<linearGradient id="paint39_linear_3_502" x1="108.946" y1="55.0554" x2="102.507" y2="61.4946" gradientUnits="userSpaceOnUse">
<stop stop-color="#634277"/>
<stop offset="0.2682" stop-color="#7B598F"/>
<stop offset="0.5678" stop-color="#906DA4"/>
<stop offset="0.7677" stop-color="#9774AB"/>
</linearGradient>
<linearGradient id="paint40_linear_3_502" x1="25.1556" y1="108.861" x2="27.3008" y2="93.3038" gradientUnits="userSpaceOnUse">
<stop stop-color="#634277"/>
<stop offset="0.2682" stop-color="#7B598F"/>
<stop offset="0.5678" stop-color="#906DA4"/>
<stop offset="0.7677" stop-color="#9774AB"/>
</linearGradient>
<linearGradient id="paint41_linear_3_502" x1="38.4692" y1="105.505" x2="39.7441" y2="96.2597" gradientUnits="userSpaceOnUse">
<stop stop-color="#634277"/>
<stop offset="0.2682" stop-color="#7B598F"/>
<stop offset="0.5678" stop-color="#906DA4"/>
<stop offset="0.7677" stop-color="#9774AB"/>
</linearGradient>
<linearGradient id="paint42_linear_3_502" x1="37.1293" y1="113.473" x2="37.9213" y2="107.729" gradientUnits="userSpaceOnUse">
<stop stop-color="#634277"/>
<stop offset="0.2682" stop-color="#7B598F"/>
<stop offset="0.5678" stop-color="#906DA4"/>
<stop offset="0.7677" stop-color="#9774AB"/>
</linearGradient>
<linearGradient id="paint43_linear_3_502" x1="55.3247" y1="64.9245" x2="55.3247" y2="55.2389" gradientUnits="userSpaceOnUse">
<stop stop-color="#634277"/>
<stop offset="0.1066" stop-color="#6B4C7E"/>
<stop offset="0.286" stop-color="#816691"/>
<stop offset="0.5164" stop-color="#A491B0"/>
<stop offset="0.7859" stop-color="#D4CBDA"/>
<stop offset="1" stop-color="white"/>
</linearGradient>
<linearGradient id="paint44_linear_3_502" x1="55.3679" y1="62.3727" x2="55.3679" y2="51.5134" gradientUnits="userSpaceOnUse">
<stop offset="0.1465" stop-color="#B62A77"/>
<stop offset="0.74" stop-color="white"/>
</linearGradient>
<linearGradient id="paint45_linear_3_502" x1="55.3701" y1="62.7454" x2="55.3701" y2="56.7222" gradientUnits="userSpaceOnUse">
<stop stop-color="#634277"/>
<stop offset="0.1066" stop-color="#6B4C7E"/>
<stop offset="0.286" stop-color="#816691"/>
<stop offset="0.5164" stop-color="#A491B0"/>
<stop offset="0.7859" stop-color="#D4CBDA"/>
<stop offset="1" stop-color="white"/>
</linearGradient>
<linearGradient id="paint46_linear_3_502" x1="43.7048" y1="4.10187" x2="93.455" y2="53.8521" gradientUnits="userSpaceOnUse">
<stop stop-color="#634277"/>
<stop offset="0.2682" stop-color="#7B598F"/>
<stop offset="0.5678" stop-color="#906DA4"/>
<stop offset="0.7677" stop-color="#9774AB"/>
</linearGradient>
<linearGradient id="paint47_linear_3_502" x1="41.7998" y1="29.8339" x2="74.9286" y2="62.9626" gradientUnits="userSpaceOnUse">
<stop stop-color="#634277"/>
<stop offset="0.2682" stop-color="#7B598F"/>
<stop offset="0.5678" stop-color="#906DA4"/>
<stop offset="0.7677" stop-color="#9774AB"/>
</linearGradient>
<linearGradient id="paint48_linear_3_502" x1="95.4484" y1="134.485" x2="151.661" y2="134.485" gradientUnits="userSpaceOnUse">
<stop stop-color="#634277"/>
<stop offset="0.2682" stop-color="#7B598F"/>
<stop offset="0.5678" stop-color="#906DA4"/>
<stop offset="0.7677" stop-color="#9774AB"/>
</linearGradient>
<linearGradient id="paint49_linear_3_502" x1="108.54" y1="192.61" x2="120.331" y2="192.61" gradientUnits="userSpaceOnUse">
<stop stop-color="#634277"/>
<stop offset="0.2682" stop-color="#7B598F"/>
<stop offset="0.5678" stop-color="#906DA4"/>
<stop offset="0.7677" stop-color="#9774AB"/>
</linearGradient>
<linearGradient id="paint50_linear_3_502" x1="59.8032" y1="190.132" x2="72.3138" y2="190.132" gradientUnits="userSpaceOnUse">
<stop stop-color="#634277"/>
<stop offset="0.2682" stop-color="#7B598F"/>
<stop offset="0.5678" stop-color="#906DA4"/>
<stop offset="0.7677" stop-color="#9774AB"/>
</linearGradient>
<linearGradient id="paint51_linear_3_502" x1="91.0877" y1="45.1253" x2="95.3053" y2="45.1253" gradientUnits="userSpaceOnUse">
<stop stop-color="#634277"/>
<stop offset="0.2682" stop-color="#7B598F"/>
<stop offset="0.5678" stop-color="#906DA4"/>
<stop offset="0.7677" stop-color="#9774AB"/>
</linearGradient>
<linearGradient id="paint52_linear_3_502" x1="97.6622" y1="46.2946" x2="97.6622" y2="41.9599" gradientUnits="userSpaceOnUse">
<stop stop-color="#838DA9"/>
<stop offset="0.203" stop-color="#8790AC"/>
<stop offset="0.3987" stop-color="#929AB3"/>
<stop offset="0.5916" stop-color="#A6ABC1"/>
<stop offset="0.7826" stop-color="#C1C2D3"/>
<stop offset="0.9708" stop-color="#E4E0EB"/>
<stop offset="1" stop-color="#EAE5EF"/>
</linearGradient>
<linearGradient id="paint53_linear_3_502" x1="102.323" y1="41.8048" x2="106.968" y2="46.4497" gradientUnits="userSpaceOnUse">
<stop stop-color="#EAE5EF"/>
<stop offset="0.0291884" stop-color="#E4E0EB"/>
<stop offset="0.2174" stop-color="#C1C2D3"/>
<stop offset="0.4084" stop-color="#A6ABC1"/>
<stop offset="0.6013" stop-color="#929AB3"/>
<stop offset="0.797" stop-color="#8790AC"/>
<stop offset="1" stop-color="#838DA9"/>
</linearGradient>
<linearGradient id="paint54_linear_3_502" x1="95.8518" y1="40.133" x2="104.568" y2="48.8495" gradientUnits="userSpaceOnUse">
<stop stop-color="#EAE5EF"/>
<stop offset="0.0291884" stop-color="#E4E0EB"/>
<stop offset="0.2174" stop-color="#C1C2D3"/>
<stop offset="0.4084" stop-color="#A6ABC1"/>
<stop offset="0.6013" stop-color="#929AB3"/>
<stop offset="0.797" stop-color="#8790AC"/>
<stop offset="1" stop-color="#838DA9"/>
</linearGradient>
<linearGradient id="paint55_linear_3_502" x1="96.3372" y1="39.6477" x2="105.054" y2="48.3642" gradientUnits="userSpaceOnUse">
<stop stop-color="#634277"/>
<stop offset="0.2682" stop-color="#7B598F"/>
<stop offset="0.5678" stop-color="#906DA4"/>
<stop offset="0.7677" stop-color="#9774AB"/>
</linearGradient>
<linearGradient id="paint56_linear_3_502" x1="110.375" y1="54.4941" x2="104.267" y2="59.9337" gradientUnits="userSpaceOnUse">
<stop stop-color="white"/>
<stop offset="0.2141" stop-color="#D4CBDA"/>
<stop offset="0.4836" stop-color="#A491B0"/>
<stop offset="0.714" stop-color="#816691"/>
<stop offset="0.8934" stop-color="#6B4C7E"/>
<stop offset="1" stop-color="#634277"/>
</linearGradient>
</defs>
</svg>
