<svg width="161" height="183" viewBox="0 0 161 183" fill="none" xmlns="http://www.w3.org/2000/svg">
<path opacity="0.18" d="M160.044 174.067C159.844 172.867 159.144 171.767 158.244 171.067C158.044 170.967 157.944 170.867 157.744 170.667C154.844 169.367 153.844 170.167 147.844 169.667C146.044 165.167 143.944 166.067 138.444 165.667C139.144 162.367 94.7443 163.067 93.1443 162.467C92.2443 160.267 90.2443 158.767 87.9443 158.367C88.1443 156.567 87.8443 154.767 86.6443 153.367C86.9443 146.867 83.8443 140.767 78.4443 137.967C72.5443 133.767 65.8443 123.067 67.7443 115.067C89.3443 104.867 90.0443 122.767 100.244 133.567C107.444 137.267 120.444 132.467 119.344 125.967C173.244 75.1665 129.444 -12.0335 124.244 19.3665C135.444 50.5665 116.644 68.4665 126.144 71.8665C123.944 74.9665 121.144 78.1665 119.244 79.4665C117.144 78.2665 114.344 78.9665 112.844 80.8665C115.344 72.5665 110.844 63.1665 111.144 55.1665C113.444 42.9665 108.144 30.3665 98.4443 22.8665C91.7443 16.0665 76.9443 14.8665 69.5443 11.6665C60.0443 2.66651 48.7443 6.36651 39.0443 2.46651C37.1443 -0.433486 32.4444 -0.333487 30.7444 2.76651C27.4444 3.86651 24.4443 10.6665 27.5443 14.0665C29.0443 15.7665 30.5443 18.0665 31.0443 19.4665C26.2443 22.1665 15.1443 23.5665 13.9443 28.2665C13.3443 35.4665 16.9443 47.6665 5.14431 62.1665C3.74431 63.6665 3.44433 65.9665 4.34433 67.8665C7.14433 73.5665 14.3443 89.9665 14.8443 97.3665C15.9443 105.367 25.7443 100.167 30.8443 102.967C30.9443 103.767 31.1443 104.467 31.4443 105.167C31.3443 105.467 31.3444 105.767 31.2444 106.067C27.8444 110.267 21.8443 118.967 17.6443 131.867C7.84431 143.067 -1.65565 146.567 0.24435 155.667C1.64435 160.567 7.5443 170.867 13.9443 169.967C14.1443 172.767 14.8443 175.767 17.0443 177.667C17.0443 180.367 19.3443 182.667 22.0443 182.667L65.9443 182.767C77.7443 182.767 89.8443 182.867 101.344 182.667C120.144 180.267 134.944 179.967 155.244 180.267C158.344 180.167 160.744 177.167 160.044 174.067Z" fill="url(#paint0_linear_3_338)"/>
<path d="M160.044 170.966C159.844 169.766 159.144 168.766 158.244 167.966C158.044 167.866 157.944 167.766 157.744 167.666C154.844 166.366 153.844 167.166 147.844 166.766C146.044 162.266 143.944 163.266 138.444 162.866C139.144 159.666 94.7443 160.366 93.1443 159.666C92.2443 157.566 90.2443 156.066 87.9443 155.666C88.1443 153.866 87.8443 152.066 86.6443 150.766C86.9443 144.366 83.8443 138.366 78.4443 135.566C72.5443 131.366 65.8443 120.966 67.7443 112.966C89.3443 102.866 90.0443 120.566 100.244 131.166C107.444 134.766 120.444 130.066 119.344 123.666C173.244 73.6665 129.444 -12.2335 124.244 18.6665C135.444 49.3665 116.644 66.9665 126.144 70.3665C123.944 73.3665 121.144 76.5665 119.244 77.8665C117.144 76.6665 114.344 77.3665 112.844 79.2665C115.344 71.0665 110.844 61.7665 111.144 53.9665C113.444 41.9665 108.144 29.5665 98.4443 22.1665C91.7443 15.4665 76.9443 14.2665 69.5443 11.1665C60.0443 2.26647 48.7443 5.96647 39.0443 2.06647C37.1443 -0.83353 32.4444 -0.633531 30.7444 2.36647C27.4444 3.46647 24.4443 10.1665 27.5443 13.5665C29.0443 15.2665 30.5443 17.4665 31.0443 18.8665C26.2443 21.5665 15.1443 22.8665 13.9443 27.4665C13.3443 34.5665 16.9443 46.6665 5.14431 60.8665C3.74431 62.3665 3.44433 64.5665 4.34433 66.4665C7.14433 72.0665 14.3443 88.1665 14.8443 95.5665C15.9443 103.466 25.7443 98.2665 30.8443 101.066C30.9443 101.766 31.1443 102.566 31.4443 103.266C31.3443 103.566 31.3444 103.866 31.2444 104.166C27.8444 108.266 21.8443 116.866 17.6443 129.566C7.84431 140.666 -1.65565 144.066 0.24435 152.966C1.64435 157.766 7.5443 167.866 13.9443 166.966C14.1443 169.666 14.8443 172.666 17.0443 174.566C17.0443 177.266 19.3443 179.566 22.0443 179.466L65.9443 179.566C77.7443 179.566 89.8443 179.666 101.344 179.466C120.144 177.066 134.944 176.766 155.244 177.166C158.344 176.966 160.744 173.966 160.044 170.966Z" fill="white"/>
<path opacity="0.36" d="M29.6443 173.266C29.0443 173.066 27.4443 172.666 27.4443 172.666C27.4443 172.666 28.8444 172.866 29.8444 172.966C29.9444 173.066 30.0443 173.066 30.1443 173.166L29.6443 173.266ZM88.2444 158.566C87.6444 158.766 87.1444 158.966 86.8444 159.166C87.1444 158.966 87.6444 158.766 88.2444 158.566ZM58.2444 158.966C58.2444 158.966 68.7444 157.766 82.3444 158.866C81.9444 158.866 81.5443 158.766 81.1443 158.766C70.2443 159.166 65.4443 158.966 65.4443 158.966C64.8443 158.966 64.2443 159.066 63.6443 159.066C62.9443 158.766 60.7444 158.866 58.2444 158.966Z" fill="#838BC5"/>
<path d="M18.3442 152.566C18.3442 152.566 18.7442 157.966 29.1442 157.566C39.6442 157.166 28.5443 147.966 27.7443 148.166C26.9443 148.366 18.3442 152.566 18.3442 152.566Z" fill="#0B1723"/>
<path d="M19.9444 149.766C19.9444 149.766 17.4444 166.866 19.9444 170.166C22.4444 173.466 21.7444 164.266 21.7444 164.266C21.7444 164.266 24.1444 169.766 28.2444 170.166C32.3444 170.666 27.4444 166.166 27.4444 166.166C27.4444 166.166 29.7444 167.966 30.4444 167.466C31.2444 166.966 27.5444 157.666 27.7444 157.166C27.9444 156.666 27.7444 149.266 27.7444 149.266L19.9444 149.766Z" fill="#A1B9CE"/>
<path d="M37.0443 104.866C37.0443 104.866 19.8442 122.166 18.3442 152.566C18.3442 152.566 24.3442 146.166 33.9442 156.866C43.5442 167.666 37.0443 104.866 37.0443 104.866Z" fill="#0D1B28"/>
<path d="M129.044 17.1665C135.244 37.4665 133.344 53.3665 127.944 65.5665C129.944 63.5665 132.544 61.7665 134.144 63.2665C137.144 66.1665 120.744 88.0665 117.044 82.0665C104.944 95.1665 90.4443 100.367 90.4443 100.367L102.444 118.266L109.944 124.967L113.644 122.566C165.644 70.7665 129.044 17.1665 129.044 17.1665Z" fill="url(#paint1_linear_3_338)"/>
<path opacity="0.3" d="M129.044 17.1665C135.244 37.4665 133.344 53.3665 127.944 65.5665C129.944 63.5665 132.544 61.7665 134.144 63.2665C137.144 66.1665 120.744 88.0665 117.044 82.0665C104.944 95.1665 90.4443 100.367 90.4443 100.367L97.0444 110.266C98.1444 109.766 99.3444 109.167 100.544 108.467C161.144 76.0665 129.044 17.1665 129.044 17.1665Z" fill="url(#paint2_linear_3_338)"/>
<path d="M35.0443 4.86646C35.0443 4.86646 34.2442 6.56645 32.9442 6.76645C31.6442 6.96645 31.3442 10.0665 31.3442 10.0665C31.3442 10.0665 37.9443 17.3665 36.0443 21.0665C34.1443 24.7665 17.7443 27.6665 18.7443 29.3665C19.7443 31.0665 20.8442 50.9665 8.84424 64.0665C8.84424 64.0665 19.2442 85.0665 19.8442 95.0665C19.8442 95.0665 33.7443 93.1665 38.0443 100.366C38.0443 100.366 33.0443 96.9665 38.0443 104.566C38.0443 104.566 35.6442 101.466 36.3442 107.366C36.3442 107.366 20.7442 141.766 30.3442 168.566L22.1442 174.366C22.1442 174.366 93.9443 174.666 101.244 174.366C108.544 174.066 112.544 171.466 155.244 172.066C155.244 172.066 99.4443 170.566 143.044 168.066C143.044 168.066 110.744 166.666 134.644 166.066L88.1442 164.566C88.1442 164.566 91.6442 158.066 81.4442 161.666C81.4442 161.666 85.5443 148.666 80.7443 156.666C80.7443 156.666 84.9442 144.666 76.1442 140.066C67.3442 135.466 59.1442 116.266 61.4442 107.666C63.6442 99.0665 58.4442 100.366 58.4442 100.366C58.4442 100.366 70.9442 93.3665 86.4442 101.966C86.4442 101.966 90.6442 92.1665 94.4442 90.2665C98.3442 88.3665 110.344 83.1665 108.644 71.6665C106.944 60.1665 105.544 56.6665 106.744 48.3665C107.944 40.0665 100.144 22.9665 80.3442 19.1665C60.5442 15.3665 66.9442 12.0665 57.6442 10.1665C48.3442 8.26645 38.1443 9.36646 35.0443 4.86646Z" fill="url(#paint3_linear_3_338)"/>
<path opacity="0.28" d="M101.144 174.266C108.444 173.966 112.444 171.366 155.144 171.966C155.144 171.966 99.3443 170.466 142.944 167.966C142.944 167.966 110.644 166.566 134.544 165.966L88.0444 164.466C88.0444 164.466 91.5444 157.966 81.3444 161.566C81.3444 161.566 85.4443 148.566 80.6443 156.566C80.6443 156.566 84.8444 144.566 76.0444 139.966C67.3444 135.366 59.0444 116.166 61.3444 107.566C63.5444 98.9664 58.3444 100.266 58.3444 100.266C58.3444 100.266 70.8444 93.2664 86.3444 101.866C86.3444 101.866 90.5444 92.0664 94.3444 90.1664C98.1444 88.2664 110.244 83.0664 108.544 71.5664C106.844 60.0664 105.444 56.5664 106.644 48.2664C107.844 40.0664 100.044 22.8664 80.2444 19.0664C60.4444 15.2664 66.8444 11.9664 57.5444 10.0664C49.2444 8.36643 40.2443 9.06643 36.1443 5.96643C39.2443 8.96643 48.3443 17.0664 59.4443 20.7664C73.2443 25.3664 92.0444 37.3664 85.7444 63.2664C79.4444 89.1664 47.1444 87.7664 46.0444 101.166C46.0444 101.166 45.8443 108.666 43.9443 102.366L44.0444 97.0664L43.3444 24.0664L35.9443 11.2664C35.9443 11.2664 33.1444 10.0664 36.7444 17.3664C40.4444 24.6664 22.1443 30.4664 22.1443 30.4664C22.1443 30.4664 24.3443 43.7664 17.4443 55.7664C17.4443 55.7664 19.2444 60.1664 13.2444 67.6664L20.5444 92.2664C20.5444 92.2664 40.3444 92.4664 41.0444 100.566C41.7444 108.666 37.9443 100.366 37.9443 100.366C37.9443 100.366 39.4443 111.966 50.1443 104.166C50.1443 104.166 43.6443 115.366 37.9443 104.566C37.9443 104.566 41.2443 121.366 51.9443 106.466C62.7443 91.6664 46.9444 117.666 54.7444 133.466C62.5444 149.266 77.1444 174.766 32.3444 168.366C32.3444 168.366 42.7443 172.666 61.9443 170.166C61.9443 170.166 44.0444 176.866 30.2444 168.466L22.0444 174.266C22.0444 174.266 93.8443 174.566 101.144 174.266Z" fill="#634277"/>
<path d="M35.9442 11.2664C39.0442 10.7664 43.2442 18.7664 64.6442 26.0664C86.0442 33.3664 89.3442 61.1664 78.8442 74.0664C68.3442 86.9664 46.4442 86.9664 44.1442 102.366C44.1442 102.366 43.9443 94.7664 32.7443 92.7664C21.4443 90.7664 19.8443 89.1664 17.2443 78.9664C14.6443 68.8664 13.5443 70.7664 17.2443 64.2664C20.9443 57.8664 19.3442 55.9664 19.3442 55.9664C19.3442 55.9664 26.7442 39.2664 25.1442 34.0664C23.4442 28.8664 36.2442 26.4664 38.3442 22.9664C40.1442 19.4664 32.9442 11.7664 35.9442 11.2664Z" fill="#0B1723"/>
<path d="M30.3442 87.2665L32.2443 90.2665L34.9442 87.2665H30.3442Z" fill="#928BA8"/>
<path d="M30.1442 76.3664C30.1442 76.3664 24.4442 79.8664 19.8442 73.3664C19.8442 73.3664 21.9442 66.0664 19.8442 62.8664C19.8442 62.8664 29.0442 50.3664 24.9442 45.5664C24.9442 45.5664 27.1443 44.3664 27.0443 41.9664C26.9443 39.6664 28.0442 19.6664 56.9442 21.9664C85.8442 24.2664 96.4443 44.1664 92.7443 61.3664C88.9443 78.5664 59.6442 90.0664 62.1442 81.9664C62.1442 81.9664 53.2442 83.7664 54.8442 77.1664C54.8442 77.1664 48.4442 76.9664 49.3442 79.9664C50.2442 82.9664 48.6442 85.8664 48.6442 85.8664L46.7443 91.9664C46.7443 91.9664 43.1443 90.0664 42.5443 87.1664C42.5443 87.1664 36.8442 89.3664 30.8442 87.4664C30.8442 87.4664 28.5443 85.8664 27.5443 82.6664L30.1442 76.3664Z" fill="url(#paint4_linear_3_338)"/>
<path d="M51.4443 69.7664C46.5443 69.5664 42.5443 65.6664 41.8443 60.7664C41.1443 55.8664 40.7443 49.0664 43.6443 46.7664C48.3443 42.8664 61.3443 50.0664 61.8443 58.4664C62.1443 64.4664 57.9443 70.0664 51.4443 69.7664Z" fill="url(#paint5_linear_3_338)"/>
<path d="M27.5442 82.8665C27.9442 84.0665 28.4442 85.0665 29.0442 85.8665C32.6442 72.8665 27.5442 82.8665 27.5442 82.8665Z" fill="#F1EFF4"/>
<path d="M30.8442 87.6665C33.0442 88.3665 35.2443 88.5665 37.0443 88.4665C36.8443 71.5665 30.8442 87.6665 30.8442 87.6665Z" fill="#F1EFF4"/>
<path d="M37.0442 88.3664C40.2442 88.1664 42.5442 87.2664 42.5442 87.2664C39.9442 74.6664 37.0442 88.3664 37.0442 88.3664Z" fill="#F1EFF4"/>
<path d="M29.1443 85.8664C30.0443 87.0664 30.8443 87.6664 30.8443 87.6664C35.4443 70.6664 29.1443 85.7664 29.1443 85.8664Z" fill="#F1EFF4"/>
<path d="M42.5442 87.3664C43.1442 90.1664 46.7442 92.1664 46.7442 92.1664L48.6442 86.0664C43.0442 73.9664 42.5442 87.3664 42.5442 87.3664Z" fill="#F1EFF4"/>
<path d="M37.6443 58.9665C38.5443 55.3665 36.7443 46.3665 32.3443 45.5665C27.9443 44.7665 22.9443 63.1665 25.7443 65.7665C28.5443 68.2665 31.3443 67.9665 31.3443 67.9665L30.7443 65.9665C30.4443 64.9665 31.1443 63.9665 32.2443 63.9665C34.0443 64.0665 36.5443 63.2665 37.6443 58.9665Z" fill="url(#paint6_linear_3_338)"/>
<path d="M31.8442 65.4664C31.8442 65.4664 40.9442 69.7664 39.8442 72.0664C38.7442 74.3664 34.9442 70.2664 34.9442 70.2664C34.9442 70.2664 36.3442 73.4664 34.8442 73.4664C33.3442 73.4664 31.8442 65.4664 31.8442 65.4664Z" fill="url(#paint7_linear_3_338)"/>
<path d="M52.8443 53.6665C55.7443 53.1665 57.0443 64.6665 53.3443 64.8665C49.7443 64.9665 48.6443 54.3665 52.8443 53.6665Z" fill="white"/>
<path d="M36.2442 54.1665C34.3442 53.7665 30.3442 60.4665 32.9442 61.6665C35.5442 62.7665 38.5442 54.6665 36.2442 54.1665Z" fill="white"/>
<path opacity="0.28" d="M62.6443 38.0665C62.6443 38.0665 63.0443 44.1665 67.2443 46.6665C67.2443 46.6665 63.9443 56.3665 67.3443 65.4665C70.7443 74.5665 59.9443 81.6665 55.6443 75.9665C50.1443 68.6665 43.1443 78.4665 46.6443 83.8665C47.7443 85.5665 47.1443 88.3665 45.8443 91.4665C46.3443 91.8665 46.7443 92.0665 46.7443 92.0665L48.6443 85.9665C48.6443 85.9665 50.2443 83.1665 49.3443 80.0665C48.4443 77.0665 54.8443 77.2665 54.8443 77.2665C53.2443 83.8665 62.1443 82.0665 62.1443 82.0665C59.6443 90.1665 88.9443 78.5665 92.7443 61.4665C94.5443 53.1665 93.0443 44.2665 87.6443 36.9665C86.5443 35.8665 72.0443 20.8665 62.6443 38.0665Z" fill="#634277"/>
<path opacity="0.28" d="M30.1442 76.3664C30.1442 76.3664 33.6442 71.7664 28.9442 70.7664C24.2442 69.7664 27.8443 78.6664 20.7443 73.4664C20.4443 73.2664 20.2443 73.0664 20.0443 72.9664C19.9443 73.1664 19.9442 73.3664 19.9442 73.3664C24.4442 79.8664 30.1442 76.3664 30.1442 76.3664Z" fill="#634277"/>
<path opacity="0.28" d="M27.5442 82.8665C27.5442 82.8665 32.6442 72.8665 29.0442 85.8665C29.0442 85.8665 35.4442 70.6665 30.7442 87.6665C30.7442 87.6665 36.7442 71.5665 36.9442 88.4665C36.9442 88.4665 39.8442 74.6665 42.4442 87.3665C42.4442 87.3665 43.0442 73.9665 48.5442 86.0665C48.5442 86.0665 43.8442 73.9665 42.2442 84.4665C42.2442 84.4665 40.1442 75.6665 37.3442 84.9665C37.3442 84.9665 36.7442 74.5665 32.1442 83.6665C32.1442 83.6665 35.0442 73.1665 30.2442 82.1665C30.3442 82.0665 32.6442 72.6665 27.5442 82.8665Z" fill="#634277"/>
<path opacity="0.28" d="M30.1442 76.3664C30.1442 76.3664 31.2443 73.6664 29.0443 73.3664C27.8443 73.2664 27.0442 75.6664 25.3442 77.1664C28.0442 77.6664 30.1442 76.3664 30.1442 76.3664Z" fill="#634277"/>
<path opacity="0.28" d="M49.3443 80.1664C48.4443 77.1664 54.8443 77.3664 54.8443 77.3664C54.8443 77.3664 45.9443 72.9664 49.3443 80.1664Z" fill="#634277"/>
<path opacity="0.28" d="M66.9442 32.4664C84.5442 46.5664 77.6442 80.1664 62.1442 82.0664C59.6442 90.1664 88.9443 78.5664 92.7443 61.4664C96.5443 44.2664 85.8442 24.3664 56.9442 22.0664C46.5442 21.2664 39.7442 23.2664 35.3442 26.3664C35.4442 26.2664 49.4442 18.4664 66.9442 32.4664Z" fill="url(#paint8_linear_3_338)"/>
<path opacity="0.3" d="M53.1442 42.7665C75.1442 39.8665 60.8442 27.4665 53.9442 25.3665C53.7442 25.2665 53.5443 25.2665 53.2443 25.1665C53.2443 25.1665 53.2442 25.1665 53.1442 25.1665C42.5442 22.2665 35.3443 26.2665 35.2443 26.3665C30.9443 29.3665 28.8442 33.2665 27.8442 36.4665V36.8665C27.9442 36.9665 30.8442 45.6665 53.1442 42.7665Z" fill="url(#paint9_linear_3_338)"/>
<path opacity="0.28" d="M42.2443 35.6664C41.7443 39.5664 46.7443 40.5664 47.7443 40.2664C48.7443 40.0664 43.0443 29.6664 42.2443 35.6664Z" fill="#634277"/>
<path opacity="0.28" d="M38.0444 35.3665C38.1444 37.2665 33.4444 40.7665 32.7444 39.8665C31.9444 38.9665 37.7444 30.4665 38.0444 35.3665Z" fill="#634277"/>
<path d="M52.8443 77.1665C59.5822 77.1665 65.0443 69.3315 65.0443 59.6665C65.0443 50.0015 59.5822 42.1665 52.8443 42.1665C46.1064 42.1665 40.6443 50.0015 40.6443 59.6665C40.6443 69.3315 46.1064 77.1665 52.8443 77.1665Z" fill="url(#paint10_radial_3_338)"/>
<path d="M46.4442 61.7664C43.6442 69.2664 36.2442 73.3664 29.9442 71.0664C23.6442 68.6664 20.8442 60.6664 23.6442 53.1664C26.4442 45.6664 33.8442 41.5664 40.1442 43.8664C46.4442 46.2664 49.2442 54.2664 46.4442 61.7664Z" fill="url(#paint11_radial_3_338)"/>
<path d="M54.5443 108.666C54.5443 108.666 54.7443 101.066 58.3443 100.266C61.9443 99.4664 64.9443 98.4664 63.7443 106.066C62.5443 113.666 60.3443 130.566 61.2443 138.566C62.0443 146.566 52.9443 134.066 52.9443 134.066C52.9443 134.066 51.9443 112.166 54.5443 108.666Z" fill="url(#paint12_linear_3_338)"/>
<path d="M53.7444 117.966C53.7444 117.966 37.6444 122.966 40.6444 133.966L52.0444 137.366C52.0444 137.366 55.0444 121.966 53.7444 117.966Z" fill="#0B1723"/>
<path d="M5.64429 148.266C5.64429 148.266 35.4443 117.666 41.7443 115.566C41.7443 115.566 42.3443 117.266 44.3443 117.466C44.3443 117.466 46.1443 121.266 44.3443 123.966C44.3443 123.966 27.3443 139.066 13.6443 161.466L5.64429 148.266Z" fill="#83330D"/>
<path d="M113.444 122.566C113.444 122.566 108.544 125.666 105.544 115.166C102.544 104.566 88.7443 97.7665 88.7443 97.7665C88.5443 97.7665 88.4443 97.8665 88.2443 97.8665C87.0443 100.066 86.3443 101.766 86.3443 101.766C84.5443 100.766 82.8443 100.066 81.2443 99.4665C70.3443 101.566 65.5443 100.566 65.5443 100.566C64.3443 100.766 63.0443 101.266 61.6443 101.866C59.6443 102.766 57.4443 104.066 55.2443 105.466C52.8443 107.066 50.5443 108.766 48.7443 110.066C48.1443 110.666 47.5443 111.066 46.9443 111.466C45.8443 112.366 45.1443 112.866 45.1443 112.866L46.7443 121.566C46.7443 121.566 49.1443 119.166 52.9443 116.266C55.1443 114.466 57.9443 112.566 60.9443 110.766C67.0443 107.066 74.3443 104.166 81.0443 105.066C96.3443 107.266 98.8443 124.366 102.744 126.666C106.744 128.966 114.444 124.466 114.444 124.466L113.444 122.566Z" fill="url(#paint13_linear_3_338)"/>
<path opacity="0.28" d="M44.3443 124.066C46.1443 121.366 44.3443 117.566 44.3443 117.566C42.3443 117.366 41.7443 115.666 41.7443 115.666C41.1443 115.866 40.3443 116.366 39.3443 116.966C41.8443 117.466 43.2443 119.566 38.8443 126.066C29.8443 139.466 16.5443 144.466 13.3443 150.866C12.0443 153.366 11.2443 155.166 10.6443 156.366L13.7443 161.466C27.3443 139.166 44.3443 124.066 44.3443 124.066Z" fill="#634277"/>
<path opacity="0.28" d="M55.2443 105.566C52.8443 107.166 50.5443 108.866 48.7443 110.166C48.1443 110.766 47.5443 111.166 46.9443 111.566C45.8443 112.466 45.1443 112.966 45.1443 112.966L46.7443 121.666C46.7443 121.666 49.1443 119.266 52.9443 116.366C55.1443 114.566 57.9443 112.666 60.9443 110.866C67.0443 107.166 74.3443 104.266 81.0443 105.166C96.3443 107.366 98.8443 124.466 102.744 126.766C106.744 129.066 114.444 124.566 114.444 124.566L113.444 122.566C113.444 122.566 108.544 125.666 105.544 115.166C102.544 104.566 88.7443 97.7665 88.7443 97.7665C88.5443 97.7665 88.4443 97.8665 88.2443 97.8665C87.0443 100.066 86.3443 101.766 86.3443 101.766C84.5443 100.766 82.8443 100.066 81.2443 99.4665C81.2443 99.4665 80.5443 103.366 71.9443 102.366C63.2443 101.266 56.7443 113.566 54.1443 110.366C51.5443 107.166 63.0443 101.466 63.3443 101.366C62.8443 101.566 62.2443 101.766 61.7443 102.066C59.5443 102.966 57.3443 104.266 55.2443 105.566Z" fill="#634277"/>
<path d="M5.64432 148.266C7.54432 146.866 15.1443 158.766 13.6443 161.466C12.1443 164.266 1.94432 150.966 5.64432 148.266Z" fill="#44170D"/>
<path d="M39.3442 116.966L41.7443 115.666C41.7443 115.666 42.0442 118.066 44.3442 117.566C44.3442 117.566 45.5442 121.966 44.3442 124.066L40.1442 128.066C40.1442 128.066 39.6443 131.666 45.2443 131.566C50.8443 131.466 52.1443 118.966 53.7443 117.966C55.3443 116.966 57.6442 111.866 53.6442 109.566C49.7442 107.266 47.0443 106.666 44.7443 110.066C44.7443 110.066 41.5442 110.866 42.1442 112.166C42.2442 112.066 38.1442 112.966 39.3442 116.966Z" fill="url(#paint14_linear_3_338)"/>
<path opacity="0.28" d="M44.3442 117.566C44.3442 117.566 45.5442 121.966 44.3442 124.066L40.1442 128.066C40.1442 128.066 39.6443 131.666 45.2443 131.566C50.8443 131.466 52.1443 118.966 53.7443 117.966C55.0443 117.166 56.8442 113.466 55.1442 110.966C55.2442 111.266 56.1442 113.766 52.6442 111.366C49.5442 109.166 45.8442 109.766 44.8442 109.966C44.8442 109.966 44.8442 109.966 44.8442 110.066C54.8442 110.266 53.0443 115.066 48.7443 113.366C44.4443 111.566 42.2443 112.266 42.2443 112.266C42.2443 112.266 46.8442 112.666 48.4442 114.166C50.0442 115.666 47.2442 123.566 46.1442 122.766C44.9442 121.866 45.4442 116.366 45.4442 116.366C42.7442 116.466 42.5443 114.566 41.0443 114.966C39.5443 115.366 39.3442 117.066 39.3442 117.066L41.7443 115.766C41.7443 115.566 41.9442 118.066 44.3442 117.566Z" fill="#634277"/>
<path opacity="0.28" d="M19.9443 170.166C22.4443 173.466 21.7443 164.266 21.7443 164.266C21.7443 164.266 24.1443 169.766 28.2443 170.166C32.3443 170.666 27.4443 166.166 27.4443 166.166C27.4443 166.166 29.7443 167.966 30.4443 167.466C31.2443 166.966 27.5443 157.666 27.7443 157.166C27.8443 156.966 27.8443 155.966 27.8443 154.766C27.8443 154.766 27.7443 154.866 27.7443 154.966C27.3443 157.466 24.5443 162.666 22.8443 163.266C21.1443 163.866 21.1443 160.866 21.8443 158.066C22.5443 155.266 22.8443 151.866 22.8443 151.866C20.9443 152.266 19.6443 155.566 18.8443 159.266C18.6443 163.866 18.7443 168.666 19.9443 170.166Z" fill="#634277"/>
<path opacity="0.28" d="M21.6443 162.166C21.4443 161.166 21.6443 159.666 22.0443 158.166C22.7443 155.366 23.0443 151.966 23.0443 151.966C23.0443 151.966 19.7443 157.466 21.8443 164.266C21.7443 164.266 21.5443 163.166 21.6443 162.166Z" fill="#634277"/>
<path opacity="0.28" d="M24.4443 162.166C25.2443 162.966 26.2444 164.266 27.5444 166.166C27.5444 166.166 26.0443 163.666 25.4443 160.866C25.0443 161.366 24.7443 161.766 24.4443 162.166Z" fill="#634277"/>
<path opacity="0.6" d="M41.3443 25.7664C40.0443 25.1664 44.5443 22.0664 48.7443 23.9664C53.0443 25.8664 45.5443 27.7664 41.3443 25.7664Z" fill="#FDFFFF"/>
<path opacity="0.6" d="M36.4442 27.9665C35.6442 27.4665 38.9443 25.4665 41.5443 27.0665C44.2443 28.6665 39.0442 29.6665 36.4442 27.9665Z" fill="#FDFFFF"/>
<path d="M40.6443 133.966C40.6443 133.966 54.5443 128.766 53.7443 117.966C53.7443 117.966 56.4443 132.866 58.6443 133.966C60.7443 135.066 63.0443 142.066 59.5443 145.866C56.0443 149.666 40.6443 133.966 40.6443 133.966Z" fill="url(#paint15_linear_3_338)"/>
<defs>
<linearGradient id="paint0_linear_3_338" x1="-0.0423504" y1="91.5289" x2="160.178" y2="91.5289" gradientUnits="userSpaceOnUse">
<stop stop-color="#00004F"/>
<stop offset="1"/>
</linearGradient>
<linearGradient id="paint1_linear_3_338" x1="115.877" y1="125.041" x2="115.877" y2="17.2106" gradientUnits="userSpaceOnUse">
<stop stop-color="#838DA9"/>
<stop offset="0.203" stop-color="#8790AC"/>
<stop offset="0.3987" stop-color="#929AB3"/>
<stop offset="0.5916" stop-color="#A6ABC1"/>
<stop offset="0.7826" stop-color="#C1C2D3"/>
<stop offset="0.9708" stop-color="#E4E0EB"/>
<stop offset="1" stop-color="#EAE5EF"/>
</linearGradient>
<linearGradient id="paint2_linear_3_338" x1="113.887" y1="125.041" x2="113.887" y2="17.2103" gradientUnits="userSpaceOnUse">
<stop stop-color="#6A72BB"/>
<stop offset="0.3358" stop-color="#464B7B"/>
<stop offset="1"/>
</linearGradient>
<linearGradient id="paint3_linear_3_338" x1="-0.954965" y1="40.3505" x2="142.919" y2="184.224" gradientUnits="userSpaceOnUse">
<stop stop-color="#243D5B"/>
<stop offset="0.2612" stop-color="#1C324C"/>
<stop offset="0.5" stop-color="#13243B"/>
</linearGradient>
<linearGradient id="paint4_linear_3_338" x1="80.662" y1="29.4748" x2="26.6021" y2="83.5348" gradientUnits="userSpaceOnUse">
<stop stop-color="#A1B9CE"/>
<stop offset="0.1435" stop-color="#ACC0D3"/>
<stop offset="1" stop-color="#EAE5EF"/>
</linearGradient>
<linearGradient id="paint5_linear_3_338" x1="57.5784" y1="50.4324" x2="43.054" y2="64.9569" gradientUnits="userSpaceOnUse">
<stop stop-color="#243D5B"/>
<stop offset="0.8344" stop-color="#162941"/>
<stop offset="1" stop-color="#13243B"/>
</linearGradient>
<linearGradient id="paint6_linear_3_338" x1="25.332" y1="51.5169" x2="36.5935" y2="62.7784" gradientUnits="userSpaceOnUse">
<stop stop-color="#243D5B"/>
<stop offset="1" stop-color="#13243B"/>
</linearGradient>
<linearGradient id="paint7_linear_3_338" x1="31.1957" y1="66.1157" x2="38.5739" y2="73.4939" gradientUnits="userSpaceOnUse">
<stop stop-color="#243D5B"/>
<stop offset="1" stop-color="#13243B"/>
</linearGradient>
<linearGradient id="paint8_linear_3_338" x1="53.4052" y1="37.0056" x2="92.8543" y2="79.6708" gradientUnits="userSpaceOnUse">
<stop stop-color="white"/>
<stop offset="0.5526" stop-color="#9984A6"/>
<stop offset="0.8407" stop-color="#634277"/>
</linearGradient>
<linearGradient id="paint9_linear_3_338" x1="26.8535" y1="33.7596" x2="64.1852" y2="33.7596" gradientUnits="userSpaceOnUse">
<stop stop-color="#6A72BB"/>
<stop offset="0.3358" stop-color="#464B7B"/>
<stop offset="1"/>
</linearGradient>
<radialGradient id="paint10_radial_3_338" cx="0" cy="0" r="1" gradientUnits="userSpaceOnUse" gradientTransform="translate(52.8298 59.6838) scale(12.1862 17.519)">
<stop stop-color="#C73DFF"/>
<stop offset="0.0380881" stop-color="#B638E9"/>
<stop offset="0.1418" stop-color="#8C2BB3"/>
<stop offset="0.2494" stop-color="#661F83"/>
<stop offset="0.3587" stop-color="#47165B"/>
<stop offset="0.4699" stop-color="#2D0E3A"/>
<stop offset="0.5838" stop-color="#190820"/>
<stop offset="0.7014" stop-color="#0B030E"/>
<stop offset="0.825" stop-color="#030104"/>
<stop offset="0.9646"/>
</radialGradient>
<radialGradient id="paint11_radial_3_338" cx="0" cy="0" r="1" gradientUnits="userSpaceOnUse" gradientTransform="translate(35.0019 57.508) rotate(20.6052) scale(12.1861 14.494)">
<stop stop-color="#C73DFF"/>
<stop offset="0.0380881" stop-color="#B638E9"/>
<stop offset="0.1418" stop-color="#8C2BB3"/>
<stop offset="0.2494" stop-color="#661F83"/>
<stop offset="0.3587" stop-color="#47165B"/>
<stop offset="0.4699" stop-color="#2D0E3A"/>
<stop offset="0.5838" stop-color="#190820"/>
<stop offset="0.7014" stop-color="#0B030E"/>
<stop offset="0.825" stop-color="#030104"/>
<stop offset="0.9646"/>
</radialGradient>
<linearGradient id="paint12_linear_3_338" x1="58.2948" y1="159.678" x2="58.2948" y2="98.3078" gradientUnits="userSpaceOnUse">
<stop offset="0.1919" stop-color="#243D5B"/>
<stop offset="0.7576" stop-color="#13243B"/>
</linearGradient>
<linearGradient id="paint13_linear_3_338" x1="45.1565" y1="112.675" x2="114.436" y2="112.675" gradientUnits="userSpaceOnUse">
<stop stop-color="#83330D"/>
<stop offset="0.1481" stop-color="#752D0D"/>
<stop offset="0.4787" stop-color="#5A210D"/>
<stop offset="0.7733" stop-color="#4A1A0D"/>
<stop offset="1" stop-color="#44170D"/>
</linearGradient>
<linearGradient id="paint14_linear_3_338" x1="40.4599" y1="112.907" x2="52.9336" y2="125.381" gradientUnits="userSpaceOnUse">
<stop stop-color="#EAE5EF"/>
<stop offset="0.0192454" stop-color="#E7E3EE"/>
<stop offset="0.28" stop-color="#C9D1E0"/>
<stop offset="0.5348" stop-color="#B3C4D6"/>
<stop offset="0.7787" stop-color="#A6BCD0"/>
<stop offset="1" stop-color="#A1B9CE"/>
</linearGradient>
<linearGradient id="paint15_linear_3_338" x1="46.4658" y1="125.204" x2="76.1028" y2="154.842" gradientUnits="userSpaceOnUse">
<stop offset="0.1717" stop-color="#243D5B"/>
<stop offset="0.2502" stop-color="#213956"/>
<stop offset="0.6013" stop-color="#172A42"/>
<stop offset="0.8416" stop-color="#13243B"/>
</linearGradient>
</defs>
</svg>
