<svg width="125" height="226" viewBox="0 0 125 226" fill="none" xmlns="http://www.w3.org/2000/svg">
<path opacity="0.18" d="M108.693 114.126L108.793 114.026C118.893 102.326 124.293 86.5262 124.193 71.1262C123.693 57.1262 114.293 44.6262 101.793 38.9262C100.493 35.0262 97.2935 30.9262 95.4935 27.4262C95.3935 23.0262 93.5935 21.1262 90.0935 19.0262C99.8935 1.62623 63.0935 -6.27377 63.2935 9.82623C63.1935 11.1262 63.9935 12.4262 63.6935 13.7262C62.9935 16.2262 62.8935 19.5262 64.9935 21.4262C62.3935 21.8262 60.1935 21.8262 57.8935 23.2262C40.5935 19.9262 16.1935 38.6262 8.59346 55.9262C4.69346 67.1262 11.2935 82.7262 20.4935 88.8262C21.8935 92.4262 25.3935 99.1262 33.6935 104.526C29.8935 107.326 25.7935 112.326 21.2935 118.126C18.4935 118.726 16.6935 121.726 17.3935 124.526C15.9935 126.826 12.7935 132.126 9.69347 137.026C6.19347 138.326 5.19346 140.826 4.09346 143.426C0.293463 148.526 -2.80654 153.126 4.09346 155.926C3.79346 163.826 11.4935 172.926 17.0935 163.326C19.1935 160.626 18.5935 155.026 20.0935 152.026C21.6935 150.426 22.5935 148.026 22.6935 145.426C24.3935 142.926 26.9935 139.126 30.0935 135.326C30.2935 137.026 30.5935 138.726 30.9935 140.426C29.0935 142.526 29.4935 146.126 31.7935 147.726C32.0935 148.926 32.7935 150.126 34.3935 151.226L47.5935 200.826C48.2935 203.526 51.0935 205.126 53.7935 204.326C54.0935 205.526 54.3935 206.626 54.6935 207.626C54.3935 208.326 54.2935 209.226 54.2935 210.026C50.7935 211.126 45.0935 212.426 42.6935 213.926C37.1935 217.126 37.6935 224.926 43.8935 225.226C44.4935 225.226 61.8935 225.426 61.5935 224.926C63.8935 225.326 67.4935 225.626 69.5935 224.426C71.6935 225.626 75.2935 225.326 77.5935 224.926C77.1935 225.426 94.8935 225.126 95.2935 225.226C101.393 224.826 101.993 217.126 96.4935 213.926C93.4935 211.626 85.5935 211.726 82.7935 208.326C82.5935 206.726 81.6935 205.326 80.2935 204.526C80.2935 204.426 80.1935 204.326 80.1935 204.126C81.8935 201.626 79.5935 196.726 80.5935 194.426C81.7935 194.626 85.6935 195.726 94.4935 203.426C96.2935 205.026 98.8935 205.026 100.793 203.626C105.393 198.726 100.793 195.826 97.5935 188.626C90.1935 174.826 78.5935 156.426 69.7935 147.426C69.6935 146.726 69.4935 146.026 69.0935 145.226C69.3935 143.726 69.1935 142.126 68.4935 140.826C69.4935 138.326 70.7935 135.526 71.8935 132.926C77.7935 137.426 89.8935 147.826 95.5935 153.026C95.8935 154.726 96.8935 156.326 97.9935 157.626C99.2935 160.726 98.8935 165.926 100.793 168.726C106.493 178.626 113.993 169.726 113.793 161.426C120.693 158.626 117.593 154.026 113.793 148.926C112.593 146.026 110.893 143.326 107.993 142.526C105.593 139.026 102.093 136.226 99.4935 132.826C96.9935 130.426 95.6935 126.826 92.0935 126.326C90.5935 124.326 88.0935 121.326 85.5935 118.426C86.2935 118.126 87.0935 118.326 87.7935 118.226C94.2935 123.526 103.593 120.126 108.693 114.126Z" fill="url(#paint0_linear_3_595)"/>
<path d="M108.693 112.826L108.793 112.726C118.893 101.126 124.293 85.2262 124.193 69.9262C123.693 55.9262 114.293 43.5262 101.793 37.8262C100.493 33.9262 97.2935 29.8262 95.4935 26.3262C95.3935 21.9262 93.5935 20.0262 90.0935 17.9262C99.8935 0.62624 63.0935 -7.37376 63.2935 8.72624C63.1935 10.0262 63.9935 11.3262 63.6935 12.6262C62.9935 15.1262 62.8935 18.4262 64.9935 20.3262C62.3935 20.7262 60.1935 20.7262 57.8935 22.1262C40.5935 18.8262 16.1935 37.5262 8.59346 54.8262C4.69346 65.9262 11.2935 81.5262 20.4935 87.7262C21.8935 91.3262 25.3935 98.0262 33.6935 103.426C29.8935 106.226 25.7935 111.226 21.2935 116.926C18.4935 117.526 16.6935 120.526 17.3935 123.326C15.9935 125.626 12.7935 130.926 9.69347 135.826C6.19347 137.126 5.19346 139.626 4.09346 142.226C0.293463 147.326 -2.80654 151.926 4.09346 154.726C3.79346 162.626 11.4935 171.726 17.0935 162.126C19.1935 159.426 18.5935 153.926 20.0935 150.826C21.6935 149.226 22.5935 146.826 22.6935 144.226C24.3935 141.726 26.9935 137.926 30.0935 134.126C30.2935 135.826 30.5935 137.526 30.9935 139.126C29.0935 141.226 29.4935 144.826 31.7935 146.426C32.0935 147.626 32.7935 148.826 34.3935 149.926L47.5935 199.426C48.2935 202.126 51.0935 203.726 53.7935 202.926C54.0935 204.126 54.3935 205.226 54.6935 206.226C54.3935 206.926 54.2935 207.726 54.2935 208.526C50.7935 209.626 45.0935 210.926 42.6935 212.326C37.1935 215.526 37.6935 223.226 43.8935 223.626C44.4935 223.626 61.8935 223.826 61.5935 223.326C63.8935 223.726 67.4935 224.026 69.5935 222.826C71.6935 223.926 75.2935 223.726 77.5935 223.326C77.1935 223.826 94.8935 223.526 95.2935 223.626C101.393 223.226 101.993 215.526 96.4935 212.326C93.4935 210.026 85.5935 210.126 82.7935 206.726C82.5935 205.126 81.6935 203.726 80.2935 202.926C80.2935 202.826 80.1935 202.726 80.1935 202.526C81.8935 200.026 79.5935 195.126 80.5935 192.926C81.7935 193.126 85.6935 194.226 94.4935 201.826C96.2935 203.426 98.8935 203.426 100.793 202.026C105.393 197.226 100.793 194.226 97.5935 187.026C90.1935 173.326 78.5935 154.926 69.7935 145.926C69.6935 145.226 69.4935 144.526 69.0935 143.726C69.3935 142.226 69.1935 140.626 68.4935 139.326C69.4935 136.826 70.7935 134.026 71.8935 131.426C77.7935 135.926 89.8935 146.326 95.5935 151.426C95.8935 153.126 96.8935 154.726 97.9935 156.026C99.2935 159.126 98.8935 164.326 100.793 167.126C106.493 177.026 113.993 168.126 113.793 159.826C120.693 157.026 117.593 152.526 113.793 147.426C112.593 144.526 110.893 141.826 107.993 141.026C105.593 137.526 102.093 134.726 99.4935 131.326C96.9935 128.926 95.6935 125.326 92.0935 124.826C90.5935 122.826 88.0935 119.826 85.5935 117.026C86.2935 116.726 87.0935 116.926 87.7935 116.826C94.2935 122.126 103.593 118.826 108.693 112.826Z" fill="white"/>
<path d="M52.2935 197.826C52.2935 197.826 49.4936 172.026 61.3936 194.926C61.3936 194.926 57.1935 172.626 75.7935 199.726C75.7935 199.726 69.9936 173.826 97.6936 197.826L45.2935 134.526L42.8936 142.626L52.2935 197.826Z" fill="#0F141C"/>
<path d="M42.9937 157.226L53.3936 189.626C53.3936 189.626 54.2936 189.126 56.1936 193.926C58.1936 198.726 60.0936 206.926 60.0936 206.926L59.2936 207.726L60.6936 209.126L59.3936 209.626L61.3936 212.326C61.3936 212.326 64.9936 213.926 67.3936 213.526L69.2936 211.726C69.2936 211.726 61.9936 200.026 63.1936 196.226C64.3936 192.426 62.0936 194.826 62.0936 194.826L57.1936 170.126C57.1936 170.126 59.1936 171.326 60.2936 173.926C61.3936 176.526 66.4936 193.826 66.0936 193.926C65.6936 194.026 67.3936 196.526 67.3936 196.526C67.3936 196.526 71.5936 208.826 70.8936 210.826C70.8936 210.826 70.8936 213.126 72.6936 213.626C74.4936 214.126 79.1936 212.826 79.1936 212.826V209.826H78.0936L77.6936 206.826H76.4937C76.4937 206.826 71.6936 195.526 72.3936 187.826C72.3936 187.826 68.8936 172.926 69.7936 165.526C70.5936 158.126 49.3936 146.826 49.3936 146.826L42.9937 157.226Z" fill="url(#paint1_linear_3_595)"/>
<path d="M49.1937 101.826C49.1937 101.826 38.3937 100.726 25.2937 120.126C25.2937 120.126 23.4937 121.526 22.5937 121.726C21.5937 121.826 23.1937 123.026 22.5937 124.326C21.9937 125.626 13.4937 139.126 13.4937 139.126C13.4937 139.126 14.9937 139.726 16.1937 144.726C16.1937 144.726 30.4937 121.426 42.8937 115.226C55.3937 108.926 56.7937 101.626 49.1937 101.826Z" fill="#242C40"/>
<path opacity="0.25" d="M78.0936 209.926L77.6936 206.926H76.4936C76.4936 206.926 71.6936 195.626 72.3936 187.926C72.3936 187.926 68.8935 173.026 69.7935 165.626C70.5935 158.226 49.3936 146.926 49.3936 146.926L42.8936 157.126L51.0936 182.626C49.8936 173.426 48.4936 159.526 50.4936 157.226C53.5936 153.726 66.7936 168.726 68.8936 174.826C71.0936 180.926 70.7935 191.726 70.7935 191.726C70.7935 191.726 71.3936 189.926 71.9936 191.026C72.4936 192.126 75.4936 210.926 72.1936 208.626C72.1936 208.626 74.3936 210.126 74.6936 206.426C74.6936 206.426 76.5936 212.026 71.6936 209.626C71.6936 209.626 74.4936 212.826 76.1936 209.226C76.1936 209.226 77.0936 215.126 70.6936 210.826C70.6936 210.826 70.6936 213.126 72.4936 213.626C74.2936 214.126 78.9936 212.826 78.9936 212.826V209.826H78.0936V209.926Z" fill="#002C8E"/>
<path d="M103.294 142.526C99.9936 139.426 91.6936 129.526 91.6936 129.526C90.3936 130.826 89.9936 130.026 89.9936 130.026C89.9936 130.026 77.3936 112.826 70.5936 110.426C67.1936 101.626 54.1936 92.3263 49.0936 102.226C49.0936 102.226 30.4936 112.326 35.5936 136.726C35.5936 136.726 37.1936 142.126 34.6936 142.126L37.6936 143.526C37.6936 143.526 34.4936 144.626 38.4936 146.226L52.2936 197.726C52.2936 197.726 45.0936 151.026 48.1936 149.926C51.1936 148.826 97.7936 197.726 97.7936 197.726C97.7936 197.726 80.3936 162.526 63.9936 146.926C63.9936 146.926 66.3936 146.626 62.8936 143.926C62.8936 143.926 65.6936 142.326 63.3936 140.826C61.8936 139.826 66.8936 131.426 69.6936 123.226C80.8936 131.126 101.594 149.826 101.594 149.826C98.9936 143.326 103.294 142.526 103.294 142.526Z" fill="url(#paint2_linear_3_595)"/>
<path d="M42.0936 134.026C42.0936 134.026 54.9936 107.626 69.3936 109.326C69.6936 109.326 69.8936 109.426 70.1936 109.426C67.3936 103.526 60.5936 97.7262 55.0936 98.0262C53.8936 98.3262 52.5936 98.7262 51.3936 99.4262C50.4936 100.126 49.7936 101.026 49.0936 102.326C49.0936 102.326 46.4936 103.726 43.4936 106.826L43.3936 106.926C42.4936 107.826 35.8936 115.826 42.0936 134.026Z" fill="#FFF1D2"/>
<path opacity="0.63" d="M49.9936 100.726L49.0936 102.226L46.6936 106.726L48.7936 108.426L51.2936 109.626L52.0936 98.7263L49.9936 100.726Z" fill="#BC6600"/>
<path d="M51.5935 97.9263L48.7935 107.526C48.7935 107.526 50.9935 112.526 56.4935 108.926L63.0935 99.5263L51.5935 97.9263Z" fill="url(#paint3_linear_3_595)"/>
<path opacity="0.25" d="M49.9934 103.326C49.9934 103.326 50.2934 107.626 58.1934 106.526L63.0934 99.5263L51.5934 97.9263L49.9934 103.326Z" fill="#002C8E"/>
<path opacity="0.25" d="M51.5935 97.9263L48.7935 107.526C48.7935 107.526 50.9935 112.526 56.4935 108.926L63.0935 99.5263L51.5935 97.9263Z" fill="#002C8E"/>
<path opacity="0.25" d="M51.5935 97.9263L48.7935 107.526C48.7935 107.526 50.9935 112.526 56.4935 108.926L63.0935 99.5263L51.5935 97.9263Z" fill="#002C8E"/>
<path opacity="0.25" d="M52.2936 197.826C52.2936 197.826 50.1936 183.826 48.6936 171.026C46.1936 168.126 43.7937 164.226 41.9937 159.226L52.2936 197.826Z" fill="#002C8E"/>
<path opacity="0.25" d="M34.6936 142.126L37.6936 143.526C37.6936 143.526 34.4936 144.626 38.4936 146.226L38.6936 147.026C38.6936 147.026 38.4936 145.526 42.3936 145.626C42.3936 145.626 35.1936 144.126 40.4936 143.426C40.4936 143.426 37.7936 142.926 35.5936 137.126C35.9936 138.226 36.7936 142.126 34.6936 142.126Z" fill="#002C8E"/>
<path opacity="0.25" d="M39.4935 118.626C39.4935 118.626 42.4935 111.526 48.7935 112.126C55.0935 112.726 47.3935 124.926 47.3935 124.926C47.3935 124.926 54.9935 119.026 60.8935 120.326C66.7935 121.626 56.0935 140.326 49.0935 143.026C49.0935 143.026 68.8935 140.626 54.1935 145.326C54.1935 145.326 67.8935 145.026 56.2935 147.026C56.2935 147.026 79.8935 155.826 70.6935 170.126C83.7935 183.226 97.6935 197.726 97.6935 197.726C97.6935 197.726 80.2935 162.526 63.8935 146.926C63.8935 146.926 66.2935 146.626 62.7935 143.926C62.7935 143.926 65.5935 142.326 63.2935 140.826C61.7935 139.826 66.7935 131.426 69.5935 123.226C80.7935 131.126 101.494 149.826 101.494 149.826C98.9935 143.326 103.194 142.526 103.194 142.526C99.8935 139.426 91.5935 129.526 91.5935 129.526C90.2935 130.826 89.8935 130.026 89.8935 130.026C89.8935 130.026 77.2935 112.826 70.4935 110.426C67.0935 101.626 54.0935 92.3263 48.9935 102.226C48.9935 102.226 41.1935 106.426 37.0935 116.026C37.8935 115.626 38.6935 116.226 39.4935 118.626Z" fill="#002C8E"/>
<path d="M49.0936 102.226L44.4937 104.126V112.126C44.4937 112.126 48.8936 103.826 53.0936 114.426C53.0936 114.426 65.6936 111.426 66.2936 107.526C66.8936 103.726 61.2936 101.726 61.2936 101.726C61.2936 101.726 45.2936 116.726 49.0936 102.226Z" fill="#FFF1D2"/>
<path opacity="0.25" d="M66.3936 107.626C66.9936 103.826 61.3936 101.826 61.3936 101.826C61.3936 101.826 58.1937 104.726 54.9937 106.726C54.9937 106.726 61.7936 103.626 58.3936 112.926C61.8936 111.626 65.9936 109.726 66.3936 107.626Z" fill="#002C8E"/>
<path opacity="0.25" d="M48.4937 105.326C48.5937 104.526 48.6936 103.526 49.0936 102.226L44.4937 104.126V105.726C44.4937 105.726 48.4937 100.226 48.4937 105.326Z" fill="#002C8E"/>
<path d="M57.1936 29.0263C57.1936 29.0263 59.8936 25.3263 63.9936 25.4263C68.0936 25.5263 83.3936 17.3263 82.1936 14.3263C81.0936 11.3263 69.6936 17.5263 68.4936 16.7263C67.2936 15.9263 69.3936 13.2263 68.3936 10.0263C67.3936 6.82625 69.2936 4.72625 73.9936 5.02625C78.6936 5.32625 88.9936 7.92625 86.2936 13.5263C83.5936 19.1263 85.6936 21.1263 87.8936 22.4263C90.0936 23.8263 90.3936 23.8263 90.4936 26.8263C90.5936 29.8263 99.3936 39.3263 97.0936 43.1263C94.8936 47.0263 59.4936 45.4263 57.1936 29.0263Z" fill="url(#paint4_linear_3_595)"/>
<path opacity="0.51" d="M68.4935 10.0263C69.4935 13.2263 67.3935 15.9263 68.5935 16.7263C69.7935 17.5263 81.1935 11.3263 82.2935 14.3263C83.3935 17.3263 68.1935 25.6263 64.0935 25.4263C59.9935 25.3263 57.2935 29.0263 57.2935 29.0263C58.1935 35.4263 64.0935 39.5263 70.9935 41.9263L76.6935 43.5263C86.2935 45.6263 96.0935 45.1263 97.1935 43.1263C97.7935 42.0263 97.5935 40.5263 96.8935 38.8263C96.1935 42.2263 92.2935 36.4263 90.0935 33.6263C87.8935 30.8263 89.2935 25.9263 89.2935 25.9263C88.8935 27.5263 84.7935 28.5263 83.6935 27.8263C82.5935 27.1263 83.7935 20.2263 83.7935 20.2263C83.7935 20.2263 82.4935 27.2263 81.5935 26.8263C80.6935 26.5263 82.9935 19.4263 82.9935 19.4263C81.8935 23.3263 73.0935 29.1263 78.2935 23.7263C83.4935 18.3263 83.3935 16.3263 83.3935 16.3263C82.0935 20.0263 73.0935 26.4263 72.4935 24.4263C71.8935 22.4263 82.3935 18.9263 83.1935 14.3263C83.9935 9.82626 71.4935 13.6263 71.4935 13.6263C71.4935 13.6263 73.3935 11.1263 73.0935 7.72626C72.8935 6.02626 71.3935 5.62626 69.9935 5.72626C68.3935 6.52626 67.8935 8.12626 68.4935 10.0263Z" fill="#6C9604"/>
<path d="M58.9936 28.8263C58.9936 28.8263 69.5936 23.7263 78.8936 27.7263C88.1936 31.7263 90.6936 39.4263 90.6936 39.4263C90.6936 39.4263 110.794 41.7263 117.994 62.3263C125.194 83.0263 102.294 128.826 88.4936 109.926C88.4936 109.926 77.7935 116.526 67.2935 111.226C56.6935 105.926 56.5936 99.6263 56.5936 99.6263C56.5936 99.6263 47.3936 105.826 36.8936 99.2263C26.3936 92.5263 24.5936 83.8263 24.5936 83.8263C24.5936 83.8263 16.3936 81.9263 12.4936 63.9263C8.59355 45.9263 52.4936 17.7263 58.9936 28.8263Z" fill="#FF5100"/>
<path d="M115.893 90.1263C119.193 80.4263 120.493 69.7263 117.993 62.3263C110.793 41.6263 90.6935 39.4263 90.6935 39.4263C90.6935 39.4263 92.4935 40.4263 91.5935 50.0263C91.5935 50.0263 101.093 44.0263 103.393 62.5263C104.893 74.9263 102.093 81.5263 99.8935 86.4263C97.6935 91.4263 97.4935 95.5263 92.7935 98.3263C88.5935 100.826 83.5935 102.426 78.4935 100.826C65.8935 96.9263 74.0935 85.3263 74.0935 85.3263C74.0935 85.3263 59.3935 86.4263 47.2935 79.9263C35.2935 73.4263 31.1935 69.7263 31.1935 69.7263C12.8935 80.3263 12.2935 56.2263 16.4935 50.4263C13.2935 55.0263 11.6935 59.8263 12.5935 63.9263C16.4935 81.9263 24.6935 83.8263 24.6935 83.8263C24.6935 83.8263 26.4935 92.5263 36.9935 99.2263C47.4935 105.926 56.6935 99.6263 56.6935 99.6263C56.6935 99.6263 56.7935 105.926 67.3935 111.226C77.9935 116.526 88.5935 109.926 88.5935 109.926C97.2935 122.126 109.893 107.626 115.893 90.1263C114.793 92.1263 114.793 92.1263 115.893 90.1263Z" fill="url(#paint5_linear_3_595)"/>
<path d="M45.9937 41.8263C41.0937 46.9263 32.8937 57.8263 28.3937 67.6263C23.7937 77.4263 7.89366 67.4263 20.2937 51.2263C32.5937 35.0263 47.0937 26.9263 52.0937 28.9263C56.9937 31.0263 52.6937 34.9263 45.9937 41.8263Z" fill="#FF8D00"/>
<path d="M30.1935 72.9262C33.4935 59.9262 38.7935 47.6262 54.6935 35.8262C70.4935 24.0262 86.4935 35.0262 88.4935 47.8262C90.4935 60.6262 64.6935 97.6262 47.1935 96.6262C29.7935 95.5262 28.0935 81.3262 30.1935 72.9262Z" fill="#FF7C00"/>
<path d="M83.5935 67.2262C79.5935 74.1262 64.8935 97.7262 72.4935 106.326C80.0935 114.826 97.0935 104.226 101.593 89.2262C106.093 74.2262 107.493 46.4262 96.9935 45.9262C92.4935 45.7262 93.5935 49.8262 83.5935 67.2262Z" fill="#FF7C00"/>
<path opacity="0.25" d="M67.2935 65.9263C67.2935 65.9263 77.4935 55.4263 78.2935 43.1263C78.2935 43.1263 81.8935 31.4263 88.3935 52.0263C88.3935 52.0263 89.1935 58.6263 95.6935 61.2263C102.193 63.8263 75.4935 72.9263 75.4935 72.9263L67.2935 65.9263Z" fill="url(#paint6_linear_3_595)"/>
<path opacity="0.25" d="M60.5936 61.0262C60.5936 61.0262 66.5936 46.7262 73.8936 41.0262C73.8936 41.0262 76.0935 37.7262 75.2935 36.7262C74.4935 35.7262 66.7936 35.1262 63.0936 36.2262C59.3936 37.4262 55.3936 35.6262 55.3936 35.6262L60.5936 61.0262Z" fill="url(#paint7_linear_3_595)"/>
<path d="M67.2935 65.9262C67.2935 65.9262 75.0935 56.3262 88.9935 57.4262C102.993 58.5262 97.4935 75.6262 97.4935 75.6262C97.4935 75.6262 68.6935 90.7262 67.2935 65.9262Z" fill="#44170D"/>
<path d="M60.5936 61.0263C60.5936 61.0263 65.2936 37.7263 56.5936 35.6263C47.7936 33.5263 42.6936 52.1263 42.6936 52.1263C42.6936 52.1263 34.1936 67.3263 60.5936 61.0263Z" fill="#44170D"/>
<path d="M78.2935 43.1263C78.2935 43.1263 81.1935 36.7263 88.3935 52.0263C88.4935 52.0263 81.6935 27.2263 78.2935 43.1263Z" fill="#280F08"/>
<path d="M73.9936 41.1263C73.9936 41.1263 76.6936 34.4263 63.1936 36.4263C63.1936 36.3263 84.5936 29.8263 73.9936 41.1263Z" fill="#280F08"/>
<path d="M62.3936 68.3263C63.6936 68.1263 64.8936 74.0263 63.0936 74.0263C61.2936 74.1263 60.2936 68.6263 62.3936 68.3263Z" fill="#44170D"/>
<path d="M59.6936 67.0262C59.9936 68.0262 54.9936 71.2262 53.5936 70.0262C52.2936 68.9262 58.9936 64.4262 59.6936 67.0262Z" fill="#44170D"/>
<path d="M39.3936 41.1262C39.3936 41.1262 33.9936 55.2262 35.9936 60.6262C36.1936 61.2262 36.7936 61.6262 37.4936 61.6262C38.2936 61.6262 38.8936 62.1262 39.0936 62.9262L39.9936 67.5262C40.0936 68.2262 40.6936 68.7262 41.3936 68.8262L46.7936 69.3262C47.4936 69.4262 48.0936 70.0262 48.1936 70.7262L48.3936 72.4262C48.4936 73.3262 49.2936 73.9262 50.0936 73.8262L54.0936 73.4262C54.8936 73.3262 55.6936 73.9262 55.7936 74.7262L56.2936 77.8262C56.3936 78.7262 57.2936 79.3262 58.1936 79.1262L64.1936 77.8262C64.7936 77.7262 65.4936 77.9262 65.8936 78.5262L69.2936 83.6262C69.6936 84.2262 70.5936 84.5262 71.2936 84.2262L74.8936 82.6262C75.6936 82.2262 76.5936 82.6262 76.9936 83.4262L79.0936 88.1262C79.4936 88.9262 80.3936 89.3262 81.1936 88.9262C84.8936 87.2262 95.2936 82.9262 103.294 84.4262C103.294 84.4262 87.0936 103.026 75.3936 100.626C74.9936 100.526 72.0936 96.9262 70.3936 94.8262C69.7936 94.1262 68.6936 94.0262 68.0936 94.6262L66.8936 95.8262C66.1936 96.5262 64.9936 96.4262 64.4936 95.5262L61.6936 91.2262C61.1936 90.4262 60.0936 90.2262 59.3936 90.8262L58.1936 91.8262C57.3936 92.4262 56.2936 92.2262 55.7936 91.4262L51.6936 84.4262C51.2936 83.6262 50.2936 83.4262 49.4936 83.9262L45.4936 86.4262C44.5936 86.9262 43.3936 86.5262 43.0936 85.5262L42.0936 82.0262C41.7936 81.0262 40.6936 80.6262 39.7936 81.1262L35.0936 83.7262C34.1936 84.2262 33.3936 83.5262 32.7936 82.7262C20.4936 67.3262 29.0936 54.6262 39.3936 41.1262Z" fill="#44170D"/>
<path d="M80.6936 77.2262C90.8936 76.3262 96.5935 60.7262 85.2935 57.3262C73.7935 58.0262 67.3936 65.8262 67.3936 65.8262C67.3936 65.8262 69.8936 78.1262 80.6936 77.2262Z" fill="#FFC200"/>
<path d="M47.5935 57.8263C48.9935 61.6263 52.7935 62.2263 55.8935 62.0263C57.2935 61.8263 58.8935 61.5263 60.5935 61.0263C60.5935 61.0263 63.7935 45.1263 59.9935 38.4263C52.5935 38.8263 45.3935 51.7263 47.5935 57.8263Z" fill="#FFC200"/>
<path d="M62.3936 68.3262C60.8936 68.5262 60.9936 71.7262 61.9936 73.2262C62.4936 73.2262 63.5936 73.0262 63.3936 70.4262C63.2936 69.5262 63.1936 69.0262 62.9936 68.5262C62.6936 68.4262 62.4936 68.3262 62.3936 68.3262Z" fill="#FFC200"/>
<path d="M59.6936 67.0263C59.4936 66.4263 59.0936 66.2263 58.4936 66.2263C55.0936 67.4263 55.1936 69.2263 55.5936 70.1263C57.5936 69.5263 59.8936 67.7263 59.6936 67.0263Z" fill="#FFC200"/>
<path d="M87.9937 89.0262C80.7937 92.5262 79.0936 88.2262 79.0936 88.2262L77.2936 84.2262C71.1936 86.8262 69.2936 83.8262 69.2936 83.8262L67.8936 81.7262C60.7936 82.1262 57.9936 80.3262 56.8936 79.1262C56.5936 78.9262 56.2936 78.5262 56.2936 78.1262L56.0936 76.5262C51.3936 76.7262 49.4936 74.7262 48.7936 73.5262C48.5936 73.3262 48.4937 73.1262 48.4937 72.8262C48.4937 72.7262 48.4937 72.7262 48.4937 72.7262V72.3262C39.9937 70.8262 40.0936 67.7262 40.0936 67.7262L39.3936 64.3262C35.5936 62.7262 36.0936 60.8262 36.0936 60.8262C35.9936 60.4262 35.7936 60.0262 35.6936 59.6262C26.8936 70.0262 37.1936 79.3262 38.1936 82.2262L39.6936 81.4262C41.4936 79.8262 45.0936 83.2262 47.1936 85.6262L49.3936 84.3262C52.7936 82.2262 59.2936 91.3262 59.2936 91.3262C59.3936 91.2262 59.4936 91.1262 59.5936 91.1262C62.5936 89.3262 68.0936 95.1262 68.0936 95.1262C68.1936 95.0262 68.2937 94.9262 68.4937 94.9262C68.6937 94.8262 68.8936 94.7262 69.1936 94.7262H69.2936H69.3936C72.2936 94.5262 77.5937 98.6262 80.4937 100.926C87.4937 99.4262 94.8936 93.2262 99.2936 88.9262C96.7936 87.6262 92.5937 86.7262 87.9937 89.0262Z" fill="#FFC200"/>
<path d="M80.5935 87.9263C91.5287 87.9263 100.393 78.7033 100.393 67.3263C100.393 55.9492 91.5287 46.7263 80.5935 46.7263C69.6582 46.7263 60.7935 55.9492 60.7935 67.3263C60.7935 78.7033 69.6582 87.9263 80.5935 87.9263Z" fill="url(#paint8_radial_3_595)"/>
<path d="M55.7936 71.9263C66.7289 71.9263 75.5936 62.7033 75.5936 51.3263C75.5936 39.9492 66.7289 30.7263 55.7936 30.7263C44.8584 30.7263 35.9937 39.9492 35.9937 51.3263C35.9937 62.7033 44.8584 71.9263 55.7936 71.9263Z" fill="url(#paint9_radial_3_595)"/>
<path opacity="0.61" d="M42.5935 123.826C42.6935 122.726 42.8935 121.626 43.0935 120.526C43.5935 118.326 44.2935 116.226 45.2935 114.226C45.7935 113.226 46.4935 112.326 47.1935 111.526C47.8935 110.726 48.7935 110.026 49.7935 109.726L50.4935 109.426L49.7935 109.126C49.5935 109.026 49.4935 109.026 49.2935 108.926C49.0935 108.926 48.9935 108.726 48.9935 108.726C48.8935 108.726 49.0935 108.526 49.2935 108.526C49.4935 108.426 49.5935 108.426 49.7935 108.326C49.5935 108.326 49.3935 108.326 49.1935 108.326C48.9935 108.426 48.7935 108.326 48.5935 108.626C48.5935 109.026 48.8935 109.026 48.9935 109.226C46.9935 110.226 45.6935 112.026 44.6935 113.826C43.5935 115.826 42.8935 118.026 42.3935 120.226C42.1935 121.326 41.9935 122.426 41.8935 123.626C41.7935 124.726 41.6935 125.926 41.5935 127.026C41.5935 128.126 41.4935 129.326 41.4935 130.426L41.5935 133.726C41.0935 135.326 40.8935 137.026 40.9935 138.726C41.0935 139.626 41.2935 140.426 41.5935 141.226C41.8935 141.926 42.2935 142.526 42.7935 143.026C42.5935 143.126 42.4935 143.226 42.2935 143.526C42.1935 143.726 42.0935 143.926 42.1935 144.226C42.2935 144.426 42.3935 144.626 42.4935 144.726C42.9935 145.126 43.4935 145.426 43.9935 145.626C44.0935 146.126 44.2935 146.526 44.4935 146.926C44.7935 147.326 45.0935 147.726 45.4935 148.126C46.1935 148.826 46.9935 149.426 47.8935 149.826C47.0935 149.226 46.2935 148.626 45.6935 147.826C45.3935 147.426 45.0935 147.026 44.8935 146.626C44.6935 146.226 44.4935 145.726 44.4935 145.326L44.2935 145.026C43.7935 144.826 43.1935 144.526 42.8935 144.226C42.6935 144.026 42.6935 143.926 42.7935 143.826C42.8935 143.726 43.0935 143.526 43.2935 143.426L43.7935 143.226L43.3935 142.926C42.7935 142.426 42.3935 141.726 41.9935 141.026C41.6935 140.326 41.4935 139.526 41.3935 138.726C41.2935 137.126 41.4935 135.426 41.9935 133.926V133.826V133.726L41.8935 130.326C41.8935 129.226 41.8935 128.126 41.9935 126.926C42.2935 126.126 42.4935 125.026 42.5935 123.826Z" fill="#634277"/>
<path d="M13.4935 139.026C13.4935 139.026 12.0935 140.426 16.1935 144.626C16.1935 144.626 19.0935 137.826 13.4935 139.026Z" fill="#0F141C"/>
<path d="M101.594 149.826C101.594 149.826 106.094 146.426 103.294 142.526C103.294 142.526 97.0936 142.226 101.594 149.826Z" fill="#0F141C"/>
<path opacity="0.25" d="M56.2936 169.526C55.3936 169.526 50.4937 167.926 50.4937 167.926C50.4937 167.926 55.5937 170.426 56.4937 171.726C57.3937 173.026 61.0936 196.926 61.0936 196.926C61.0936 196.926 61.7937 194.526 62.4937 198.326C63.1937 202.126 66.2936 210.726 61.3936 207.126C61.3936 207.126 63.3936 209.826 64.8936 208.226C64.8936 208.226 66.1936 212.126 60.6936 208.226C60.6936 208.226 63.3936 211.326 65.0936 210.926C65.0936 210.926 63.8936 212.726 59.2936 209.726L61.2936 212.426C61.2936 212.426 64.8936 214.026 67.2936 213.626L69.1936 211.826C69.1936 211.826 61.8936 200.126 63.0936 196.326C64.2936 192.526 61.9937 194.926 61.9937 194.926L57.0936 170.226L59.9937 164.226C60.0937 164.226 57.2936 169.526 56.2936 169.526Z" fill="#002C8E"/>
<path opacity="0.25" d="M56.2936 169.526C55.3936 169.526 50.4937 167.926 50.4937 167.926C50.4937 167.926 55.5937 170.426 56.4937 171.726C57.3937 173.026 61.0936 196.926 61.0936 196.926C61.0936 196.926 61.7937 194.526 62.4937 198.326C63.1937 202.126 66.2936 210.726 61.3936 207.126C61.3936 207.126 63.3936 209.826 64.8936 208.226C64.8936 208.226 66.1936 212.126 60.6936 208.226C60.6936 208.226 63.3936 211.326 65.0936 210.926C65.0936 210.926 63.8936 212.726 59.2936 209.726L61.2936 212.426C61.2936 212.426 64.8936 214.026 67.2936 213.626L69.1936 211.826C69.1936 211.826 61.8936 200.126 63.0936 196.326C64.2936 192.526 61.9937 194.926 61.9937 194.926L57.0936 170.226L59.9937 164.226C60.0937 164.226 57.2936 169.526 56.2936 169.526Z" fill="#002C8E"/>
<path opacity="0.12" d="M63.7936 169.026C61.6936 167.626 59.9936 168.926 60.4936 173.326C61.3936 180.426 65.8936 184.426 68.3936 186.126C68.1936 182.426 67.7936 177.526 66.5936 174.026C66.0936 172.726 65.0936 170.926 63.7936 169.026Z" fill="url(#paint10_linear_3_595)"/>
<path opacity="0.12" d="M49.2935 177.226L53.2935 189.726C53.2935 189.726 57.5935 184.426 56.2935 176.826C55.6935 173.426 51.0935 166.526 49.8935 172.426C50.1935 176.926 50.4935 178.826 51.0935 182.826L49.2935 177.226Z" fill="url(#paint11_linear_3_595)"/>
<path opacity="0.25" d="M62.4935 211.326C68.6935 212.726 63.0935 201.026 59.7935 193.726C56.4935 186.426 53.2935 189.626 53.2935 189.626C53.2935 189.626 54.1935 189.126 56.0935 193.926C58.0935 198.726 59.9935 206.926 59.9935 206.926L59.1935 207.726L60.5935 209.126L59.8935 209.526C60.6935 210.426 61.5935 211.126 62.4935 211.326Z" fill="url(#paint12_linear_3_595)"/>
<path opacity="0.25" d="M79.1937 209.926H78.0936L77.6937 206.926H76.4937C76.4937 206.926 71.6936 195.626 72.3936 187.926C72.3936 187.926 64.3936 187.326 70.0936 204.026C71.6936 208.826 73.4936 211.826 75.2936 213.626C77.1936 213.426 79.0936 212.826 79.0936 212.826V209.926H79.1937Z" fill="url(#paint13_linear_3_595)"/>
<path d="M66.8935 218.326H63.0935V216.526C63.0935 216.526 61.3935 216.326 59.8935 218.326H43.7935C43.7935 218.326 43.7935 216.826 45.8935 215.926C47.9935 215.026 58.2935 212.226 58.2935 212.226C58.2935 212.226 57.1935 211.026 59.8935 211.826C59.8935 211.826 57.8935 210.126 60.4935 210.926C63.0935 211.626 69.1935 209.926 66.8935 218.326Z" fill="#0F141C"/>
<path opacity="0.31" d="M56.6935 216.726C62.8935 216.126 64.5935 212.526 58.1935 212.326C58.1935 212.326 47.9935 215.126 45.7935 216.026C45.4935 216.126 45.2935 216.226 45.0935 216.326C45.1935 216.326 50.4935 217.326 56.6935 216.726Z" fill="url(#paint14_linear_3_595)"/>
<path d="M72.0936 218.326H75.8936V216.526C75.8936 216.526 77.5936 216.326 79.0936 218.326H95.1936C95.1936 218.326 95.1936 216.826 93.0936 215.926C90.9936 215.026 80.6936 212.226 80.6936 212.226C80.6936 212.226 81.7936 211.026 79.0936 211.826C79.0936 211.826 81.0936 210.126 78.4936 210.926C75.7936 211.626 69.7936 209.926 72.0936 218.326Z" fill="#0F141C"/>
<path opacity="0.31" d="M82.1936 216.726C75.9936 216.126 74.2936 212.526 80.6936 212.326C80.6936 212.326 90.8936 215.126 93.0936 216.026C93.3936 216.126 93.5936 216.226 93.7936 216.326C93.7936 216.326 88.3936 217.326 82.1936 216.726Z" fill="url(#paint15_linear_3_595)"/>
<path d="M15.7936 140.026C13.8936 140.426 10.6936 138.926 9.29356 142.526C7.89356 146.126 4.89355 149.326 4.89355 149.326C4.89355 149.326 7.79356 151.426 9.69356 146.126C11.5936 140.826 11.0936 145.926 10.0936 147.226C9.09355 148.526 8.09355 155.326 10.4936 159.526C10.4936 159.526 10.5936 161.126 11.5936 160.626C12.4936 160.226 12.4936 159.326 12.4936 159.326C12.4936 159.326 13.2936 158.926 13.6936 156.526C14.0936 154.026 14.3936 149.026 16.3936 147.026C18.3936 145.026 17.6936 139.626 15.7936 140.026Z" fill="url(#paint16_linear_3_595)"/>
<path opacity="0.28" d="M15.1935 140.126C15.1935 140.126 13.1935 141.426 13.6935 144.926C14.1935 148.426 12.3935 146.626 12.8935 149.126C12.8935 149.126 10.3935 157.726 12.5935 159.426C12.5935 159.426 9.9935 159.226 11.9935 149.226C11.9935 149.226 9.7935 152.326 10.4935 159.726C10.4935 159.726 8.79351 154.526 11.2935 149.026C11.2935 149.026 10.1935 148.926 10.2935 147.826C10.2935 147.826 10.5935 148.826 11.9935 148.826C11.9935 148.826 11.3935 147.826 12.6935 147.026C13.9935 146.126 11.5935 141.926 15.1935 140.126Z" fill="#634277"/>
<path opacity="0.28" d="M11.9935 149.226C11.9935 149.226 9.79348 152.326 10.4935 159.726C10.4935 159.726 10.5935 161.326 11.5935 160.826C12.4935 160.426 12.4935 159.526 12.4935 159.526C12.4935 159.526 9.89348 159.226 11.9935 149.226Z" fill="#634277"/>
<path opacity="0.28" d="M11.2934 149.026C11.2934 149.026 10.1934 148.926 10.2934 147.826C10.2934 147.826 10.5934 148.826 11.9934 148.826C11.9934 148.826 11.3934 147.826 12.6934 147.026C13.9934 146.226 11.5934 142.026 15.1934 140.226C11.7934 140.526 12.0934 142.026 10.7934 143.926C11.1934 143.626 10.7934 146.426 10.0934 147.426C9.09344 148.726 8.09344 155.526 10.4934 159.726C10.4934 159.626 8.79345 154.426 11.2934 149.026Z" fill="#634277"/>
<path opacity="0.28" d="M10.5937 144.126C9.89365 144.926 9.69365 143.226 9.59365 142.026C9.49365 142.226 9.39366 142.426 9.29366 142.626C9.09366 143.226 8.79365 143.826 8.49365 144.426C9.69365 145.726 8.79366 148.226 8.69366 148.326C9.09366 147.826 9.39366 147.126 9.69366 146.226C10.0937 145.026 10.3937 144.426 10.5937 144.126Z" fill="#634277"/>
<path opacity="0.28" d="M12.8935 149.126C12.3935 146.626 14.1935 148.426 13.6935 144.926C13.1935 141.426 15.1935 140.126 15.1935 140.126C11.5935 141.926 13.9935 146.126 12.6935 146.926C11.3935 147.726 11.9935 148.726 11.9935 148.726C10.5935 148.726 10.2935 147.726 10.2935 147.726C10.1935 148.826 11.2935 148.926 11.2935 148.926C8.79351 154.426 10.4935 159.626 10.4935 159.626C9.7935 152.226 11.9935 149.126 11.9935 149.126C9.8935 159.126 12.5935 159.326 12.5935 159.326C10.2935 157.726 12.8935 149.126 12.8935 149.126Z" fill="#634277"/>
<path d="M102.094 145.226C103.994 145.626 107.194 144.126 108.594 147.726C109.994 151.326 112.994 154.526 112.994 154.526C112.994 154.526 110.094 156.626 108.194 151.326C106.294 146.026 106.794 151.126 107.794 152.426C108.794 153.726 109.794 160.526 107.394 164.726C107.394 164.726 107.294 166.526 106.294 165.926C105.294 165.326 105.394 164.526 105.394 164.526C105.394 164.526 104.594 164.126 104.194 161.726C103.794 159.226 103.494 154.226 101.494 152.226C99.4936 150.126 100.194 144.726 102.094 145.226Z" fill="url(#paint17_linear_3_595)"/>
<path opacity="0.28" d="M102.094 145.226C103.994 145.626 107.194 144.126 108.594 147.726C109.994 151.326 112.994 154.526 112.994 154.526C112.994 154.526 110.094 156.626 108.194 151.326C106.294 146.026 106.794 151.126 107.794 152.426C108.794 153.726 109.794 160.526 107.394 164.726C107.394 164.726 107.294 166.526 106.294 165.926C105.294 165.326 105.394 164.526 105.394 164.526C105.394 164.526 104.594 164.126 104.194 161.726C103.794 159.226 103.494 154.226 101.494 152.226C99.4936 150.126 100.194 144.726 102.094 145.226Z" fill="#634277"/>
<path opacity="0.28" d="M102.793 145.226C102.793 145.226 104.793 146.526 104.293 150.026C103.793 153.526 105.593 151.726 105.093 154.226C105.093 154.226 107.593 162.826 105.393 164.526C105.393 164.526 107.993 164.326 105.993 154.326C105.993 154.326 108.193 157.426 107.493 164.826C107.493 164.826 109.193 159.626 106.693 154.126C106.693 154.126 107.793 154.026 107.693 152.926C107.693 152.926 107.393 153.926 105.993 153.926C105.993 153.926 106.593 152.926 105.293 152.126C103.893 151.226 106.293 147.126 102.793 145.226Z" fill="#634277"/>
<path opacity="0.28" d="M105.994 154.326C105.994 154.326 108.194 157.426 107.494 164.826C107.494 164.826 107.394 166.426 106.494 166.026C105.394 165.426 105.494 164.526 105.494 164.526C105.494 164.526 108.094 164.326 105.994 154.326Z" fill="#634277"/>
<path opacity="0.28" d="M106.693 154.126C106.693 154.126 107.793 154.026 107.693 152.926C107.693 152.926 107.393 153.926 105.993 153.926C105.993 153.926 106.593 152.926 105.293 152.126C103.993 151.326 106.393 147.126 102.793 145.326C106.193 145.626 105.893 147.126 107.193 149.026C106.793 148.726 107.193 151.526 107.893 152.526C108.893 153.826 109.893 160.626 107.493 164.826C107.393 164.826 109.193 159.626 106.693 154.126Z" fill="#634277"/>
<path d="M102.793 145.226C102.793 145.226 104.793 146.526 104.293 150.026C103.793 153.526 105.593 151.726 105.093 154.226C105.093 154.226 107.593 162.826 105.393 164.526C105.393 164.526 104.593 164.126 104.193 161.726C103.793 159.226 103.494 154.226 101.494 152.226C100.894 151.626 100.493 150.626 100.393 149.626C100.093 145.226 101.693 144.826 102.793 145.226Z" fill="url(#paint18_linear_3_595)"/>
<path opacity="0.28" d="M107.394 149.226C108.094 150.026 108.294 148.326 108.394 147.126C108.494 147.326 108.594 147.526 108.694 147.726C108.894 148.326 109.194 148.926 109.494 149.526C108.294 150.826 109.194 153.326 109.294 153.426C108.894 152.926 108.594 152.226 108.294 151.326C107.794 150.126 107.594 149.526 107.394 149.226Z" fill="#634277"/>
<path opacity="0.28" d="M105.093 154.226C105.593 151.726 103.793 153.526 104.293 150.026C104.793 146.526 102.793 145.226 102.793 145.226C106.393 147.026 103.993 151.226 105.293 152.026C106.593 152.826 105.993 153.826 105.993 153.826C107.393 153.826 107.693 152.826 107.693 152.826C107.793 153.926 106.693 154.026 106.693 154.026C109.193 159.526 107.493 164.726 107.493 164.726C108.193 157.326 105.993 154.226 105.993 154.226C108.093 164.226 105.393 164.426 105.393 164.426C107.593 162.926 105.093 154.226 105.093 154.226Z" fill="#634277"/>
<path d="M104.094 102.626C99.1936 113.826 76.4936 114.726 53.3936 104.626C30.2936 94.5263 15.4936 77.2263 20.3936 66.0263C25.2936 54.8263 47.9936 53.9263 71.0936 64.0263C94.1936 74.1263 108.994 91.3263 104.094 102.626Z" fill="url(#paint19_radial_3_595)"/>
<path d="M106.493 60.9262C107.093 69.6262 105.793 85.4262 100.493 94.7262C95.2934 104.026 94.6934 109.826 99.2934 110.226C103.893 110.626 117.093 90.3262 117.193 75.4262C117.193 60.4262 105.093 42.3262 106.493 60.9262Z" fill="#CE2C00"/>
<defs>
<linearGradient id="paint0_linear_3_595" x1="-0.037037" y1="112.968" x2="124.266" y2="112.968" gradientUnits="userSpaceOnUse">
<stop stop-color="#00004F"/>
<stop offset="1"/>
</linearGradient>
<linearGradient id="paint1_linear_3_595" x1="61.0788" y1="213.845" x2="61.0788" y2="147.051" gradientUnits="userSpaceOnUse">
<stop offset="0.2312" stop-color="#454F6D"/>
<stop offset="0.2412" stop-color="#444E6B"/>
<stop offset="0.4111" stop-color="#333953"/>
<stop offset="0.5891" stop-color="#272B41"/>
<stop offset="0.7787" stop-color="#1F2236"/>
<stop offset="1" stop-color="#1D1F33"/>
</linearGradient>
<linearGradient id="paint2_linear_3_595" x1="34.7076" y1="147.884" x2="103.246" y2="147.884" gradientUnits="userSpaceOnUse">
<stop stop-color="#454F6D"/>
<stop offset="0.1528" stop-color="#3A445E"/>
<stop offset="0.3997" stop-color="#2E364D"/>
<stop offset="0.6691" stop-color="#262F43"/>
<stop offset="1" stop-color="#242C40"/>
</linearGradient>
<linearGradient id="paint3_linear_3_595" x1="48.8114" y1="104.1" x2="63.1257" y2="104.1" gradientUnits="userSpaceOnUse">
<stop stop-color="#FF331D"/>
<stop offset="1" stop-color="#FF4F00"/>
</linearGradient>
<linearGradient id="paint4_linear_3_595" x1="63.0445" y1="12.3718" x2="95.5496" y2="44.8769" gradientUnits="userSpaceOnUse">
<stop stop-color="#559305"/>
<stop offset="1" stop-color="#003800"/>
</linearGradient>
<linearGradient id="paint5_linear_3_595" x1="54.3711" y1="35.8993" x2="86.169" y2="118.735" gradientUnits="userSpaceOnUse">
<stop stop-color="#FF6A00"/>
<stop offset="0.0520236" stop-color="#F46008"/>
<stop offset="0.2172" stop-color="#D4461D"/>
<stop offset="0.3899" stop-color="#BC312D"/>
<stop offset="0.571" stop-color="#AB2339"/>
<stop offset="0.766" stop-color="#A01A40"/>
<stop offset="1" stop-color="#9D1742"/>
</linearGradient>
<linearGradient id="paint6_linear_3_595" x1="91.2107" y1="48.7518" x2="70.6987" y2="69.2639" gradientUnits="userSpaceOnUse">
<stop stop-color="#721B00"/>
<stop offset="1" stop-color="white"/>
</linearGradient>
<linearGradient id="paint7_linear_3_595" x1="72.5243" y1="33.9287" x2="53.0142" y2="53.4389" gradientUnits="userSpaceOnUse">
<stop stop-color="#721B00"/>
<stop offset="1" stop-color="white"/>
</linearGradient>
<radialGradient id="paint8_radial_3_595" cx="0" cy="0" r="1" gradientUnits="userSpaceOnUse" gradientTransform="translate(80.5938 67.3393) scale(19.8004 20.5718)">
<stop stop-color="#C7FF00"/>
<stop offset="0.3593" stop-color="#749500"/>
<stop offset="0.6545" stop-color="#364500"/>
<stop offset="0.8624" stop-color="#0F1300"/>
<stop offset="0.9646"/>
</radialGradient>
<radialGradient id="paint9_radial_3_595" cx="0" cy="0" r="1" gradientUnits="userSpaceOnUse" gradientTransform="translate(55.7773 51.3114) scale(19.8004 20.5718)">
<stop stop-color="#C7FF00"/>
<stop offset="0.3593" stop-color="#749500"/>
<stop offset="0.6545" stop-color="#364500"/>
<stop offset="0.8624" stop-color="#0F1300"/>
<stop offset="0.9646"/>
</radialGradient>
<linearGradient id="paint10_linear_3_595" x1="59.2461" y1="170.953" x2="71.4252" y2="183.132" gradientUnits="userSpaceOnUse">
<stop stop-color="#6A72BB"/>
<stop offset="0.3358" stop-color="#464B7B"/>
<stop offset="1"/>
</linearGradient>
<linearGradient id="paint11_linear_3_595" x1="47.0751" y1="174.098" x2="57.9928" y2="185.016" gradientUnits="userSpaceOnUse">
<stop stop-color="#6A72BB"/>
<stop offset="0.3358" stop-color="#464B7B"/>
<stop offset="1"/>
</linearGradient>
<linearGradient id="paint12_linear_3_595" x1="59.3283" y1="211.443" x2="59.3283" y2="188.954" gradientUnits="userSpaceOnUse">
<stop stop-color="white"/>
<stop offset="0.0601066" stop-color="#DCE2EF"/>
<stop offset="0.1586" stop-color="#A9B8D9"/>
<stop offset="0.2619" stop-color="#7C92C5"/>
<stop offset="0.3677" stop-color="#5673B4"/>
<stop offset="0.4769" stop-color="#3659A6"/>
<stop offset="0.5904" stop-color="#1E459B"/>
<stop offset="0.7101" stop-color="#0D3794"/>
<stop offset="0.8402" stop-color="#032F8F"/>
<stop offset="1" stop-color="#002C8E"/>
</linearGradient>
<linearGradient id="paint13_linear_3_595" x1="73.6964" y1="213.724" x2="73.6964" y2="188.011" gradientUnits="userSpaceOnUse">
<stop stop-color="white"/>
<stop offset="0.0601066" stop-color="#DCE2EF"/>
<stop offset="0.1586" stop-color="#A9B8D9"/>
<stop offset="0.2619" stop-color="#7C92C5"/>
<stop offset="0.3677" stop-color="#5673B4"/>
<stop offset="0.4769" stop-color="#3659A6"/>
<stop offset="0.5904" stop-color="#1E459B"/>
<stop offset="0.7101" stop-color="#0D3794"/>
<stop offset="0.8402" stop-color="#032F8F"/>
<stop offset="1" stop-color="#002C8E"/>
</linearGradient>
<linearGradient id="paint14_linear_3_595" x1="45.1754" y1="214.576" x2="62.2956" y2="214.576" gradientUnits="userSpaceOnUse">
<stop stop-color="#F2F2F2"/>
<stop offset="0.4849" stop-color="#7B7B7B"/>
<stop offset="1"/>
</linearGradient>
<linearGradient id="paint15_linear_3_595" x1="93.7914" y1="214.576" x2="76.6712" y2="214.576" gradientUnits="userSpaceOnUse">
<stop stop-color="#F2F2F2"/>
<stop offset="0.4849" stop-color="#7B7B7B"/>
<stop offset="1"/>
</linearGradient>
<linearGradient id="paint16_linear_3_595" x1="7.30515" y1="144.005" x2="17.9061" y2="154.606" gradientUnits="userSpaceOnUse">
<stop stop-color="#EAE5EF"/>
<stop offset="0.0291986" stop-color="#E6E3ED"/>
<stop offset="0.2841" stop-color="#C8D1E0"/>
<stop offset="0.5345" stop-color="#B2C3D6"/>
<stop offset="0.7765" stop-color="#A5BCD0"/>
<stop offset="1" stop-color="#A1B9CE"/>
</linearGradient>
<linearGradient id="paint17_linear_3_595" x1="100.307" y1="155.626" x2="113.009" y2="155.626" gradientUnits="userSpaceOnUse">
<stop stop-color="#EAE5EF"/>
<stop offset="0.0161399" stop-color="#E6E3ED"/>
<stop offset="0.157" stop-color="#C8D1E0"/>
<stop offset="0.2955" stop-color="#B2C3D6"/>
<stop offset="0.4292" stop-color="#A5BCD0"/>
<stop offset="0.5528" stop-color="#A1B9CE"/>
</linearGradient>
<linearGradient id="paint18_linear_3_595" x1="109.904" y1="148.416" x2="98.7225" y2="159.598" gradientUnits="userSpaceOnUse">
<stop stop-color="#EAE5EF"/>
<stop offset="0.020395" stop-color="#E6E3ED"/>
<stop offset="0.1984" stop-color="#C8D1E0"/>
<stop offset="0.3734" stop-color="#B2C3D6"/>
<stop offset="0.5423" stop-color="#A5BCD0"/>
<stop offset="0.6985" stop-color="#A1B9CE"/>
</linearGradient>
<radialGradient id="paint19_radial_3_595" cx="0" cy="0" r="1" gradientUnits="userSpaceOnUse" gradientTransform="translate(62.2565 84.2977) rotate(23.5926) scale(45.6796 22.1617)">
<stop stop-color="#C7FF00"/>
<stop offset="0.3593" stop-color="#749500"/>
<stop offset="0.6545" stop-color="#364500"/>
<stop offset="0.8624" stop-color="#0F1300"/>
<stop offset="0.9646"/>
</radialGradient>
</defs>
</svg>
