<svg width="210" height="177" viewBox="0 0 210 177" fill="none" xmlns="http://www.w3.org/2000/svg">
<path opacity="0.18" d="M6.91425 105.583C10.9142 110.983 20.3143 108.883 25.0143 104.983C30.1143 119.183 44.9142 106.683 43.2142 95.5834C45.2142 95.0834 48.0143 93.3834 49.5143 90.4834C53.1143 91.0834 56.9142 91.7834 60.7142 92.3834C42.6142 95.2834 33.7142 119.083 51.9142 130.983C56.7142 134.283 62.6143 137.783 68.5143 136.583C69.2143 136.383 69.9143 136.183 70.5143 135.783C75.1143 136.183 78.7142 132.683 78.9142 127.583C82.3142 123.683 81.8142 118.483 78.4142 113.883C81.5142 111.483 83.6142 107.683 83.4142 104.083C87.6142 103.783 94.8142 103.183 100.414 102.583C93.2142 107.783 90.8143 116.883 86.3143 123.383C79.4143 132.583 73.9142 141.583 86.0142 148.983C78.7142 148.683 69.5142 152.883 63.4142 154.983C62.6142 151.083 54.1142 147.483 50.9142 152.783C46.0142 160.883 57.2142 171.283 65.4142 167.383C75.1142 174.183 87.4143 167.183 97.8143 165.283C93.8143 176.683 108.714 179.883 116.314 171.683C128.714 175.283 147.414 170.183 157.114 161.383C176.214 169.883 214.014 172.783 205.014 159.383C211.414 158.883 210.614 148.783 204.214 149.283C189.714 150.283 172.614 147.783 165.414 146.383C164.914 145.683 164.214 144.983 163.114 144.483C160.214 114.683 165.814 85.9834 135.414 67.7834C135.614 67.2834 135.814 66.8834 135.914 66.3834C139.014 64.0834 139.514 60.3834 138.114 56.4834C143.814 24.8834 113.414 -0.116636 82.9142 0.483364C57.1142 -2.01664 33.8142 8.08336 30.8142 22.6834C22.8142 26.5834 29.1143 34.8834 28.6143 42.1834C25.7143 45.5834 26.5142 50.1834 30.7142 53.6834C30.9142 61.9834 38.7142 72.7834 42.8142 76.6834C28.5142 74.8834 12.2142 74.2834 3.21424 86.8834C0.414236 91.2834 -1.58576 98.3834 1.71424 102.783C3.21424 104.383 5.01425 105.383 6.91425 105.583Z" fill="url(#paint0_linear_3_760)"/>
<path d="M6.91425 104.383C10.9142 109.783 20.3143 107.683 25.0143 103.783C30.1143 117.883 44.9142 105.483 43.2142 94.4834C45.2142 93.9834 48.0143 92.3834 49.5143 89.4834C53.1143 90.0834 56.9142 90.7834 60.7142 91.3834C42.6142 94.1834 33.7142 117.783 51.9142 129.483C56.7142 132.783 62.6143 136.183 68.5143 134.983C69.2143 134.783 69.9143 134.583 70.5143 134.183C75.1143 134.583 78.7142 131.083 78.9142 126.083C82.3142 122.283 81.8142 117.083 78.4142 112.483C81.5142 110.083 83.6142 106.283 83.4142 102.783C87.6142 102.483 94.8142 101.883 100.414 101.283C93.2142 106.483 90.8143 115.483 86.3143 121.783C79.4143 130.883 73.9142 139.783 86.0142 147.083C78.7142 146.783 69.5142 150.883 63.4142 152.983C62.6142 149.183 54.1142 145.583 50.9142 150.783C46.0142 158.783 57.2142 169.083 65.4142 165.283C75.1142 171.983 87.4143 165.083 97.8143 163.283C93.8143 174.583 108.714 177.783 116.314 169.583C128.714 173.183 147.414 168.083 157.114 159.483C176.214 167.883 214.014 170.783 205.014 157.483C211.414 156.983 210.614 147.083 204.214 147.483C189.714 148.483 172.614 145.983 165.414 144.683C164.914 143.983 164.214 143.283 163.114 142.783C160.214 113.283 165.814 84.8834 135.414 66.9834C135.614 66.4834 135.814 66.0834 135.914 65.5834C139.014 63.2834 139.514 59.5834 138.114 55.7834C143.814 24.5834 113.414 -0.216589 82.9142 0.383411C57.1142 -2.11659 33.8142 7.88341 30.8142 22.3834C22.8142 26.1834 29.1143 34.3834 28.6143 41.5834C25.7143 44.9834 26.5142 49.4834 30.7142 52.9834C30.9142 61.1834 38.7142 71.8834 42.8142 75.7834C28.5142 73.9834 12.2142 73.4834 3.21424 85.8834C0.414236 90.1834 -1.58576 97.2834 1.71424 101.583C3.21424 103.183 5.01425 104.083 6.91425 104.383Z" fill="white"/>
<path d="M102.414 112.083C102.414 112.083 90.7142 122.883 86.5142 130.583C82.3142 138.283 82.8142 138.083 88.6142 142.783C94.4142 147.483 102.414 153.983 102.414 153.983C102.414 153.983 85.7142 148.883 71.1142 155.583C56.5142 162.283 61.2142 153.483 56.5142 153.183C51.8142 152.883 57.5142 165.683 66.3142 159.283C66.3142 159.283 70.5142 165.583 81.5142 162.283C92.6142 159.083 107.514 155.983 107.514 155.983C107.514 155.983 95.6142 138.283 88.5142 137.583C88.5142 137.583 91.6142 137.483 89.5142 135.883C89.5142 135.883 97.7142 129.783 100.414 125.483C103.214 121.183 102.414 112.083 102.414 112.083Z" fill="url(#paint1_linear_3_760)"/>
<path opacity="0.28" d="M66.3142 159.283C66.3142 159.283 70.5143 165.583 81.5143 162.283C92.6143 159.083 107.514 155.983 107.514 155.983C107.514 155.983 95.6142 138.283 88.5142 137.583C88.5142 137.583 91.6142 137.483 89.5142 135.883C89.5142 135.883 97.7142 129.783 100.414 125.483C101.014 124.483 101.514 123.183 101.814 121.783C100.414 118.083 99.3143 115.483 99.1143 115.083C96.6143 117.583 93.1142 121.183 90.2142 124.883C91.3142 124.683 92.2142 125.283 91.9142 127.783C91.0142 133.883 86.9142 136.883 86.9142 136.883C86.9142 136.883 89.9143 136.583 87.8143 138.483C87.8143 138.483 101.614 147.583 104.914 155.183C104.914 155.183 77.2143 161.783 68.0143 158.283C68.0143 158.283 60.8143 162.783 55.1143 156.283C56.2143 159.483 60.6142 163.383 66.3142 159.283Z" fill="#634277"/>
<path opacity="0.28" d="M94.1142 152.383C93.1142 152.283 91.9142 152.183 90.8142 152.083C93.3142 152.983 96.3142 154.583 96.4142 156.183C96.5142 157.283 95.0142 158.283 93.7142 158.983C93.6142 159.083 93.4142 159.083 93.3142 159.183C94.4142 158.883 95.5142 158.683 96.5142 158.383C97.3142 157.683 97.6142 156.883 97.5142 155.983C97.4142 154.583 95.9142 153.283 94.1142 152.383Z" fill="#634277"/>
<path opacity="0.28" d="M87.8143 154.483C87.4143 153.483 86.6143 152.783 85.5143 152.183C84.5143 152.283 83.4143 152.283 82.4143 152.483C84.8143 152.783 86.3143 153.683 86.8143 154.883C87.6143 156.883 86.1143 159.683 84.9143 161.383C85.4143 161.283 86.0143 161.083 86.5143 160.983C87.6143 159.083 88.6143 156.483 87.8143 154.483Z" fill="#634277"/>
<path opacity="0.28" d="M79.6143 157.683C79.6143 155.883 77.9142 154.583 76.4142 153.683C75.9142 153.783 75.4142 153.983 74.9142 154.183C76.4142 154.883 78.5143 156.283 78.5143 157.783C78.5143 158.883 77.3143 160.683 71.6143 162.783C72.2143 162.983 72.9143 163.083 73.6143 163.183C77.6143 161.383 79.6143 159.583 79.6143 157.683Z" fill="#634277"/>
<path opacity="0.28" d="M85.6142 134.883C86.5142 135.983 88.0142 136.383 89.2142 136.483L89.9142 137.383C90.2142 137.283 90.4142 137.083 90.3142 136.683L90.0142 136.483C90.1142 136.483 90.1142 136.483 90.2142 136.483C90.1142 136.283 89.9142 136.083 89.6142 135.883C89.6142 135.883 89.9142 135.683 90.3142 135.283C89.2142 135.283 87.4142 135.083 86.5142 133.983C86.0142 133.483 85.8142 132.783 85.8142 131.883C85.5142 132.483 85.2142 132.983 85.0142 133.483C85.1142 134.083 85.3142 134.483 85.6142 134.883Z" fill="#634277"/>
<path opacity="0.28" d="M92.1143 140.983C92.5143 140.483 92.5143 139.883 92.2143 139.083C91.6143 138.683 91.0143 138.383 90.4143 138.083C91.1143 139.083 91.4143 139.983 91.2143 140.283C90.7143 140.983 88.0143 140.683 85.4143 139.983C85.9143 140.483 86.5143 140.983 87.3143 141.583C89.2143 141.983 91.4143 142.083 92.1143 140.983Z" fill="#634277"/>
<path opacity="0.28" d="M90.1143 130.483C90.8143 131.583 92.1143 132.383 93.8143 132.683C94.2143 132.383 94.6143 131.983 94.9143 131.683C93.0143 131.583 91.7142 130.983 91.0142 129.883C89.9142 128.183 90.6143 125.483 91.1143 123.983C90.5143 124.683 89.9143 125.483 89.4143 126.183C89.2143 127.683 89.2143 129.183 90.1143 130.483Z" fill="#634277"/>
<path opacity="0.28" d="M95.5142 146.483C96.6142 145.783 97.2142 144.583 97.4142 143.483C97.1142 143.183 96.8142 142.883 96.4142 142.483C96.3142 143.483 95.9142 144.883 94.9142 145.483C94.2142 145.883 93.2143 145.883 92.1143 145.483C92.7143 145.983 93.3142 146.483 93.9142 146.883C94.4142 146.883 95.0142 146.783 95.5142 146.483Z" fill="#634277"/>
<path opacity="0.28" d="M103.114 150.483C103.214 150.383 103.214 150.283 103.314 150.183C103.114 149.883 102.814 149.583 102.614 149.283C102.514 149.383 102.514 149.483 102.414 149.583C101.514 150.383 99.3142 150.083 97.2142 149.483C97.9142 150.083 98.5143 150.583 99.1143 151.083C100.614 151.383 102.214 151.383 103.114 150.483Z" fill="#634277"/>
<path d="M111.814 86.3834C111.814 86.3834 73.5143 85.6834 44.0143 80.8834C14.5143 76.1834 6.81426 86.6834 5.51426 94.1834C4.21426 101.683 10.5143 99.3834 11.5143 98.0834C11.5143 98.0834 9.61425 101.783 12.4143 102.483C15.2143 103.083 17.5143 101.583 17.5143 101.583C17.5143 101.583 17.5142 102.883 20.8142 100.883C24.1142 98.8834 24.0143 92.0834 24.0143 92.0834C24.0143 92.0834 27.6143 93.3834 29.6143 91.9834C29.6143 91.9834 28.0143 104.183 31.9143 105.083C35.9143 105.983 39.2143 98.0834 37.9143 92.9834C36.6143 87.8834 45.0143 93.0834 45.9143 83.8834C45.9143 83.8834 107.014 94.9834 113.914 90.6834C120.914 86.2834 111.814 86.3834 111.814 86.3834Z" fill="url(#paint2_linear_3_760)"/>
<path d="M17.5142 87.4834C17.5142 87.4834 16.0142 85.6834 16.0142 83.7834C16.0142 83.0834 16.2142 82.4834 16.4142 81.9834C8.91424 84.8834 6.21424 89.9834 5.41424 94.1834C5.11424 96.0834 5.21423 97.2834 5.71423 98.0834C5.71423 98.0834 5.71423 98.1834 5.81423 98.1834C5.91423 98.2834 6.01425 98.4834 6.11425 98.5834C6.11425 98.6834 6.21423 98.6834 6.21423 98.6834C6.31423 98.7834 6.41424 98.8834 6.51424 98.8834C6.61424 98.8834 6.61423 98.9834 6.71423 98.9834C6.81423 99.0834 7.01425 99.0834 7.11425 99.1834H7.21423C7.31423 99.1834 7.51425 99.2834 7.61425 99.2834C7.71425 99.2834 7.71423 99.2834 7.81423 99.2834C7.91423 99.2834 8.01425 99.2834 8.11425 99.2834C8.21425 99.2834 8.21423 99.2834 8.31423 99.2834C8.51423 99.2834 8.61423 99.2834 8.81423 99.1834H8.91424C9.11424 99.1834 9.21423 99.0834 9.31423 99.0834C9.41423 99.0834 9.41424 99.0834 9.51424 98.9834C9.61424 98.9834 9.71423 98.8834 9.81423 98.8834C9.91423 98.8834 9.91424 98.8834 10.0142 98.7834C10.2142 98.6834 10.3142 98.6834 10.4142 98.5834C10.6142 98.4834 10.7142 98.3834 10.8142 98.3834C10.8142 98.3834 10.9142 98.3834 10.9142 98.2834C11.0142 98.1834 11.1142 98.1834 11.1142 98.0834C11.1142 98.0834 11.2142 98.0834 11.2142 97.9834C11.3142 97.8834 11.4142 97.7834 11.4142 97.7834C11.4142 97.7834 9.51423 101.483 12.3142 102.183C15.1142 102.783 17.4142 101.283 17.4142 101.283C17.4142 101.283 17.4142 102.583 20.7142 100.583C24.0142 98.5834 23.9142 91.7834 23.9142 91.7834H24.0142L17.5142 87.4834Z" fill="url(#paint3_linear_3_760)"/>
<path opacity="0.28" d="M21.6142 86.5834C16.2142 86.8834 16.0142 83.7834 16.0142 83.7834C15.6142 85.8834 16.6142 87.2834 16.6142 87.2834C16.6142 87.2834 11.5142 89.5834 10.1142 95.0834C9.01423 99.5834 5.81421 98.1834 5.81421 98.1834C7.11421 100.683 10.8142 99.1834 11.5142 98.0834C11.5142 98.0834 9.61422 101.783 12.4142 102.483C15.2142 103.083 17.5142 101.583 17.5142 101.583C17.5142 101.583 17.5142 102.883 20.8142 100.883C24.1142 98.8835 24.0142 92.0834 24.0142 92.0834C24.0142 92.0834 27.6142 93.3835 29.6142 91.9835L30.3142 87.4835C28.6142 83.1835 27.0142 86.1834 21.6142 86.5834Z" fill="#634277"/>
<path opacity="0.28" d="M11.5143 98.0834C11.5143 98.0834 16.8143 90.7834 18.9143 90.4834C21.1143 90.1834 21.0143 93.8834 18.0143 99.9834C18.0143 99.9834 21.7143 95.3834 21.4143 92.0834C21.4143 92.0834 22.7143 92.3834 23.5143 92.1834C23.5143 92.1834 20.4143 90.3834 19.0143 88.9834C19.1143 88.8834 16.8143 89.4834 11.5143 98.0834Z" fill="#634277"/>
<path d="M30.3143 87.3834L29.6143 91.8834C29.6143 91.8834 28.0143 104.083 31.9143 104.983C35.9143 105.883 39.2143 97.9834 37.9143 92.8834C37.8143 92.4834 37.8143 92.1834 37.8143 91.8834C33.5143 84.7834 30.3143 87.3834 30.3143 87.3834Z" fill="url(#paint4_linear_3_760)"/>
<path opacity="0.28" d="M53.7142 82.4834C53.7142 82.3834 53.7142 82.3834 53.7142 82.2834C53.1142 82.1834 52.6142 82.1834 52.0142 82.0834C52.5142 82.2834 52.5142 82.4834 52.5142 82.4834C52.5142 82.8834 51.2142 83.6834 49.3142 84.3834C49.9142 84.4834 50.6142 84.5834 51.4142 84.7834C52.6142 84.0834 53.7142 83.2834 53.7142 82.4834Z" fill="#634277"/>
<path opacity="0.28" d="M38.0143 85.5834C35.4143 82.6834 31.2143 80.7834 25.3143 80.0834C23.5143 80.2834 21.9143 80.4834 20.4143 80.8834C28.4143 81.0834 34.1143 82.9834 37.1143 86.3834C38.4143 87.8834 38.9143 89.2834 39.2143 90.4834C39.5143 90.3834 39.9143 90.2834 40.3143 90.1834C40.0143 88.7834 39.4143 87.1834 38.0143 85.5834Z" fill="#634277"/>
<path opacity="0.28" d="M99.5142 87.7834C99.6142 87.1834 99.6143 86.5834 99.3143 85.9834C98.8143 85.9834 98.4142 85.9834 97.9142 85.8834C98.3142 86.4834 98.5142 86.9834 98.4142 87.5834C98.1142 89.0834 95.8142 90.1834 94.2142 90.7834C95.0142 90.8834 95.7142 90.8834 96.5142 90.9834C97.8142 90.2834 99.2142 89.1834 99.5142 87.7834Z" fill="#634277"/>
<path opacity="0.28" d="M87.9142 88.7834C88.3142 87.5834 87.4142 86.2834 86.3142 85.2834C85.7142 85.2834 85.1142 85.1834 84.4142 85.1834C85.8142 86.2834 87.1142 87.6834 86.8142 88.4834C86.7142 88.7834 86.3142 89.3834 84.3142 89.6834C85.1142 89.7834 86.0142 89.8834 86.8142 89.9834C87.4142 89.6834 87.8142 89.2834 87.9142 88.7834Z" fill="#634277"/>
<path opacity="0.28" d="M65.9142 83.6834C65.4142 83.6834 64.9142 83.5834 64.4142 83.5834C65.0142 84.2834 65.5142 85.1834 65.3142 85.8834C65.2142 86.1834 64.9143 86.5834 64.1143 86.8834C64.6143 86.9834 65.2142 87.0834 65.8142 87.1834C66.1142 86.8834 66.3142 86.5834 66.4142 86.1834C66.6142 85.2834 66.4142 84.3834 65.9142 83.6834Z" fill="#634277"/>
<path opacity="0.28" d="M75.7143 85.8835C75.8143 85.3835 75.6143 84.9835 75.2143 84.4835C74.5143 84.3835 73.9143 84.3834 73.2143 84.2834C74.5143 85.0834 74.6143 85.5834 74.5143 85.6834C74.4143 86.3834 72.5143 87.1834 70.0143 87.6834C70.9143 87.7834 71.8143 87.9834 72.7143 88.0834C74.4143 87.5834 75.6143 86.7835 75.7143 85.8835Z" fill="#634277"/>
<path opacity="0.28" d="M40.5143 80.4834C39.0143 80.2834 37.5143 80.1834 36.1143 79.9834C38.7143 80.6834 41.9143 81.9834 43.5143 84.2834C44.3143 85.2834 44.6143 86.4834 44.6143 87.7834C45.0143 87.2834 45.3143 86.6834 45.5143 85.8834C45.3143 85.0834 44.9142 84.3834 44.4142 83.6834C43.5142 82.2834 42.0143 81.1834 40.5143 80.4834Z" fill="#634277"/>
<path opacity="0.28" d="M113.914 90.5834C120.914 86.2834 111.814 86.3835 111.814 86.3835C111.814 86.3835 105.514 86.2834 96.1142 85.7834C100.514 86.9834 104.914 88.5834 100.314 89.0834C92.6142 89.8834 45.8142 83.7834 45.8142 83.7834C45.8142 83.7834 107.014 94.8834 113.914 90.5834Z" fill="#634277"/>
<path d="M156.114 110.183L158.714 146.783C158.714 146.783 163.714 147.083 160.814 148.883C160.814 148.883 184.214 153.983 204.914 152.583C204.914 152.583 179.914 153.983 190.514 156.483C190.514 156.483 175.314 158.883 201.614 160.983C201.614 160.983 172.914 163.583 157.014 153.583C157.014 153.583 154.814 153.583 154.814 146.983C154.814 140.383 154.814 118.083 154.814 118.083C154.814 118.083 153.114 108.883 156.114 110.183Z" fill="#A1B9CE"/>
<path opacity="0.28" d="M156.114 110.183L158.714 146.783C158.714 146.783 163.714 147.083 160.814 148.883C160.814 148.883 184.214 153.983 204.914 152.583C204.914 152.583 179.914 153.983 190.514 156.483C190.514 156.483 175.314 158.883 201.614 160.983C201.614 160.983 172.914 163.583 157.014 153.583C157.014 153.583 154.814 153.583 154.814 146.983C154.814 140.383 154.814 118.083 154.814 118.083C154.814 118.083 153.114 108.883 156.114 110.183Z" fill="#634277"/>
<path d="M132.414 143.283C132.414 143.283 135.614 141.683 132.414 140.683C132.414 140.683 133.214 140.083 134.414 138.983C148.914 134.483 157.614 121.483 156.014 104.683C153.614 79.1834 126.614 67.5834 126.614 67.5834C126.614 67.5834 99.3142 74.7834 107.014 81.6834C111.014 85.2834 111.114 88.0834 110.414 90.3834C98.8142 92.3834 86.5142 94.3834 77.6142 94.5834C53.1142 95.0834 48.9142 100.783 46.8142 111.683C44.7142 122.583 67.2142 134.683 69.1142 128.583C69.1142 128.583 74.6142 131.683 74.0142 123.683C74.0142 123.683 81.0142 120.683 70.7142 111.283C70.7142 111.283 83.1142 106.883 76.8142 98.1834C76.8142 98.1834 92.5142 97.2834 108.714 95.2834C109.514 97.3834 115.914 98.0834 115.914 98.0834C100.514 102.383 78.4142 129.683 107.714 138.383C114.914 140.483 121.514 141.083 127.514 140.383C126.214 146.283 132.114 146.483 144.614 152.483C144.614 152.483 125.514 153.283 115.914 161.283C106.314 169.283 105.314 162.383 102.914 164.983C100.514 167.583 105.614 173.983 115.914 163.383C115.914 163.383 119.914 168.283 135.514 164.283C151.114 160.283 153.614 156.183 153.614 156.183C153.614 156.183 141.114 143.083 132.414 143.283Z" fill="url(#paint5_linear_3_760)"/>
<path d="M70.6143 111.283C70.8143 107.083 65.6143 107.883 65.6143 107.883C67.0143 112.483 46.9142 114.383 46.7142 114.283C47.2142 118.383 50.7142 122.483 54.8142 125.483C55.1142 125.683 55.4142 125.983 55.7142 126.183C55.7142 126.183 55.7142 126.183 55.8142 126.183C56.1142 126.383 56.4142 126.583 56.7142 126.783C56.7142 126.783 56.7142 126.783 56.8142 126.783C57.1142 126.983 57.4142 127.183 57.7142 127.383C59.2142 128.283 60.7143 128.983 62.1143 129.483C62.2143 129.483 62.3143 129.583 62.5143 129.583C62.7143 129.683 62.8143 129.683 63.0143 129.783C63.1143 129.783 63.3142 129.883 63.4142 129.883C63.5142 129.883 63.7142 129.983 63.8142 129.983C64.0142 129.983 64.1142 130.083 64.2142 130.083C64.3142 130.083 64.5143 130.083 64.6143 130.183C64.7143 130.183 64.9143 130.183 65.0143 130.283C65.1143 130.283 65.2142 130.283 65.4142 130.283C65.5142 130.283 65.7142 130.283 65.8142 130.283C65.9142 130.283 66.0143 130.283 66.1143 130.283C66.2143 130.283 66.4143 130.283 66.5143 130.283C66.6143 130.283 66.7142 130.283 66.8142 130.283C66.9142 130.283 67.0142 130.283 67.2142 130.183C67.3142 130.183 67.4142 130.183 67.4142 130.083C67.5142 130.083 67.6142 129.983 67.7142 129.983C67.8142 129.983 67.8142 129.883 67.9142 129.883C68.0142 129.783 68.1142 129.783 68.2142 129.683C68.3142 129.683 68.3142 129.583 68.4142 129.583C68.5142 129.483 68.6143 129.383 68.6143 129.283L68.7142 129.183C68.8142 128.983 68.9142 128.883 68.9142 128.683C68.9142 128.683 74.4142 131.783 73.8142 123.783C73.9142 123.683 80.9143 120.683 70.6143 111.283Z" fill="url(#paint6_linear_3_760)"/>
<path opacity="0.28" d="M68.1143 109.983C76.1143 116.583 76.7142 121.583 74.9142 121.983C73.1142 122.383 64.1143 114.383 64.1143 114.383C70.3143 120.283 75.0143 127.583 70.0143 127.583C65.0143 127.483 56.6143 119.983 56.6143 119.983C61.9143 127.083 67.0143 128.383 67.0143 128.383C68.0143 130.283 65.3143 130.283 65.1143 130.283C67.2143 130.583 68.7143 130.083 69.1143 128.683C69.1143 128.683 74.6143 131.783 74.0143 123.783C74.0143 123.783 81.0142 120.783 70.7142 111.383C70.7142 111.383 83.1142 106.983 76.8142 98.2834C82.4142 107.483 68.1143 109.983 68.1143 109.983Z" fill="#634277"/>
<path opacity="0.28" d="M65.6143 107.883C67.0143 112.483 46.9142 114.383 46.7142 114.283C48.0142 124.383 67.3143 134.283 69.0143 128.683C69.0143 128.683 74.5142 131.783 73.9142 123.783C73.9142 123.783 80.9143 120.783 70.6143 111.383C70.6143 111.383 83.0142 106.983 76.7142 98.2834C80.8142 106.583 65.6143 107.883 65.6143 107.883Z" fill="#634277"/>
<path opacity="0.28" d="M57.7143 97.3835C56.5143 97.8835 55.4143 98.3835 54.4143 98.9835C61.4143 97.6835 70.4143 99.0835 76.3143 107.883C76.4143 107.783 76.4143 107.783 76.5143 107.683C75.0143 104.583 70.3143 97.2835 57.7143 97.3835Z" fill="#634277"/>
<path opacity="0.28" d="M82.9142 94.3834C81.9142 94.4834 81.0143 94.4834 80.0143 94.5834C81.9143 95.6834 82.3143 96.8834 79.6143 98.0834C79.9143 98.0834 80.2143 98.0834 80.6143 97.9834C83.1143 97.1834 85.7142 95.8834 82.9142 94.3834Z" fill="#634277"/>
<path opacity="0.28" d="M65.6143 107.883C66.2143 107.783 54.8143 108.283 48.1143 106.783C48.0143 107.183 47.8142 107.483 47.7142 107.883C51.1142 108.383 57.4143 108.883 65.6143 107.883Z" fill="#634277"/>
<path opacity="0.28" d="M96.6143 92.6834C95.8143 92.7834 95.0142 92.8834 94.2142 92.9834C96.4142 93.8834 97.1143 95.1834 94.3143 96.7834C95.0143 96.6834 95.8143 96.6834 96.6143 96.5834C97.4143 95.3834 98.0143 93.7834 96.6143 92.6834Z" fill="#634277"/>
<path opacity="0.28" d="M105.214 91.3834C104.514 91.4834 103.814 91.5834 103.114 91.6834C104.714 92.2834 107.514 93.7834 102.514 96.0834C102.814 96.0834 103.114 95.9834 103.414 95.9834C106.214 94.8834 108.614 93.1834 105.214 91.3834Z" fill="#634277"/>
<path opacity="0.28" d="M138.614 163.483C139.314 163.283 139.914 163.083 140.514 162.883C140.214 160.883 138.114 156.183 123.414 156.983C123.014 157.083 122.714 157.283 122.314 157.483C126.214 156.983 136.114 156.583 138.614 163.483Z" fill="#634277"/>
<path opacity="0.28" d="M146.314 160.783C146.514 160.683 146.714 160.583 146.814 160.583C145.514 158.683 141.814 154.483 134.614 153.783C134.314 153.883 134.014 153.883 133.714 153.983C137.514 154.383 142.014 156.183 146.314 160.783Z" fill="#634277"/>
<path opacity="0.28" d="M118.414 159.483C118.214 159.583 118.014 159.683 117.914 159.783C120.914 159.583 126.014 159.983 125.514 165.783C126.014 165.783 126.514 165.783 127.014 165.683C127.114 163.583 126.414 159.483 118.414 159.483Z" fill="#634277"/>
<path opacity="0.28" d="M149.114 159.483C150.114 158.883 151.014 158.383 151.614 157.983C149.714 156.283 145.814 153.683 138.814 153.083C138.414 153.183 137.914 153.183 137.414 153.283C140.514 153.583 145.314 154.883 149.114 159.483Z" fill="#634277"/>
<path opacity="0.28" d="M133.414 141.183C133.214 140.983 132.814 140.883 132.314 140.683C132.314 140.683 130.214 143.083 127.214 142.383C127.314 142.383 129.314 143.983 133.414 141.183Z" fill="#634277"/>
<path opacity="0.28" d="M134.314 138.983C148.814 134.483 157.514 121.483 155.914 104.683C153.514 79.1834 126.514 67.5834 126.514 67.5834C126.514 67.5834 99.2142 74.7834 106.914 81.6834C107.214 81.9834 107.414 82.1834 107.714 82.4834C107.714 82.4834 119.414 79.3834 126.314 74.6834C132.714 70.2834 131.914 76.5834 113.914 83.6834C119.914 81.4834 130.614 77.9834 132.514 79.2834C135.314 81.0834 110.214 90.4834 110.214 90.4834C110.214 90.4834 113.414 89.8834 117.814 88.5834C117.814 88.5834 130.614 87.2834 119.814 93.6834C113.514 94.7834 108.514 95.4834 108.514 95.4834C108.514 95.4834 114.914 95.3834 122.614 94.0834C122.614 94.0834 141.514 96.1834 119.914 98.0834C126.314 98.1834 136.114 99.5834 137.314 105.483C139.014 113.883 130.014 95.6834 98.9142 110.183C98.8142 110.383 98.6142 110.483 98.5142 110.683C105.114 106.483 131.514 103.983 133.314 111.883C137.914 131.583 123.414 103.983 94.1142 118.583C94.1142 118.683 94.0142 118.783 94.0142 118.783C100.814 115.783 121.314 116.483 124.414 120.483C136.114 135.783 102.614 127.783 93.3142 125.583V125.683C99.1142 127.583 99.8142 128.383 110.514 130.583C114.914 131.483 112.614 135.883 100.814 135.583C102.714 136.683 104.914 137.583 107.614 138.383C114.814 140.483 121.414 141.083 127.414 140.383C127.314 140.583 127.314 140.783 127.314 140.983C127.514 141.083 131.114 141.683 134.314 138.983ZM130.014 91.6834C126.714 92.3834 123.314 92.9834 120.214 93.5834C123.114 92.0834 130.314 87.7834 121.114 87.5834C123.614 86.7834 126.314 85.7834 129.014 84.5834C131.514 84.7834 138.314 86.0834 130.014 91.6834Z" fill="#634277"/>
<path opacity="0.28" d="M146.914 150.183C146.214 149.583 145.414 148.983 144.614 148.383C145.114 149.383 145.514 151.283 141.214 150.883C142.314 151.383 143.414 151.883 144.614 152.383C144.614 152.383 144.514 152.383 144.414 152.383C145.914 152.683 147.114 152.083 146.914 150.183Z" fill="#634277"/>
<path opacity="0.28" d="M134.914 143.583C134.014 143.383 133.214 143.283 132.414 143.283C132.414 143.283 133.514 145.683 128.314 144.583C128.414 144.783 128.614 144.883 128.814 145.083C130.014 145.683 132.414 146.283 134.914 143.583Z" fill="#634277"/>
<path opacity="0.28" d="M139.414 145.283C138.914 144.983 138.314 144.783 137.814 144.483C138.614 145.683 140.214 148.883 134.214 147.983C134.614 148.183 135.114 148.383 135.514 148.583C138.214 149.083 141.414 149.083 139.414 145.283Z" fill="#634277"/>
<path opacity="0.28" d="M122.414 157.383C126.314 156.983 136.214 156.583 138.714 163.483C138.314 154.983 122.414 157.383 122.414 157.383Z" fill="#634277"/>
<path opacity="0.28" d="M146.314 160.783C142.414 153.983 133.714 153.883 133.714 153.883C137.514 154.383 142.014 156.183 146.314 160.783Z" fill="#634277"/>
<path opacity="0.28" d="M117.814 159.883C120.814 159.683 125.914 160.083 125.414 165.883C125.414 165.883 127.614 158.683 117.814 159.883Z" fill="#634277"/>
<path opacity="0.28" d="M149.114 159.483C146.714 153.383 137.514 153.283 137.514 153.283C140.514 153.583 145.314 154.883 149.114 159.483Z" fill="#634277"/>
<path opacity="0.28" d="M127.314 142.383C127.314 142.383 131.714 143.383 132.514 140.683H132.314C132.014 141.083 130.014 142.983 127.314 142.383Z" fill="#634277"/>
<path opacity="0.28" d="M144.614 148.483C145.114 149.483 145.514 151.383 141.214 150.983C141.214 150.983 148.014 152.283 144.614 148.483Z" fill="#634277"/>
<path opacity="0.28" d="M132.414 143.283C132.414 143.283 133.514 145.683 128.314 144.583C128.314 144.583 134.514 146.283 132.414 143.283Z" fill="#634277"/>
<path opacity="0.28" d="M134.214 147.983C134.214 147.983 142.114 149.683 137.814 144.483C138.614 145.683 140.214 148.883 134.214 147.983Z" fill="#634277"/>
<g opacity="0.28">
<path opacity="0.28" d="M128.914 68.7834C128.914 68.7834 108.214 77.5834 107.014 81.7834C106.914 81.7834 128.814 77.2834 128.914 68.7834Z" fill="#634277"/>
<path opacity="0.28" d="M114.014 83.6834C115.014 83.2834 116.214 82.8834 117.514 82.4834C131.014 77.5834 134.414 74.2834 135.014 72.4834C134.214 71.8834 133.314 71.3834 132.614 70.8834C136.614 74.9834 114.014 83.6834 114.014 83.6834Z" fill="#634277"/>
<path opacity="0.28" d="M116.114 89.0834C117.914 88.5834 119.514 88.0834 121.114 87.5834C123.614 86.7834 126.314 85.7834 129.014 84.5834H129.114C138.014 80.6834 139.814 77.5835 140.114 76.3835C139.714 76.0835 139.414 75.7835 139.014 75.4835C139.214 80.9835 116.214 88.9834 116.114 89.0834Z" fill="#634277"/>
<path opacity="0.28" d="M140.114 95.3835C149.314 93.9835 153.714 99.4835 155.814 103.883C155.714 103.083 155.614 102.383 155.514 101.683C152.114 94.5834 145.714 94.0834 142.914 94.1834C147.814 91.6834 149.414 88.6835 149.814 87.3835C149.414 86.7835 149.014 86.0835 148.514 85.4835C148.914 92.2835 139.014 95.3835 130.714 96.8835C128.214 97.3835 125.214 97.7835 121.614 97.9835C121.314 97.9835 121.114 97.9835 120.814 97.9835C121.014 97.9835 121.314 97.9835 121.514 97.9835C122.714 97.9835 123.914 97.9835 125.014 97.9835C131.714 97.6835 136.614 96.6835 140.114 95.3835Z" fill="#634277"/>
<path opacity="0.28" d="M125.114 97.9835C124.614 97.9835 124.114 97.9835 123.514 97.9835C131.214 98.3835 149.214 101.383 153.314 122.183C153.914 120.883 154.314 119.483 154.714 118.083C152.814 112.283 145.814 98.6835 125.114 97.9835Z" fill="#634277"/>
<path opacity="0.28" d="M102.514 108.683C111.314 105.583 135.214 99.9835 152.514 124.283C152.814 123.783 153.014 123.283 153.214 122.783C150.014 118.183 133.714 96.7835 102.514 108.683Z" fill="#634277"/>
<path opacity="0.28" d="M95.4142 118.283C101.214 116.283 125.014 109.783 143.014 132.783C125.414 133.783 93.3142 125.583 93.3142 125.583C127.514 134.983 140.814 134.183 143.814 133.883C143.914 133.983 143.914 134.083 144.014 134.183C144.214 134.083 144.314 133.883 144.514 133.783C144.514 133.783 144.514 133.783 144.614 133.783C145.214 133.383 145.714 132.883 146.314 132.383C142.714 128.083 123.514 107.483 95.4142 118.283Z" fill="#634277"/>
<path opacity="0.28" d="M101.414 135.883C114.014 140.183 127.514 139.583 135.214 138.683C136.814 138.183 138.314 137.483 139.714 136.783C117.514 140.483 102.514 136.183 101.414 135.883Z" fill="#634277"/>
</g>
<path opacity="0.28" d="M76.3143 107.783C74.9143 104.783 69.0143 97.7834 56.6143 97.7834C55.8143 98.0834 55.1143 98.4835 54.4143 98.8835C61.4143 97.6835 70.4143 98.9834 76.3143 107.783Z" fill="#634277"/>
<path opacity="0.28" d="M81.0143 94.4834C80.7143 94.4834 80.4143 94.4834 80.0143 94.5834C81.7143 95.5834 82.2143 96.5834 80.5143 97.6834C82.1143 96.7834 82.9143 95.5834 81.0143 94.4834Z" fill="#634277"/>
<path opacity="0.28" d="M47.9143 107.383C50.2143 107.683 53.6143 107.983 57.8143 107.883C54.5143 107.783 50.9143 107.483 48.0143 106.783C48.0143 106.983 47.9143 107.183 47.9143 107.383Z" fill="#634277"/>
<path opacity="0.28" d="M94.2142 96.8834C94.7142 96.8834 95.2142 96.7834 95.7142 96.7834C96.4142 95.4834 96.9143 93.7834 95.8143 92.8834C95.2143 92.9834 94.7143 93.0834 94.1143 93.0834C96.4143 93.9834 97.1142 95.1834 94.2142 96.8834Z" fill="#634277"/>
<path opacity="0.28" d="M104.114 95.1834C105.914 94.1834 106.914 92.8834 104.514 91.3834C104.114 91.4834 103.614 91.4834 103.214 91.5834C104.514 92.1834 106.914 93.3834 104.114 95.1834Z" fill="#634277"/>
<path opacity="0.28" d="M130.014 91.6834C143.314 84.2834 129.014 84.5834 129.014 84.5834C131.514 84.7834 138.314 86.0834 130.014 91.6834Z" fill="#634277"/>
<path opacity="0.28" d="M118.014 88.4834C118.014 88.4834 130.614 87.1834 120.214 93.4834V93.5834C132.414 86.5834 118.014 88.4834 118.014 88.4834Z" fill="#634277"/>
<path opacity="0.28" d="M149.114 156.383C149.114 162.183 119.514 166.683 115.814 163.483C115.814 163.483 119.814 168.383 135.414 164.383C151.014 160.383 153.514 156.283 153.514 156.283C153.514 156.283 141.014 143.183 132.314 143.383C132.414 143.283 149.214 150.583 149.114 156.383Z" fill="#634277"/>
<path opacity="0.28" d="M115.814 163.383C115.814 163.383 107.714 168.883 104.414 167.083C102.814 166.183 102.714 165.383 102.914 164.883L102.814 164.983C100.414 167.583 105.614 173.983 115.814 163.383Z" fill="#634277"/>
<path opacity="0.28" d="M132.414 143.283C132.414 143.283 135.614 141.683 132.414 140.683C132.414 140.683 133.214 140.083 134.414 138.983C148.914 134.483 157.614 121.483 156.014 104.683C153.614 79.1834 126.614 67.5834 126.614 67.5834C126.614 67.5834 109.814 72.0834 106.314 77.2834L106.614 81.2834C106.714 81.3834 106.814 81.4834 106.914 81.5834L107.514 82.0834C107.614 82.1834 107.714 82.2834 107.914 82.3834C107.914 82.3834 115.614 82.0834 121.714 79.1834C127.814 76.3834 128.014 78.0834 128.014 78.0834C128.014 78.0834 137.514 75.4834 132.814 82.7834C132.814 82.7834 149.014 81.6834 134.514 90.5834C134.514 90.5834 128.314 92.0834 116.714 94.0834C116.714 94.0834 141.014 91.9834 136.414 97.8834C136.414 97.8834 143.514 98.6834 139.314 102.083C139.314 102.083 144.514 107.883 137.314 110.083C137.314 110.083 141.314 119.683 129.114 120.583C129.114 120.583 135.314 130.683 118.114 131.383C118.114 131.383 114.014 137.783 100.114 135.083C102.114 136.383 104.614 137.483 107.814 138.383C115.014 140.483 121.614 141.083 127.614 140.383C127.214 142.083 127.514 143.283 128.314 144.383C128.214 143.683 128.814 142.683 132.414 143.283Z" fill="#634277"/>
<path opacity="0.28" d="M102.714 155.783C102.514 155.083 102.114 154.383 101.514 153.783C100.814 153.583 99.9142 153.383 98.7142 153.183C100.414 154.083 101.414 155.083 101.614 156.083C101.714 156.583 101.714 156.983 101.614 157.383C102.014 157.283 102.414 157.183 102.814 157.083C102.814 156.683 102.814 156.183 102.714 155.783Z" fill="#634277"/>
<path d="M35.5143 47.8834C35.5143 47.8834 36.1143 55.3834 37.2143 56.9834C38.3143 58.5834 44.6143 71.1834 58.5143 76.3834C72.4143 81.4834 133.214 56.1834 133.214 56.1834C133.214 56.1834 135.214 50.3834 133.714 46.0834C132.214 41.7834 88.7143 14.1834 88.7143 14.1834L50.7143 18.6834L35.5143 47.8834Z" fill="url(#paint7_linear_3_760)"/>
<path opacity="0.28" d="M133.714 46.0834C132.614 43.0834 110.314 28.1834 97.5143 19.8834C89.0143 17.6834 79.6143 19.2834 71.9143 20.0834C67.3143 20.5834 57.0143 21.6834 48.4143 22.8834L35.4143 47.8834C35.4143 47.8834 35.6143 50.2834 36.0143 52.6834C38.8143 50.7834 40.5143 49.9834 40.5143 49.9834C37.9143 56.5834 42.5143 61.8834 42.5143 61.8834C42.5143 61.8834 50.5143 69.0834 56.2143 65.5834C62.0143 62.0834 61.7143 53.6834 61.7143 53.6834C65.3143 42.2834 78.3143 33.1834 81.1143 53.6834C83.9143 74.1834 104.314 66.0834 104.314 66.0834C104.314 66.0834 105.214 66.0834 106.714 66.0834C121.114 60.9834 132.914 56.0834 132.914 56.0834C132.914 56.0834 135.214 50.3834 133.714 46.0834Z" fill="#634277"/>
<path d="M84.2142 26.7834C87.3142 22.0834 101.214 18.4834 109.114 38.6834C117.014 58.7834 93.7142 65.9834 86.4142 59.7834C78.9142 53.5834 77.5142 37.0834 84.2142 26.7834Z" fill="#351717"/>
<path d="M84.2142 26.7834C87.3142 22.0834 101.214 18.4834 109.114 38.6834C117.014 58.7834 93.7142 65.9834 86.4142 59.7834C78.9142 53.5834 77.5142 37.0834 84.2142 26.7834Z" fill="#351717"/>
<path d="M104.387 40.8751C105.226 33.4662 101.324 26.9413 95.6709 26.3014C90.0182 25.6614 84.7558 31.1487 83.9171 38.5576C83.0783 45.9665 86.9807 52.4913 92.6334 53.1313C98.2861 53.7712 103.548 48.284 104.387 40.8751Z" fill="#351717"/>
<path d="M84.9142 38.6834C84.2142 45.2834 87.6142 51.0834 92.7142 51.6834C97.8142 52.2834 102.514 47.3834 103.214 40.7834C103.914 34.1834 100.514 28.3834 95.4142 27.7834C90.4142 27.1834 85.7142 32.0834 84.9142 38.6834Z" fill="#351717"/>
<path d="M88.2142 38.8834C87.5142 43.6834 89.5142 47.9834 92.7142 48.4834C95.9142 48.9834 99.1142 45.4834 99.9142 40.6834C100.614 35.8834 98.6142 31.5834 95.4142 31.0834C92.2142 30.4834 89.0142 34.0834 88.2142 38.8834Z" fill="#351717"/>
<path d="M99.2141 41.1835C102.214 42.5835 102.114 34.8835 100.114 35.4835C98.1142 36.0835 94.6141 39.0835 99.2141 41.1835Z" fill="#351717"/>
<path opacity="0.36" d="M109.014 38.6834C101.114 18.5834 87.2142 22.0834 84.1142 26.7834C81.3142 31.0834 80.0142 36.4834 79.8142 41.7834C79.9142 40.4834 81.2142 31.5834 90.9142 29.8834C101.314 27.9834 112.114 44.7834 108.014 54.7834C110.814 50.8834 111.714 45.5834 109.014 38.6834Z" fill="#351717"/>
<path d="M64.1142 43.9834C64.8142 37.7834 62.4142 25.9835 56.7142 26.3835C51.0142 26.7835 43.0142 34.0834 42.4142 49.5834C41.7142 65.0834 60.9142 71.0834 64.1142 43.9834Z" fill="#351717"/>
<path d="M64.1142 43.9834C64.8142 37.7834 62.4142 25.9835 56.7142 26.3835C51.0142 26.7835 43.0142 34.0834 42.4142 49.5834C41.7142 65.0834 60.9142 71.0834 64.1142 43.9834Z" fill="#351717"/>
<path d="M66.6013 43.6634C67.4401 36.2545 64.6054 29.8505 60.2698 29.3597C55.9342 28.8688 51.7396 34.477 50.9008 41.8859C50.062 49.2948 52.8967 55.6987 57.2323 56.1896C61.5679 56.6804 65.7625 51.0723 66.6013 43.6634Z" fill="#351717"/>
<path d="M51.7141 41.9835C51.0141 48.5835 53.5141 54.2835 57.3141 54.7835C61.2141 55.1835 64.9142 50.1835 65.6142 43.5835C66.3142 36.9835 63.8142 31.2835 60.0142 30.7835C56.2142 30.3835 52.5141 35.3835 51.7141 41.9835Z" fill="#351717"/>
<path d="M53.9142 41.8834C53.2142 46.6834 54.7142 50.9834 57.4142 51.3834C60.1142 51.7834 62.8142 48.1834 63.5142 43.3834C64.2142 38.5834 62.7142 34.2834 60.0142 33.8834C57.4142 33.4834 54.6142 37.0834 53.9142 41.8834Z" fill="#351717"/>
<path d="M61.8142 43.7834C64.1142 45.0834 64.2142 37.4834 62.7142 38.0834C61.2142 38.6834 58.3142 41.7834 61.8142 43.7834Z" fill="#351717"/>
<path opacity="0.36" d="M56.7142 26.3834C51.0142 26.7834 43.0142 34.0834 42.4142 49.5834C42.2142 54.1834 43.8142 57.9834 46.2142 60.2834C41.1142 51.8834 42.8142 39.2834 52.5142 33.8834C62.0142 28.4834 64.2142 43.0834 64.3142 43.4834C64.7142 37.0834 62.2142 25.9834 56.7142 26.3834Z" fill="#351717"/>
<path d="M83.9142 28.3835C87.0142 23.6835 100.914 20.0835 108.814 40.2835C116.714 60.3835 93.4142 67.5835 86.1142 61.3835C78.7142 55.0835 77.2142 38.6835 83.9142 28.3835Z" fill="url(#paint8_linear_3_760)"/>
<path d="M83.6143 40.1835C82.8143 47.5835 86.7143 54.0835 92.3143 54.7835C98.0143 55.3835 103.214 49.9835 104.114 42.5835C104.914 35.1835 101.014 28.6835 95.4143 27.9835C89.7143 27.2835 84.4143 32.7835 83.6143 40.1835Z" fill="url(#paint9_linear_3_760)"/>
<path d="M84.7142 40.2835C84.0142 46.8835 87.4142 52.6835 92.5142 53.2835C97.6142 53.8835 102.314 48.9835 103.014 42.3835C103.714 35.7835 100.314 29.9835 95.2142 29.3835C90.1142 28.7835 85.4142 33.6835 84.7142 40.2835Z" fill="url(#paint10_linear_3_760)"/>
<path d="M88.0143 40.4835C87.3143 45.2835 89.3143 49.5835 92.5143 50.0835C95.7143 50.5835 98.9143 47.0835 99.7143 42.2835C100.414 37.4835 98.4143 33.1835 95.2143 32.6835C91.9143 32.0835 88.7143 35.5835 88.0143 40.4835Z" fill="url(#paint11_linear_3_760)"/>
<path d="M98.9143 42.7834C101.914 44.1834 101.814 36.4835 99.8143 37.0835C97.8143 37.6835 94.4143 40.6834 98.9143 42.7834Z" fill="white"/>
<path opacity="0.36" d="M108.814 40.2835C100.914 20.1835 87.0142 23.6835 83.9142 28.3835C81.1142 32.6835 79.8143 38.0835 79.6143 43.3835C79.7143 42.0835 81.0142 33.1835 90.7142 31.4835C101.114 29.5835 111.914 46.3835 107.814 56.3835C110.514 52.4835 111.514 47.1835 108.814 40.2835Z" fill="#838BC5"/>
<path d="M63.8142 45.5834C64.5142 39.3834 62.1142 27.5834 56.4142 27.9834C50.7142 28.3834 42.7142 35.6834 42.1142 51.1834C41.4142 66.6834 60.6142 72.6834 63.8142 45.5834Z" fill="url(#paint12_linear_3_760)"/>
<path d="M50.7142 43.4834C49.9142 50.8834 52.7143 57.2834 57.0143 57.7834C61.3143 58.2834 65.5142 52.6834 66.3142 45.2834C67.1143 37.8834 64.3143 31.4834 60.0143 30.9834C55.7143 30.4834 51.5142 36.0834 50.7142 43.4834Z" fill="url(#paint13_linear_3_760)"/>
<path d="M51.5142 43.5834C50.8142 50.1834 53.3142 55.8834 57.1142 56.3834C61.0142 56.7834 64.7142 51.7834 65.4142 45.1834C66.1142 38.5834 63.6142 32.8834 59.8142 32.3834C56.0142 31.9834 52.2142 36.9834 51.5142 43.5834Z" fill="url(#paint14_linear_3_760)"/>
<path d="M53.7143 43.4834C53.0143 48.2834 54.5143 52.5834 57.2143 52.9834C59.9143 53.3834 62.6143 49.7834 63.3143 44.9834C64.0143 40.1834 62.5143 35.8834 59.8143 35.4834C57.1143 35.0834 54.4143 38.6834 53.7143 43.4834Z" fill="url(#paint15_linear_3_760)"/>
<path d="M61.5143 45.3834C63.8143 46.6834 63.9143 39.0834 62.4143 39.6834C60.9143 40.2834 58.1143 43.3834 61.5143 45.3834Z" fill="white"/>
<path opacity="0.36" d="M56.4142 27.9834C50.7142 28.3834 42.7143 35.6834 42.1143 51.1834C41.9143 55.7834 43.5142 59.5834 45.9142 61.8834C40.8142 53.4834 42.5142 40.8834 52.2142 35.4834C61.7142 30.0834 63.9142 44.6834 64.0142 45.0834C64.4142 38.6834 62.0142 27.5834 56.4142 27.9834Z" fill="#838BC5"/>
<path d="M35.5142 50.0834C35.5142 50.0834 50.9142 37.8834 73.9142 27.6834C96.9142 17.3834 108.014 38.3834 121.114 43.2834C134.214 48.1834 134.314 49.2834 134.314 49.2834C134.314 49.2834 134.814 9.28343 85.7142 5.68343C36.6142 2.08343 35.5142 26.1834 35.5142 26.1834C35.5142 26.1834 31.0142 27.1834 32.1142 29.2834C33.2142 31.3834 34.7142 43.6834 33.7142 44.2834C32.7142 44.8834 30.2142 46.4834 35.5142 50.0834Z" fill="url(#paint16_linear_3_760)"/>
<path d="M36.8142 56.1834C36.8142 56.1834 70.3142 73.7835 91.6142 68.8835C112.914 63.9835 114.814 47.7834 133.214 56.0834C133.214 56.0834 135.514 60.2834 133.214 61.5834C130.914 62.8834 132.214 66.2834 126.414 71.2834C120.514 76.3834 96.6142 96.2834 47.9142 71.6834L47.0142 72.3835C46.9142 72.4835 37.0142 61.8834 36.8142 56.1834Z" fill="url(#paint17_linear_3_760)"/>
<path opacity="0.28" d="M35.5143 50.0834C35.5143 50.0834 50.9143 37.8834 73.9143 27.6834C96.9143 17.3834 108.014 38.3834 121.114 43.2834C134.214 48.1834 134.314 49.2834 134.314 49.2834C134.314 49.2834 134.814 9.28337 85.7143 5.68337C76.3143 4.98337 68.6143 5.28338 62.4143 6.28338C61.8143 9.18338 56.1143 14.5834 38.5143 24.5834C43.9143 21.6834 56.1143 15.4834 67.5143 12.9834C82.7143 9.58338 37.0143 42.6834 37.0143 42.6834C37.0143 42.6834 63.8143 24.0834 68.0143 24.8834C72.2143 25.6834 39.1143 47.4834 33.4143 48.2834C33.7143 48.7834 34.4143 49.3834 35.5143 50.0834Z" fill="#634277"/>
<path opacity="0.28" d="M126.314 71.3834C132.214 66.2834 130.814 62.9834 133.114 61.6834C135.414 60.3834 133.114 56.1834 133.114 56.1834C114.714 47.8834 112.814 64.0834 91.5142 68.9834C81.0142 71.3834 67.5143 68.2834 56.5143 64.5834C63.8143 67.7834 74.2142 70.9834 86.2142 71.1834C109.614 71.4834 84.1142 80.9834 47.7142 71.7834C47.7142 71.7834 59.6143 76.8834 83.8143 78.1834C102.914 79.1834 91.9142 82.9834 78.3142 82.4834C106.914 87.7834 121.814 75.1834 126.314 71.3834Z" fill="#634277"/>
<path opacity="0.28" d="M114.814 14.4834C109.414 10.9834 102.514 8.08344 93.7142 6.58344C81.4142 7.28344 64.7142 10.0834 47.9142 18.8834C46.3142 19.8834 44.5143 20.9834 42.6143 22.0834C53.9143 15.8834 86.5143 0.983429 114.814 14.4834Z" fill="#634277"/>
<path opacity="0.28" d="M132.814 39.7834C131.614 35.2834 129.514 29.8834 125.614 24.5834C114.014 15.2834 90.3142 5.5834 52.8142 30.5834C50.5142 32.3834 48.2143 34.1834 46.1143 35.7834C65.3143 22.5834 109.814 -1.2166 132.814 39.7834Z" fill="#634277"/>
<path opacity="0.28" d="M96.5142 27.1834C96.5142 27.1834 123.614 41.2834 132.814 39.6834L96.5142 27.1834Z" fill="#634277"/>
<path opacity="0.28" d="M134.214 49.1834C134.214 49.1834 134.714 9.18342 85.6143 5.58342C81.7143 5.28342 78.0142 5.18341 74.7142 5.18341C79.6142 5.48341 85.7142 6.38341 88.9142 8.98341C88.9142 8.98341 108.614 11.9834 114.614 21.0834C114.614 21.0834 119.814 34.7834 116.514 36.0834C116.514 36.0834 117.014 39.1834 112.214 37.7834C115.114 39.9834 118.014 41.9834 121.014 43.0834C134.114 48.0834 134.214 49.1834 134.214 49.1834Z" fill="#634277"/>
<path opacity="0.28" d="M132.614 61.9834C99.5143 86.6834 47.7142 71.7834 47.7142 71.7834C93.2142 85.6834 123.414 70.5834 130.314 66.5834C131.514 64.4834 131.614 62.8834 132.614 61.9834Z" fill="#634277"/>
<path opacity="0.28" d="M83.4143 82.4834C98.5143 82.2834 108.714 80.5834 115.514 78.4834C118.114 77.1834 120.214 75.8834 122.014 74.6834C109.114 80.7834 92.8143 82.1834 84.2143 82.3834C83.9143 82.4834 83.6143 82.4834 83.4143 82.4834Z" fill="#634277"/>
<path opacity="0.28" d="M126.314 71.3834C132.214 66.2834 130.814 62.9834 133.114 61.6834C135.414 60.3834 133.114 56.1834 133.114 56.1834C116.214 48.5834 113.214 61.4834 96.5143 67.4834C96.5143 67.4834 105.514 65.1834 106.114 68.7834C106.714 72.3834 97.3143 77.0834 97.3143 77.0834C97.3143 77.0834 103.714 81.1834 98.7143 81.6834C97.8143 81.7834 97.6143 83.2834 85.4143 83.4834C109.414 85.5834 122.214 74.8834 126.314 71.3834Z" fill="#634277"/>
<defs>
<linearGradient id="paint0_linear_3_760" x1="0.300936" y1="88.086" x2="209.64" y2="88.086" gradientUnits="userSpaceOnUse">
<stop stop-color="#00004F"/>
<stop offset="1"/>
</linearGradient>
<linearGradient id="paint1_linear_3_760" x1="81.2421" y1="163.214" x2="81.2421" y2="112.073" gradientUnits="userSpaceOnUse">
<stop stop-color="#EAE5EF"/>
<stop offset="0.1207" stop-color="#D6D9E6"/>
<stop offset="0.3076" stop-color="#BFCBDC"/>
<stop offset="0.5071" stop-color="#AEC1D4"/>
<stop offset="0.7258" stop-color="#A4BBCF"/>
<stop offset="1" stop-color="#A1B9CE"/>
</linearGradient>
<linearGradient id="paint2_linear_3_760" x1="5.30556" y1="92.4124" x2="116.57" y2="92.4124" gradientUnits="userSpaceOnUse">
<stop stop-color="#EAE5EF"/>
<stop offset="0.00444579" stop-color="#E9E4EF"/>
<stop offset="0.1418" stop-color="#CFD5E3"/>
<stop offset="0.2919" stop-color="#BAC8DA"/>
<stop offset="0.462" stop-color="#ACC0D3"/>
<stop offset="0.6667" stop-color="#A4BBCF"/>
<stop offset="1" stop-color="#A1B9CE"/>
</linearGradient>
<linearGradient id="paint3_linear_3_760" x1="5.30583" y1="92.2828" x2="24.1294" y2="92.2828" gradientUnits="userSpaceOnUse">
<stop stop-color="#297292"/>
<stop offset="0.1553" stop-color="#286283"/>
<stop offset="0.4962" stop-color="#264568"/>
<stop offset="0.7896" stop-color="#243257"/>
<stop offset="1" stop-color="#242C51"/>
</linearGradient>
<linearGradient id="paint4_linear_3_760" x1="5.30564" y1="96.0117" x2="116.57" y2="96.0117" gradientUnits="userSpaceOnUse">
<stop stop-color="#297292"/>
<stop offset="0.0819656" stop-color="#286283"/>
<stop offset="0.2618" stop-color="#264568"/>
<stop offset="0.4166" stop-color="#243257"/>
<stop offset="0.5276" stop-color="#242C51"/>
</linearGradient>
<linearGradient id="paint5_linear_3_760" x1="147.592" y1="83.6447" x2="80.0448" y2="151.192" gradientUnits="userSpaceOnUse">
<stop stop-color="#A1B9CE"/>
<stop offset="0.1621" stop-color="#A7BCD1"/>
<stop offset="0.3735" stop-color="#B7C6D8"/>
<stop offset="0.6111" stop-color="#D2D6E4"/>
<stop offset="0.7839" stop-color="#EAE5EF"/>
</linearGradient>
<linearGradient id="paint6_linear_3_760" x1="46.7103" y1="119.067" x2="76.2426" y2="119.067" gradientUnits="userSpaceOnUse">
<stop stop-color="#297292"/>
<stop offset="0.1553" stop-color="#286283"/>
<stop offset="0.4962" stop-color="#264568"/>
<stop offset="0.7896" stop-color="#243257"/>
<stop offset="1" stop-color="#242C51"/>
</linearGradient>
<linearGradient id="paint7_linear_3_760" x1="35.4729" y1="45.6307" x2="134.228" y2="45.6307" gradientUnits="userSpaceOnUse">
<stop stop-color="#297292"/>
<stop offset="0.1553" stop-color="#286283"/>
<stop offset="0.4962" stop-color="#264568"/>
<stop offset="0.7896" stop-color="#243257"/>
<stop offset="1" stop-color="#242C51"/>
</linearGradient>
<linearGradient id="paint8_linear_3_760" x1="99.8405" y1="62.3571" x2="88.2313" y2="25.3458" gradientUnits="userSpaceOnUse">
<stop offset="0.1955" stop-color="white"/>
<stop offset="0.3115" stop-color="#F8F9FC"/>
<stop offset="0.4758" stop-color="#E6E7F3"/>
<stop offset="0.6687" stop-color="#C7CBE5"/>
<stop offset="0.8818" stop-color="#9DA4D1"/>
<stop offset="1" stop-color="#838BC5"/>
</linearGradient>
<linearGradient id="paint9_linear_3_760" x1="91.7628" y1="54.6477" x2="95.9459" y2="28.0211" gradientUnits="userSpaceOnUse">
<stop stop-color="#4C0466"/>
<stop offset="0.1266" stop-color="#3B0A49"/>
<stop offset="0.2617" stop-color="#2E0E33"/>
<stop offset="0.4089" stop-color="#251223"/>
<stop offset="0.5758" stop-color="#20131A"/>
<stop offset="0.8045" stop-color="#1E1417"/>
</linearGradient>
<linearGradient id="paint10_linear_3_760" x1="99.218" y1="31.068" x2="86.5454" y2="50.3205" gradientUnits="userSpaceOnUse">
<stop stop-color="#4A0063"/>
<stop offset="0.2643" stop-color="#4C0365"/>
<stop offset="0.4466" stop-color="#510C6D"/>
<stop offset="0.6041" stop-color="#591B7B"/>
<stop offset="0.7476" stop-color="#66318E"/>
<stop offset="0.8803" stop-color="#764DA6"/>
<stop offset="1" stop-color="#886DC2"/>
</linearGradient>
<linearGradient id="paint11_linear_3_760" x1="92.5291" y1="50.0639" x2="95.1799" y2="32.6051" gradientUnits="userSpaceOnUse">
<stop stop-color="#4C0466"/>
<stop offset="0.1266" stop-color="#3B0A49"/>
<stop offset="0.2617" stop-color="#2E0E33"/>
<stop offset="0.4089" stop-color="#251223"/>
<stop offset="0.5758" stop-color="#20131A"/>
<stop offset="0.8045" stop-color="#1E1417"/>
</linearGradient>
<linearGradient id="paint12_linear_3_760" x1="58.0592" y1="62.6754" x2="47.9441" y2="30.4272" gradientUnits="userSpaceOnUse">
<stop offset="0.1955" stop-color="white"/>
<stop offset="0.3115" stop-color="#F8F9FC"/>
<stop offset="0.4758" stop-color="#E6E7F3"/>
<stop offset="0.6687" stop-color="#C7CBE5"/>
<stop offset="0.8818" stop-color="#9DA4D1"/>
<stop offset="1" stop-color="#838BC5"/>
</linearGradient>
<linearGradient id="paint13_linear_3_760" x1="56.3927" y1="57.6739" x2="60.5748" y2="31.0536" gradientUnits="userSpaceOnUse">
<stop stop-color="#4C0466"/>
<stop offset="0.1266" stop-color="#3B0A49"/>
<stop offset="0.2617" stop-color="#2E0E33"/>
<stop offset="0.4089" stop-color="#251223"/>
<stop offset="0.5758" stop-color="#20131A"/>
<stop offset="0.8045" stop-color="#1E1417"/>
</linearGradient>
<linearGradient id="paint14_linear_3_760" x1="63.5031" y1="34.7564" x2="48.474" y2="48.5233" gradientUnits="userSpaceOnUse">
<stop stop-color="#4A0063"/>
<stop offset="0.2643" stop-color="#4C0365"/>
<stop offset="0.4466" stop-color="#510C6D"/>
<stop offset="0.6041" stop-color="#591B7B"/>
<stop offset="0.7476" stop-color="#66318E"/>
<stop offset="0.8803" stop-color="#764DA6"/>
<stop offset="1" stop-color="#886DC2"/>
</linearGradient>
<linearGradient id="paint15_linear_3_760" x1="57.1763" y1="52.9491" x2="59.8258" y2="35.4901" gradientUnits="userSpaceOnUse">
<stop stop-color="#4C0466"/>
<stop offset="0.1266" stop-color="#3B0A49"/>
<stop offset="0.2617" stop-color="#2E0E33"/>
<stop offset="0.4089" stop-color="#251223"/>
<stop offset="0.5758" stop-color="#20131A"/>
<stop offset="0.8045" stop-color="#1E1417"/>
</linearGradient>
<linearGradient id="paint16_linear_3_760" x1="31.8849" y1="27.6104" x2="134.214" y2="27.6104" gradientUnits="userSpaceOnUse">
<stop stop-color="#EAE5EF"/>
<stop offset="0.8565" stop-color="#ACC0D3"/>
<stop offset="1" stop-color="#A1B9CE"/>
</linearGradient>
<linearGradient id="paint17_linear_3_760" x1="36.8224" y1="68.7906" x2="134.176" y2="68.7906" gradientUnits="userSpaceOnUse">
<stop stop-color="#EAE5EF"/>
<stop offset="0.8565" stop-color="#ACC0D3"/>
<stop offset="1" stop-color="#A1B9CE"/>
</linearGradient>
</defs>
</svg>
