<svg width="166" height="206" viewBox="0 0 166 206" fill="none" xmlns="http://www.w3.org/2000/svg">
<path opacity="0.18" d="M151.317 3.37737C148.882 0.333254 144.62 -0.57998 141.424 1.39869C128.03 9.6178 116.158 20.7288 107.178 33.6663C99.1106 42.342 76.432 100.637 105.503 86.9382C105.655 89.6779 105.199 96.375 99.8716 111.596C97.893 106.725 96.2187 98.0493 89.2172 98.5059C86.1731 95.1573 80.3893 95.4618 77.6496 98.9625L77.4974 99.1147C75.6709 101.55 72.4746 106.268 71.1048 109.008C69.1261 98.9625 68.2129 90.439 68.8217 86.4816C70.0393 87.0905 71.257 87.8515 72.3224 88.6125C76.8886 93.4831 85.7165 90.8956 85.8687 83.8941C85.8687 74.4574 84.4989 64.4118 81.7592 55.2795C78.1062 42.7986 71.4092 30.6222 61.5158 22.0987C54.2099 16.9237 38.9894 3.68178 31.8357 14.4884C30.1615 17.9891 31.3791 22.0987 34.5754 24.2295C36.8585 25.7516 56.1886 39.4501 46.2953 56.9537C41.5769 69.8912 19.3549 65.4773 11.4402 59.8456C3.37327 55.1273 -4.54142 68.0648 3.67768 73.2397C11.1358 78.2625 38.2284 98.2015 39.2938 112.204C39.2938 113.27 39.2938 116.314 32.5967 119.358C18.1372 132.448 41.4247 134.579 54.2099 152.082C57.2541 155.887 60.2982 160.149 60.907 165.172C59.0805 172.326 64.1033 181.001 71.8658 177.044C74.6055 183.741 74.9099 190.895 75.3665 198.048C75.6709 208.094 93.3268 208.094 94.3922 198.505C94.5444 197.744 95.001 195.613 95.1533 194.852V194.7C95.3055 194.243 95.6099 192.873 95.7621 192.417V192.265C96.0665 191.047 96.3709 189.677 96.6753 188.459V188.307C96.6753 188.155 96.8275 187.546 96.9797 187.394V187.242C97.2841 186.329 97.5886 185.263 97.7408 184.35V184.198L98.3496 182.523V182.371C98.5018 182.067 98.5018 181.915 98.654 181.61C120.876 190.134 96.6753 154.365 138.836 134.883C141.728 133.513 143.402 130.317 143.098 127.121C142.185 119.51 135.488 121.946 130.769 116.162C126.812 102.159 140.054 90.8956 163.189 70.3478C170.038 65.0206 163.189 53.6052 155.274 57.2582C148.273 60.7589 131.835 66.3905 124.986 61.2155C121.485 57.867 122.246 53.6052 133.509 35.7972C144.163 17.0759 157.101 14.184 151.317 3.37737Z" fill="url(#paint0_linear_3_49)"/>
<path d="M151.165 2.92078C148.882 -0.123329 144.62 -0.884356 141.271 1.09432C127.877 9.16121 115.853 20.2722 106.873 33.0575C98.8061 41.581 75.9753 99.1147 105.047 85.5684C105.199 88.1559 104.742 94.853 99.2627 109.921C97.4363 105.051 95.6098 96.6794 88.7606 96.9838C85.7164 93.6353 80.0848 93.9397 77.1929 97.5927L77.0407 97.7449C75.2143 100.028 72.0179 104.746 70.6481 107.486C68.6694 97.5927 67.7562 89.2214 68.5172 85.264C69.7349 85.8728 70.9525 86.6339 72.0179 87.3949C76.5841 92.2655 85.412 89.678 85.5642 82.6765C85.5642 73.2398 84.1944 63.4986 81.6069 54.5185C77.954 42.1898 71.4091 30.3178 61.5157 21.7943C54.2099 16.6193 39.1415 3.68181 31.8357 14.4884C30.1614 17.8369 31.379 21.9465 34.5754 24.0774C36.8584 25.5994 56.0364 38.9935 46.143 56.3449C41.2724 69.1302 19.2026 64.8685 11.2879 59.3891C3.221 54.6707 -4.69369 67.456 3.3732 72.631C10.8313 77.5015 37.7717 96.9838 38.6849 110.835C38.6849 111.9 38.6849 114.792 31.9879 117.988C17.5283 130.926 40.8158 132.904 53.4489 150.104C56.493 153.909 59.5371 158.171 60.1459 162.889C58.3194 169.89 63.19 178.414 71.1047 174.457C73.6922 181.001 73.9966 188.155 74.4532 195.156C74.7576 205.05 92.4135 205.05 93.3267 195.461C93.4789 194.7 93.9355 192.569 94.0878 191.808V191.656C94.24 191.199 94.5444 189.829 94.6966 189.373V189.22C95.001 188.003 95.3054 186.633 95.6098 185.568V185.415C95.6098 185.263 95.762 184.654 95.9142 184.502V184.35C96.2186 183.437 96.523 182.371 96.8274 181.458V181.306L97.4363 179.632V179.479C97.5885 179.175 97.5885 179.023 97.7407 178.718C119.963 187.09 95.9142 151.778 138.075 132.448C140.967 131.078 142.641 128.034 142.337 124.837C141.424 117.227 134.727 119.815 130.008 114.031C126.203 100.028 139.597 88.7647 162.58 68.5214C169.43 63.3464 162.58 51.931 154.818 55.5839C147.816 59.0847 131.378 64.7163 124.529 59.5413C121.028 56.345 121.789 52.0832 133.052 34.4273C143.859 16.4671 156.949 13.5752 151.165 2.92078Z" fill="white"/>
<path d="M68.9736 131.078C68.9736 131.078 45.3818 57.2582 78.106 82.5243C78.106 82.5243 79.9324 30.9266 38.8369 17.9891C38.8369 17.9891 66.6905 36.2538 52.8398 60.3023C38.9891 84.3508 7.63477 66.2383 7.63477 66.2383C7.63477 66.2383 71.5611 108.095 35.184 124.837C35.184 124.837 72.0177 147.212 67.2994 167.912C67.2994 167.912 80.2369 155.431 81.9111 194.852C81.9111 194.852 86.1729 179.175 85.564 194.7C85.564 194.7 95.0008 147.364 102.002 172.326C102.002 172.326 99.1103 142.493 134.726 125.446C134.726 125.446 92.2611 115.401 157.71 62.5854C157.71 62.5854 128.486 77.3493 117.071 63.042C105.655 48.7347 145.076 7.48694 145.076 7.48694C145.076 7.48694 100.024 32.6009 98.3493 80.3934C98.3493 80.3934 130.312 59.6935 98.3493 132.296C98.3493 132.296 98.3493 119.51 94.392 128.034C94.392 128.034 96.2184 121.032 88.9126 104.746C88.9126 104.746 91.9567 121.641 88.1515 123.468C80.8457 126.816 83.281 102.463 83.281 102.463C83.281 102.463 70.8001 115.857 74.7574 131.687C74.7574 131.535 72.17 117.532 68.9736 131.078Z" fill="url(#paint1_linear_3_49)"/>
<path opacity="0.65" d="M108.547 69.2825C94.5442 54.062 128.79 19.8157 128.79 19.8157C115.701 31.6878 99.4147 52.0833 98.3493 80.3936C98.3493 80.3936 130.312 59.6936 98.3493 132.296C98.3493 132.296 98.3493 119.51 94.392 128.034C94.392 128.034 94.8486 126.055 94.2398 121.641C93.9353 123.316 93.3265 124.99 92.1089 125.599C89.0648 127.273 86.6295 128.034 86.6295 128.034C87.6949 128.338 88.1515 128.186 88.1515 128.186C85.1074 130.013 82.8243 128.186 82.8243 128.186C84.042 128.643 85.4118 128.034 85.4118 128.034C83.5854 128.186 77.9538 125.142 77.9538 125.142C74.453 114.335 83.2809 102.311 83.2809 102.311C83.2809 102.311 71.4089 114.792 74.453 130.165C74.6052 130.926 74.7574 131.535 74.7574 131.535C74.6052 131.078 74.6052 130.621 74.453 130.165C73.8442 128.034 72.7788 124.077 71.2567 125.446C74.7574 123.772 74.3008 144.016 63.4942 134.274C52.6876 124.533 42.7943 123.468 42.7943 123.468C68.6692 107.943 37.1627 74.762 37.1627 74.762C37.1627 74.762 63.4942 66.5428 62.7332 47.6693C61.9722 28.7959 38.8369 17.9893 38.8369 17.9893C38.8369 17.9893 66.6905 36.2539 52.8398 60.3024C38.9891 84.3509 7.63477 66.2384 7.63477 66.2384C7.63477 66.2384 71.5611 108.095 35.184 124.838C35.184 124.838 72.0177 147.212 67.2994 167.912C67.2994 167.912 74.453 161.063 78.7148 173.543C80.2368 177.957 81.4545 184.654 81.9111 195.004C81.9111 195.004 86.1729 179.327 85.564 194.852C85.564 194.852 89.217 176.435 93.6309 168.673C94.392 167.455 95.0008 166.542 95.7618 165.933C97.8927 164.259 100.024 165.629 101.85 172.478C101.85 172.478 101.85 171.869 101.85 170.651C100.328 163.498 99.4148 154.974 100.937 147.516C104.133 131.078 126.203 124.381 126.203 124.381C126.203 124.381 109.613 122.859 114.026 104.29C117.984 87.0906 130.769 78.8715 132.748 77.8061C131.074 78.7193 121.332 83.1333 108.547 69.2825ZM96.2184 159.845C96.2184 159.845 95.7618 165.172 93.1743 169.129C91.0434 171.26 88.3037 173.391 86.3251 171.869C82.6721 169.129 76.5839 159.54 77.3449 151.017C78.106 142.493 79.4758 142.646 79.4758 142.646C79.4758 142.646 84.3464 148.886 93.0221 140.058C92.8699 140.21 98.0449 151.778 96.2184 159.845Z" fill="#634277"/>
<path d="M84.8031 135.035C84.8031 135.035 84.1943 127.577 80.0848 127.121C76.1274 126.664 75.823 129.86 75.823 129.86C75.823 129.86 81.1502 143.102 84.8031 135.035Z" fill="#FFDD00"/>
<path d="M87.5427 134.883C87.5427 134.883 87.6949 128.49 89.3692 127.577C91.1957 126.664 92.5655 128.947 92.5655 128.947C92.5655 128.947 89.8258 142.645 87.5427 134.883Z" fill="#FFDD00"/>
<path opacity="0.3" d="M88.1515 123.316C80.8457 126.664 83.281 102.311 83.281 102.311C83.281 102.311 73.8442 130.165 88.1515 123.316Z" fill="url(#paint2_linear_3_49)"/>
<path opacity="0.3" d="M73.844 75.3707C71.7132 73.8487 65.0161 77.6538 65.0161 77.6538C67.7558 76.4362 71.8654 77.6538 78.1058 82.5244C78.1058 82.5244 79.3234 47.6693 56.9492 28.0348C72.4742 45.234 73.844 75.3707 73.844 75.3707Z" fill="url(#paint3_linear_3_49)"/>
<path opacity="0.3" d="M145.229 7.48694C145.229 7.48694 136.401 12.3575 126.355 21.9465C126.203 22.2509 102.002 52.8442 120.115 65.7817C119.049 65.0207 118.136 64.1074 117.223 63.042C105.959 48.7347 145.229 7.48694 145.229 7.48694Z" fill="url(#paint4_linear_3_49)"/>
<path opacity="0.3" d="M134.879 125.294C134.879 125.294 92.4136 115.249 157.862 62.4332C157.862 62.4332 145.381 69.1303 132.748 77.6538C120.115 86.1773 100.176 118.902 134.879 125.294Z" fill="url(#paint5_linear_3_49)"/>
<path opacity="0.3" d="M92.87 140.21C84.1943 149.19 79.3237 142.798 79.3237 142.798C79.3237 142.798 81.6068 149.343 87.5428 148.277C92.4134 147.516 95.7619 155.431 95.4575 163.345C95.9141 161.367 96.0663 159.845 96.0663 159.845C98.045 151.778 92.87 140.21 92.87 140.21Z" fill="url(#paint6_linear_3_49)"/>
<path d="M86.6293 131.991C86.4771 135.492 83.433 138.232 80.0845 138.079C76.5838 137.927 73.8441 134.883 73.9963 131.534C74.1485 128.034 77.1926 125.294 80.5411 125.446C84.0419 125.446 86.7816 128.49 86.6293 131.991Z" fill="url(#paint7_radial_3_49)"/>
<path d="M95.0008 132.296C94.8486 135.796 92.5655 138.536 89.8258 138.384C87.2383 138.232 85.1074 135.34 85.2596 131.839C85.4118 128.338 87.6949 125.599 90.4346 125.751C93.1743 125.903 95.153 128.795 95.0008 132.296Z" fill="url(#paint8_radial_3_49)"/>
<defs>
<linearGradient id="paint0_linear_3_49" x1="19.4797" y1="123.095" x2="174.503" y2="68.3852" gradientUnits="userSpaceOnUse">
<stop stop-color="#00004F"/>
<stop offset="1"/>
</linearGradient>
<linearGradient id="paint1_linear_3_49" x1="26.2051" y1="119.014" x2="166.994" y2="69.3276" gradientUnits="userSpaceOnUse">
<stop offset="0.1716" stop-color="#13243B"/>
<stop offset="0.5146" stop-color="#182C45"/>
<stop offset="1" stop-color="#243D5B"/>
</linearGradient>
<linearGradient id="paint2_linear_3_49" x1="89.438" y1="104.935" x2="76.7135" y2="131.539" gradientUnits="userSpaceOnUse">
<stop stop-color="#6A72BB"/>
<stop offset="0.1074" stop-color="#666DB4"/>
<stop offset="0.269" stop-color="#5A619F"/>
<stop offset="0.4648" stop-color="#474C7D"/>
<stop offset="0.6872" stop-color="#2C304E"/>
<stop offset="0.9292" stop-color="#0B0B13"/>
<stop offset="1"/>
</linearGradient>
<linearGradient id="paint3_linear_3_49" x1="75.4198" y1="38.7894" x2="51.607" y2="88.5766" gradientUnits="userSpaceOnUse">
<stop stop-color="#6A72BB"/>
<stop offset="0.1074" stop-color="#666DB4"/>
<stop offset="0.269" stop-color="#5A619F"/>
<stop offset="0.4648" stop-color="#474C7D"/>
<stop offset="0.6872" stop-color="#2C304E"/>
<stop offset="0.9292" stop-color="#0B0B13"/>
<stop offset="1"/>
</linearGradient>
<linearGradient id="paint4_linear_3_49" x1="140.734" y1="5.32903" x2="110.872" y2="67.7646" gradientUnits="userSpaceOnUse">
<stop stop-color="#6A72BB"/>
<stop offset="0.1074" stop-color="#666DB4"/>
<stop offset="0.269" stop-color="#5A619F"/>
<stop offset="0.4648" stop-color="#474C7D"/>
<stop offset="0.6872" stop-color="#2C304E"/>
<stop offset="0.9292" stop-color="#0B0B13"/>
<stop offset="1"/>
</linearGradient>
<linearGradient id="paint5_linear_3_49" x1="150.216" y1="61.1382" x2="118.218" y2="128.039" gradientUnits="userSpaceOnUse">
<stop stop-color="#6A72BB"/>
<stop offset="0.1074" stop-color="#666DB4"/>
<stop offset="0.269" stop-color="#5A619F"/>
<stop offset="0.4648" stop-color="#474C7D"/>
<stop offset="0.6872" stop-color="#2C304E"/>
<stop offset="0.9292" stop-color="#0B0B13"/>
<stop offset="1"/>
</linearGradient>
<linearGradient id="paint6_linear_3_49" x1="93.5122" y1="140.444" x2="84.9797" y2="158.284" gradientUnits="userSpaceOnUse">
<stop stop-color="#6A72BB"/>
<stop offset="0.1074" stop-color="#666DB4"/>
<stop offset="0.269" stop-color="#5A619F"/>
<stop offset="0.4648" stop-color="#474C7D"/>
<stop offset="0.6872" stop-color="#2C304E"/>
<stop offset="0.9292" stop-color="#0B0B13"/>
<stop offset="1"/>
</linearGradient>
<radialGradient id="paint7_radial_3_49" cx="0" cy="0" r="1" gradientUnits="userSpaceOnUse" gradientTransform="translate(80.3116 131.642) rotate(2.7307) scale(6.32146)">
<stop stop-color="#C7FF00"/>
<stop offset="0.049682" stop-color="#B6E900"/>
<stop offset="0.2013" stop-color="#87AC00"/>
<stop offset="0.352" stop-color="#5D7800"/>
<stop offset="0.498" stop-color="#3C4D00"/>
<stop offset="0.6385" stop-color="#222B00"/>
<stop offset="0.7721" stop-color="#0F1300"/>
<stop offset="0.8957" stop-color="#040500"/>
<stop offset="1"/>
</radialGradient>
<radialGradient id="paint8_radial_3_49" cx="0" cy="0" r="1" gradientUnits="userSpaceOnUse" gradientTransform="translate(90.1809 132.113) rotate(2.73243) scale(4.81139 6.32145)">
<stop stop-color="#C7FF00"/>
<stop offset="0.049682" stop-color="#B6E900"/>
<stop offset="0.2013" stop-color="#87AC00"/>
<stop offset="0.352" stop-color="#5D7800"/>
<stop offset="0.498" stop-color="#3C4D00"/>
<stop offset="0.6385" stop-color="#222B00"/>
<stop offset="0.7721" stop-color="#0F1300"/>
<stop offset="0.8957" stop-color="#040500"/>
<stop offset="1"/>
</radialGradient>
</defs>
</svg>
