<svg width="165" height="176" viewBox="0 0 165 176" fill="none" xmlns="http://www.w3.org/2000/svg">
<path opacity="0.18" d="M104.327 155.268C101.327 168.768 118.827 164.168 126.327 164.468C123.727 172.168 136.127 180.468 139.127 171.568C147.727 173.768 156.027 163.068 148.727 156.868C161.327 155.568 170.227 141.968 160.727 131.468C156.127 126.368 149.527 123.868 143.127 122.068C155.727 115.568 163.827 102.068 162.527 87.7681C162.127 82.5681 159.927 76.8681 161.227 71.2681C162.227 55.1681 159.427 38.868 153.227 24.068C154.227 21.768 154.127 19.568 153.227 16.868C155.627 12.968 154.727 7.76804 150.327 6.26804C148.927 3.86804 145.527 2.96804 142.827 3.66804C137.727 -4.23196 125.127 4.46805 128.527 12.668C122.127 21.968 134.727 34.768 142.727 31.268C146.327 38.168 147.327 46.068 147.727 53.868C130.427 31.168 96.9273 10.668 70.0273 28.968C59.9273 35.368 51.7272 45.5681 49.8272 57.7681C33.6272 27.2681 26.9272 26.068 24.3272 25.668C13.9272 20.868 -7.87279 36.568 2.92721 47.068C4.12721 51.168 7.72721 55.168 12.4272 54.168C17.2272 58.268 20.9272 55.968 22.4272 51.968C25.6272 52.468 28.8272 52.168 31.2272 49.968C35.9272 57.968 41.3272 69.168 46.8272 82.568C30.4272 87.368 12.5272 102.368 17.8272 121.568C27.7272 153.268 71.9272 156.968 99.7272 155.968C101.327 155.868 102.827 155.568 104.327 155.268Z" fill="url(#paint0_linear_3_303)"/>
<path d="M104.327 152.468C101.327 165.768 118.827 161.168 126.327 161.568C123.727 169.168 136.127 177.268 139.127 168.468C147.727 170.668 156.027 160.168 148.727 153.968C161.327 152.668 170.227 139.368 160.727 128.968C156.127 123.968 149.527 121.568 143.127 119.668C155.727 113.268 163.827 99.9681 162.527 85.9681C162.127 80.8681 159.927 75.1681 161.227 69.7681C162.227 53.9681 159.427 37.8681 153.227 23.2681C154.227 20.9681 154.127 18.8681 153.227 16.1681C155.627 12.3681 154.727 7.16808 150.327 5.66808C148.927 3.26808 145.527 2.46807 142.827 3.06807C137.727 -4.73193 125.127 3.86808 128.527 11.8681C122.127 21.0681 134.727 33.6681 142.727 30.1681C146.327 36.9681 147.327 44.7681 147.727 52.3681C130.427 30.0681 96.9273 9.86807 70.0273 27.7681C59.9273 34.0681 51.7272 44.1681 49.8272 56.1681C33.6272 26.0681 26.9272 24.9681 24.3272 24.5681C13.9272 19.7681 -7.87279 35.2681 2.92721 45.6681C4.12721 49.7681 7.72721 53.6681 12.4272 52.6681C17.2272 56.6681 20.9272 54.4681 22.4272 50.5681C25.6272 51.0681 28.8272 50.7681 31.2272 48.5681C35.9272 56.4681 41.3272 67.4681 46.8272 80.6681C30.4272 85.4681 12.5272 100.168 17.8272 119.068C27.7272 150.268 71.9272 153.968 99.7272 152.968C101.327 153.068 102.827 152.768 104.327 152.468Z" fill="white"/>
<path d="M59.8273 88.168C59.8273 88.168 34.5273 31.568 23.5273 29.768C17.4273 28.768 14.8273 28.668 10.0273 32.668C4.62731 37.168 3.32729 41.268 7.32729 42.668C7.32729 42.668 8.22728 48.068 11.1273 48.068C14.0273 48.068 10.3273 40.468 10.3273 40.468C10.3273 40.468 13.3273 36.268 16.2273 37.768C16.2273 37.768 12.5273 45.768 15.6273 49.068C18.6273 52.368 17.9273 45.868 17.6273 42.468C17.3273 39.068 19.3273 35.368 21.4273 36.868C23.5273 38.368 24.8273 43.368 24.8273 43.368C24.8273 43.368 22.7273 42.468 21.7273 44.068C20.6273 45.668 24.7273 46.768 27.3273 45.568C29.9273 44.368 27.0273 34.068 25.5273 33.468C38.5273 44.168 55.5273 89.368 55.5273 89.368L59.8273 88.168Z" fill="url(#paint1_linear_3_303)"/>
<path d="M59.2273 82.868C59.2273 82.868 40.7274 50.7681 74.8274 30.8681C108.927 10.9681 156.927 57.8681 157.527 87.7681C158.127 117.668 121.927 121.368 121.927 121.368C121.927 121.368 159.327 123.468 159.527 138.768C159.727 153.968 128.227 147.868 131.927 153.568C135.627 159.268 148.027 154.368 146.127 160.868C144.327 167.368 129.827 159.068 134.127 167.368C134.127 167.368 128.827 165.468 131.927 161.168C135.027 156.868 126.127 155.568 116.827 156.968C107.527 158.368 105.127 153.468 116.227 149.568C127.327 145.568 135.727 142.868 121.127 141.968C106.527 141.068 117.027 153.568 65.5274 146.168C14.0274 138.768 3.62732 93.768 59.2273 82.868Z" fill="url(#paint2_linear_3_303)"/>
<path opacity="0.4" d="M74.1273 80.868C57.9273 81.168 51.0273 54.068 70.7273 37.468C90.5273 20.868 132.627 42.368 143.727 65.168C154.827 88.068 141.427 111.368 117.927 97.668C94.5273 83.868 90.5273 80.568 74.1273 80.868Z" fill="#007C73"/>
<path opacity="0.4" d="M117.427 123.868C117.427 123.868 124.927 98.868 86.9272 88.468C49.0272 78.068 22.9272 97.5681 28.2272 116.768C33.5272 135.968 87.9272 149.668 114.427 132.468C114.427 132.468 130.627 143.968 144.627 143.368C158.727 142.868 149.427 124.568 117.427 123.868Z" fill="#007C73"/>
<path opacity="0.82" d="M63.0273 74.2681C79.8273 79.9681 159.127 84.8681 141.727 53.3681C124.627 33.0681 96.8273 18.0681 74.8273 30.9681C56.1273 41.8681 53.2272 56.4681 54.4272 67.4681C55.8272 70.2681 58.5273 72.6681 63.0273 74.2681Z" fill="url(#paint3_linear_3_303)"/>
<path d="M147.027 22.068C147.027 22.068 163.927 53.7681 152.327 89.7681C152.327 89.7681 147.927 95.068 149.327 89.068C150.727 83.068 158.727 41.268 144.327 23.868C144.327 23.868 137.927 29.968 133.027 20.968C128.227 11.968 137.327 15.468 137.627 17.068C137.927 18.668 135.827 18.768 135.827 18.768C135.827 18.768 136.327 21.468 137.727 21.768C139.127 22.068 137.727 11.968 137.727 11.968C137.727 11.968 135.627 15.568 133.527 11.068C131.427 6.56804 137.327 4.06804 138.427 5.56804C139.527 6.96804 140.127 10.068 140.127 10.068C140.127 10.068 141.627 8.26804 144.627 7.96804C147.627 7.66804 145.827 10.868 145.827 10.868C145.827 10.868 148.327 9.66804 149.427 10.768C150.527 11.968 147.727 15.668 147.727 15.668C147.727 15.668 150.827 22.068 147.027 22.068Z" fill="url(#paint4_linear_3_303)"/>
<path opacity="0.82" d="M110.427 103.368C104.327 79.268 59.2273 82.868 59.2273 82.868C21.8273 90.168 14.3274 112.868 29.0274 129.268C51.4274 146.268 115.227 122.468 110.427 103.368Z" fill="url(#paint5_linear_3_303)"/>
<path d="M74.6273 70.668C80.6273 68.368 89.9274 51.868 81.5274 47.768C73.1274 43.668 56.0273 56.668 58.4273 64.568C60.8273 72.468 70.9273 72.168 74.6273 70.668Z" fill="url(#paint6_linear_3_303)"/>
<path d="M89.0274 56.3681C88.9274 50.7681 89.5273 41.4681 102.327 45.2681C115.127 49.1681 128.627 58.1681 125.927 69.0681C123.127 79.9681 89.7274 83.6681 89.0274 56.3681Z" fill="url(#paint7_linear_3_303)"/>
<path opacity="0.19" d="M104.727 93.768C88.5273 76.068 59.2273 82.968 59.2273 82.968C59.2273 82.968 90.8273 80.368 104.727 93.768Z" fill="#007C73"/>
<path opacity="0.6" d="M71.0273 43.1681C66.1273 41.9681 78.8272 25.068 94.9272 28.468C111.027 31.868 87.1273 47.0681 71.0273 43.1681Z" fill="#FDFFFF"/>
<path opacity="0.6" d="M45.6272 92.768C43.2272 92.268 49.5273 85.168 57.5273 86.568C65.6273 88.068 53.7272 94.468 45.6272 92.768Z" fill="#FDFFFF"/>
<path opacity="0.6" d="M44.0273 97.368C42.4273 96.268 49.2272 92.168 54.7272 95.568C60.2272 98.968 49.4273 100.968 44.0273 97.368Z" fill="#FDFFFF"/>
<path opacity="0.19" d="M74.6273 71.368C80.6273 68.868 89.9274 51.368 81.5274 46.968C73.1274 42.568 56.0273 56.468 58.4273 64.868C60.8273 73.268 70.9273 72.868 74.6273 71.368Z" fill="#007C73"/>
<path opacity="0.19" d="M89.0274 56.068C88.9274 50.068 89.5273 40.168 102.327 44.268C115.127 48.368 128.627 57.968 125.927 69.568C123.127 81.168 89.7274 85.168 89.0274 56.068Z" fill="#007C73"/>
<path opacity="0.6" d="M100.527 40.3681C91.9273 40.5681 103.827 32.1681 107.027 33.2681C110.127 34.3681 104.927 40.2681 100.527 40.3681Z" fill="#FDFFFF"/>
<path opacity="0.6" d="M37.7273 94.468C34.4273 91.768 42.2273 91.868 42.9273 93.368C43.6273 94.868 39.4273 95.868 37.7273 94.468Z" fill="#FDFFFF"/>
<path d="M84.2272 65.668C85.3272 65.368 90.2272 74.368 87.4272 75.068C84.6272 75.768 83.1272 65.968 84.2272 65.668Z" fill="#007C73"/>
<path opacity="0.19" d="M84.9272 76.3681C84.0272 74.1681 87.7273 78.4681 90.0273 78.8681C92.3273 79.2681 88.0272 83.5681 84.9272 76.3681Z" fill="#007C73"/>
<path d="M94.3272 57.768C96.1272 55.868 105.927 60.568 102.227 66.168C98.5272 71.868 90.7272 61.568 94.3272 57.768Z" fill="white"/>
<path d="M80.0273 57.7681C78.3273 56.2681 70.1272 59.1681 71.6272 64.5681C73.1272 69.9681 82.6273 60.0681 80.0273 57.7681Z" fill="white"/>
<path opacity="0.19" d="M157.327 144.768C158.727 143.268 159.627 141.368 159.627 138.768C159.527 128.568 142.727 124.268 131.627 122.468C126.127 121.568 122.027 121.368 122.027 121.368C122.027 121.368 158.227 117.568 157.627 87.7681C157.527 84.2681 156.827 80.4681 155.527 76.5681C160.027 46.3681 147.127 22.0681 147.127 22.0681C150.927 22.0681 147.727 15.8681 147.727 15.8681C147.727 15.8681 150.427 12.1681 149.427 10.9681C148.327 9.76806 145.827 11.0681 145.827 11.0681C145.827 11.0681 147.727 7.86807 144.627 8.16807C141.627 8.46807 140.127 10.2681 140.127 10.2681C140.127 10.2681 139.527 7.16806 138.427 5.76806C137.327 4.36806 131.427 6.76806 133.527 11.2681C135.627 15.7681 137.727 12.1681 137.727 12.1681C137.727 12.1681 139.127 22.2681 137.727 21.9681C136.327 21.6681 135.827 18.9681 135.827 18.9681C135.827 18.9681 137.927 18.7681 137.627 17.2681C137.327 15.6681 128.227 12.1681 133.027 21.1681C137.827 30.1681 144.327 24.0681 144.327 24.0681C153.127 34.5681 153.627 54.0681 152.327 69.1681C148.227 60.9681 141.927 52.6681 134.327 45.6681C141.127 62.7681 154.627 105.768 115.927 101.968C115.927 101.968 132.227 157.068 45.7273 140.968C51.4273 143.468 58.0273 145.268 65.5273 146.368C117.027 153.768 106.427 141.268 121.127 142.168C135.727 143.068 127.327 145.868 116.227 149.768C105.127 153.768 107.527 158.568 116.827 157.168C126.127 155.768 135.027 157.068 131.927 161.368C128.827 165.668 134.127 167.568 134.127 167.568C129.827 159.268 144.327 167.568 146.127 161.068C147.927 154.568 135.527 159.468 131.927 153.768C128.927 148.868 150.227 152.268 157.327 144.768Z" fill="url(#paint8_linear_3_303)"/>
<path opacity="0.19" d="M155.427 76.5681L150.427 97.468C150.427 97.368 156.527 84.9681 155.427 76.5681Z" fill="#007C73"/>
<path opacity="0.19" d="M152.227 68.968C152.227 68.968 148.927 84.268 141.927 83.968C141.927 83.968 148.327 80.868 152.227 68.968Z" fill="#007C73"/>
<path opacity="0.19" d="M133.227 18.2681C133.227 18.2681 135.827 25.5681 140.227 24.9681C144.627 24.3681 144.527 22.1681 144.527 22.1681C144.527 22.1681 142.627 18.6681 146.427 17.2681C146.427 17.2681 147.427 16.5681 147.527 15.7681C147.527 15.7681 144.427 17.7681 142.827 16.5681C141.227 15.3681 145.427 11.2681 145.427 11.2681C145.427 11.2681 143.127 11.5681 142.027 13.6681C140.927 15.7681 139.527 16.0681 138.827 15.6681C138.127 15.1681 137.727 12.9681 139.127 11.2681L138.027 5.76807C138.027 5.76807 138.127 10.8681 137.027 11.9681C135.927 13.0681 134.727 12.9681 133.827 11.4681C135.827 15.2681 137.827 11.9681 137.827 11.9681C137.827 11.9681 139.227 22.0681 137.827 21.7681C136.427 21.4681 135.927 18.7681 135.927 18.7681C135.927 18.7681 134.227 18.8681 133.227 18.2681Z" fill="#007C73"/>
<path opacity="0.19" d="M20.8271 34.5681C17.8271 35.3681 17.8271 39.468 17.8271 39.468C18.4271 37.268 19.8271 35.7681 21.3271 36.8681C23.4271 38.3681 24.7271 43.3681 24.7271 43.3681C24.7271 43.3681 23.9271 33.7681 20.8271 34.5681Z" fill="#007C73"/>
<path opacity="0.19" d="M7.22723 42.5681C6.02723 37.9681 11.0273 34.0681 11.0273 34.0681C6.02728 37.3681 7.02728 41.0681 6.02728 40.8681C5.62728 40.7681 5.22725 40.4681 4.92725 40.0681C5.02725 41.1681 5.82723 42.0681 7.22723 42.5681Z" fill="#007C73"/>
<path opacity="0.19" d="M16.2273 37.6681C16.8273 36.2681 16.8273 35.5681 16.8273 35.5681C11.1273 37.0681 10.5273 40.1681 10.5273 40.1681C11.1273 39.3681 13.7273 36.3681 16.2273 37.6681Z" fill="#007C73"/>
<path d="M112.627 53.068C117.627 61.368 115.227 71.968 107.327 76.768C99.4272 81.568 88.8272 78.768 83.8272 70.468C78.8272 62.168 81.2272 51.568 89.1272 46.768C97.1272 41.968 107.627 44.768 112.627 53.068Z" fill="url(#paint9_radial_3_303)"/>
<path d="M88.6272 72.868C82.2272 80.168 71.4272 81.068 64.4272 74.968C57.4272 68.868 56.9273 57.968 63.3273 50.668C69.7273 43.368 80.5273 42.468 87.5273 48.568C94.5273 54.768 95.0272 65.568 88.6272 72.868Z" fill="url(#paint10_radial_3_303)"/>
<defs>
<linearGradient id="paint0_linear_3_303" x1="0.009616" y1="88.0502" x2="164.64" y2="88.0502" gradientUnits="userSpaceOnUse">
<stop stop-color="#00004F"/>
<stop offset="1"/>
</linearGradient>
<linearGradient id="paint1_linear_3_303" x1="32.3883" y1="89.2359" x2="32.3883" y2="29.1519" gradientUnits="userSpaceOnUse">
<stop stop-color="#24C2BB"/>
<stop offset="0.1553" stop-color="#28C4BB"/>
<stop offset="0.3108" stop-color="#34C8BC"/>
<stop offset="0.4665" stop-color="#48D0BE"/>
<stop offset="0.6224" stop-color="#64DAC1"/>
<stop offset="0.7785" stop-color="#89E8C4"/>
<stop offset="0.9327" stop-color="#B4F9C8"/>
<stop offset="0.9848" stop-color="#C5FFC9"/>
</linearGradient>
<linearGradient id="paint2_linear_3_303" x1="48.7571" y1="54.4675" x2="151.008" y2="156.718" gradientUnits="userSpaceOnUse">
<stop stop-color="#C5FFC9"/>
<stop offset="0.039957" stop-color="#B4F9C8"/>
<stop offset="0.1582" stop-color="#89E8C4"/>
<stop offset="0.2779" stop-color="#64DAC1"/>
<stop offset="0.3974" stop-color="#48D0BE"/>
<stop offset="0.5168" stop-color="#34C8BC"/>
<stop offset="0.636" stop-color="#28C4BB"/>
<stop offset="0.7551" stop-color="#24C2BB"/>
</linearGradient>
<linearGradient id="paint3_linear_3_303" x1="70.3962" y1="32.8283" x2="123.842" y2="86.2743" gradientUnits="userSpaceOnUse">
<stop stop-color="#C5FFC9"/>
<stop offset="0.094102" stop-color="#AADCAD"/>
<stop offset="0.2848" stop-color="#779A79"/>
<stop offset="0.4664" stop-color="#4C634E"/>
<stop offset="0.6336" stop-color="#2B382C"/>
<stop offset="0.7835" stop-color="#141914"/>
<stop offset="0.9107" stop-color="#050705"/>
<stop offset="1"/>
</linearGradient>
<linearGradient id="paint4_linear_3_303" x1="143.97" y1="91.9187" x2="143.97" y2="5.18254" gradientUnits="userSpaceOnUse">
<stop stop-color="#24C2BB"/>
<stop offset="0.1553" stop-color="#28C4BB"/>
<stop offset="0.3108" stop-color="#34C8BC"/>
<stop offset="0.4665" stop-color="#48D0BE"/>
<stop offset="0.6224" stop-color="#64DAC1"/>
<stop offset="0.7785" stop-color="#89E8C4"/>
<stop offset="0.9327" stop-color="#B4F9C8"/>
<stop offset="0.9848" stop-color="#C5FFC9"/>
</linearGradient>
<linearGradient id="paint5_linear_3_303" x1="40.5952" y1="85.2433" x2="88.1773" y2="132.825" gradientUnits="userSpaceOnUse">
<stop stop-color="#C5FFC9"/>
<stop offset="0.094102" stop-color="#AADCAD"/>
<stop offset="0.2848" stop-color="#779A79"/>
<stop offset="0.4664" stop-color="#4C634E"/>
<stop offset="0.6336" stop-color="#2B382C"/>
<stop offset="0.7835" stop-color="#141914"/>
<stop offset="0.9107" stop-color="#050705"/>
<stop offset="1"/>
</linearGradient>
<linearGradient id="paint6_linear_3_303" x1="65.2991" y1="51.9981" x2="79.8116" y2="66.5107" gradientUnits="userSpaceOnUse">
<stop stop-color="#007C73"/>
<stop offset="1" stop-color="#003D45"/>
</linearGradient>
<linearGradient id="paint7_linear_3_303" x1="116.261" y1="50.8463" x2="95.1733" y2="71.9335" gradientUnits="userSpaceOnUse">
<stop stop-color="#007C73"/>
<stop offset="1" stop-color="#003D45"/>
</linearGradient>
<linearGradient id="paint8_linear_3_303" x1="181.267" y1="42.9631" x2="64.5833" y2="159.647" gradientUnits="userSpaceOnUse">
<stop offset="0.3616" stop-color="white"/>
<stop offset="0.4089" stop-color="#C5E1DF"/>
<stop offset="0.4574" stop-color="#91C7C3"/>
<stop offset="0.5068" stop-color="#65B0AA"/>
<stop offset="0.5561" stop-color="#409D96"/>
<stop offset="0.6053" stop-color="#248F87"/>
<stop offset="0.6544" stop-color="#10847C"/>
<stop offset="0.7035" stop-color="#047E75"/>
<stop offset="0.7524" stop-color="#007C73"/>
</linearGradient>
<radialGradient id="paint9_radial_3_303" cx="0" cy="0" r="1" gradientUnits="userSpaceOnUse" gradientTransform="translate(98.255 61.7906) rotate(-31.2319) scale(16.8226 17.519)">
<stop stop-color="#009F72"/>
<stop offset="0.0822022" stop-color="#00825E"/>
<stop offset="0.2153" stop-color="#005B41"/>
<stop offset="0.3528" stop-color="#003A2A"/>
<stop offset="0.4936" stop-color="#002017"/>
<stop offset="0.639" stop-color="#000E0A"/>
<stop offset="0.7919" stop-color="#000403"/>
<stop offset="0.9646"/>
</radialGradient>
<radialGradient id="paint10_radial_3_303" cx="0" cy="0" r="1" gradientUnits="userSpaceOnUse" gradientTransform="translate(75.9506 61.7905) rotate(41.2252) scale(16.8225 17.519)">
<stop stop-color="#009F72"/>
<stop offset="0.0822022" stop-color="#00825E"/>
<stop offset="0.2153" stop-color="#005B41"/>
<stop offset="0.3528" stop-color="#003A2A"/>
<stop offset="0.4936" stop-color="#002017"/>
<stop offset="0.639" stop-color="#000E0A"/>
<stop offset="0.7919" stop-color="#000403"/>
<stop offset="0.9646"/>
</radialGradient>
</defs>
</svg>
