<svg width="188" height="166" viewBox="0 0 188 166" fill="none" xmlns="http://www.w3.org/2000/svg">
<path opacity="0.18" d="M181.12 91.5621C180.815 86.6796 179.594 82.4074 177.763 79.0507C178.679 77.5249 179.594 75.6939 180.205 73.863C187.834 45.1782 159.759 25.3431 142.06 18.0193C136.567 15.8832 130.464 17.1038 126.192 21.0709C113.68 6.72849 93.8452 -7.00359 73.3997 3.98206C67.9069 7.03363 64.8553 13.1368 65.1605 19.5451C65.1605 19.5451 65.1604 20.4606 65.4656 21.376C64.245 20.4606 63.6347 19.8502 63.6347 19.5451C59.9728 15.8832 54.4799 14.6625 49.5974 15.8832C43.7995 17.4089 38.6118 20.1554 34.6448 24.4276C34.0344 24.7328 33.4241 24.7327 32.8138 25.0379C25.1849 28.0894 13.2838 36.0235 10.2322 56.7742C9.62189 57.0793 9.31673 57.6897 8.70641 58.3C-10.5185 80.5764 6.26514 111.397 19.0817 126.045C24.2694 132.148 33.119 133.063 39.2221 128.181C44.7149 124.214 46.851 117.195 45.0201 110.787C47.1562 113.839 49.9026 116.28 53.2593 118.111C74.01 129.096 87.4369 127.265 95.371 123.298C98.4226 122.993 101.169 122.383 104.221 121.467C105.441 121.162 106.662 120.552 107.882 119.942C112.155 121.773 116.427 123.604 120.394 125.434C116.732 129.096 112.46 132.453 108.188 134.589C101.169 137.946 97.8123 146.49 100.254 154.119C102.39 160.833 108.188 165.105 114.596 165.105C115.511 165.105 116.732 165.105 117.647 164.8C124.056 163.274 131.685 160.833 139.314 156.561C143.586 158.697 148.773 158.697 153.046 156.255C169.829 146.795 195.462 123.604 184.477 96.1395C183.256 94.6137 182.341 92.7828 181.12 91.5621Z" fill="url(#paint0_linear_3_238)"/>
<path d="M181.12 89.7313C180.815 85.1539 179.594 80.8817 177.763 77.525C178.679 75.9992 179.594 74.4734 180.205 72.6424C187.834 45.1783 159.759 25.9534 142.06 18.9348C136.567 16.7987 130.464 18.0193 126.192 21.9864C113.68 7.94914 93.8452 -5.17259 73.3997 5.5079C67.9069 8.25432 64.8553 14.3574 65.1605 20.4606C65.1605 20.4606 65.1604 21.0709 65.4656 22.2915C64.245 21.3761 63.6347 20.7657 63.6347 20.4606C59.9728 17.1038 54.4799 15.5781 49.5974 16.7987C43.7995 18.3245 38.6118 21.0709 34.6448 25.0379C34.0344 25.3431 33.4241 25.3431 32.8138 25.6483C25.1849 28.6999 13.2838 36.3288 10.2322 56.164C9.62189 56.4691 9.31673 57.0795 8.70641 57.6898C-10.5185 79.0508 6.26514 108.651 19.0817 122.688C24.2694 128.486 33.119 129.402 39.2221 124.824C44.7149 120.857 46.851 114.144 45.0201 108.041C47.1562 111.092 49.9026 113.228 53.2593 115.059C74.01 125.74 87.4369 123.909 95.371 119.942C98.4226 119.637 101.169 119.331 104.221 118.416C105.441 118.111 106.662 117.501 107.882 117.195C112.155 119.026 116.427 120.857 120.394 122.383C116.732 125.74 112.46 129.097 108.188 130.927C101.169 134.284 97.8123 142.218 100.254 149.542C102.39 155.95 108.188 159.917 114.596 159.917C115.511 159.917 116.732 159.917 117.647 159.612C124.056 158.392 131.685 155.645 139.314 151.678C143.586 153.814 148.773 153.814 153.046 151.373C169.829 142.218 195.462 119.942 184.477 93.3931C183.256 92.4776 182.341 90.9519 181.12 89.7313Z" fill="white"/>
<path d="M26.4054 84.5437C26.4054 84.5437 16.6404 48.23 37.6963 39.9908C37.6963 39.9908 87.4369 70.8117 89.573 76.9148C97.507 99.1913 38.0014 43.0424 38.0014 43.0424C38.0014 43.0424 25.7951 64.4034 26.4054 84.5437Z" fill="#091623"/>
<path d="M36.7807 74.4734C36.7807 74.4734 31.2879 37.2443 53.2592 31.7515C53.2592 31.7515 96.5915 71.1167 97.8121 77.525C103 100.717 53.2592 35.1082 53.2592 35.1082C53.2592 35.1082 38.3065 54.3331 36.7807 74.4734Z" fill="#091623"/>
<path d="M29.7621 112.923C29.7621 112.923 4.43404 85.1539 19.3867 68.3703C19.3867 68.3703 77.6717 72.9477 82.5542 77.525C99.9482 93.6983 21.2176 70.8115 21.2176 70.8115C21.2176 70.8115 19.997 95.2241 29.7621 112.923Z" fill="#091623"/>
<path d="M120.698 40.2959C120.698 40.2959 99.9478 8.86471 80.1125 19.2401C80.1125 19.2401 84.9951 71.1167 88.0466 76.9147C99.3375 97.6654 81.9435 21.6813 81.9435 21.6813C81.9435 21.6813 106.051 26.2586 120.698 40.2959Z" fill="#091623"/>
<path d="M151.824 55.5537C151.824 55.5537 129.548 36.9391 103.61 48.5351C86.826 56.164 87.7415 69.2858 90.4879 77.525C85.3002 76.3044 78.2816 76.6095 72.1784 83.0178C60.5825 94.9189 83.1641 109.261 99.0323 104.074C106.661 101.632 106.966 96.1396 105.135 91.2571C178.983 130.927 151.824 55.5537 151.824 55.5537Z" fill="url(#paint1_linear_3_238)"/>
<path opacity="0.3" d="M108.492 68.0651C120.088 76.3044 153.961 90.952 156.402 74.7786C155.181 64.4033 151.825 55.2485 151.825 55.2485C151.825 55.2485 135.041 41.5165 113.68 45.1784C103.61 48.8403 96.8964 59.8259 108.492 68.0651Z" fill="url(#paint2_linear_3_238)"/>
<path d="M149.078 124.519C149.078 124.519 175.932 97.9705 161.59 80.5766C161.59 80.5766 102.999 82.4075 98.117 86.6797C80.1127 101.938 159.454 83.323 159.454 83.323C159.454 83.323 159.759 107.43 149.078 124.519Z" fill="#13243B"/>
<path d="M145.112 138.556C145.112 138.556 178.374 120.857 169.829 100.107C169.829 100.107 113.375 84.8488 107.272 87.5952C85.606 97.0551 167.083 101.938 167.083 101.938C167.083 101.938 160.37 125.13 145.112 138.556Z" fill="#13243B"/>
<path d="M113.68 145.27C113.68 145.27 150.604 137.336 148.163 115.059C148.163 115.059 98.1174 84.8488 91.404 85.7642C67.9069 88.8158 144.806 116.28 144.806 116.28C144.806 116.28 131.99 136.725 113.68 145.27Z" fill="#13243B"/>
<path d="M136.262 33.2773C136.262 33.2773 171.355 47.0094 165.252 68.6755C165.252 68.6755 110.934 90.3417 104.526 88.5107C81.9443 81.7973 162.201 67.1497 162.201 67.1497C162.201 67.1497 153.046 44.5681 136.262 33.2773Z" fill="#13243B"/>
<path d="M96.5916 72.9477C96.5916 72.9477 101.169 51.5867 138.093 48.5351C138.093 48.8403 109.408 57.6898 96.5916 72.9477Z" fill="#996FDD"/>
<path d="M96.5916 53.7227C96.5916 53.7227 118.563 51.8918 137.177 70.8115C137.177 70.8115 105.746 61.6568 96.5916 53.7227Z" fill="#996FDD"/>
<path d="M59.6675 101.938C50.2076 97.0551 52.954 73.558 77.0614 79.9663C101.169 86.6797 100.253 122.688 59.6675 101.938Z" fill="#13243B"/>
<path opacity="0.3" d="M66.0756 82.4075C67.9066 86.3746 92.6243 106.82 92.6243 94.6138C91.0985 88.5107 85.6057 82.4075 77.0613 80.2714C74.9252 79.6611 73.0942 79.356 71.5684 79.356C70.0427 79.0508 64.5498 79.0508 66.0756 82.4075Z" fill="url(#paint3_linear_3_238)"/>
<path d="M59.3621 86.6797C64.2446 83.6282 72.4838 89.7313 70.0426 96.1396C67.9065 102.548 52.0383 91.2571 59.3621 86.6797Z" fill="#FFDD00"/>
<path d="M72.1787 96.7499C73.3994 91.5623 79.1974 89.121 84.0799 92.1726C88.6573 95.2242 89.2676 100.717 86.5212 101.632C83.7747 102.243 70.0426 104.074 72.1787 96.7499Z" fill="#FFDD00"/>
<path d="M88.6576 101.632C86.8267 106.21 81.3338 108.651 76.7565 106.515C72.1791 104.684 69.7379 99.1911 71.874 94.6137C73.705 90.0364 79.1978 87.5951 83.7751 89.7312C88.3525 91.5621 90.4886 96.7498 88.6576 101.632Z" fill="url(#paint4_radial_3_238)"/>
<path d="M72.4841 94.919C70.6531 99.4964 65.1603 101.938 60.5829 99.8016C56.0056 97.9706 53.5643 92.4778 55.7004 87.9005C57.5314 83.3231 63.0242 80.8818 67.6015 83.0179C72.1789 85.154 74.315 90.3417 72.4841 94.919Z" fill="url(#paint5_radial_3_238)"/>
<defs>
<linearGradient id="paint0_linear_3_238" x1="-0.505974" y1="82.6326" x2="186.483" y2="82.6326" gradientUnits="userSpaceOnUse">
<stop stop-color="#00004F"/>
<stop offset="1"/>
</linearGradient>
<linearGradient id="paint1_linear_3_238" x1="147.902" y1="51.6984" x2="87.1889" y2="112.411" gradientUnits="userSpaceOnUse">
<stop offset="0.1357" stop-color="#243D5B"/>
<stop offset="0.3291" stop-color="#213955"/>
<stop offset="0.578" stop-color="#182C45"/>
<stop offset="0.6977" stop-color="#13243B"/>
</linearGradient>
<linearGradient id="paint2_linear_3_238" x1="145.584" y1="49.3801" x2="84.8707" y2="110.093" gradientUnits="userSpaceOnUse">
<stop stop-color="#6A72BB"/>
<stop offset="0.0385993" stop-color="#6168AB"/>
<stop offset="0.1567" stop-color="#474D7E"/>
<stop offset="0.2797" stop-color="#313557"/>
<stop offset="0.4062" stop-color="#1F2237"/>
<stop offset="0.5372" stop-color="#12131F"/>
<stop offset="0.6745" stop-color="#08080E"/>
<stop offset="0.8225" stop-color="#020203"/>
<stop offset="1"/>
</linearGradient>
<linearGradient id="paint3_linear_3_238" x1="84.794" y1="83.1732" x2="75.5352" y2="92.432" gradientUnits="userSpaceOnUse">
<stop offset="0.1357" stop-color="#6A72BB"/>
<stop offset="0.2604" stop-color="#6870B7"/>
<stop offset="0.387" stop-color="#6168AB"/>
<stop offset="0.5145" stop-color="#555C96"/>
<stop offset="0.6427" stop-color="#454A7A"/>
<stop offset="0.7715" stop-color="#303455"/>
<stop offset="0.8989" stop-color="#171929"/>
<stop offset="1"/>
</linearGradient>
<radialGradient id="paint4_radial_3_238" cx="0" cy="0" r="1" gradientUnits="userSpaceOnUse" gradientTransform="translate(80.1823 98.0903) rotate(22.1725) scale(9.10326)">
<stop stop-color="#C7FF00"/>
<stop offset="0.049682" stop-color="#B6E900"/>
<stop offset="0.2013" stop-color="#87AC00"/>
<stop offset="0.352" stop-color="#5D7800"/>
<stop offset="0.498" stop-color="#3C4D00"/>
<stop offset="0.6385" stop-color="#222B00"/>
<stop offset="0.7721" stop-color="#0F1300"/>
<stop offset="0.8957" stop-color="#040500"/>
<stop offset="1"/>
</radialGradient>
<radialGradient id="paint5_radial_3_238" cx="0" cy="0" r="1" gradientUnits="userSpaceOnUse" gradientTransform="translate(64.1151 91.5434) rotate(22.1725) scale(9.10325)">
<stop stop-color="#C7FF00"/>
<stop offset="0.049682" stop-color="#B6E900"/>
<stop offset="0.2013" stop-color="#87AC00"/>
<stop offset="0.352" stop-color="#5D7800"/>
<stop offset="0.498" stop-color="#3C4D00"/>
<stop offset="0.6385" stop-color="#222B00"/>
<stop offset="0.7721" stop-color="#0F1300"/>
<stop offset="0.8957" stop-color="#040500"/>
<stop offset="1"/>
</radialGradient>
</defs>
</svg>
