<svg width="187" height="217" viewBox="0 0 187 217" fill="none" xmlns="http://www.w3.org/2000/svg">
<path opacity="0.18" d="M184.219 105.28C184.119 105.18 184.019 105.18 184.019 105.08C186.419 71.7798 155.019 31.5798 125.519 41.5798C122.719 40.4798 118.419 41.6798 117.319 44.7798C117.219 44.6798 117.219 44.6798 117.119 44.5798C114.219 21.5798 68.8187 -29.6202 75.2188 24.4798C74.2188 25.3798 73.3187 26.5798 73.0187 27.8798C71.4187 28.2798 68.3187 29.0798 66.5187 29.5798C63.1187 23.5798 51.0187 19.4798 45.6187 13.8798C42.4187 11.0798 37.7187 6.77984 33.4187 11.0798C28.1187 17.6798 34.4187 31.3798 40.2187 36.1798C40.3187 38.3798 40.6187 40.4798 41.4187 42.7798C40.5187 43.8798 40.7187 43.8798 39.8187 45.5798C33.0187 44.0798 32.9187 51.7798 32.6187 56.3798C29.4187 58.2798 29.5187 62.2798 30.9187 65.4798C22.0187 71.3798 14.7187 78.8798 8.41873 88.5798C8.21873 88.7798 7.71874 88.9798 7.11874 88.6798C-0.781259 85.9798 -2.48127 97.7799 3.91873 101.48C3.71873 111.38 11.3187 121.28 21.2187 126.78C22.7187 132.48 27.7187 138.48 33.8187 138.98C36.4187 141.78 41.5187 140.28 42.2187 136.48C42.4187 136.38 42.5187 136.38 42.7187 136.28C44.9187 137.08 47.5187 136.18 48.7187 134.18C50.0187 133.88 51.1187 133.18 51.9187 131.98C52.6187 131.68 53.2187 131.28 53.7187 130.78C58.6187 130.28 63.1187 126.58 62.3187 120.88C62.5187 120.88 62.7187 120.88 62.8187 120.78C62.2187 124.88 62.7187 131.18 68.5187 130.18C69.7187 132.58 72.4187 134.38 75.1187 133.38C76.3187 133.78 77.6187 133.78 78.8187 133.18C81.6187 134.48 86.2187 137.28 89.4187 134.88C90.2187 135.28 91.0187 135.68 91.8187 136.08C94.8187 139.88 100.019 144.58 105.019 142.18C108.919 142.28 112.919 142.88 116.719 144.28C116.719 144.78 117.119 146.88 117.119 147.38C114.819 149.88 91.8187 170.08 105.919 174.28C106.619 175.08 107.719 175.18 108.419 175.98C105.719 177.28 102.419 178.78 100.419 179.58C84.5187 170.78 67.7187 192.88 79.6187 196.98C86.7187 198.18 100.819 200.08 108.719 197.58C112.319 196.78 114.419 193.88 117.019 191.38C123.019 185.08 127.719 179.78 126.519 173.68C127.319 172.78 128.619 172.48 129.919 172.18C136.819 174.58 139.019 182.68 144.319 186.68C143.519 189.88 142.219 193.98 141.419 196.68C134.819 197.78 124.519 210.18 133.619 214.68C141.019 216.88 153.319 217.58 161.119 214.58C164.219 213.58 164.819 210.18 164.419 207.28C164.219 203.08 163.919 197.38 163.619 192.98C172.519 193.38 181.519 187.08 182.819 177.88C183.819 171.78 183.019 160.78 178.819 157.18C176.619 151.48 172.719 147.68 169.519 145.88C164.519 142.98 159.519 149.88 163.519 153.98C158.819 158.48 166.319 165.18 161.819 171.58C157.919 164.58 161.519 157.88 159.319 150.48C161.319 143.48 163.719 133.18 161.619 123.18C166.819 120.38 171.919 116.78 174.119 114.88C177.219 117.68 182.719 118.18 184.019 113.38C186.719 111.68 186.919 107.28 184.219 105.28Z" fill="url(#paint0_linear_3_391)"/>
<path d="M184.219 103.88C184.119 103.78 184.019 103.78 184.019 103.68C186.419 70.6798 155.019 30.7798 125.519 40.7798C122.719 39.6798 118.419 40.8798 117.319 43.8798C117.219 43.7798 117.219 43.7798 117.119 43.6798C114.219 20.8798 68.8187 -29.8202 75.2188 23.6798C74.2188 24.5798 73.3187 25.7798 73.0187 27.0798C71.4187 27.4798 68.3187 28.2798 66.5187 28.7798C63.1187 22.7798 51.0187 18.7798 45.6187 13.1798C42.4187 10.3798 37.7187 6.07982 33.4187 10.3798C28.1187 16.9798 34.4187 30.4798 40.2187 35.2798C40.3187 37.4798 40.6187 39.5798 41.4187 41.7798C40.5187 42.8798 40.7187 42.8798 39.8187 44.5798C33.0187 43.0798 32.9187 50.6798 32.6187 55.2798C29.4187 57.1798 29.5187 61.1798 30.9187 64.2798C22.0187 70.1798 14.7187 77.5798 8.41873 87.1798C8.21873 87.3798 7.71874 87.5798 7.11874 87.2798C-0.781259 84.5798 -2.48127 96.2798 3.91873 99.9798C3.71873 109.78 11.3187 119.68 21.2187 124.98C22.7187 130.68 27.7187 136.58 33.8187 137.08C36.4187 139.88 41.5187 138.38 42.2187 134.58C42.4187 134.58 42.5187 134.48 42.7187 134.38C44.9187 135.18 47.5187 134.28 48.7187 132.28C50.0187 131.98 51.1187 131.28 51.9187 130.08C52.6187 129.78 53.2187 129.38 53.7187 128.88C58.6187 128.38 63.1187 124.78 62.3187 119.08C62.5187 119.08 62.7187 119.08 62.8187 118.98C62.2187 123.08 62.7187 129.28 68.5187 128.28C69.7187 130.68 72.4187 132.38 75.1187 131.48C76.3187 131.88 77.6187 131.88 78.8187 131.28C81.6187 132.58 86.2187 135.38 89.4187 132.98C90.2187 133.38 91.0187 133.78 91.8187 134.18C94.8187 137.98 100.019 142.58 105.019 140.18C108.919 140.28 112.919 140.88 116.719 142.18C116.719 142.68 117.119 144.78 117.119 145.28C114.819 147.78 91.8187 167.78 105.919 171.98C106.619 172.78 107.719 172.88 108.419 173.58C105.719 174.88 102.419 176.28 100.419 177.18C84.5187 168.38 67.7187 190.38 79.6187 194.48C86.7187 195.68 100.819 197.48 108.719 195.08C112.319 194.28 114.419 191.38 117.019 188.88C123.019 182.68 127.719 177.38 126.519 171.38C127.319 170.48 128.619 170.18 129.919 169.88C136.819 172.18 139.019 180.28 144.319 184.28C143.519 187.48 142.219 191.48 141.419 194.28C134.819 195.38 124.519 207.68 133.619 212.18C141.019 214.38 153.319 215.08 161.119 212.08C164.219 211.18 164.819 207.68 164.419 204.88C164.219 200.68 163.919 194.98 163.619 190.68C172.519 191.08 181.519 184.88 182.819 175.78C183.819 169.68 183.019 158.78 178.819 155.28C176.619 149.68 172.719 145.88 169.519 144.08C164.519 141.18 159.519 147.98 163.519 152.08C158.819 156.48 166.319 163.18 161.819 169.58C157.919 162.58 161.519 155.98 159.319 148.68C161.319 141.68 163.719 131.58 161.619 121.68C166.819 118.88 171.919 115.38 174.119 113.48C177.219 116.28 182.719 116.78 184.019 111.98C186.719 110.18 186.919 105.88 184.219 103.88Z" fill="white"/>
<path d="M121.619 172.88C121.619 172.88 115.819 168.28 106.119 167.08L109.719 163.58C109.719 163.58 117.019 164.38 117.219 164.48C117.419 164.58 121.119 167.88 121.119 167.88C121.119 167.88 120.919 171.38 121.619 172.88Z" fill="#721B00"/>
<path d="M121.619 142.28C121.619 142.28 127.519 140.78 135.019 144.08C142.519 147.38 124.419 145.68 124.419 145.68L121.619 142.28Z" fill="#7C3200"/>
<path d="M152.519 157.98C152.519 157.98 154.019 176.68 161.219 175.58C168.419 174.58 169.819 161.88 166.719 155.88C166.719 155.88 174.119 164.78 168.219 172.18C168.219 172.18 176.819 163.28 167.019 148.38C167.019 148.38 181.219 156.48 172.519 175.58C172.519 175.58 178.819 169.58 176.119 159.48C176.119 159.48 184.819 182.28 166.519 185.48C148.219 188.78 152.519 157.98 152.519 157.98Z" fill="#634277"/>
<path d="M152.519 157.98C152.519 157.98 154.019 176.68 161.219 175.58C168.419 174.58 169.819 161.88 166.719 155.88C166.719 155.88 174.119 164.78 168.219 172.18C168.219 172.18 176.819 163.28 167.019 148.38C167.019 148.38 181.219 156.48 172.519 175.58C172.519 175.58 178.819 169.58 176.119 159.48C176.119 159.48 184.819 182.28 166.519 185.48C148.219 188.78 152.519 157.98 152.519 157.98Z" fill="#422751"/>
<path opacity="0.28" d="M161.219 175.68C154.019 176.68 152.519 158.08 152.519 158.08C152.519 158.08 148.219 188.78 166.519 185.58C179.119 183.38 178.919 171.98 177.619 164.98C179.519 190.68 159.519 181.28 159.519 181.28C170.919 184.28 172.519 168.98 172.519 168.98C167.419 184.38 157.419 176.08 157.419 176.08C165.919 180.18 167.119 170.38 167.119 170.38C165.919 173.18 164.019 175.28 161.219 175.68Z" fill="#634277"/>
<path d="M40.5188 64.9797C40.5188 64.9797 25.3188 70.4798 12.3188 90.4798C12.3188 90.4798 9.2188 93.8798 5.0188 91.9798C5.0188 91.9798 6.71879 95.0797 9.91879 94.8797C9.91879 94.8797 6.7188 96.1797 5.0188 94.0797C5.0188 94.0797 7.1188 97.2798 9.2188 96.9798C9.2188 96.9798 5.2188 110.28 24.2188 121.08C43.1188 131.88 44.0188 115.48 44.0188 115.48L38.6188 94.5797C38.6188 94.5797 60.6188 72.5797 40.5188 64.9797Z" fill="url(#paint1_linear_3_391)"/>
<path opacity="0.28" d="M24.3188 121.08C43.3188 131.78 44.1188 115.48 44.1188 115.48L38.7188 94.5797C38.7188 94.5797 60.6188 72.4797 40.6188 64.9797C40.6188 64.9797 36.0188 66.6797 30.4188 70.9797C38.6188 71.3797 38.9188 92.6797 30.1188 90.5797C20.4188 88.1797 15.9188 94.5797 15.9188 94.5797C26.6188 86.5797 41.9188 93.4797 31.3188 106.58C20.7188 119.68 9.0188 99.3797 9.0188 99.3797C9.0188 102.68 9.4188 112.68 24.3188 121.08Z" fill="#634277"/>
<path d="M34.6188 128.38C34.6188 128.38 41.7188 133.78 44.3188 125.78C44.3188 125.78 49.1188 127.28 49.9188 123.08C50.8188 118.88 32.3188 125.48 34.6188 128.38Z" fill="#634277"/>
<path d="M34.6188 128.38C34.6188 128.38 41.7188 133.78 44.3188 125.78C44.3188 125.78 49.1188 127.28 49.9188 123.08C50.8188 118.88 32.3188 125.48 34.6188 128.38Z" fill="url(#paint2_linear_3_391)"/>
<path opacity="0.61" d="M34.6188 128.38C34.6188 128.38 41.7188 133.78 44.3188 125.78C44.3188 125.78 49.1188 127.28 49.9188 123.08C50.8188 118.88 32.3188 125.48 34.6188 128.38Z" fill="#634277"/>
<path d="M44.3187 112.68C44.3187 112.68 45.2187 110.28 48.4187 110.98C51.7187 111.68 52.2187 116.48 52.2187 116.48C52.2187 116.48 57.0187 119.58 55.2187 122.58C53.4187 125.58 49.9187 122.98 49.9187 122.98C49.9187 122.98 49.5187 123.68 48.4187 123.98C48.4187 123.98 46.0187 127.18 43.3187 124.38C43.3187 124.38 45.4187 131.48 36.0187 126.58C36.0187 126.58 37.9187 131.18 35.1187 131.98C32.3187 132.78 28.1187 129.08 26.4187 124.88C24.7187 120.68 29.8187 121.68 30.3187 119.18C30.8187 116.68 30.2187 113.88 34.9187 113.58C39.6187 113.28 38.1187 110.98 40.4187 111.18C42.7187 111.48 44.3187 112.68 44.3187 112.68Z" fill="url(#paint3_linear_3_391)"/>
<path opacity="0.28" d="M35.1189 132.08C37.9189 131.28 36.0188 126.68 36.0188 126.68C45.4188 131.58 43.3188 124.48 43.3188 124.48C46.0188 127.28 48.4188 124.08 48.4188 124.08C49.5188 123.78 49.9188 123.08 49.9188 123.08C49.9188 123.08 53.3188 125.58 55.2188 122.68C57.0188 119.68 52.2188 116.58 52.2188 116.58C52.2188 116.58 52.1188 115.78 51.7188 114.78C52.3188 117.58 50.0188 124.28 48.9188 119.58C47.7188 114.38 44.2188 112.78 44.2188 112.78C50.6188 118.28 47.2188 125.38 44.7188 123.98C42.2188 122.48 39.7188 113.18 39.7188 113.18C39.3188 115.78 36.4188 115.08 36.4188 115.08C40.5188 117.18 45.2188 126.18 40.7188 127.28C36.2188 128.28 31.0188 118.48 31.0188 118.48C30.8188 121.18 29.6189 121.68 29.6189 121.68C32.8189 123.38 37.3188 129.88 34.0188 130.68C30.6188 131.48 26.3188 125.18 26.3188 125.18C28.1188 129.18 32.4189 132.88 35.1189 132.08Z" fill="#634277"/>
<path opacity="0.28" d="M55.3188 122.58C57.1188 119.58 52.3188 116.48 52.3188 116.48C52.3188 116.48 52.5188 121.28 50.0188 122.98C50.0188 123.08 53.4188 125.58 55.3188 122.58Z" fill="#634277"/>
<path d="M63.3189 110.58C63.3189 110.58 69.3189 114.08 67.5189 123.58C67.5189 123.58 70.4188 121.68 71.4188 115.38C71.4188 115.38 69.6189 122.18 73.5189 126.88C73.5189 126.88 73.2188 122.18 75.4188 118.28C75.4188 118.28 73.5189 123.28 76.7189 126.88C76.7189 126.88 75.1189 121.88 76.7189 119.38C76.7189 119.38 74.2189 125.68 86.5189 129.18C86.5189 129.18 81.7189 126.88 81.2189 122.88C81.2189 122.88 96.9189 133.28 112.119 136.08C127.319 138.98 125.019 144.48 125.019 144.48L125.119 147.78C125.119 147.78 106.419 163.88 108.819 166.88C111.219 169.88 115.919 173.88 116.019 175.08C116.119 176.38 100.319 182.98 100.319 182.98C100.319 182.98 85.9189 174.28 80.6189 189.78C80.6189 189.78 101.619 193.68 109.319 189.78C109.319 189.78 122.619 177.08 121.319 174.68C119.919 172.28 117.219 170.88 123.419 167.18C129.619 163.38 132.219 163.28 138.719 168.48C145.219 173.58 150.019 179.68 150.019 182.18C150.019 184.68 145.419 198.68 145.419 198.68C145.419 198.68 136.519 199.38 135.119 207.48C135.119 207.48 148.119 211.38 159.619 207.48C159.619 207.48 158.719 183.28 157.519 182.28C156.419 181.28 154.119 181.48 154.019 175.08C153.919 168.68 153.219 149.38 153.219 149.38C153.219 149.38 163.519 130.68 152.219 109.78C140.919 88.8798 149.519 85.3798 149.519 85.3798L115.419 69.1798C115.219 69.1798 57.5189 104.08 63.3189 110.58Z" fill="url(#paint4_linear_3_391)"/>
<path opacity="0.28" d="M152.019 109.78C140.719 88.8798 149.319 85.3798 149.319 85.3798L115.219 69.1798C115.219 69.1798 71.4188 95.7798 64.0188 106.78C65.8188 108.08 69.3188 109.98 69.3188 109.98C74.8188 105.48 77.1188 112.68 77.1188 112.68C75.5188 106.78 80.1188 104.58 80.1188 104.58C75.4188 108.98 79.2188 115.98 79.2188 115.98C77.1188 102.88 90.3188 99.3798 90.3188 99.3798C87.7188 105.88 91.6188 108.28 91.6188 108.28C89.2188 101.48 95.9188 96.8798 95.9188 96.8798C88.6188 102.98 93.3188 110.38 93.3188 110.38C90.9188 101.98 104.919 94.5798 104.919 94.5798C97.5188 100.08 96.7188 107.18 96.7188 107.18C96.7188 107.18 98.2188 100.48 108.519 93.6798C118.819 86.8798 146.419 109.28 128.619 121.48C110.819 133.68 88.4188 126.98 88.3188 126.98C94.3188 130.18 103.219 134.38 111.919 135.98C114.819 136.58 117.119 137.18 118.919 137.88C133.119 139.58 140.919 148.38 140.919 148.38C140.919 148.38 146.119 151.98 153.219 155.18C153.119 151.68 153.019 149.28 153.019 149.28C153.019 149.28 163.319 130.68 152.019 109.78Z" fill="#634277"/>
<path d="M115.119 54.9798C115.119 54.9798 119.219 44.1798 136.119 44.3798C153.019 44.5798 160.719 58.1798 160.719 58.1798C160.719 58.1798 180.819 74.9798 179.019 103.38C179.019 103.38 178.219 105.48 181.219 107.78C181.219 107.78 177.819 106.68 176.619 104.98L179.119 110.58L173.519 107.28C173.519 107.28 161.119 120.48 127.919 129.28C127.919 129.28 125.619 137.78 115.619 131.18C115.619 131.18 113.419 131.48 111.519 133.68C109.619 135.78 102.519 136.88 103.619 131.98C103.619 131.98 100.819 136.28 99.2187 130.88C99.2187 130.88 95.9187 132.98 95.6187 128.18C95.3187 123.28 97.9187 119.78 97.9187 119.78C97.9187 119.78 94.4187 120.38 94.1187 118.28C93.8187 116.18 98.2187 113.88 103.519 111.38C105.019 110.68 111.719 112.28 113.119 112.98C114.519 113.58 117.719 118.28 119.719 118.48C121.719 118.68 129.719 115.58 132.619 107.58C135.519 99.5798 142.519 86.8798 146.319 86.1798C146.419 86.2798 95.8187 80.9798 115.119 54.9798Z" fill="url(#paint5_linear_3_391)"/>
<path opacity="0.28" d="M165.119 98.1798C171.219 113.58 126.819 127.78 126.819 127.78C124.819 132.48 120.119 133.38 118.119 131.78C116.119 130.18 119.319 128.88 119.319 128.88C114.919 128.98 112.519 131.38 111.519 132.78C110.519 134.18 108.619 135.18 108.519 135.18C109.719 134.88 110.819 134.28 111.419 133.68C113.319 131.58 115.519 131.18 115.519 131.18C125.519 137.78 127.819 129.28 127.819 129.28C161.019 120.48 173.419 107.28 173.419 107.28L179.019 110.68L176.519 105.08C177.619 106.78 181.119 107.88 181.119 107.88C178.119 105.58 178.919 103.48 178.919 103.48C180.719 75.0798 160.619 58.2798 160.619 58.2798C160.619 58.2798 152.819 44.6798 136.019 44.4798C119.119 44.2798 115.019 55.0798 115.019 55.0798C109.719 62.1798 103.519 80.8798 129.819 82.7798C123.219 79.6798 120.119 67.3798 126.319 62.9798C151.819 45.0798 156.219 65.4798 156.219 65.4798C174.019 68.7798 172.519 97.8798 167.519 89.8798C162.519 81.8798 153.019 83.3798 153.019 83.3798C167.219 85.8798 166.719 91.8798 166.719 91.8798C160.119 81.7798 149.319 85.0798 146.319 86.1798H146.419C146.319 86.1798 146.219 86.1798 146.119 86.2798C145.819 86.3798 145.619 86.4798 145.519 86.4798C145.619 86.5798 159.019 82.7798 165.119 98.1798Z" fill="#634277"/>
<path opacity="0.28" d="M63.3188 110.58C63.3188 110.58 65.9189 112.18 67.2189 115.98C69.0189 116.28 74.4188 116.88 78.0188 113.08C78.0188 113.08 75.4188 115.38 70.5188 114.98C70.5188 114.98 75.6189 114.98 77.1189 112.08C78.6189 109.18 76.1188 106.88 79.9188 104.68C83.7188 102.48 98.6188 95.5797 105.019 98.7797L104.919 90.9798C104.919 90.9798 105.219 93.6798 106.319 95.9798C106.319 95.9798 106.419 91.5798 110.519 88.9798C114.619 86.4798 115.719 85.2797 117.019 81.8797C117.019 81.8797 116.419 86.6798 113.719 90.4798C113.719 90.4798 117.819 87.1797 118.419 82.1797C118.419 82.1797 118.919 86.4797 114.619 90.7797C114.619 90.7797 129.619 85.2797 121.619 73.9797C121.619 73.9797 125.519 72.2797 128.119 75.0797C128.119 75.0797 126.019 70.8797 121.419 71.2797C121.419 71.2797 133.519 68.5797 129.019 49.4797C129.019 49.4797 127.219 57.8797 122.019 58.6797C122.019 58.6797 127.119 55.1797 127.519 49.9797C127.519 49.9797 124.919 57.7797 118.319 50.4797C115.819 52.8797 115.019 55.0797 115.019 55.0797C110.119 61.6797 109.719 66.9797 111.919 71.1797C110.219 72.2797 107.819 73.6797 105.119 75.4797C106.419 76.2797 105.419 76.3797 103.719 76.3797C100.819 78.1797 97.6188 80.2797 94.3188 82.5797C93.1188 87.0797 91.5189 92.7797 89.1189 93.0797C85.6189 93.5797 82.1188 93.0797 75.9188 100.08C71.6188 104.78 67.6188 107.98 63.3188 108.28C62.8188 109.18 62.8188 109.98 63.3188 110.58Z" fill="#634277"/>
<path d="M146.019 179.78C146.019 179.78 144.019 176.78 146.319 172.98C148.719 169.08 158.719 174.48 158.719 174.48C158.719 174.48 147.219 176.38 146.019 179.78Z" fill="#721B00"/>
<path d="M84.519 11.2798C84.519 11.2798 110.419 38.1798 102.419 46.7798C94.419 55.3798 84.519 31.8798 84.519 31.8798C84.519 31.8798 77.919 16.7798 84.519 11.2798Z" fill="#442D54"/>
<path d="M64.6189 35.0797C64.6189 35.0797 61.1189 27.8797 52.8189 24.3797C44.5189 20.8797 38.9189 12.1797 37.0189 13.9797C35.1189 15.8797 38.1189 26.7797 42.9189 31.0797C42.9189 31.0797 42.0189 27.4797 43.7189 27.4797C45.4189 27.3797 48.2189 35.9797 45.3189 35.0797C45.3189 35.0797 45.2189 42.1797 50.1189 46.0797C55.0189 50.0797 64.6189 35.0797 64.6189 35.0797Z" fill="url(#paint6_linear_3_391)"/>
<path opacity="0.28" d="M42.9189 31.1798C42.9189 31.1798 42.0189 27.5798 43.7189 27.5798C45.4189 27.4798 48.2189 36.0798 45.3189 35.1798C45.3189 35.1798 45.2189 42.2798 50.1189 46.1798C54.0189 49.2798 60.9189 40.4798 63.6189 36.6798C60.0189 37.5798 55.0189 38.4798 54.6189 35.8798C53.9189 31.8798 49.9189 28.6798 49.9189 28.6798C51.6189 30.7798 52.0189 34.3798 52.0189 34.3798C52.0189 34.3798 50.2189 28.1798 44.8189 25.8798C41.2189 24.2798 37.6189 21.5798 36.6189 16.7798C36.7189 20.8798 39.3189 27.8798 42.9189 31.1798Z" fill="#634277"/>
<path d="M87.6189 67.5797L89.4189 77.6797L103.019 75.2797C103.019 75.2797 104.319 67.8797 103.019 67.5797C101.719 67.2797 87.6189 67.5797 87.6189 67.5797Z" fill="#44170D"/>
<path d="M40.719 93.4798L45.719 103.28L59.619 105.08L94.219 85.9798C94.219 85.9798 94.519 76.7798 93.619 76.5798C92.719 76.3798 83.119 68.0798 83.119 68.0798L40.719 93.4798Z" fill="#FCECCA"/>
<path opacity="0.58" d="M90.0188 69.1797C89.2188 68.7797 84.9188 70.7797 79.2188 73.9797C65.0188 81.5797 40.5188 96.9798 40.5188 96.9798L45.1188 102.68L44.4188 99.7798L46.2188 102.08L45.8188 100.28C46.7188 101.28 47.9188 102.48 49.5188 103.58C49.5188 103.58 49.7188 103.18 50.0188 102.48C50.2188 102.68 50.4188 102.78 50.7188 102.98C50.7188 102.98 52.6188 97.8798 55.6188 95.7798C55.7188 95.9798 58.2188 100.18 63.2188 102.78C63.2188 102.78 63.5188 102.48 63.9188 101.88C64.1188 101.98 64.2188 102.08 64.4188 102.08C64.4188 102.08 67.6188 98.5797 66.8188 95.0797C66.5188 93.9797 66.8188 93.1797 67.4188 92.5797C69.1188 92.0797 71.6188 92.4797 74.1188 94.1797C74.1188 94.1797 74.0188 93.6798 73.9188 92.7798C74.4188 92.9798 74.8188 93.2797 75.3188 93.5797C75.3188 93.5797 73.7188 85.7798 76.1188 79.2798C77.5188 81.3798 81.4188 87.0797 84.7188 88.6797C84.7188 88.6797 84.8188 88.1798 84.9188 87.4798C85.2188 87.6798 85.6188 87.8797 85.9188 88.0797C85.9188 88.0797 87.5188 78.8797 85.3188 75.4797C86.8188 75.8797 88.7188 76.6798 89.2188 78.3798C89.5188 79.5798 89.9188 78.6797 90.2188 77.1797C90.3188 77.3797 90.4188 77.4797 90.4188 77.6797C91.1188 80.6797 92.7188 70.5797 90.0188 69.1797Z" fill="#BC5908"/>
<path d="M40.719 96.2798L45.319 101.98L43.919 96.2798C43.919 96.2798 45.119 99.7798 49.719 102.88C49.719 102.88 52.119 96.4798 55.819 94.9798C55.819 94.9798 58.319 99.3798 63.519 101.98C63.519 101.98 66.719 98.4798 65.919 94.9798C65.019 91.4798 69.919 90.4798 74.419 93.4798C74.419 93.4798 72.519 84.3798 75.919 77.7798C75.919 77.7798 81.019 86.0798 85.019 87.9798C85.019 87.9798 87.019 76.2798 83.519 74.4798C83.519 74.4798 88.719 74.7798 89.519 77.7798C90.319 80.7798 91.819 70.6798 89.219 69.1798C86.419 67.6798 40.719 96.2798 40.719 96.2798Z" fill="#FCECCA"/>
<path opacity="0.28" d="M64.6188 105.08C64.6188 105.08 66.6188 97.4798 62.3188 93.6798C58.0188 89.8798 87.0188 62.3798 94.3188 62.9798C101.619 63.5798 105.319 73.5798 105.319 73.5798L64.6188 105.08Z" fill="#634277"/>
<path d="M115.819 67.0797C115.819 67.0797 127.919 64.3797 123.419 45.2797C123.419 45.2797 121.619 53.6797 116.419 54.4797C116.419 54.4797 121.519 50.9797 121.919 45.7797C121.919 45.7797 119.319 53.7797 112.519 46.0797C105.719 38.3797 81.819 30.8797 81.819 30.8797C81.819 30.8797 79.119 28.2797 78.419 27.5797C78.919 28.2797 79.919 30.3797 79.919 30.3797L78.019 28.1797C78.019 28.1797 80.119 31.4797 78.019 31.2797C75.919 31.0797 59.219 36.8797 55.819 35.0797C55.819 35.0797 57.919 36.8797 61.819 35.9797C61.819 35.9797 57.819 38.0797 49.519 34.5797C49.519 34.5797 51.219 38.4797 54.619 39.1797C54.619 39.1797 48.319 45.3797 46.419 45.0797L47.719 45.9797L46.219 45.6797C46.219 45.6797 46.419 52.5797 41.119 56.0797C41.119 56.0797 40.419 58.9797 43.119 59.8797C43.119 59.8797 39.119 62.1797 35.319 59.7797C35.319 59.7797 36.319 63.2797 39.219 64.4797C39.219 64.4797 36.719 64.0797 35.319 61.3797C35.319 61.3797 36.619 65.1797 38.219 65.5797C38.219 65.5797 34.519 66.9797 36.019 71.4797C36.019 71.4797 35.519 69.3797 39.419 67.6797C39.419 67.6797 35.819 69.9797 37.719 72.8797C33.419 75.9797 29.919 78.9797 29.419 80.5797C28.119 84.2797 25.419 90.9797 30.719 94.0797C35.919 97.1797 38.219 101.98 43.619 97.0797C49.019 92.1797 47.919 93.6797 53.219 94.9797C58.419 96.3797 63.119 98.7797 66.519 96.5797C69.919 94.3797 75.119 73.3797 85.219 76.2797C85.219 76.2797 88.619 66.4797 97.519 70.4797C106.419 74.4797 91.619 70.6797 90.219 73.9797C88.819 77.2797 87.119 88.6797 83.619 89.1797C80.119 89.6797 76.619 89.1797 70.419 96.1797C64.119 103.18 58.419 106.78 51.519 102.78C44.519 98.7797 41.819 98.7797 42.819 102.58C43.819 106.38 56.519 119.58 68.419 112.38C68.419 112.38 64.519 113.38 61.219 112.08C61.219 112.08 68.219 113.88 72.719 109.28C72.719 109.28 70.119 111.58 65.219 111.18C65.219 111.18 70.319 111.18 71.819 108.28C73.319 105.38 70.819 103.08 74.619 100.88C78.419 98.6797 93.319 91.7797 99.719 94.9797L99.619 87.1797C99.619 87.1797 99.919 89.8797 101.019 92.1797C101.019 92.1797 101.119 87.7797 105.219 85.1797C109.319 82.6797 110.419 81.4797 111.719 78.0797C111.719 78.0797 111.119 82.8797 108.419 86.6797C108.419 86.6797 112.519 83.3797 113.119 78.3797C113.119 78.3797 113.619 82.6797 109.319 86.9797C109.319 86.9797 124.319 81.4797 116.319 70.1797C116.319 70.1797 120.219 68.4797 122.819 71.2797C122.419 70.9797 120.419 66.6797 115.819 67.0797Z" fill="url(#paint7_linear_3_391)"/>
<path d="M78.3189 27.6797C78.2189 27.5797 78.2189 27.4797 78.1189 27.4797C78.1189 27.4797 78.1189 27.5797 78.3189 27.6797Z" fill="url(#paint8_linear_3_391)"/>
<path opacity="0.28" d="M37.5188 72.7799C37.5188 72.7799 49.1188 65.0799 52.4188 63.3799C55.7188 61.6799 60.7188 60.2799 67.1188 66.2799C67.1188 66.2799 62.5188 67.3799 63.7188 70.5799C63.7188 70.5799 66.9188 66.2799 72.7188 72.5799C72.7188 72.5799 67.4188 68.5799 63.2188 72.5799C63.2188 72.5799 68.5188 69.5799 74.0188 74.5799C74.0188 74.5799 74.1188 69.1799 68.8188 68.0799C68.8188 68.0799 82.1188 73.0799 88.7188 68.2799C88.7188 68.2799 83.4188 70.7799 76.5188 69.4799C76.5188 69.4799 90.0188 72.4799 93.3188 56.5799C93.3188 56.5799 92.4188 58.9799 90.7188 58.3799C89.1188 57.7799 89.7188 54.9798 89.7188 54.9798C89.7188 54.9798 88.3188 47.0799 78.1188 44.5799C67.9188 42.0799 65.8188 64.6798 59.8188 54.4798C59.8188 54.4798 59.6188 60.3799 56.0188 56.5799C52.3188 52.7799 49.5188 46.6798 49.5188 46.6798C49.5188 46.6798 47.1188 49.2799 45.2188 53.8799C45.2188 53.8799 43.5188 60.7799 47.1188 63.8799C47.1188 63.8799 45.8188 63.7799 44.6188 60.7799C44.6188 60.7799 46.0188 64.1799 45.6188 65.4799C45.2188 66.8799 37.5188 72.7799 37.5188 72.7799Z" fill="#634277"/>
<path opacity="0.28" d="M81.719 30.9797C81.719 30.9797 79.5189 36.6797 85.3189 40.1797L81.719 30.9797Z" fill="#634277"/>
<path opacity="0.28" d="M99.319 47.0798C99.319 47.0798 93.419 39.5798 86.219 39.8798V29.4798C86.219 29.4798 89.719 9.17983 101.419 40.3798L99.319 47.0798Z" fill="#634277"/>
<path d="M83.9189 38.5798C83.9189 38.5798 78.6189 27.2798 79.7189 9.17978C80.8189 -8.92022 116.719 37.6798 111.619 48.1798C106.519 58.6798 93.9189 47.1798 97.7189 32.7798C97.7189 32.7798 97.2189 37.5798 101.119 38.9798C101.119 38.9798 98.0189 35.5798 98.1189 31.3798C98.2189 27.1798 86.2189 13.2798 84.6189 15.4798C83.0189 17.7798 84.6189 25.7798 87.5189 32.3798C90.5189 39.0798 86.5189 43.3798 83.9189 38.5798Z" fill="url(#paint9_linear_3_391)"/>
<path opacity="0.3" d="M69.8188 46.7798C86.5188 33.8798 75.2189 31.7798 75.2189 31.7798C69.8189 33.0798 58.4189 36.5798 55.6189 35.1798C55.6189 35.1798 57.7189 36.9798 61.6189 36.0798C61.6189 36.0798 57.6188 38.1798 49.3188 34.6798C49.3188 34.6798 51.0188 38.5798 54.4188 39.2798C54.4188 39.2798 52.6189 41.0798 50.6189 42.6798C51.1189 45.2798 54.7188 58.3798 69.8188 46.7798Z" fill="url(#paint10_linear_3_391)"/>
<path d="M56.6188 63.8798C56.6188 63.8798 55.3188 51.6798 51.5188 49.6798C47.8188 47.6798 45.0188 53.9798 45.0188 53.9798C45.0188 53.9798 45.3188 69.0798 56.6188 63.8798Z" fill="#00272E"/>
<path d="M69.8188 66.2798C69.8188 66.2798 69.0188 58.9798 73.3188 52.2798C77.7188 45.5798 87.2188 44.3798 90.8188 58.5798C90.8188 58.5798 89.1188 75.2798 69.8188 66.2798Z" fill="#00272E"/>
<path d="M93.4188 45.7798H65.0188V69.7798H93.4188V45.7798Z" fill="url(#paint11_linear_3_391)"/>
<path d="M85.4189 58.5798C84.8189 61.5798 82.0189 63.4798 79.2189 62.8798C76.4189 62.2798 74.6189 59.4798 75.2189 56.4798C75.8189 53.4798 78.6189 51.5798 81.4189 52.1798C84.2189 52.7798 86.0189 55.6798 85.4189 58.5798Z" fill="url(#paint12_linear_3_391)"/>
<path d="M85.0189 58.2797C84.4189 61.1797 81.8189 63.0797 79.1189 62.4797C76.4189 61.9797 74.8189 59.1797 75.4189 56.2797C76.0189 53.3797 78.6189 51.4797 81.3189 52.0797C84.0189 52.5797 85.6189 55.3797 85.0189 58.2797Z" fill="url(#paint13_linear_3_391)"/>
<path d="M83.3189 57.8798C82.9189 59.6798 81.3189 60.8798 79.6189 60.5798C77.9189 60.2798 76.9189 58.4798 77.2189 56.6798C77.6189 54.8798 79.2189 53.6798 80.9189 53.9798C82.6189 54.2798 83.6189 56.0798 83.3189 57.8798Z" fill="url(#paint14_linear_3_391)"/>
<path opacity="0.36" d="M69.8188 66.2798C69.8188 66.2798 74.5188 54.4798 80.7188 54.7798C86.9188 54.9798 90.3188 59.7798 90.3188 59.7798L97.8188 55.3798L83.9188 39.7798L69.8188 51.5798L68.0188 65.1798L69.8188 66.2798Z" fill="#838BC5"/>
<path d="M76.6189 55.0798C76.5189 53.8798 79.2189 54.8798 78.7189 55.4798C78.2189 56.1798 76.7189 56.9798 76.6189 55.0798Z" fill="white"/>
<path opacity="0.3" d="M35.3189 84.0798L30.8189 78.1798C29.9189 79.0798 29.3189 79.8798 29.1189 80.4798C27.8189 84.1798 25.1189 90.8798 30.4189 93.9798C32.8189 95.3798 34.6189 97.1798 36.4189 98.1798C29.7189 90.7798 35.3189 84.0798 35.3189 84.0798Z" fill="url(#paint15_linear_3_391)"/>
<path d="M58.219 68.0797L36.719 65.9797L38.319 49.5797L59.819 51.7797L58.219 68.0797Z" fill="url(#paint16_linear_3_391)"/>
<path d="M57.0189 57.2797C56.8189 59.9797 54.9189 62.0797 52.7189 61.8797C50.5189 61.6797 48.9189 59.3797 49.1189 56.6797C49.3189 53.9797 51.2189 51.8797 53.4189 52.0797C55.5189 52.2797 57.1189 54.5797 57.0189 57.2797Z" fill="url(#paint17_linear_3_391)"/>
<path d="M57.319 57.0798C57.119 59.7798 55.219 61.8798 53.019 61.6798C50.819 61.4798 49.219 59.1798 49.419 56.4798C49.619 53.7798 51.519 51.6798 53.719 51.8798C55.919 52.0798 57.519 54.3798 57.319 57.0798Z" fill="url(#paint18_linear_3_391)"/>
<path d="M55.8189 56.9798C55.7189 58.6798 54.5189 59.9798 53.1189 59.8798C51.7189 59.7798 50.7189 58.3798 50.8189 56.6798C50.9189 54.9798 52.1189 53.6798 53.5189 53.7798C54.9189 53.8798 56.0189 55.2798 55.8189 56.9798Z" fill="url(#paint19_linear_3_391)"/>
<path opacity="0.36" d="M56.6191 63.8798C56.6191 63.8798 56.3191 49.0798 45.3191 54.8798C38.4191 58.4798 45.1191 45.3798 45.1191 45.3798L56.7191 51.4798L58.8191 64.5798L56.6191 63.8798Z" fill="#838BC5"/>
<path d="M51.4191 53.7797C51.4191 52.5797 54.0191 53.8798 53.4191 54.3798C52.8191 54.8798 51.3191 55.6797 51.4191 53.7797Z" fill="white"/>
<path d="M64.1188 56.9798C64.7188 58.9798 72.2188 57.8798 77.9188 51.4798C83.6188 45.0798 75.8188 40.6798 71.8188 40.8798C67.8188 41.2798 61.8188 49.5798 64.1188 56.9798Z" fill="#442D54"/>
<path d="M55.219 56.5798C57.319 57.4798 58.919 52.1798 57.519 47.0798C56.219 41.9798 54.419 40.2798 50.419 41.5798C46.519 42.9798 46.319 52.5798 55.219 56.5798Z" fill="#442D54"/>
<path d="M36.4188 80.8798L30.3188 78.8798C30.3188 78.8798 38.6188 71.3798 48.9188 70.1798C59.2188 68.9798 56.9188 78.8798 56.9188 78.8798L36.4188 80.8798Z" fill="#442D54"/>
<path d="M30.3188 78.7797C30.3188 78.7797 34.3188 87.1797 40.8188 90.1797C47.3188 93.1797 47.7188 91.8797 49.0188 90.1797C50.3188 88.4797 57.0188 78.7797 57.0188 78.7797C57.0188 78.7797 44.8188 70.2797 30.3188 78.7797Z" fill="#291B33"/>
<path d="M52.319 63.3798C50.619 64.2798 46.619 66.7798 43.219 68.9798C43.219 68.9798 60.019 70.9798 60.919 62.3798C57.419 61.2798 54.519 62.1798 52.319 63.3798Z" fill="url(#paint20_linear_3_391)"/>
<path opacity="0.28" d="M60.9188 111.78C60.9188 111.78 67.9188 113.58 72.4188 108.98C72.4188 108.98 69.8188 111.28 64.9188 110.88C64.9188 110.88 70.0188 110.88 71.5188 107.98C73.0188 105.08 70.5188 102.78 74.3188 100.58C78.1188 98.3798 93.0188 91.4798 99.4188 94.6798L99.3188 86.8798C99.3188 86.8798 99.6189 89.5798 100.719 91.8798C100.719 91.8798 100.819 87.4798 104.919 84.8798C109.019 82.3798 110.119 81.1798 111.419 77.7798C111.419 77.7798 110.819 82.5798 108.119 86.3798C108.119 86.3798 112.219 83.0798 112.819 78.0798C112.819 78.0798 113.319 82.3798 109.019 86.6798C109.019 86.6798 124.019 81.1798 116.019 69.8798C116.019 69.8798 119.919 68.1798 122.519 70.9798C122.519 70.9798 120.419 66.7798 115.819 67.1798C115.819 67.1798 127.919 64.4798 123.419 45.3798C123.419 45.3798 121.619 53.7798 116.419 54.5798C116.419 54.5798 121.519 51.0798 121.919 45.8798C121.919 45.8798 119.319 53.8798 112.519 46.1798C112.419 46.0798 112.319 45.9798 112.219 45.8798C112.319 40.5798 107.619 31.1798 101.719 22.7798C106.319 32.6798 114.119 52.4798 99.6189 47.5798C99.6189 47.5798 106.019 64.8798 118.119 56.7798C118.119 56.7798 111.119 67.7798 99.7189 61.9798C99.7189 61.9798 104.519 67.7798 111.219 65.0798C111.219 65.0798 106.719 71.1798 99.0188 66.8798C99.0188 66.8798 108.019 75.4798 97.6189 74.6798C93.3189 74.3798 90.5189 76.2798 88.6189 78.5798C87.4189 83.0798 85.8188 88.7798 83.3188 89.0798C79.8188 89.5798 76.3189 89.0798 70.1189 96.0798C69.9189 96.3798 69.6188 96.5798 69.4188 96.8798C70.0188 102.48 69.1188 109.58 61.0188 109.28C61.0188 109.28 64.6188 110.78 68.4188 107.78C68.4188 107.78 65.6188 114.38 49.8188 107.78C49.8188 107.78 55.7189 115.28 65.7189 113.48C66.5189 113.18 67.4189 112.78 68.2189 112.28C68.1189 112.18 64.2188 113.18 60.9188 111.78Z" fill="#634277"/>
<path opacity="0.28" d="M74.4188 41.2798C75.1188 41.6798 75.8188 42.2798 76.6188 43.6798C78.7188 46.9798 70.5188 54.4798 67.5188 53.4798C64.6188 52.4798 64.6188 48.7798 64.6188 48.4798C63.6188 51.1798 63.2188 54.1798 64.1188 57.0798C64.7188 59.0798 72.2188 57.9798 77.9188 51.5798C82.6188 46.3798 78.3188 42.4798 74.4188 41.2798Z" fill="#634277"/>
<path opacity="0.3" d="M30.3188 78.7798C30.3188 78.7798 34.3188 87.1798 40.8188 90.1798C47.3188 93.1798 47.7188 91.8798 49.0188 90.1798C50.3188 88.4798 57.0188 78.7798 57.0188 78.7798C57.0188 78.7798 47.4188 66.9798 30.3188 78.7798Z" fill="url(#paint21_linear_3_391)"/>
<path opacity="0.28" d="M51.119 50.9797C47.019 45.4797 50.719 41.5797 50.819 41.4797C50.719 41.4797 50.619 41.5797 50.519 41.5797C46.519 42.9797 46.319 52.5797 55.219 56.4797C57.219 57.3797 58.719 52.6797 57.719 47.8797C57.819 47.9797 55.219 56.5797 51.119 50.9797Z" fill="#634277"/>
<path opacity="0.28" d="M113.419 123.38C106.219 125.08 103.819 128.98 103.419 131.18C103.019 133.28 101.219 133.68 101.119 133.68C102.319 133.78 103.519 132.08 103.519 132.08C104.819 127.48 113.419 123.38 113.419 123.38Z" fill="#634277"/>
<path opacity="0.28" d="M94.2187 118.38C94.5187 120.48 98.0187 119.88 98.0187 119.88C100.719 117.08 110.619 116.58 110.619 116.58C110.619 116.58 103.919 116.48 102.019 116.58C100.119 116.68 98.5187 118.78 98.5187 118.78C98.5187 118.78 98.8187 119.28 95.7187 118.78C92.7187 118.38 96.6187 115.28 96.8187 115.18C94.8187 116.28 94.1187 117.58 94.2187 118.38Z" fill="#634277"/>
<path opacity="0.28" d="M113.019 120.28C113.019 120.28 109.919 119.88 104.219 121.18C98.5188 122.48 99.0188 129.78 99.0188 129.78C97.9188 131.58 96.0188 129.68 96.0188 129.68C96.8188 132.58 99.3188 130.98 99.3188 130.98C99.1188 119.58 113.019 120.28 113.019 120.28Z" fill="#634277"/>
<path d="M94.3188 118.88C94.3188 118.88 93.6188 117.28 97.4188 115.98C97.4188 115.98 91.9188 114.78 92.8188 120.78C92.8188 120.78 92.8188 119.48 94.3188 118.88Z" fill="#4A2760"/>
<path d="M96.5189 126.88C96.5189 126.88 95.5189 131.18 98.1189 131.38C98.1189 131.38 97.1188 132.78 98.4188 133.68C98.4188 133.68 93.7189 132.38 96.5189 126.88Z" fill="#4A2760"/>
<path d="M100.619 135.68C100.619 135.68 99.9188 134.18 100.719 133.48C100.719 133.48 98.9188 131.38 101.219 128.78C101.219 128.88 95.8188 131.58 100.619 135.68Z" fill="#4A2760"/>
<path d="M102.419 136.08C102.419 136.08 102.919 134.68 103.919 134.38C103.919 134.38 104.519 131.48 106.919 130.28C106.819 130.28 101.819 130.08 102.419 136.08Z" fill="#4A2760"/>
<path d="M33.2188 127.98C33.2188 127.98 35.8188 129.78 35.6188 131.88C35.6188 131.88 37.2187 133.08 37.4187 133.58C37.4187 133.68 38.4187 130.18 33.2188 127.98Z" fill="#4A2760"/>
<path d="M40.2188 123.18C40.2188 123.18 42.1187 124.38 42.7188 127.98C42.7188 127.98 43.8187 128.38 44.4187 129.88C44.4187 129.88 46.1188 125.78 40.2188 123.18Z" fill="#4A2760"/>
<path d="M46.6189 119.48C46.6189 119.48 48.4189 121.28 47.3189 125.08C47.3189 125.08 47.9189 125.58 47.7189 127.48C47.7189 127.48 51.9189 122.78 46.6189 119.48Z" fill="#4A2760"/>
<path d="M50.7188 117.18C50.7188 117.18 51.8188 120.78 50.0188 123.08C50.0188 123.08 50.6188 123.78 50.0188 125.58C50.0188 125.58 54.4188 121.58 50.7188 117.18Z" fill="#4A2760"/>
<path d="M57.4187 120.28C57.4187 120.28 57.0187 121.28 55.3187 120.88L54.4187 123.08C54.4187 123.18 56.8187 124.38 57.4187 120.28Z" fill="#4A2760"/>
<path opacity="0.28" d="M94.3188 118.88C94.3188 118.88 93.6188 117.28 97.4188 115.98C97.4188 115.98 91.9188 114.78 92.8188 120.78C92.8188 120.78 92.8188 119.48 94.3188 118.88Z" fill="#634277"/>
<path opacity="0.28" d="M96.5189 126.88C96.5189 126.88 95.5189 131.18 98.1189 131.38C98.1189 131.38 97.1188 132.78 98.4188 133.68C98.4188 133.68 93.7189 132.38 96.5189 126.88Z" fill="#634277"/>
<path opacity="0.28" d="M100.619 135.68C100.619 135.68 99.9188 134.18 100.719 133.48C100.719 133.48 98.9188 131.38 101.219 128.78C101.219 128.88 95.8188 131.58 100.619 135.68Z" fill="#634277"/>
<path opacity="0.28" d="M102.419 136.08C102.419 136.08 102.919 134.68 103.919 134.38C103.919 134.38 104.519 131.48 106.919 130.28C106.819 130.28 101.819 130.08 102.419 136.08Z" fill="#634277"/>
<path opacity="0.28" d="M33.2188 127.98C33.2188 127.98 35.8188 129.78 35.6188 131.88C35.6188 131.88 37.2187 133.08 37.4187 133.58C37.4187 133.68 38.4187 130.18 33.2188 127.98Z" fill="#634277"/>
<path opacity="0.28" d="M40.2188 123.18C40.2188 123.18 42.1187 124.38 42.7188 127.98C42.7188 127.98 43.8187 128.38 44.4187 129.88C44.4187 129.88 46.1188 125.78 40.2188 123.18Z" fill="#634277"/>
<path opacity="0.28" d="M46.6189 119.48C46.6189 119.48 48.4189 121.28 47.3189 125.08C47.3189 125.08 47.9189 125.58 47.7189 127.48C47.7189 127.48 51.9189 122.78 46.6189 119.48Z" fill="#634277"/>
<path opacity="0.28" d="M50.7188 117.18C50.7188 117.18 51.8188 120.78 50.0188 123.08C50.0188 123.08 50.6188 123.78 50.0188 125.58C50.0188 125.58 54.4188 121.58 50.7188 117.18Z" fill="#634277"/>
<path opacity="0.28" d="M57.4187 120.28C57.4187 120.28 57.0187 121.28 55.3187 120.88L54.4187 123.08C54.4187 123.18 56.8187 124.38 57.4187 120.28Z" fill="#634277"/>
<path opacity="0.28" d="M97.1189 183.38C97.1189 183.38 88.6188 180.88 87.8188 190.88C87.8188 190.78 89.9189 183.48 97.1189 183.38Z" fill="#634277"/>
<g opacity="0.28">
<path opacity="0.28" d="M158.319 206.58C157.819 204.48 157.019 202.88 156.019 201.68C152.019 196.88 145.119 198.58 145.119 198.58C145.719 198.48 146.219 198.48 146.819 198.48C145.319 199.08 138.619 202.58 145.519 209.08C145.519 209.08 141.419 201.38 148.619 198.68C150.619 198.98 152.319 199.78 153.719 200.78C152.719 201.68 150.019 204.58 151.219 209.18C151.219 209.18 151.719 203.38 155.219 201.98C157.319 204.18 158.319 206.58 158.319 206.58Z" fill="#634277"/>
<path opacity="0.28" d="M138.619 201.18C138.619 201.18 134.819 205.88 139.819 208.48C139.819 208.48 136.919 204.98 138.619 201.18Z" fill="#634277"/>
</g>
<path opacity="0.28" d="M110.519 168.88C112.919 171.38 115.719 174.08 115.819 174.98C115.819 175.28 114.719 176.08 113.019 176.98C113.719 176.58 118.019 174.48 116.819 178.68C115.519 183.28 106.719 189.28 91.8188 191.28C98.0188 191.78 105.119 191.78 109.019 189.78C109.019 189.78 122.319 177.08 121.019 174.68C119.619 172.28 116.919 170.88 123.119 167.18C123.619 166.88 124.019 166.68 124.419 166.38C124.519 166.38 110.519 168.88 110.519 168.88Z" fill="#634277"/>
<path opacity="0.28" d="M153.919 174.98C153.919 174.58 153.919 174.08 153.919 173.58L146.519 174.98V175.98C148.619 178.48 149.819 180.68 149.819 181.98C149.819 182.68 149.419 184.48 148.819 186.58C149.919 184.78 151.319 183.28 152.919 183.48C156.819 183.98 159.419 207.18 159.419 207.18C159.419 207.18 158.519 182.98 157.319 181.98C156.219 181.18 154.019 181.38 153.919 174.98Z" fill="#634277"/>
<path d="M123.719 146.78L122.419 147.38C122.419 147.38 110.719 156.88 106.119 167.08C106.119 167.08 111.619 163.58 109.419 168.38C109.419 168.38 112.219 164.58 113.419 169.08C113.419 169.08 115.219 166.18 116.619 170.28C116.619 170.28 118.719 167.68 121.619 172.88C121.619 172.88 119.319 166.68 130.019 164.88C130.019 164.88 138.219 166.28 145.919 179.78C145.919 179.78 143.919 174.28 148.919 179.78C148.919 179.78 148.819 175.28 152.919 179.28C152.919 179.28 151.519 175.18 156.219 178.18C156.219 178.18 155.119 173.38 158.719 174.38C158.719 174.38 154.319 167.58 155.019 164.48C155.619 161.38 154.019 163.28 154.019 163.28C154.019 163.28 155.619 161.28 154.519 161.28C154.519 161.28 155.919 151.28 153.919 149.38C151.919 147.48 131.819 151.98 124.019 146.78H123.719Z" fill="url(#paint22_linear_3_391)"/>
<path d="M121.619 142.28C121.619 142.28 138.019 152.18 155.019 144.68L153.919 149.38C153.919 149.38 135.819 154.88 122.319 147.38L121.619 142.28Z" fill="url(#paint23_linear_3_391)"/>
<path opacity="0.28" d="M126.419 162.68L127.019 162.48L126.819 161.88C126.719 161.68 126.619 161.08 126.919 160.88C127.119 160.68 127.619 160.58 128.219 160.68L128.719 160.78L128.919 160.38C128.919 160.28 132.019 153.48 137.219 151.28L137.519 151.18L138.419 147.48C138.019 147.48 137.619 147.38 137.219 147.38L136.419 150.38C131.619 152.58 128.719 158.08 127.919 159.58C127.019 159.58 126.319 159.78 125.919 160.28C125.519 160.78 125.419 161.48 125.519 161.98C123.219 163.48 121.619 169.38 121.019 172.18C121.219 172.48 121.419 172.78 121.619 173.08C121.619 173.08 120.519 169.98 123.619 167.48C124.419 164.98 125.419 162.98 126.419 162.68Z" fill="#721B00"/>
<path opacity="0.28" d="M135.519 166.88C130.519 157.38 140.419 151.48 140.819 151.18L141.119 150.98L141.319 147.48C140.919 147.48 140.519 147.48 140.119 147.48L139.919 150.28C138.219 151.38 129.819 157.38 134.019 166.48C134.619 166.88 135.319 167.28 136.119 167.88C135.919 167.58 135.719 167.18 135.519 166.88Z" fill="#721B00"/>
<path opacity="0.28" d="M143.819 150.68L144.819 147.28C144.419 147.28 144.019 147.38 143.519 147.38L142.819 150.08C137.719 156.88 137.419 164.98 137.719 169.28C138.119 169.68 138.619 170.08 139.019 170.48C138.719 166.98 138.419 157.98 143.819 150.68Z" fill="#721B00"/>
<path opacity="0.28" d="M109.419 168.48C109.419 168.48 109.919 167.78 110.519 167.38C119.919 151.18 124.919 148.88 124.919 148.88L125.319 148.78L125.519 144.28C125.119 144.08 124.719 143.88 124.319 143.78L124.119 148.08C122.819 148.88 118.019 152.38 109.819 166.38C110.019 166.58 109.919 167.28 109.419 168.48Z" fill="#721B00"/>
<path opacity="0.28" d="M150.619 149.58L150.919 146.08C150.519 146.18 150.119 146.28 149.719 146.38L149.419 149.08C144.419 161.08 147.119 174.88 148.119 178.68C148.419 178.98 148.619 179.28 149.019 179.58C149.019 179.58 149.019 178.78 149.319 178.18C148.319 174.28 145.719 161.08 150.619 149.58Z" fill="#721B00"/>
<path opacity="0.28" d="M117.919 169.68C123.319 156.28 133.319 150.78 133.419 150.78L133.719 150.68L134.519 146.88C134.119 146.78 133.719 146.68 133.319 146.68L132.619 149.98C130.919 150.98 121.719 156.68 116.619 169.88C116.619 169.98 116.519 169.98 116.519 170.08C116.619 170.18 116.619 170.38 116.719 170.48C116.619 170.38 117.119 169.78 117.919 169.68Z" fill="#721B00"/>
<path opacity="0.28" d="M155.319 177.58C152.419 172.28 153.019 165.28 153.019 165.18L153.119 163.98L152.119 164.58C151.619 164.88 151.319 164.98 151.219 165.08C151.319 164.68 151.519 163.98 151.919 163.38L152.019 163.18L151.919 162.98C150.919 159.58 153.019 149.88 153.019 149.68L153.619 145.18C153.219 145.38 152.719 145.48 152.319 145.68L151.819 149.48C151.719 149.88 149.819 159.18 150.719 162.98C150.119 164.08 149.619 165.38 150.319 165.98C150.719 166.38 151.219 166.28 151.819 166.08C151.719 168.18 151.919 172.78 153.719 176.98C154.119 177.08 154.619 177.28 155.319 177.58Z" fill="#721B00"/>
<path opacity="0.28" d="M145.819 177.38C140.519 160.18 147.119 150.58 147.219 150.48L148.119 146.88C147.719 146.98 147.219 147.08 146.819 147.08L146.119 149.88C145.319 150.98 139.419 160.58 144.519 177.48C145.019 178.18 145.419 178.98 145.919 179.78C146.019 179.78 145.219 177.68 145.819 177.38Z" fill="#721B00"/>
<path d="M142.119 152.38L144.119 151.28C144.119 151.28 147.119 158.58 150.619 158.88V160.88C150.619 160.98 144.119 159.38 142.119 152.38Z" fill="#C14E00"/>
<path opacity="0.28" d="M129.019 149.98L129.419 149.88L129.719 145.68C129.319 145.58 128.919 145.38 128.519 145.28L128.319 149.08C121.219 152.08 114.619 165.38 113.219 168.38C113.319 168.58 113.419 168.88 113.519 169.18C113.519 169.18 114.019 168.38 114.619 168.18C116.419 164.38 122.719 152.38 129.019 149.98Z" fill="#721B00"/>
<path opacity="0.28" d="M109.419 168.48C109.419 168.48 112.219 164.68 113.419 169.18C113.419 169.18 115.219 166.28 116.619 170.38C116.619 170.38 118.719 167.78 121.619 172.98C121.619 172.98 119.319 166.78 130.019 164.98C130.019 164.98 138.219 166.38 145.919 179.88C145.919 179.88 143.919 174.38 148.919 179.88C148.919 179.88 148.819 175.38 152.919 179.38C152.919 179.38 151.519 175.28 156.219 178.28C156.219 178.28 155.119 173.48 158.719 174.48C158.719 174.48 154.319 167.68 155.019 164.58C155.619 161.48 154.019 163.38 154.019 163.38C154.019 163.38 155.619 161.38 154.519 161.38C154.519 161.38 155.919 151.38 153.919 149.48L155.019 144.78C142.819 150.18 130.919 146.68 125.219 144.18C125.219 144.18 135.419 149.98 144.419 148.88C153.419 147.78 140.819 154.68 122.619 147.68C122.619 147.68 134.719 155.18 145.219 154.28C155.719 153.38 149.619 164.68 149.619 164.68C149.619 164.68 155.419 159.28 152.519 165.28C152.519 165.28 155.219 163.58 154.319 167.58C153.319 171.48 156.519 173.78 156.519 173.78C156.519 173.78 153.319 172.98 155.019 176.28C155.019 176.28 150.619 174.38 152.019 177.98C152.019 177.98 147.319 173.78 148.419 177.68C148.419 177.68 145.019 173.08 144.719 176.58C144.719 176.58 135.219 161.88 124.119 158.58C124.119 158.58 128.019 160.28 129.119 162.98C129.119 162.98 126.319 160.18 121.219 158.98C121.219 158.98 126.719 161.08 126.519 163.78C126.319 166.48 121.319 163.28 120.419 169.28C120.419 169.28 120.119 165.48 117.119 169.18C117.119 169.18 116.119 165.88 113.519 168.48C113.519 168.48 114.219 165.28 110.319 167.38C110.319 167.38 111.019 163.08 106.019 167.38C106.119 167.08 111.619 163.68 109.419 168.48Z" fill="#721B00"/>
<path opacity="0.28" d="M131.319 147.98C131.319 148.68 130.819 149.38 130.319 149.38C129.819 149.38 129.319 148.78 129.319 147.98C129.319 147.28 129.819 146.58 130.319 146.58C130.819 146.58 131.319 147.18 131.319 147.98Z" fill="#721B00"/>
<path d="M130.919 147.98C130.919 148.68 130.419 149.38 129.919 149.38C129.319 149.38 128.919 148.78 128.919 147.98C128.919 147.28 129.419 146.58 129.919 146.58C130.519 146.58 130.919 147.18 130.919 147.98Z" fill="#C14E00"/>
<defs>
<linearGradient id="paint0_linear_3_391" x1="0.0387337" y1="108.564" x2="186.103" y2="108.564" gradientUnits="userSpaceOnUse">
<stop stop-color="#00004F"/>
<stop offset="1"/>
</linearGradient>
<linearGradient id="paint1_linear_3_391" x1="27.0411" y1="132.522" x2="27.0411" y2="72.738" gradientUnits="userSpaceOnUse">
<stop stop-color="#6A72BB"/>
<stop offset="0.2796" stop-color="#5D5496"/>
<stop offset="0.5607" stop-color="#533B79"/>
<stop offset="0.8025" stop-color="#4C2C66"/>
<stop offset="0.9754" stop-color="#4A2760"/>
</linearGradient>
<linearGradient id="paint2_linear_3_391" x1="33.0047" y1="125.914" x2="55.954" y2="125.914" gradientUnits="userSpaceOnUse">
<stop stop-color="#6A72BB"/>
<stop offset="0.0797524" stop-color="#625FA4"/>
<stop offset="0.1902" stop-color="#594B8B"/>
<stop offset="0.3144" stop-color="#523B78"/>
<stop offset="0.4581" stop-color="#4E2F6A"/>
<stop offset="0.6387" stop-color="#4B2962"/>
<stop offset="0.9754" stop-color="#4A2760"/>
</linearGradient>
<linearGradient id="paint3_linear_3_391" x1="26.0754" y1="121.527" x2="55.707" y2="121.527" gradientUnits="userSpaceOnUse">
<stop offset="0.1106" stop-color="#6A72BB"/>
<stop offset="0.2632" stop-color="#676CB4"/>
<stop offset="0.4889" stop-color="#605CA0"/>
<stop offset="0.7583" stop-color="#55417F"/>
<stop offset="0.9754" stop-color="#4A2760"/>
</linearGradient>
<linearGradient id="paint4_linear_3_391" x1="161.018" y1="95.3857" x2="97.8418" y2="174.443" gradientUnits="userSpaceOnUse">
<stop offset="0.2362" stop-color="#422751"/>
<stop offset="0.3918" stop-color="#432A55"/>
<stop offset="0.5387" stop-color="#483260"/>
<stop offset="0.682" stop-color="#4F3F73"/>
<stop offset="0.8233" stop-color="#59528E"/>
<stop offset="0.9617" stop-color="#666AB0"/>
<stop offset="1" stop-color="#6A72BB"/>
</linearGradient>
<linearGradient id="paint5_linear_3_391" x1="177.675" y1="51.6149" x2="108.726" y2="120.564" gradientUnits="userSpaceOnUse">
<stop offset="0.1251" stop-color="#4A2760"/>
<stop offset="0.2815" stop-color="#4D2E68"/>
<stop offset="0.5284" stop-color="#55417F"/>
<stop offset="0.8334" stop-color="#625FA4"/>
<stop offset="1" stop-color="#6A72BB"/>
</linearGradient>
<linearGradient id="paint6_linear_3_391" x1="36.4332" y1="30.2788" x2="64.6368" y2="30.2788" gradientUnits="userSpaceOnUse">
<stop stop-color="#6A72BB"/>
<stop offset="0.0427835" stop-color="#676AB1"/>
<stop offset="0.1942" stop-color="#5C5294"/>
<stop offset="0.3551" stop-color="#543F7D"/>
<stop offset="0.5279" stop-color="#4E316D"/>
<stop offset="0.721" stop-color="#4B2963"/>
<stop offset="0.9754" stop-color="#4A2760"/>
</linearGradient>
<linearGradient id="paint7_linear_3_391" x1="45.5501" y1="38.4302" x2="109.692" y2="102.572" gradientUnits="userSpaceOnUse">
<stop stop-color="#6A72BB"/>
<stop offset="0.1722" stop-color="#676CB4"/>
<stop offset="0.4267" stop-color="#605CA0"/>
<stop offset="0.7306" stop-color="#55417F"/>
<stop offset="0.9754" stop-color="#4A2760"/>
</linearGradient>
<linearGradient id="paint8_linear_3_391" x1="78.1106" y1="27.5249" x2="78.2993" y2="27.7135" gradientUnits="userSpaceOnUse">
<stop stop-color="#6A72BB"/>
<stop offset="0.4283" stop-color="#665896"/>
<stop offset="0.7791" stop-color="#64487F"/>
<stop offset="1" stop-color="#634277"/>
</linearGradient>
<linearGradient id="paint9_linear_3_391" x1="74.8073" y1="11.8334" x2="154.022" y2="91.0484" gradientUnits="userSpaceOnUse">
<stop stop-color="#6A72BB"/>
<stop offset="0.1799" stop-color="#6260A5"/>
<stop offset="0.5234" stop-color="#55417F"/>
<stop offset="0.8007" stop-color="#4D2E68"/>
<stop offset="0.9754" stop-color="#4A2760"/>
</linearGradient>
<linearGradient id="paint10_linear_3_391" x1="49.3224" y1="41.6552" x2="78.9628" y2="41.6552" gradientUnits="userSpaceOnUse">
<stop stop-color="#6A72BB"/>
<stop offset="0.1074" stop-color="#666DB4"/>
<stop offset="0.269" stop-color="#5A619F"/>
<stop offset="0.4648" stop-color="#474C7D"/>
<stop offset="0.6872" stop-color="#2C304E"/>
<stop offset="0.9292" stop-color="#0B0B13"/>
<stop offset="1"/>
</linearGradient>
<linearGradient id="paint11_linear_3_391" x1="79.2666" y1="69.8089" x2="79.2666" y2="45.78" gradientUnits="userSpaceOnUse">
<stop stop-color="#FFDD00"/>
<stop offset="0.1217" stop-color="#FFD600"/>
<stop offset="0.294" stop-color="#FFC400"/>
<stop offset="0.4964" stop-color="#FFA500"/>
<stop offset="0.72" stop-color="#FF7C00"/>
<stop offset="0.803" stop-color="#FF6A00"/>
</linearGradient>
<linearGradient id="paint12_linear_3_391" x1="80.3215" y1="63.0385" x2="80.3215" y2="52.1335" gradientUnits="userSpaceOnUse">
<stop stop-color="#5E3613"/>
<stop offset="0.0201802" stop-color="#5B3614"/>
<stop offset="0.3166" stop-color="#342F1F"/>
<stop offset="0.5886" stop-color="#172B27"/>
<stop offset="0.8252" stop-color="#06282C"/>
<stop offset="1" stop-color="#00272E"/>
</linearGradient>
<linearGradient id="paint13_linear_3_391" x1="79.1948" y1="62.4631" x2="81.3317" y2="52.0536" gradientUnits="userSpaceOnUse">
<stop stop-color="#D14700"/>
<stop offset="0.0973915" stop-color="#BA4107"/>
<stop offset="0.2969" stop-color="#903613"/>
<stop offset="0.4916" stop-color="#6F2D1D"/>
<stop offset="0.6775" stop-color="#582723"/>
<stop offset="0.8511" stop-color="#4A2328"/>
<stop offset="1" stop-color="#452229"/>
</linearGradient>
<linearGradient id="paint14_linear_3_391" x1="80.2634" y1="60.5981" x2="80.2631" y2="53.9188" gradientUnits="userSpaceOnUse">
<stop stop-color="#5E3613"/>
<stop offset="0.0789517" stop-color="#4A3319"/>
<stop offset="0.2106" stop-color="#2F2F20"/>
<stop offset="0.3544" stop-color="#1A2B26"/>
<stop offset="0.5148" stop-color="#0B292B"/>
<stop offset="0.7049" stop-color="#03272D"/>
<stop offset="1" stop-color="#00272E"/>
</linearGradient>
<linearGradient id="paint15_linear_3_391" x1="14.2095" y1="69.7707" x2="71.1823" y2="126.743" gradientUnits="userSpaceOnUse">
<stop stop-color="#6A72BB"/>
<stop offset="0.1074" stop-color="#666DB4"/>
<stop offset="0.269" stop-color="#5A619F"/>
<stop offset="0.4648" stop-color="#474C7D"/>
<stop offset="0.6872" stop-color="#2C304E"/>
<stop offset="0.9292" stop-color="#0B0B13"/>
<stop offset="1"/>
</linearGradient>
<linearGradient id="paint16_linear_3_391" x1="47.4507" y1="67.0066" x2="49.0837" y2="50.6607" gradientUnits="userSpaceOnUse">
<stop stop-color="#FFDD00"/>
<stop offset="0.1317" stop-color="#FFD600"/>
<stop offset="0.318" stop-color="#FFC400"/>
<stop offset="0.5369" stop-color="#FFA500"/>
<stop offset="0.7789" stop-color="#FF7C00"/>
<stop offset="0.8687" stop-color="#FF6A00"/>
</linearGradient>
<linearGradient id="paint17_linear_3_391" x1="52.5479" y1="61.8839" x2="53.5197" y2="52.1559" gradientUnits="userSpaceOnUse">
<stop stop-color="#5E3613"/>
<stop offset="0.0201802" stop-color="#5B3614"/>
<stop offset="0.3166" stop-color="#342F1F"/>
<stop offset="0.5886" stop-color="#172B27"/>
<stop offset="0.8252" stop-color="#06282C"/>
<stop offset="1" stop-color="#00272E"/>
</linearGradient>
<linearGradient id="paint18_linear_3_391" x1="53.0307" y1="61.7207" x2="53.7093" y2="51.9664" gradientUnits="userSpaceOnUse">
<stop stop-color="#D14700"/>
<stop offset="0.0973915" stop-color="#BA4107"/>
<stop offset="0.2969" stop-color="#903613"/>
<stop offset="0.4916" stop-color="#6F2D1D"/>
<stop offset="0.6775" stop-color="#582723"/>
<stop offset="0.8511" stop-color="#4A2328"/>
<stop offset="1" stop-color="#452229"/>
</linearGradient>
<linearGradient id="paint19_linear_3_391" x1="53.0634" y1="59.9096" x2="53.6764" y2="53.7777" gradientUnits="userSpaceOnUse">
<stop stop-color="#5E3613"/>
<stop offset="0.0789517" stop-color="#4A3319"/>
<stop offset="0.2106" stop-color="#2F2F20"/>
<stop offset="0.3544" stop-color="#1A2B26"/>
<stop offset="0.5148" stop-color="#0B292B"/>
<stop offset="0.7049" stop-color="#03272D"/>
<stop offset="1" stop-color="#00272E"/>
</linearGradient>
<linearGradient id="paint20_linear_3_391" x1="51.1221" y1="61.6573" x2="53.7547" y2="72.2159" gradientUnits="userSpaceOnUse">
<stop stop-color="#6A72BB"/>
<stop offset="1" stop-color="#675C9D"/>
</linearGradient>
<linearGradient id="paint21_linear_3_391" x1="30.3038" y1="82.7693" x2="56.9367" y2="82.7693" gradientUnits="userSpaceOnUse">
<stop stop-color="#6A72BB"/>
<stop offset="0.1074" stop-color="#666DB4"/>
<stop offset="0.269" stop-color="#5A619F"/>
<stop offset="0.4648" stop-color="#474C7D"/>
<stop offset="0.6872" stop-color="#2C304E"/>
<stop offset="0.9292" stop-color="#0B0B13"/>
<stop offset="1"/>
</linearGradient>
<linearGradient id="paint22_linear_3_391" x1="153.227" y1="148.657" x2="120.444" y2="181.44" gradientUnits="userSpaceOnUse">
<stop offset="0.197" stop-color="#FF6A00"/>
<stop offset="0.28" stop-color="#FF7C00"/>
<stop offset="0.5036" stop-color="#FFA500"/>
<stop offset="0.706" stop-color="#FFC400"/>
<stop offset="0.8783" stop-color="#FFD600"/>
<stop offset="1" stop-color="#FFDD00"/>
</linearGradient>
<linearGradient id="paint23_linear_3_391" x1="121.616" y1="146.807" x2="155.023" y2="146.807" gradientUnits="userSpaceOnUse">
<stop stop-color="#FFDD00"/>
<stop offset="0.0513133" stop-color="#FFCF00"/>
<stop offset="0.2017" stop-color="#FFAB00"/>
<stop offset="0.3531" stop-color="#FF8E00"/>
<stop offset="0.504" stop-color="#FF7A00"/>
<stop offset="0.6542" stop-color="#FF6E00"/>
<stop offset="0.803" stop-color="#FF6A00"/>
</linearGradient>
</defs>
</svg>
