<svg width="180" height="186" viewBox="0 0 180 186" fill="none" xmlns="http://www.w3.org/2000/svg">
<path opacity="0.18" d="M79.4156 185.644C90.2156 183.444 93.0156 177.544 91.2156 167.144C96.1156 172.044 98.8156 178.644 103.316 178.944C105.116 178.544 138.516 180.944 138.816 178.444C142.216 180.544 145.716 179.744 148.216 177.744C148.216 177.744 148.216 177.744 148.216 177.844C148.216 177.944 148.316 178.144 148.416 178.344C148.516 178.544 148.616 178.744 148.616 178.944C148.716 179.044 148.716 179.244 148.816 179.344C148.916 179.544 149.016 179.744 149.216 179.944C149.316 180.044 149.416 180.244 149.416 180.344C149.616 180.744 149.916 181.044 150.216 181.344C151.116 182.444 152.516 183.044 153.916 183.044H157.516C158.016 183.044 158.516 182.944 159.016 182.844C159.516 182.944 160.016 183.044 160.416 183.044H174.916C176.616 183.044 178.216 182.144 179.116 180.644C180.016 179.144 180.116 177.244 179.416 175.744C179.416 175.744 179.416 175.644 179.316 175.444L179.216 175.344L179.116 175.244C178.416 174.044 175.616 169.944 169.416 167.444C168.316 167.044 167.216 166.644 166.016 166.344C166.416 164.744 166.216 162.344 163.916 159.744C163.616 159.344 163.316 159.044 162.916 158.744L162.816 158.644C162.516 158.344 162.116 158.144 161.716 157.844C161.616 157.744 161.516 157.744 161.416 157.644C161.016 157.444 160.616 157.244 160.116 157.044C160.016 157.044 159.816 156.944 159.616 156.944C159.116 156.844 158.716 156.744 158.216 156.744C158.016 156.744 157.816 156.744 157.616 156.744C156.516 156.844 155.516 157.144 154.716 157.744C153.316 157.344 151.816 157.444 150.416 158.144C148.716 158.944 147.416 160.644 146.816 162.744C146.616 163.344 146.616 163.944 146.516 164.544C146.216 157.044 134.216 156.644 131.516 163.444L110.516 163.044C110.216 162.844 109.916 162.744 109.516 162.644L107.316 158.244C119.116 159.844 110.616 143.644 109.716 138.444C111.116 136.144 112.116 133.044 110.116 130.844C113.016 118.244 113.816 98.2436 103.716 87.4436C110.516 83.8436 111.716 74.3436 104.116 70.9436C108.616 70.5436 112.816 67.3436 113.516 62.7436C120.616 58.7436 121.716 46.6436 115.416 41.2436C115.316 39.7436 114.716 38.2436 113.616 37.0436C114.316 33.5436 111.816 28.9436 109.116 27.4436C108.016 22.6436 103.916 19.1436 97.7156 17.6436C95.0156 14.0436 92.3157 12.1436 88.6157 11.9436C84.2157 8.3436 76.1156 4.7436 69.9156 4.5436C66.0156 -2.9564 56.7156 1.1436 49.7156 1.0436C47.4156 1.0436 45.2156 1.3436 42.9156 1.9436C37.9156 3.2436 33.3157 5.7436 29.0157 8.6436L28.9156 8.7436C21.4156 13.2436 12.8156 21.9436 14.7156 30.9436C10.3156 36.1436 9.01563 43.9436 15.7156 50.0436C15.9156 54.2436 17.3157 63.6436 19.1157 69.0436V69.1436C20.4157 73.3436 22.0156 77.4436 24.3156 81.1436C20.1156 89.2436 27.0157 94.6436 32.6157 101.344C23.6157 112.844 11.0156 130.544 6.81564 146.044C4.51564 149.744 -2.18437 161.644 0.715633 170.544C4.11563 180.444 21.4156 188.644 28.9156 181.544C29.8156 182.344 30.9156 182.744 32.2156 182.744C32.7156 182.644 48.4157 182.944 48.1157 182.544C50.5157 182.844 54.1157 183.244 56.1157 181.744C58.1157 182.244 60.4156 182.044 61.8156 180.344C68.4156 183.344 75.3156 185.844 79.4156 185.644ZM146.616 165.544C146.616 165.644 146.616 165.744 146.616 165.944C146.616 165.944 146.616 165.944 146.516 165.944C146.616 165.744 146.616 165.644 146.616 165.544Z" fill="url(#paint0_linear_3_674)"/>
<path d="M79.4156 183.544C90.2156 181.344 93.0156 175.544 91.2156 165.344C96.1156 170.144 98.8156 176.644 103.316 176.944C105.116 176.544 138.516 178.944 138.816 176.444C142.216 178.544 145.716 177.744 148.216 175.744C148.216 175.744 148.216 175.744 148.216 175.844C148.216 175.944 148.316 176.144 148.416 176.244C148.516 176.444 148.616 176.644 148.616 176.844C148.716 176.944 148.716 177.144 148.816 177.244C148.916 177.444 149.016 177.644 149.216 177.844C149.316 177.944 149.416 178.144 149.416 178.244C149.616 178.644 149.916 178.944 150.216 179.244C151.116 180.344 152.516 180.944 153.916 180.944H157.516C158.016 180.944 158.516 180.844 159.016 180.744C159.516 180.844 160.016 180.944 160.416 180.944H174.916C176.616 180.944 178.216 180.044 179.116 178.544C180.016 177.044 180.116 175.244 179.416 173.644C179.416 173.644 179.416 173.544 179.316 173.344L179.216 173.244L179.116 173.144C178.416 171.944 175.616 167.844 169.416 165.444C168.316 165.044 167.216 164.644 166.016 164.344C166.416 162.744 166.216 160.444 163.916 157.844C163.616 157.444 163.316 157.144 162.916 156.844L162.816 156.744C162.516 156.444 162.116 156.244 161.716 155.944C161.616 155.844 161.516 155.844 161.416 155.744C161.016 155.544 160.616 155.344 160.116 155.144C160.016 155.144 159.816 155.044 159.616 155.044C159.116 154.944 158.716 154.844 158.216 154.844C158.016 154.844 157.816 154.844 157.616 154.844C156.516 154.944 155.516 155.244 154.716 155.844C153.316 155.444 151.816 155.544 150.416 156.244C148.716 157.044 147.416 158.744 146.816 160.844C146.616 161.444 146.616 162.044 146.516 162.544C146.216 155.144 134.216 154.744 131.516 161.444L110.516 161.044C110.216 160.844 109.916 160.744 109.516 160.644L107.316 156.344C119.116 157.944 110.616 141.944 109.716 136.744C111.116 134.444 112.116 131.344 110.116 129.244C113.016 116.744 113.816 96.9436 103.716 86.3436C110.516 82.7436 111.716 73.3436 104.116 70.0436C108.616 69.6436 112.816 66.5436 113.516 61.9436C120.616 58.0436 121.716 46.0436 115.416 40.7436C115.316 39.2436 114.716 37.8436 113.616 36.6436C114.316 33.2436 111.816 28.6436 109.116 27.1436C108.016 22.3436 103.916 18.8436 97.7156 17.4436C95.0156 13.9436 92.3157 11.9436 88.6157 11.7436C84.2157 8.14359 76.1156 4.64359 69.9156 4.44359C66.0156 -2.95641 56.7156 1.14359 49.7156 1.04359C47.4156 1.04359 45.2156 1.34359 42.9156 1.94359C37.9156 3.24359 33.3157 5.74359 29.0157 8.54359L28.9156 8.64359C21.4156 13.0436 12.8156 21.6436 14.7156 30.6436C10.3156 35.8436 9.01563 43.5436 15.7156 49.5436C15.9156 53.7436 17.3157 62.9436 19.1157 68.3436V68.4436C20.4157 72.5436 22.0156 76.6436 24.3156 80.3436C20.1156 88.3436 27.0157 93.7436 32.6157 100.344C23.6157 111.744 11.0156 129.144 6.81564 144.544C4.51564 148.244 -2.18437 159.944 0.715633 168.744C4.11563 178.444 21.4156 186.644 28.9156 179.644C29.8156 180.444 30.9156 180.844 32.2156 180.844C32.7156 180.744 48.4157 181.044 48.1157 180.644C50.5157 180.944 54.1157 181.344 56.1157 179.844C58.1157 180.344 60.4156 180.144 61.8156 178.444C68.4156 181.244 75.3156 183.744 79.4156 183.544ZM146.616 163.644C146.616 163.744 146.616 163.844 146.616 164.044C146.616 164.044 146.616 164.044 146.516 164.044C146.616 163.844 146.616 163.744 146.616 163.644Z" fill="white"/>
<path d="M133.316 166.644C133.316 166.644 132.916 171.144 135.616 172.644L124.816 171.444C124.916 171.444 131.416 166.544 133.316 166.644Z" fill="#392647"/>
<path d="M130.116 167.644H137.416C137.416 167.644 133.616 163.044 138.916 161.844C144.316 160.644 139.716 168.244 139.716 168.244C139.716 168.244 148.816 167.844 146.016 171.344C143.116 174.744 138.016 170.044 138.016 170.044L129.916 170.144L130.116 167.644Z" fill="#FFF1D2"/>
<path opacity="0.28" d="M138.016 170.044C138.016 170.044 143.116 174.844 146.016 171.344C146.316 170.944 146.516 170.644 146.516 170.344C145.016 172.344 139.616 170.744 139.416 169.344C139.316 168.744 140.016 168.344 140.916 168.144C140.216 168.144 139.716 168.144 139.716 168.144C139.716 168.144 141.316 165.444 141.516 163.444C140.616 166.344 139.316 169.044 137.716 167.344C136.016 165.444 136.216 163.744 136.716 162.744C134.916 164.544 137.316 167.544 137.316 167.544H135.916C138.416 169.944 132.116 169.044 129.916 168.644V170.144L138.016 170.044Z" fill="#634277"/>
<path d="M54.2156 168.744C54.2156 168.744 55.5156 173.144 53.2156 175.644H49.6156V172.644L46.7156 175.644H32.2156C32.2156 175.644 35.8156 168.444 48.3156 168.344C48.4156 168.344 48.6156 172.344 54.2156 168.744Z" fill="#634277"/>
<path opacity="0.28" d="M32.3157 175.644H46.8157L49.7157 172.644V175.644H53.3157C55.5157 173.244 54.3157 168.944 54.3157 168.744C54.3157 168.744 54.3157 168.744 54.2157 168.744C51.8157 170.244 50.5157 170.444 49.6157 170.044C49.5157 170.044 49.5157 170.044 49.5157 170.044C49.5157 170.044 46.3157 174.944 39.0157 173.844C35.5157 173.344 35.6157 172.244 36.7157 171.244C33.5157 173.344 32.3157 175.644 32.3157 175.644Z" fill="#634277"/>
<path d="M161.116 171.444L158.816 168.644L153.016 169.044L155.216 172.744L161.116 171.444Z" fill="#392647"/>
<path d="M11.6157 146.344C11.6157 146.344 3.01568 159.144 5.61568 166.944C8.11568 174.744 22.1157 178.144 24.4157 176.744C26.8157 175.344 29.2157 169.944 26.9157 168.544C26.9157 168.544 30.6157 168.944 30.5157 164.944C30.3157 160.944 25.1157 163.244 22.5157 158.144C19.9157 153.144 18.0157 146.244 11.6157 146.344Z" fill="url(#paint1_linear_3_674)"/>
<path opacity="0.28" d="M30.1156 167.044C29.4156 167.544 28.2156 167.744 26.4156 167.344C20.1156 166.144 21.5156 158.544 23.0156 158.944C22.8156 158.644 22.7156 158.444 22.5156 158.144C20.7156 154.744 19.3156 150.544 16.6156 148.144C16.7156 148.344 21.2156 156.444 20.4156 159.744C19.6156 163.044 18.1156 156.344 18.1156 156.344C18.1156 156.344 18.8156 162.344 16.5156 164.344C16.5156 164.344 17.9156 165.544 18.5156 169.344C18.5156 169.344 20.1156 169.944 20.7156 170.744C20.7156 170.744 21.3156 167.144 26.9156 168.544C27.0156 168.544 29.2156 168.744 30.1156 167.044Z" fill="#634277"/>
<path opacity="0.28" d="M24.4156 167.444C24.4156 167.444 21.7156 166.844 20.0156 169.244C20.0156 169.244 20.3156 165.644 17.7156 164.444C17.7156 164.444 19.6156 161.244 21.1156 162.244C21.0156 162.344 20.3156 165.844 24.4156 167.444Z" fill="#634277"/>
<path d="M58.8156 150.744C58.8156 150.744 55.0156 166.944 56.8156 169.444C58.6156 171.944 74.9156 179.044 78.9156 178.644C82.9156 178.244 85.9156 175.344 86.6156 173.144C87.2156 170.944 85.9156 155.344 81.3156 160.444C81.3156 160.444 81.4156 156.244 78.4156 155.644C75.4156 155.044 75.2156 158.444 75.2156 158.444C75.2156 158.444 74.6156 156.244 72.8156 155.844C72.8156 155.844 65.9156 143.944 58.8156 150.744Z" fill="url(#paint2_linear_3_674)"/>
<path opacity="0.28" d="M67.9155 165.144C67.9155 165.144 75.1155 163.844 79.4155 172.044C79.4155 172.044 81.4155 170.444 81.4155 169.644C81.4155 169.644 76.7155 161.844 83.4155 159.444C82.8155 159.344 82.1155 159.544 81.4155 160.444C81.4155 160.444 81.5155 156.244 78.5155 155.644C75.5155 155.044 75.3155 158.444 75.3155 158.444C75.3155 158.444 74.7155 156.244 72.9155 155.844C72.9155 155.844 72.3155 154.744 71.2155 153.444C72.0155 156.444 72.4155 161.344 67.9155 165.144Z" fill="#634277"/>
<path opacity="0.28" d="M75.3156 163.844C74.3156 163.044 72.6156 162.944 72.6156 162.944C74.5156 160.044 72.8156 156.544 72.8156 156.544C73.9156 161.144 70.7156 164.144 70.7156 164.144C77.3156 164.644 79.6156 169.444 79.6156 169.444C77.8156 162.544 80.5156 160.744 80.5156 160.744C78.0156 162.144 77.9156 165.844 77.9156 165.844C77.9156 165.844 75.7156 162.244 76.1156 158.344C76.2156 156.944 76.9156 156.044 77.6156 155.644C75.3156 155.744 75.1156 158.444 75.1156 158.444C74.3156 162.644 75.3156 163.844 75.3156 163.844Z" fill="#634277"/>
<path d="M44.9157 93.4436C44.9157 93.4436 17.0157 124.244 11.6157 146.344L16.6157 148.144C16.6157 148.144 31.4157 108.844 56.7157 103.444C82.0157 98.0436 44.9157 93.4436 44.9157 93.4436Z" fill="url(#paint3_linear_3_674)"/>
<path d="M58.4158 127.244L36.4158 154.444L46.7158 166.344H45.8158L48.7158 170.744C48.7158 170.744 52.9158 174.444 58.5158 174.944L53.4158 164.644L52.4158 165.044L50.9158 162.144L49.6158 162.544L44.0158 155.944C44.0158 155.944 45.6158 155.744 44.0158 154.744L62.2158 140.744C62.2158 140.744 80.2158 145.444 83.4158 148.744C86.6158 152.044 103.616 172.044 103.616 172.044L135.816 172.744C135.816 172.744 126.916 170.544 133.216 169.744C133.216 169.744 129.016 167.744 133.516 166.744L108.216 166.244C108.216 166.244 109.516 165.244 106.616 165.444L95.7158 143.344C95.5158 143.344 73.4158 112.744 58.4158 127.244Z" fill="url(#paint4_linear_3_674)"/>
<path opacity="0.28" d="M59.5157 96.2437C54.5157 94.8437 48.0157 93.9437 45.7157 93.6437C45.1157 93.9437 44.6157 94.2437 44.0157 94.5437C42.9157 95.7437 41.0157 98.0437 38.5157 101.044C41.8157 101.344 47.4157 102.544 43.8157 107.244C38.8157 113.644 26.5157 124.344 17.6157 142.344C14.6157 148.444 13.0157 147.644 12.3157 143.944C12.0157 144.844 11.8157 145.644 11.6157 146.444L16.6157 148.244C16.6157 148.244 31.4157 108.944 56.7157 103.544C58.1157 103.244 59.3157 102.944 60.4157 102.644V102.544C60.8157 99.8437 60.3157 97.7437 59.5157 96.2437Z" fill="#634277"/>
<path opacity="0.28" d="M73.2156 135.944C80.3156 142.644 91.9156 150.444 96.7156 150.744C96.7156 150.744 103.816 164.744 104.116 168.044C104.116 168.044 107.516 165.244 106.516 168.044C106.516 168.044 110.716 168.544 109.016 169.344C107.316 170.144 105.316 171.244 100.616 167.244C99.4156 166.144 97.4156 164.344 95.2156 162.344C99.6156 167.544 103.516 172.144 103.516 172.144L135.716 172.844C135.716 172.844 126.816 170.644 133.116 169.844C133.116 169.844 128.916 167.844 133.416 166.844L108.116 166.344C108.116 166.344 109.416 165.344 106.516 165.544L95.6156 143.444C95.6156 143.444 73.6156 112.944 58.5156 127.344L53.0156 134.144C57.5156 132.744 67.8156 130.844 73.2156 135.944Z" fill="#634277"/>
<path opacity="0.28" d="M58.4157 174.844L53.3157 164.544L52.3157 164.944L50.9157 162.144L49.6157 162.544L44.0157 155.944C44.0157 155.944 45.6157 155.744 44.0157 154.744L62.2157 140.744C62.2157 140.744 69.0157 142.544 75.0157 144.644C70.7157 141.944 64.5157 138.644 57.7157 137.244C57.7157 137.244 60.8157 138.544 58.8157 140.844C56.8157 143.144 42.1157 154.044 42.1157 154.044C42.1157 154.044 44.8157 154.944 42.1157 156.444C42.1157 156.444 43.8157 156.744 45.0157 158.544C46.2157 160.344 51.5157 164.944 45.6157 165.044C45.6157 165.044 50.5157 166.544 50.9157 162.944C50.9157 162.944 55.2157 168.844 45.9157 166.444C45.9157 166.444 50.6157 169.544 52.7157 167.344C52.7157 167.344 52.3157 171.244 46.8157 167.844L48.8157 170.844C48.6157 170.744 52.8157 174.444 58.4157 174.844Z" fill="#634277"/>
<path d="M157.216 171.044C157.416 171.044 157.216 165.144 157.216 165.144C157.216 165.144 163.516 164.944 160.216 161.244C156.916 157.544 155.916 163.344 155.916 163.344C155.916 163.344 154.216 160.144 152.616 160.844C151.116 161.544 150.516 166.744 155.416 165.444L155.316 170.944H157.216V171.044Z" fill="#FFF1D2"/>
<path d="M109.016 151.644L104.616 136.444L106.516 132.644L104.616 131.644C104.616 131.644 116.016 93.2436 91.6157 84.1436L83.5157 74.3436L47.8157 90.9436L50.3157 100.844L57.4157 121.544C57.4157 121.544 55.5157 122.844 58.4157 123.744L51.7157 132.144C51.7157 132.144 63.1157 130.244 67.1157 123.544C67.1157 123.544 67.1157 123.644 67.2157 123.844C63.0157 137.344 59.4157 150.244 59.4157 150.244H67.0157C67.0157 150.244 69.3157 141.044 72.3157 131.244C78.6157 138.644 90.5157 149.244 109.016 151.644Z" fill="url(#paint5_linear_3_674)"/>
<path d="M89.3157 118.344L89.7157 125.744C89.8157 126.844 90.7157 127.644 91.7157 127.544L100.316 126.844C101.216 126.744 102.016 126.044 102.016 125.044L102.516 117.344C102.616 116.144 101.616 115.244 100.416 115.344L90.9157 116.344C90.0157 116.444 89.3157 117.344 89.3157 118.344Z" fill="#634277"/>
<path d="M93.1157 113.344L94.1157 117.444H94.3157L93.9157 112.944L93.1157 113.344Z" fill="#422751"/>
<path d="M87.4158 121.244L91.0158 123.444L91.1158 123.244L87.6158 120.444L87.4158 121.244Z" fill="#422751"/>
<path d="M89.3158 124.044L90.5158 120.044L90.3158 119.844L88.4158 124.044H89.3158Z" fill="#422751"/>
<path d="M97.4157 116.544L94.8157 113.144L94.6157 113.244L96.9157 117.244L97.4157 116.544Z" fill="#422751"/>
<path d="M101.516 113.444L99.9158 117.344L100.116 117.444L102.416 113.544L101.516 113.444Z" fill="#422751"/>
<path d="M100.916 127.344L98.3157 124.044L98.1157 124.144L100.416 128.044L100.916 127.344Z" fill="#422751"/>
<path d="M95.2157 127.844L96.2157 123.744L96.0157 123.644L94.3157 127.844H95.2157Z" fill="#422751"/>
<path opacity="0.28" d="M54.6156 100.344L53.5156 102.044C53.5156 102.044 63.0156 118.544 65.3156 118.544C67.6156 118.544 71.2156 90.2437 80.7156 85.5437C90.3156 80.8437 62.1156 74.6437 62.1156 74.6437L54.6156 100.344Z" fill="#634277"/>
<path d="M55.2157 99.9437L54.1157 101.644C54.1157 101.644 63.6157 118.144 65.9157 118.144C68.2157 118.144 71.8157 89.8437 81.3157 85.1437C90.9157 80.4437 62.7157 74.2437 62.7157 74.2437L55.2157 99.9437Z" fill="#7CB9CE"/>
<path d="M91.6157 84.1436L86.0157 77.3436C79.2157 82.0436 80.8157 85.6436 80.8157 85.6436C80.8157 85.6436 86.4157 84.5436 88.3157 86.9436C90.2157 89.3436 87.1157 101.644 87.1157 101.644C87.1157 101.644 102.116 83.0436 107.216 114.244C107.616 102.844 105.016 89.0436 91.6157 84.1436Z" fill="#634277"/>
<path opacity="0.28" d="M72.9157 105.044C72.9157 105.044 76.8157 91.9436 82.4157 91.8436C88.0157 91.6436 77.5157 115.244 77.5157 115.244C77.5157 115.244 87.9157 102.244 95.5157 105.044C103.116 107.744 82.9157 131.844 82.9157 131.844C82.9157 131.844 116.316 127.044 91.6157 134.244C91.6157 134.244 111.316 134.144 93.1157 137.244C93.1157 137.244 105.916 142.944 97.7157 143.044C89.6157 143.144 74.2157 134.844 75.6157 121.744C75.6157 121.744 69.9157 138.444 66.7157 145.744C64.1157 151.744 62.0157 145.444 62.6157 139.244C60.7157 145.744 59.4157 150.344 59.4157 150.344H67.0157C67.0157 150.344 69.3157 141.144 72.3157 131.344C78.5157 138.844 90.4157 149.444 109.016 151.744L104.616 136.544L106.516 132.744L104.616 131.744C104.616 131.744 116.016 93.3436 91.6157 84.2436L83.5157 74.4436L47.8157 91.0436L50.3157 100.944L50.9157 102.544C50.9157 102.444 63.5157 118.444 72.9157 105.044Z" fill="#634277"/>
<path opacity="0.28" d="M67.1156 123.544C67.1156 123.544 67.1156 123.644 67.2156 123.844L69.4156 117.144C69.4156 117.144 66.0156 121.744 61.5156 121.944C61.5156 121.944 68.0156 122.344 62.2156 123.444C62.2156 123.444 68.6156 122.844 63.9156 125.844C60.3156 128.244 55.6156 129.244 53.7156 129.644L51.7156 132.244C51.7156 132.144 63.1156 130.244 67.1156 123.544Z" fill="#634277"/>
<path opacity="0.28" d="M157.216 165.044C157.216 165.044 163.516 164.844 160.216 161.144C159.416 160.244 158.716 159.844 158.116 159.944C158.816 160.244 160.416 161.244 159.716 163.044C158.716 165.344 156.416 164.444 156.416 164.444C156.416 164.444 151.216 166.444 151.716 162.244C151.216 163.944 151.916 166.344 155.516 165.444V166.344C155.716 166.044 155.916 165.744 156.216 165.844C156.916 166.044 156.916 170.644 156.916 170.844H157.116H157.216C157.416 170.844 157.216 165.044 157.216 165.044Z" fill="#634277"/>
<path d="M153.016 169.044C153.016 169.044 151.716 173.444 154.016 175.944H157.616V172.944L160.516 175.944H174.916C174.916 175.944 171.316 168.744 158.816 168.644C158.816 168.644 158.716 172.644 153.016 169.044Z" fill="#634277"/>
<path opacity="0.28" d="M157.616 175.944V172.944L160.516 175.944H174.916C174.916 175.944 173.016 172.344 167.516 170.144C168.116 170.544 173.216 174.144 167.816 175.044C162.216 176.044 157.216 171.944 157.216 171.944C157.216 171.944 157.516 174.844 155.816 175.044C154.216 175.244 152.616 172.244 152.516 172.244C152.516 173.544 152.916 174.944 153.816 175.944H157.616V175.944Z" fill="#634277"/>
<path opacity="0.6" d="M50.9158 102.444C50.9158 102.444 62.3158 114.544 72.9158 95.0436C83.5158 75.6436 101.316 80.1436 101.316 80.1436L64.6158 76.3436L50.9158 102.444Z" fill="#634277"/>
<path d="M92.7157 21.8436C92.7157 21.8436 105.216 21.9436 104.616 30.5436C104.616 30.5436 107.616 30.9436 108.716 34.1436C109.816 37.3436 106.716 38.4436 106.716 38.4436C106.716 38.4436 108.216 38.0436 110.016 39.8436C111.816 41.6436 109.616 43.1436 109.616 43.1436C109.616 43.1436 115.416 44.1436 114.816 51.2436C114.216 58.3436 108.916 58.2436 108.916 58.2436C108.916 58.2436 110.716 65.9436 101.016 65.0436C91.2157 64.3436 92.7157 21.8436 92.7157 21.8436Z" fill="url(#paint6_linear_3_674)"/>
<path d="M95.6156 26.6436C95.6156 26.6436 100.916 26.5437 102.516 28.5437C104.116 30.5437 102.016 31.9436 102.016 31.9436C102.016 31.9436 105.616 31.7436 106.416 36.1436C107.216 40.5436 103.116 41.2436 103.116 41.2436C103.116 41.2436 105.516 41.1436 106.516 42.7436C107.416 44.3436 104.616 45.3436 104.616 45.3436C104.616 45.3436 109.616 45.2437 111.216 49.4437C112.816 53.6437 104.616 55.6436 104.616 55.6436C104.616 55.6436 107.516 55.1437 106.916 58.9437C106.316 62.7437 100.116 63.3436 100.116 63.3436C100.116 63.3436 90.1156 34.0436 95.6156 26.6436Z" fill="url(#paint7_linear_3_674)"/>
<path opacity="0.24" d="M100.916 65.1436C110.616 65.9436 108.816 58.3436 108.816 58.3436C108.816 58.3436 114.116 58.4436 114.716 51.3436C115.016 48.2436 114.016 46.2436 112.916 45.0436C109.416 47.2436 106.016 42.1436 106.016 42.1436C100.116 46.5436 99.6157 38.0436 99.6157 38.0436C97.0157 36.1436 95.0157 40.7436 93.6157 47.1436C94.6157 56.3436 96.7157 64.7436 100.916 65.1436Z" fill="#CE0000"/>
<path d="M20.8156 31.6436C20.8156 31.6436 10.5156 39.7436 20.8156 46.8436C20.8156 46.8436 21.3156 69.0436 31.3156 81.0436C41.3156 93.0436 49.7156 103.544 57.3156 102.544C64.9156 101.544 72.7156 88.1436 72.7156 88.1436C72.7156 88.1436 82.5156 86.2436 85.4156 81.9436C85.4156 81.9436 89.2156 88.7436 100.016 82.9436C110.816 77.0436 100.616 71.7436 95.1156 74.5436C95.1156 74.5436 108.716 62.1436 101.416 37.4436C94.0156 12.8436 87.3156 17.1436 87.3156 17.1436C87.3156 17.1436 78.1156 8.44363 65.8156 9.54363C65.8156 9.54363 69.0156 0.643631 49.5156 7.44363C30.0156 14.2436 20.8156 31.6436 20.8156 31.6436Z" fill="url(#paint8_linear_3_674)"/>
<path opacity="0.28" d="M33.9155 81.2437C35.7155 80.8437 41.4155 78.0437 42.0155 77.6437C42.6155 77.2437 44.3155 73.3437 43.3155 71.1437C42.3155 68.8437 32.3155 54.2437 32.3155 54.2437C32.3155 54.2437 32.9155 84.7437 22.4155 59.7437C23.8155 66.7437 26.4155 75.1437 31.3155 81.0437C32.2155 81.2437 33.2155 81.3437 33.9155 81.2437Z" fill="#634277"/>
<path opacity="0.28" d="M29.3156 37.0437C29.3156 37.0437 21.4156 40.1437 19.7156 36.1437C19.7156 36.1437 19.9156 42.4437 31.8156 37.0437C43.7156 31.7437 49.3156 25.8437 49.3156 25.8437L46.6156 28.7437C46.6156 28.7437 53.0156 26.1437 52.6156 31.5437C52.6156 31.5437 52.5156 26.9437 45.9156 29.8437C45.9156 29.8437 51.8156 27.4437 52.0156 32.3437C52.2156 37.2437 54.7156 64.3437 80.8156 64.6437C80.8156 64.6437 72.4156 63.6437 65.8156 58.9437C65.8156 58.9437 80.3156 66.6437 88.5156 60.0437C88.5156 60.0437 85.9156 80.3437 77.2156 75.2437C68.5156 70.1437 68.5156 109.344 35.9156 96.3437C38.8156 98.9437 43.1156 101.544 49.3156 102.344C50.6156 102.544 51.9156 102.444 53.1156 102.144C54.5156 102.644 55.8156 102.744 57.1156 102.644C64.7156 101.644 72.5156 88.2437 72.5156 88.2437C72.5156 88.2437 82.3156 86.3437 85.2156 82.0437C85.2156 82.0437 89.0156 88.8437 99.8156 83.0437C110.616 77.1437 100.416 71.8437 94.9156 74.6437C94.9156 74.6437 108.516 62.2437 101.216 37.5437C94.0156 12.8437 87.3156 17.1437 87.3156 17.1437C87.3156 17.1437 78.1156 8.44368 65.8156 9.54368C65.8156 9.54368 67.6156 4.44368 60.0156 4.94368C62.9156 5.74368 64.9156 7.94368 62.4156 13.1437C62.4156 13.1437 74.1156 10.2437 84.8156 18.1437C84.8156 18.1437 89.1156 16.7437 91.6156 19.2437C94.0156 21.6437 93.8156 42.4437 88.2156 50.3437C82.6156 58.2437 86.8156 29.9437 86.8156 29.9437L91.0156 31.0437C91.0156 31.0437 96.8156 10.0437 65.9156 22.2437C65.9156 22.2437 69.3156 15.3437 58.5156 18.9437C58.5156 18.9437 69.0156 6.04368 53.5156 6.34368C52.3156 6.64368 51.0156 7.14368 49.5156 7.64368C33.2156 13.3437 24.2156 26.4437 21.6156 30.5437C21.1156 31.3437 20.8156 31.8437 20.8156 31.8437C20.8156 31.8437 18.3156 38.6437 29.3156 37.0437Z" fill="#634277"/>
<path opacity="0.28" d="M52.2156 48.0436L59.6156 85.4436L58.3156 83.2436L52.1156 77.8436L48.5156 50.6436C48.6156 50.7436 50.6156 50.3436 52.2156 48.0436Z" fill="#634277"/>
<path d="M27.4155 44.9436C27.4155 44.9436 39.0155 74.4436 36.9155 75.5436C34.8155 76.7436 30.6155 77.5436 30.6155 77.5436C30.6155 77.5436 31.9155 83.0436 41.3155 82.1436C50.7155 81.3436 56.6155 76.9436 56.6155 76.9436L48.2155 47.1436L27.4155 44.9436Z" fill="url(#paint9_linear_3_674)"/>
<path d="M49.9155 53.6436C48.1155 53.4436 46.3155 54.4436 45.0155 56.9436C40.1155 66.3436 49.4155 76.4436 49.9155 76.8436C49.9155 76.8436 51.4155 78.0436 53.3155 78.9436C55.4155 77.9436 56.5155 77.1436 56.5155 77.1436L49.9155 53.6436Z" fill="url(#paint10_linear_3_674)"/>
<path d="M29.6156 36.3437C26.0156 36.3437 22.9156 39.1437 23.1156 42.7437C23.2156 43.8437 23.6156 44.9437 24.5156 45.8437C28.3156 49.5437 29.2156 45.8437 29.2156 45.8437C29.2156 45.8437 30.1156 47.0437 32.0156 46.0437C32.0156 46.0437 33.3156 50.0437 38.5156 47.4437C38.5156 47.4437 40.6156 52.3437 45.2156 49.7437C45.2156 49.7437 45.8156 51.7437 48.7156 51.1437C51.6156 50.5437 54.8156 45.7437 52.1156 38.4437C49.8156 32.2437 38.2156 36.3437 29.6156 36.3437Z" fill="url(#paint11_linear_3_674)"/>
<path d="M58.3156 48.9436C54.1156 43.8436 52.9156 29.0436 66.7156 21.7436C80.5156 14.3436 91.8156 21.8436 91.5156 37.2436C91.2156 55.0436 75.2156 69.3436 58.3156 48.9436Z" fill="url(#paint12_linear_3_674)"/>
<path d="M26.7155 16.4436C16.7155 24.2436 18.4155 33.9436 25.7155 35.8436C33.0155 37.7436 59.5155 23.4436 59.5155 15.8436C59.6155 5.84358 48.0155 -0.156424 26.7155 16.4436Z" fill="url(#paint13_linear_3_674)"/>
<path d="M30.9157 76.3436L29.3157 76.8436L32.5157 84.1436C32.5157 84.1436 44.9157 93.3436 58.4157 83.3436L56.6157 77.1436L55.6157 76.6436C55.5157 76.6436 35.0157 85.7436 30.9157 76.3436Z" fill="#FFF1D2"/>
<path opacity="0.28" d="M36.2157 80.2437C35.6157 80.1437 35.0157 79.9437 34.5157 79.7437L32.8157 80.1437L36.0157 86.0437C36.4157 86.2437 36.9157 86.4437 37.4157 86.5437L34.5157 80.8437L36.2157 80.2437Z" fill="#634277"/>
<path opacity="0.28" d="M41.9155 80.4436C41.7155 80.4436 41.5155 80.4436 41.3155 80.5436L39.9155 81.9436L41.9155 87.8436C42.1155 87.8436 42.3155 87.9436 42.6155 87.9436L41.9155 81.9436V80.4436Z" fill="#634277"/>
<path opacity="0.28" d="M50.3157 86.2436L49.7157 79.9436L48.6157 79.0436C48.3157 79.1436 48.1157 79.1436 47.8157 79.2436L48.6157 80.3436L49.4157 87.4436C49.6157 87.4436 49.7157 87.3436 49.9157 87.3436L50.3157 86.2436Z" fill="#634277"/>
<path d="M59.6156 85.4437C59.6156 85.4437 59.4156 80.3437 56.0156 81.7437C52.6156 83.0437 53.6156 84.6437 53.0156 84.6437C52.5156 84.6437 49.9156 82.1437 48.1156 86.3437C48.1156 86.3437 45.6156 82.1437 40.9156 86.3437C40.9156 86.3437 38.4156 82.2437 34.6156 85.0437C34.6156 85.0437 32.7156 80.1437 30.0156 81.5437C27.3156 82.9437 27.1156 86.9437 31.0156 89.9437C31.0156 89.9437 35.7156 100.844 49.3156 102.344C63.0156 103.944 71.0156 82.5437 59.6156 85.4437Z" fill="url(#paint14_linear_3_674)"/>
<path opacity="0.28" d="M46.6155 30.9437C45.7155 30.4437 38.4155 33.5437 39.3155 34.9437C40.1155 36.4437 47.4155 31.4437 46.6155 30.9437Z" fill="#634277"/>
<path opacity="0.28" d="M47.9155 31.5436C48.5155 31.3436 47.9156 37.1436 46.1156 37.0436C44.3156 36.8436 45.4155 32.2436 47.9155 31.5436Z" fill="#634277"/>
<path opacity="0.28" d="M62.6157 72.0436C62.6157 72.0436 59.3157 61.1436 60.5157 60.1436C61.7157 59.1436 66.7157 72.7436 66.5157 72.6436C66.3157 72.5436 63.9157 63.0436 65.7157 62.6436C67.5157 62.2436 70.1157 76.1436 69.2157 77.5436C68.3157 78.9436 66.7157 73.6436 66.7157 73.6436C66.7157 73.6436 68.2157 79.7436 67.4157 80.1436C66.6157 80.5436 63.4157 73.9436 63.4157 73.9436C63.4157 73.9436 64.0157 76.9436 62.9157 76.7436C61.9157 76.5436 57.7157 65.2436 58.5157 64.7436C59.3157 64.1436 62.6157 72.0436 62.6157 72.0436Z" fill="#634277"/>
<path opacity="0.28" d="M23.2156 42.6436C23.3156 43.7436 23.7156 44.8436 24.6156 45.7436C28.4156 49.4436 29.3156 45.7436 29.3156 45.7436C29.3156 45.7436 30.2156 46.9436 32.1156 45.9436C32.1156 45.9436 33.4156 49.9436 38.6156 47.3436C38.6156 47.3436 40.7156 52.2436 45.3156 49.6436C45.3156 49.6436 45.9156 51.6436 48.8156 51.0436C50.1156 50.8436 51.4156 49.7436 52.3156 47.9436C44.3156 54.3436 47.8156 44.8436 47.8156 44.8436C38.7156 55.9436 40.5156 42.5436 40.5156 42.5436C33.5156 51.7436 33.1156 41.3436 33.1156 41.3436C29.7156 50.4436 29.4156 39.4436 29.4156 39.4436C29.4156 39.4436 29.2156 46.2436 26.4156 45.7436C23.6156 45.1436 23.4156 41.3436 23.4156 41.2436C23.2156 41.7436 23.2156 42.2436 23.2156 42.6436Z" fill="#634277"/>
<path opacity="0.28" d="M34.7157 86.8436C38.7157 80.5436 40.5157 89.0436 40.5157 89.0436C44.9157 81.7436 48.6157 87.9436 48.6157 87.9436C50.0157 81.0436 54.5157 86.2436 54.5157 86.2436C55.2157 78.2436 59.6157 85.4436 59.6157 85.4436L59.2157 83.2436C58.8157 82.0436 57.9157 80.9436 56.1157 81.6436C52.7157 82.9436 53.7157 84.5436 53.1157 84.5436C52.6157 84.5436 50.0157 82.0436 48.2157 86.2436C48.2157 86.2436 45.7157 82.0436 41.0157 86.2436C41.0157 86.2436 38.5157 82.1436 34.7157 84.9436C34.7157 84.9436 32.8157 80.0436 30.1157 81.4436C33.2157 81.3436 34.7157 86.8436 34.7157 86.8436Z" fill="#634277"/>
<path opacity="0.28" d="M30.9157 76.3436L29.3157 76.8436C29.3157 76.8436 34.7157 88.1436 56.5157 77.1436L55.5157 76.6436C55.5157 76.6436 35.0157 85.7436 30.9157 76.3436Z" fill="#634277"/>
<path d="M63.2156 43.1437C64.7156 49.0437 70.3156 51.5437 75.7156 48.6437C81.1156 45.7437 84.2156 38.6437 82.6156 32.7437C81.1156 26.8437 75.5156 24.3437 70.1156 27.2437C64.7156 30.1437 61.6156 37.2437 63.2156 43.1437Z" fill="url(#paint15_linear_3_674)"/>
<path d="M64.2157 42.5437C65.6157 47.8437 70.6157 50.0437 75.4157 47.4437C80.2157 44.8437 83.0157 38.5437 81.6157 33.2437C80.2157 27.9437 75.2157 25.7437 70.4157 28.3437C65.6157 30.9437 62.8157 37.3437 64.2157 42.5437Z" fill="url(#paint16_linear_3_674)"/>
<path d="M67.3156 40.7437C68.1156 44.7437 71.3156 46.6437 74.4156 45.1437C77.5156 43.5437 79.3156 39.1437 78.5156 35.1437C77.7156 31.1437 74.5156 29.2437 71.4156 30.7437C68.3156 32.3437 66.5156 36.7437 67.3156 40.7437Z" fill="url(#paint17_linear_3_674)"/>
<path d="M28.6156 18.2436C24.5156 22.6436 24.8156 27.1436 29.3156 28.2436C33.8156 29.4436 40.7156 26.7436 44.8156 22.4436C48.9156 18.0436 48.6156 13.5436 44.1156 12.4436C39.6156 11.2436 32.7156 13.8436 28.6156 18.2436Z" fill="url(#paint18_linear_3_674)"/>
<path d="M29.5156 18.5437C25.8156 22.4437 26.1156 26.4437 30.1156 27.5437C34.1156 28.5437 40.3156 26.2437 44.0156 22.3437C47.7156 18.4437 47.4156 14.4437 43.4156 13.3437C39.3156 12.2437 33.1156 14.5437 29.5156 18.5437Z" fill="url(#paint19_linear_3_674)"/>
<path d="M32.2156 19.0436C29.4156 21.8436 29.1156 24.7436 31.6156 25.5436C34.1156 26.2436 38.4156 24.5436 41.2156 21.7436C44.0156 18.9436 44.3156 16.0436 41.8156 15.2436C39.3156 14.5436 35.0156 16.2436 32.2156 19.0436Z" fill="url(#paint20_linear_3_674)"/>
<path d="M78.3156 38.2436C80.2156 38.9436 79.8156 34.3436 78.6156 34.7436C77.4156 35.1436 75.5156 37.1436 78.3156 38.2436Z" fill="white"/>
<path d="M41.7155 21.1436C43.0155 22.7436 44.9155 18.5436 43.7155 18.2436C42.5155 18.0436 39.8155 18.7436 41.7155 21.1436Z" fill="white"/>
<path opacity="0.36" d="M91.6157 37.1436C91.9157 21.7436 80.6157 14.2436 66.8157 21.6436C61.4157 24.5436 58.3157 28.5436 56.8157 32.6436C57.0157 32.1436 63.2157 19.9436 76.9157 19.8436C90.9157 19.7436 93.3157 52.3436 76.0157 58.9436C84.9157 58.3436 91.3157 48.4436 91.6157 37.1436Z" fill="#838BC5"/>
<path opacity="0.36" d="M59.6156 15.8436C59.7156 6.34365 49.3156 0.543648 30.3156 13.8436C31.6156 13.0436 45.7156 4.04365 53.8156 8.34365C65.0156 14.3436 35.5156 40.9436 22.5156 34.2436C23.4156 34.9436 24.5156 35.5436 25.7156 35.8436C33.1156 37.8436 59.5156 23.5436 59.6156 15.8436Z" fill="#838BC5"/>
<path opacity="0.67" d="M83.0156 35.6437C88.8156 23.5437 80.8156 20.1437 80.8156 20.1437C80.8156 20.1437 79.3156 19.3437 76.9156 18.7437C73.8156 18.7437 70.4156 19.6437 66.8156 21.6437C58.8156 25.9437 55.8156 32.6437 55.5156 38.6437C56.2156 51.3437 77.9156 46.2437 83.0156 35.6437Z" fill="url(#paint21_linear_3_674)"/>
<path opacity="0.67" d="M52.6156 14.0436C55.9156 10.1436 54.7156 7.84361 53.1156 6.54361C47.6156 4.94361 38.7156 7.14361 26.7156 16.4436C23.7156 18.7436 21.8156 21.2436 20.7156 23.6436C26.5156 26.5436 48.0156 19.4436 52.6156 14.0436Z" fill="url(#paint22_linear_3_674)"/>
<path opacity="0.28" d="M88.3157 80.4436C88.3157 80.4436 98.4157 72.3436 102.716 78.5436C102.716 78.5436 99.5157 75.1436 93.6157 78.2436C93.6157 78.2436 103.216 79.8436 93.3157 83.6436C93.2157 83.7436 103.016 77.5436 88.3157 80.4436Z" fill="#634277"/>
<path opacity="0.28" d="M84.7156 85.4437C84.7156 85.4437 92.5156 85.2437 84.7156 102.444C84.7156 102.444 95.6156 84.6437 84.7156 85.4437Z" fill="#634277"/>
<defs>
<linearGradient id="paint0_linear_3_674" x1="0.162634" y1="92.855" x2="179.925" y2="92.855" gradientUnits="userSpaceOnUse">
<stop stop-color="#00004F"/>
<stop offset="1"/>
</linearGradient>
<linearGradient id="paint1_linear_3_674" x1="5.44348" y1="152.565" x2="27.154" y2="174.276" gradientUnits="userSpaceOnUse">
<stop stop-color="#98D893"/>
<stop offset="0.1593" stop-color="#93D592"/>
<stop offset="0.3358" stop-color="#86CE90"/>
<stop offset="0.5206" stop-color="#70C18D"/>
<stop offset="0.7113" stop-color="#51B088"/>
<stop offset="0.9044" stop-color="#299A82"/>
<stop offset="1" stop-color="#138D7E"/>
</linearGradient>
<linearGradient id="paint2_linear_3_674" x1="57.7131" y1="151.855" x2="83.2601" y2="177.402" gradientUnits="userSpaceOnUse">
<stop offset="0.3116" stop-color="#98D893"/>
<stop offset="1" stop-color="#138D7E"/>
</linearGradient>
<linearGradient id="paint3_linear_3_674" x1="27.1122" y1="111.259" x2="40.6936" y2="124.84" gradientUnits="userSpaceOnUse">
<stop stop-color="#6A72BB"/>
<stop offset="0.0737348" stop-color="#6967AF"/>
<stop offset="0.2484" stop-color="#66529A"/>
<stop offset="0.4404" stop-color="#64438A"/>
<stop offset="0.6611" stop-color="#633B81"/>
<stop offset="0.9754" stop-color="#63387E"/>
</linearGradient>
<linearGradient id="paint4_linear_3_674" x1="86.0092" y1="174.881" x2="86.0092" y2="123.335" gradientUnits="userSpaceOnUse">
<stop stop-color="#6A72BB"/>
<stop offset="0.090742" stop-color="#6263A6"/>
<stop offset="0.276" stop-color="#544981"/>
<stop offset="0.4487" stop-color="#4A3667"/>
<stop offset="0.6023" stop-color="#442B57"/>
<stop offset="0.7211" stop-color="#422751"/>
<stop offset="1" stop-color="#422751"/>
</linearGradient>
<linearGradient id="paint5_linear_3_674" x1="49.2934" y1="89.4628" x2="110.242" y2="150.411" gradientUnits="userSpaceOnUse">
<stop stop-color="#6A72BB"/>
<stop offset="0.2263" stop-color="#696BB4"/>
<stop offset="0.5606" stop-color="#6758A0"/>
<stop offset="0.9604" stop-color="#63397F"/>
<stop offset="0.9754" stop-color="#63387E"/>
</linearGradient>
<linearGradient id="paint6_linear_3_674" x1="110.14" y1="32.6767" x2="88.7177" y2="54.0988" gradientUnits="userSpaceOnUse">
<stop stop-color="#FFA4CC"/>
<stop offset="0.00561202" stop-color="#FFA2CA"/>
<stop offset="0.0770938" stop-color="#FF8CAF"/>
<stop offset="0.1581" stop-color="#FF7A99"/>
<stop offset="0.2539" stop-color="#FF6C88"/>
<stop offset="0.3724" stop-color="#FF627D"/>
<stop offset="0.5385" stop-color="#FF5D76"/>
<stop offset="1" stop-color="#FF5B74"/>
</linearGradient>
<linearGradient id="paint7_linear_3_674" x1="109.238" y1="35.2762" x2="90.6405" y2="53.8738" gradientUnits="userSpaceOnUse">
<stop stop-color="#FFA4CC"/>
<stop offset="0.1205" stop-color="#FF9AC0"/>
<stop offset="0.7128" stop-color="#FF6D89"/>
<stop offset="1" stop-color="#FF5B74"/>
</linearGradient>
<linearGradient id="paint8_linear_3_674" x1="30.4372" y1="19.4442" x2="97.4119" y2="86.419" gradientUnits="userSpaceOnUse">
<stop offset="0.3116" stop-color="#98D893"/>
<stop offset="1" stop-color="#138D7E"/>
</linearGradient>
<linearGradient id="paint9_linear_3_674" x1="51.6877" y1="58.444" x2="26.9203" y2="66.4914" gradientUnits="userSpaceOnUse">
<stop offset="0.3492" stop-color="#44170D"/>
<stop offset="0.4186" stop-color="#4D1A12"/>
<stop offset="0.5316" stop-color="#65231F"/>
<stop offset="0.6742" stop-color="#8D3135"/>
<stop offset="0.8389" stop-color="#C34553"/>
<stop offset="1" stop-color="#FF5B74"/>
</linearGradient>
<linearGradient id="paint10_linear_3_674" x1="56.5198" y1="66.3012" x2="27.3738" y2="66.3012" gradientUnits="userSpaceOnUse">
<stop offset="0.3492" stop-color="#44170D"/>
<stop offset="0.4186" stop-color="#4D1A12"/>
<stop offset="0.5316" stop-color="#65231F"/>
<stop offset="0.6742" stop-color="#8D3135"/>
<stop offset="0.8389" stop-color="#C34553"/>
<stop offset="1" stop-color="#FF5B74"/>
</linearGradient>
<linearGradient id="paint11_linear_3_674" x1="36.7432" y1="53.5983" x2="38.9255" y2="37.4892" gradientUnits="userSpaceOnUse">
<stop stop-color="#138D7E"/>
<stop offset="0.0251481" stop-color="#1A917F"/>
<stop offset="0.2156" stop-color="#47AA86"/>
<stop offset="0.3986" stop-color="#6ABE8C"/>
<stop offset="0.5698" stop-color="#83CC90"/>
<stop offset="0.7248" stop-color="#93D592"/>
<stop offset="0.8492" stop-color="#98D893"/>
</linearGradient>
<linearGradient id="paint12_linear_3_674" x1="73.5288" y1="58.9557" x2="73.5288" y2="18.7846" gradientUnits="userSpaceOnUse">
<stop offset="0.1955" stop-color="#FFFFE7"/>
<stop offset="0.292" stop-color="#FCF8E2"/>
<stop offset="0.4286" stop-color="#F4E6D5"/>
<stop offset="0.5891" stop-color="#E6C7C0"/>
<stop offset="0.7678" stop-color="#D39DA2"/>
<stop offset="0.9594" stop-color="#BB677D"/>
<stop offset="1" stop-color="#B55B74"/>
</linearGradient>
<linearGradient id="paint13_linear_3_674" x1="39.6503" y1="36.0608" x2="39.6503" y2="6.04448" gradientUnits="userSpaceOnUse">
<stop offset="0.1955" stop-color="#FFFFE7"/>
<stop offset="0.292" stop-color="#FCF8E2"/>
<stop offset="0.4286" stop-color="#F4E6D5"/>
<stop offset="0.5891" stop-color="#E6C7C0"/>
<stop offset="0.7678" stop-color="#D39DA2"/>
<stop offset="0.9594" stop-color="#BB677D"/>
<stop offset="1" stop-color="#B55B74"/>
</linearGradient>
<linearGradient id="paint14_linear_3_674" x1="35.1352" y1="76.3023" x2="58.7511" y2="99.9182" gradientUnits="userSpaceOnUse">
<stop stop-color="#98D893"/>
<stop offset="0.3072" stop-color="#7BC88F"/>
<stop offset="0.9296" stop-color="#37A184"/>
</linearGradient>
<linearGradient id="paint15_linear_3_674" x1="76.5385" y1="48.4829" x2="69.2969" y2="27.3739" gradientUnits="userSpaceOnUse">
<stop stop-color="#7EC9E0"/>
<stop offset="0.02609" stop-color="#79C6DE"/>
<stop offset="0.1813" stop-color="#63B7D5"/>
<stop offset="0.3503" stop-color="#53ACCF"/>
<stop offset="0.5419" stop-color="#4AA6CB"/>
<stop offset="0.8045" stop-color="#47A4CA"/>
</linearGradient>
<linearGradient id="paint16_linear_3_674" x1="72.866" y1="27.115" x2="70.8071" y2="48.534" gradientUnits="userSpaceOnUse">
<stop stop-color="#56B8FF"/>
<stop offset="0.1124" stop-color="#67C0FC"/>
<stop offset="0.3425" stop-color="#85CEF7"/>
<stop offset="0.5699" stop-color="#9AD8F4"/>
<stop offset="0.7913" stop-color="#A7DEF2"/>
<stop offset="1" stop-color="#ABE0F1"/>
</linearGradient>
<linearGradient id="paint17_linear_3_674" x1="75.3243" y1="44.8268" x2="70.5107" y2="31.0301" gradientUnits="userSpaceOnUse">
<stop stop-color="#7EC9E0"/>
<stop offset="0.2502" stop-color="#71C0DB"/>
<stop offset="0.7124" stop-color="#4FA9CD"/>
<stop offset="0.8045" stop-color="#47A4CA"/>
</linearGradient>
<linearGradient id="paint18_linear_3_674" x1="30.5022" y1="29.5403" x2="42.9209" y2="11.1815" gradientUnits="userSpaceOnUse">
<stop stop-color="#7EC9E0"/>
<stop offset="0.02609" stop-color="#79C6DE"/>
<stop offset="0.1813" stop-color="#63B7D5"/>
<stop offset="0.3503" stop-color="#53ACCF"/>
<stop offset="0.5419" stop-color="#4AA6CB"/>
<stop offset="0.8045" stop-color="#47A4CA"/>
</linearGradient>
<linearGradient id="paint19_linear_3_674" x1="45.264" y1="13.8548" x2="27.0318" y2="25.0276" gradientUnits="userSpaceOnUse">
<stop stop-color="#56B8FF"/>
<stop offset="0.1124" stop-color="#67C0FC"/>
<stop offset="0.3425" stop-color="#85CEF7"/>
<stop offset="0.5699" stop-color="#9AD8F4"/>
<stop offset="0.7913" stop-color="#A7DEF2"/>
<stop offset="1" stop-color="#ABE0F1"/>
</linearGradient>
<linearGradient id="paint20_linear_3_674" x1="32.6872" y1="26.3773" x2="40.7367" y2="14.345" gradientUnits="userSpaceOnUse">
<stop stop-color="#7EC9E0"/>
<stop offset="0.2502" stop-color="#71C0DB"/>
<stop offset="0.7124" stop-color="#4FA9CD"/>
<stop offset="0.8045" stop-color="#47A4CA"/>
</linearGradient>
<linearGradient id="paint21_linear_3_674" x1="54.5125" y1="17.0015" x2="78.6436" y2="41.1326" gradientUnits="userSpaceOnUse">
<stop stop-color="#6A72BB"/>
<stop offset="0.3004" stop-color="#464B7B"/>
<stop offset="0.8945"/>
</linearGradient>
<linearGradient id="paint22_linear_3_674" x1="24.7498" y1="2.92521" x2="44.237" y2="22.4124" gradientUnits="userSpaceOnUse">
<stop stop-color="#6A72BB"/>
<stop offset="0.2861" stop-color="#464B7B"/>
<stop offset="0.8518"/>
</linearGradient>
</defs>
</svg>
